%TF.GenerationSoftware,KiCad,Pcbnew,(6.0.7)*%
%TF.CreationDate,2022-09-02T18:47:49+01:00*%
%TF.ProjectId,Dayspring_Mini,44617973-7072-4696-9e67-5f4d696e692e,rev?*%
%TF.SameCoordinates,Original*%
%TF.FileFunction,Soldermask,Top*%
%TF.FilePolarity,Negative*%
%FSLAX46Y46*%
G04 Gerber Fmt 4.6, Leading zero omitted, Abs format (unit mm)*
G04 Created by KiCad (PCBNEW (6.0.7)) date 2022-09-02 18:47:49*
%MOMM*%
%LPD*%
G01*
G04 APERTURE LIST*
G04 Aperture macros list*
%AMRoundRect*
0 Rectangle with rounded corners*
0 $1 Rounding radius*
0 $2 $3 $4 $5 $6 $7 $8 $9 X,Y pos of 4 corners*
0 Add a 4 corners polygon primitive as box body*
4,1,4,$2,$3,$4,$5,$6,$7,$8,$9,$2,$3,0*
0 Add four circle primitives for the rounded corners*
1,1,$1+$1,$2,$3*
1,1,$1+$1,$4,$5*
1,1,$1+$1,$6,$7*
1,1,$1+$1,$8,$9*
0 Add four rect primitives between the rounded corners*
20,1,$1+$1,$2,$3,$4,$5,0*
20,1,$1+$1,$4,$5,$6,$7,0*
20,1,$1+$1,$6,$7,$8,$9,0*
20,1,$1+$1,$8,$9,$2,$3,0*%
G04 Aperture macros list end*
%ADD10C,0.800000*%
%ADD11C,6.400000*%
%ADD12R,2.200000X2.200000*%
%ADD13R,2.200000X1.250000*%
%ADD14RoundRect,0.250000X0.625000X-0.312500X0.625000X0.312500X-0.625000X0.312500X-0.625000X-0.312500X0*%
%ADD15RoundRect,0.250000X-0.750000X0.600000X-0.750000X-0.600000X0.750000X-0.600000X0.750000X0.600000X0*%
%ADD16O,2.000000X1.700000*%
%ADD17RoundRect,0.250000X0.750000X-0.600000X0.750000X0.600000X-0.750000X0.600000X-0.750000X-0.600000X0*%
G04 APERTURE END LIST*
D10*
%TO.C,H2*%
X184802944Y-34697056D03*
X188197056Y-31302944D03*
X186500000Y-35400000D03*
X188900000Y-33000000D03*
D11*
X186500000Y-33000000D03*
D10*
X184802944Y-31302944D03*
X184100000Y-33000000D03*
X186500000Y-30600000D03*
X188197056Y-34697056D03*
%TD*%
D12*
%TO.C,D9*%
X138923072Y-34150000D03*
D13*
X138923072Y-31875000D03*
%TD*%
D12*
%TO.C,D3*%
X57230768Y-34150000D03*
D13*
X57230768Y-31875000D03*
%TD*%
D12*
%TO.C,D7*%
X111692304Y-34150000D03*
D13*
X111692304Y-31875000D03*
%TD*%
D14*
%TO.C,R2*%
X78000000Y-34712500D03*
X78000000Y-31787500D03*
%TD*%
D12*
%TO.C,D12*%
X179769224Y-34150000D03*
D13*
X179769224Y-31875000D03*
%TD*%
D12*
%TO.C,D6*%
X98076920Y-34150000D03*
D13*
X98076920Y-31875000D03*
%TD*%
D12*
%TO.C,D13*%
X193384608Y-34150000D03*
D13*
X193384608Y-31875000D03*
%TD*%
D10*
%TO.C,H1*%
X52900000Y-33000000D03*
X50500000Y-30600000D03*
X52197056Y-34697056D03*
X50500000Y-35400000D03*
X52197056Y-31302944D03*
D11*
X50500000Y-33000000D03*
D10*
X48100000Y-33000000D03*
X48802944Y-34697056D03*
X48802944Y-31302944D03*
%TD*%
D14*
%TO.C,R1*%
X63500000Y-34712500D03*
X63500000Y-31787500D03*
%TD*%
D12*
%TO.C,D4*%
X70846152Y-34150000D03*
D13*
X70846152Y-31875000D03*
%TD*%
D14*
%TO.C,R3*%
X146000000Y-34462500D03*
X146000000Y-31537500D03*
%TD*%
D12*
%TO.C,D5*%
X84461536Y-34150000D03*
D13*
X84461536Y-31875000D03*
%TD*%
D12*
%TO.C,D8*%
X125307688Y-34150000D03*
D13*
X125307688Y-31875000D03*
%TD*%
D12*
%TO.C,D11*%
X166153840Y-34150000D03*
D13*
X166153840Y-31875000D03*
%TD*%
D12*
%TO.C,D2*%
X43615384Y-34150000D03*
D13*
X43615384Y-31875000D03*
%TD*%
D14*
%TO.C,R4*%
X173000000Y-34462500D03*
X173000000Y-31537500D03*
%TD*%
D12*
%TO.C,D10*%
X152538456Y-34150000D03*
D13*
X152538456Y-31875000D03*
%TD*%
D12*
%TO.C,D14*%
X207000000Y-34175000D03*
D13*
X207000000Y-31900000D03*
%TD*%
D12*
%TO.C,D1*%
X30000000Y-34150000D03*
D13*
X30000000Y-31875000D03*
%TD*%
D15*
%TO.C,J1*%
X26500000Y-31700000D03*
D16*
X26500000Y-34200000D03*
%TD*%
D17*
%TO.C,J2*%
X210500000Y-34200000D03*
D16*
X210500000Y-31700000D03*
%TD*%
M02*
