M48
; DRILL file {KiCad (6.0.7)} date Fri Sep  2 18:47:47 2022
; FORMAT={-:-/ absolute / metric / decimal}
; #@! TF.CreationDate,2022-09-02T18:47:47+01:00
; #@! TF.GenerationSoftware,Kicad,Pcbnew,(6.0.7)
; #@! TF.FileFunction,Plated,1,2,PTH
FMAT,2
METRIC
; #@! TA.AperFunction,Plated,PTH,ViaDrill
T1C0.400
; #@! TA.AperFunction,Plated,PTH,ComponentDrill
T2C0.500
; #@! TA.AperFunction,Plated,PTH,ComponentDrill
T3C1.000
; #@! TA.AperFunction,Plated,PTH,ComponentDrill
T4C3.200
%
G90
G05
T1
X24.5Y-36.5
X28.5Y-36.5
X33.5Y-36.5
X38.5Y-36.5
X41.5Y-36.5
X45.3Y-36.5
X55.0Y-36.5
X58.0Y-36.5
X63.0Y-36.5
X68.0Y-36.5
X73.0Y-36.5
X78.0Y-36.5
X83.0Y-36.5
X88.0Y-36.5
X93.0Y-36.5
X98.0Y-36.5
X103.0Y-36.5
X108.0Y-36.5
X113.0Y-36.5
X118.0Y-36.5
X123.0Y-36.5
X128.0Y-36.5
X133.0Y-36.5
X138.0Y-36.5
X143.0Y-36.5
X148.0Y-36.5
X153.0Y-36.5
X158.0Y-36.5
X163.0Y-36.5
X168.0Y-36.5
X173.0Y-36.5
X178.0Y-36.5
X181.5Y-36.5
X190.5Y-36.5
X193.5Y-36.5
X198.5Y-36.5
X203.5Y-36.5
X208.5Y-36.5
X212.5Y-36.5
T2
X48.1Y-33.0
X48.803Y-31.303
X48.803Y-34.697
X50.5Y-30.6
X50.5Y-35.4
X52.197Y-31.303
X52.197Y-34.697
X52.9Y-33.0
X184.1Y-33.0
X184.803Y-31.303
X184.803Y-34.697
X186.5Y-30.6
X186.5Y-35.4
X188.197Y-31.303
X188.197Y-34.697
X188.9Y-33.0
T3
X26.5Y-31.7
X26.5Y-34.2
X210.5Y-31.7
X210.5Y-34.2
T4
X50.5Y-33.0
X186.5Y-33.0
T0
M30
