%TF.GenerationSoftware,KiCad,Pcbnew,(6.0.7)*%
%TF.CreationDate,2022-09-02T18:47:48+01:00*%
%TF.ProjectId,Dayspring_Mini,44617973-7072-4696-9e67-5f4d696e692e,rev?*%
%TF.SameCoordinates,Original*%
%TF.FileFunction,Legend,Top*%
%TF.FilePolarity,Positive*%
%FSLAX46Y46*%
G04 Gerber Fmt 4.6, Leading zero omitted, Abs format (unit mm)*
G04 Created by KiCad (PCBNEW (6.0.7)) date 2022-09-02 18:47:48*
%MOMM*%
%LPD*%
G01*
G04 APERTURE LIST*
%ADD10C,0.150000*%
%ADD11C,0.250000*%
%ADD12C,0.120000*%
G04 APERTURE END LIST*
D10*
X213500000Y-37250000D02*
X23500000Y-37250000D01*
X23500000Y-28750000D02*
X213500000Y-28750000D01*
D11*
X24062500Y-34100357D02*
X22919642Y-34100357D01*
X23491071Y-33528928D02*
X23491071Y-34671785D01*
X24062500Y-31685357D02*
X22919642Y-31685357D01*
X214362500Y-34300357D02*
X213219642Y-34300357D01*
X214362500Y-31885357D02*
X213219642Y-31885357D01*
X213791071Y-31313928D02*
X213791071Y-32456785D01*
%TO.C,G\u002A\u002A\u002A*%
G36*
X217663373Y-28813503D02*
G01*
X217731019Y-28903567D01*
X217790881Y-28984066D01*
X217839907Y-29050830D01*
X217875044Y-29099685D01*
X217893238Y-29126461D01*
X217895092Y-29130124D01*
X217878312Y-29132809D01*
X217831210Y-29135201D01*
X217758644Y-29137189D01*
X217665472Y-29138660D01*
X217556552Y-29139503D01*
X217481727Y-29139661D01*
X217068361Y-29139661D01*
X217068361Y-28506420D01*
X217431654Y-28506420D01*
X217663373Y-28813503D01*
G37*
G36*
X221272861Y-36650602D02*
G01*
X221318099Y-36758813D01*
X221363545Y-36868737D01*
X221407254Y-36975537D01*
X221447280Y-37074378D01*
X221481678Y-37160423D01*
X221508501Y-37228837D01*
X221525803Y-37274783D01*
X221531639Y-37293425D01*
X221531571Y-37293580D01*
X221514831Y-37288510D01*
X221474994Y-37271991D01*
X221421893Y-37248151D01*
X221369784Y-37224294D01*
X221293606Y-37189713D01*
X221201402Y-37148046D01*
X221101219Y-37102932D01*
X221034912Y-37073160D01*
X220937380Y-37029371D01*
X220845895Y-36988201D01*
X220767449Y-36952805D01*
X220709033Y-36926335D01*
X220683112Y-36914486D01*
X220645192Y-36896970D01*
X220581672Y-36867605D01*
X220498882Y-36829319D01*
X220403150Y-36785039D01*
X220300804Y-36737691D01*
X220296131Y-36735529D01*
X219979511Y-36589037D01*
X218523936Y-36584342D01*
X217068361Y-36579646D01*
X217068361Y-36301579D01*
X220159947Y-36301579D01*
X220182478Y-36315686D01*
X220230081Y-36340095D01*
X220297162Y-36372326D01*
X220378130Y-36409900D01*
X220467391Y-36450340D01*
X220559353Y-36491167D01*
X220648423Y-36529902D01*
X220729008Y-36564067D01*
X220795515Y-36591183D01*
X220842352Y-36608772D01*
X220863926Y-36614355D01*
X220864693Y-36613898D01*
X220860114Y-36593819D01*
X220844092Y-36546155D01*
X220818465Y-36475899D01*
X220785070Y-36388044D01*
X220745744Y-36287583D01*
X220731162Y-36250976D01*
X220689215Y-36145985D01*
X220651278Y-36050760D01*
X220619460Y-35970609D01*
X220595866Y-35910842D01*
X220582603Y-35876768D01*
X220580915Y-35872244D01*
X220563733Y-35846296D01*
X220552883Y-35841461D01*
X220536194Y-35854064D01*
X220500720Y-35888960D01*
X220450628Y-35941782D01*
X220390085Y-36008163D01*
X220340462Y-36064066D01*
X220276855Y-36138313D01*
X220223685Y-36203844D01*
X220184452Y-36256051D01*
X220162660Y-36290326D01*
X220159947Y-36301579D01*
X217068361Y-36301579D01*
X217068361Y-33478871D01*
X218510743Y-33478871D01*
X218763139Y-33898511D01*
X218829532Y-34008038D01*
X218890722Y-34107349D01*
X218944214Y-34192523D01*
X218987512Y-34259638D01*
X219018120Y-34304773D01*
X219033541Y-34324007D01*
X219034202Y-34324373D01*
X219058588Y-34316223D01*
X219093978Y-34286160D01*
X219132728Y-34242103D01*
X219167193Y-34191971D01*
X219174357Y-34179203D01*
X219196372Y-34113900D01*
X219208652Y-34026151D01*
X219210744Y-33927447D01*
X219202193Y-33829276D01*
X219190525Y-33770461D01*
X219149671Y-33649386D01*
X219085644Y-33510873D01*
X219001449Y-33360988D01*
X218939168Y-33263096D01*
X218895909Y-33201221D01*
X218842198Y-33129180D01*
X218782220Y-33052043D01*
X218720157Y-32974880D01*
X218660191Y-32902760D01*
X218606505Y-32840752D01*
X218563282Y-32793927D01*
X218534705Y-32767353D01*
X218526726Y-32763206D01*
X218521718Y-32780006D01*
X218517405Y-32827253D01*
X218514001Y-32900217D01*
X218511715Y-32994168D01*
X218510759Y-33104376D01*
X218510743Y-33121039D01*
X218510743Y-33478871D01*
X217068361Y-33478871D01*
X217068361Y-29315561D01*
X218044978Y-29315561D01*
X218273463Y-29618778D01*
X218361556Y-29737482D01*
X218431598Y-29837121D01*
X218488100Y-29925620D01*
X218535576Y-30010906D01*
X218578537Y-30100905D01*
X218621494Y-30203543D01*
X218654075Y-30287410D01*
X218670697Y-30321885D01*
X218684132Y-30335782D01*
X218699092Y-30323818D01*
X218735569Y-30290028D01*
X218790309Y-30237564D01*
X218860057Y-30169581D01*
X218941557Y-30089231D01*
X219031556Y-29999669D01*
X219046660Y-29984562D01*
X219149342Y-29881981D01*
X219230219Y-29801937D01*
X219292229Y-29741961D01*
X219338312Y-29699582D01*
X219371408Y-29672332D01*
X219394455Y-29657740D01*
X219410393Y-29653338D01*
X219422161Y-29656656D01*
X219429876Y-29662595D01*
X219438013Y-29671988D01*
X219440347Y-29683507D01*
X219434491Y-29699972D01*
X219418060Y-29724205D01*
X219388666Y-29759026D01*
X219343924Y-29807255D01*
X219281448Y-29871714D01*
X219198850Y-29955223D01*
X219093746Y-30060603D01*
X219089974Y-30064378D01*
X218717747Y-30436908D01*
X218774783Y-30579835D01*
X218806741Y-30652695D01*
X218834417Y-30701759D01*
X218855137Y-30722403D01*
X218857429Y-30722763D01*
X218882220Y-30716528D01*
X218933087Y-30699381D01*
X219003515Y-30673658D01*
X219086988Y-30641697D01*
X219123449Y-30627340D01*
X219266314Y-30570875D01*
X219402575Y-30517475D01*
X219528541Y-30468548D01*
X219640522Y-30425503D01*
X219734828Y-30389750D01*
X219807768Y-30362698D01*
X219855651Y-30345756D01*
X219874788Y-30340332D01*
X219874951Y-30340414D01*
X219882191Y-30358397D01*
X219889743Y-30381580D01*
X219890979Y-30392910D01*
X219885247Y-30404455D01*
X219869200Y-30417796D01*
X219839490Y-30434515D01*
X219792770Y-30456192D01*
X219725693Y-30484408D01*
X219634910Y-30520745D01*
X219517075Y-30566783D01*
X219409502Y-30608409D01*
X219284925Y-30656679D01*
X219170499Y-30701331D01*
X219070486Y-30740676D01*
X218989146Y-30773028D01*
X218930741Y-30796697D01*
X218899532Y-30809998D01*
X218895953Y-30811808D01*
X218887860Y-30827468D01*
X218893002Y-30860466D01*
X218912627Y-30916333D01*
X218928177Y-30954369D01*
X218982360Y-31083359D01*
X219507320Y-31092154D01*
X220032281Y-31100949D01*
X220037902Y-31140526D01*
X220043522Y-31180104D01*
X219023377Y-31180104D01*
X219155076Y-31501122D01*
X219204552Y-31621634D01*
X219257775Y-31751132D01*
X219310149Y-31878439D01*
X219357076Y-31992379D01*
X219384803Y-32059605D01*
X219425924Y-32159352D01*
X219468048Y-32261759D01*
X219506571Y-32355620D01*
X219536888Y-32429727D01*
X219540176Y-32437791D01*
X219596645Y-32576323D01*
X219641907Y-32687251D01*
X219678012Y-32775561D01*
X219707007Y-32846236D01*
X219730940Y-32904261D01*
X219751860Y-32954620D01*
X219771814Y-33002297D01*
X219785928Y-33035852D01*
X219806979Y-33086256D01*
X219839282Y-33164169D01*
X219880755Y-33264543D01*
X219929318Y-33382330D01*
X219982889Y-33512485D01*
X220039385Y-33649959D01*
X220076117Y-33739453D01*
X220153245Y-33927447D01*
X220155510Y-33932969D01*
X220222785Y-34096904D01*
X220279163Y-34234228D01*
X220325868Y-34347912D01*
X220364120Y-34440927D01*
X220395142Y-34516243D01*
X220420157Y-34576832D01*
X220440385Y-34625664D01*
X220457050Y-34665711D01*
X220463236Y-34680519D01*
X220481691Y-34724788D01*
X220503953Y-34778482D01*
X220531241Y-34844573D01*
X220564780Y-34926032D01*
X220605788Y-35025832D01*
X220655489Y-35146945D01*
X220715104Y-35292344D01*
X220785854Y-35464999D01*
X220849997Y-35621586D01*
X220906243Y-35758723D01*
X220960089Y-35889661D01*
X221009621Y-36009770D01*
X221052925Y-36114421D01*
X221088085Y-36198987D01*
X221113189Y-36258838D01*
X221123715Y-36283461D01*
X221152253Y-36350674D01*
X221179111Y-36416804D01*
X221192122Y-36450567D01*
X221211443Y-36500439D01*
X221239012Y-36568858D01*
X221257632Y-36613898D01*
X221269258Y-36642020D01*
X221272861Y-36650602D01*
G37*
D12*
%TO.C,D9*%
X137323072Y-31850000D02*
X137323072Y-35450000D01*
X137323072Y-35450000D02*
X140523072Y-35450000D01*
X140523072Y-31850000D02*
X140523072Y-35450000D01*
%TO.C,D3*%
X58830768Y-31850000D02*
X58830768Y-35450000D01*
X55630768Y-31850000D02*
X55630768Y-35450000D01*
X55630768Y-35450000D02*
X58830768Y-35450000D01*
%TO.C,D7*%
X113292304Y-31850000D02*
X113292304Y-35450000D01*
X110092304Y-31850000D02*
X110092304Y-35450000D01*
X110092304Y-35450000D02*
X113292304Y-35450000D01*
%TO.C,R2*%
X77090000Y-33977064D02*
X77090000Y-32522936D01*
X78910000Y-33977064D02*
X78910000Y-32522936D01*
%TO.C,D12*%
X178169224Y-35450000D02*
X181369224Y-35450000D01*
X178169224Y-31850000D02*
X178169224Y-35450000D01*
X181369224Y-31850000D02*
X181369224Y-35450000D01*
%TO.C,D6*%
X96476920Y-31850000D02*
X96476920Y-35450000D01*
X96476920Y-35450000D02*
X99676920Y-35450000D01*
X99676920Y-31850000D02*
X99676920Y-35450000D01*
%TO.C,D13*%
X191784608Y-31850000D02*
X191784608Y-35450000D01*
X191784608Y-35450000D02*
X194984608Y-35450000D01*
X194984608Y-31850000D02*
X194984608Y-35450000D01*
%TO.C,R1*%
X62590000Y-33977064D02*
X62590000Y-32522936D01*
X64410000Y-33977064D02*
X64410000Y-32522936D01*
%TO.C,D4*%
X72446152Y-31850000D02*
X72446152Y-35450000D01*
X69246152Y-35450000D02*
X72446152Y-35450000D01*
X69246152Y-31850000D02*
X69246152Y-35450000D01*
%TO.C,R3*%
X146910000Y-33727064D02*
X146910000Y-32272936D01*
X145090000Y-33727064D02*
X145090000Y-32272936D01*
%TO.C,D5*%
X86061536Y-31850000D02*
X86061536Y-35450000D01*
X82861536Y-31850000D02*
X82861536Y-35450000D01*
X82861536Y-35450000D02*
X86061536Y-35450000D01*
%TO.C,D8*%
X123707688Y-31850000D02*
X123707688Y-35450000D01*
X126907688Y-31850000D02*
X126907688Y-35450000D01*
X123707688Y-35450000D02*
X126907688Y-35450000D01*
%TO.C,D11*%
X167753840Y-31850000D02*
X167753840Y-35450000D01*
X164553840Y-31850000D02*
X164553840Y-35450000D01*
X164553840Y-35450000D02*
X167753840Y-35450000D01*
%TO.C,D2*%
X45215384Y-31850000D02*
X45215384Y-35450000D01*
X42015384Y-35450000D02*
X45215384Y-35450000D01*
X42015384Y-31850000D02*
X42015384Y-35450000D01*
%TO.C,R4*%
X172090000Y-33727064D02*
X172090000Y-32272936D01*
X173910000Y-33727064D02*
X173910000Y-32272936D01*
%TO.C,D10*%
X150938456Y-35450000D02*
X154138456Y-35450000D01*
X154138456Y-31850000D02*
X154138456Y-35450000D01*
X150938456Y-31850000D02*
X150938456Y-35450000D01*
%TO.C,D14*%
X208600000Y-31875000D02*
X208600000Y-35475000D01*
X205400000Y-35475000D02*
X208600000Y-35475000D01*
X205400000Y-31875000D02*
X205400000Y-35475000D01*
%TO.C,D1*%
X31600000Y-31850000D02*
X31600000Y-35450000D01*
X28400000Y-31850000D02*
X28400000Y-35450000D01*
X28400000Y-35450000D02*
X31600000Y-35450000D01*
%TO.C,G\u002A\u002A\u002A*%
G36*
X19897092Y-37493580D02*
G01*
X19533799Y-37493580D01*
X19302080Y-37186497D01*
X19234434Y-37096433D01*
X19174572Y-37015934D01*
X19125546Y-36949170D01*
X19090409Y-36900315D01*
X19072215Y-36873539D01*
X19070361Y-36869876D01*
X19087141Y-36867191D01*
X19134243Y-36864799D01*
X19206809Y-36862811D01*
X19299981Y-36861340D01*
X19408901Y-36860497D01*
X19483726Y-36860339D01*
X19897092Y-36860339D01*
X19897092Y-37493580D01*
G37*
G36*
X16742668Y-31903096D02*
G01*
X16686290Y-31765772D01*
X16639585Y-31652088D01*
X16601333Y-31559073D01*
X16570311Y-31483757D01*
X16545296Y-31423168D01*
X16525068Y-31374336D01*
X16508403Y-31334289D01*
X16502217Y-31319481D01*
X16483762Y-31275212D01*
X16461500Y-31221518D01*
X16434212Y-31155427D01*
X16400673Y-31073968D01*
X16359665Y-30974168D01*
X16309964Y-30853055D01*
X16250349Y-30707656D01*
X16179599Y-30535001D01*
X16115456Y-30378414D01*
X16059210Y-30241277D01*
X16005364Y-30110339D01*
X15955832Y-29990230D01*
X15912528Y-29885579D01*
X15877368Y-29801013D01*
X15852264Y-29741162D01*
X15841738Y-29716539D01*
X15813200Y-29649326D01*
X15786342Y-29583196D01*
X15773331Y-29549433D01*
X15754010Y-29499561D01*
X15726441Y-29431142D01*
X15707821Y-29386102D01*
X16100760Y-29386102D01*
X16105339Y-29406181D01*
X16121361Y-29453845D01*
X16146988Y-29524101D01*
X16180383Y-29611956D01*
X16219709Y-29712417D01*
X16234291Y-29749024D01*
X16276238Y-29854015D01*
X16314175Y-29949240D01*
X16345993Y-30029391D01*
X16369587Y-30089158D01*
X16382850Y-30123232D01*
X16384538Y-30127756D01*
X16401720Y-30153704D01*
X16412570Y-30158539D01*
X16429259Y-30145936D01*
X16464733Y-30111040D01*
X16514825Y-30058218D01*
X16575368Y-29991837D01*
X16624991Y-29935934D01*
X16688598Y-29861687D01*
X16741768Y-29796156D01*
X16781001Y-29743949D01*
X16802793Y-29709674D01*
X16805506Y-29698421D01*
X16782975Y-29684314D01*
X16735372Y-29659905D01*
X16668291Y-29627674D01*
X16587323Y-29590100D01*
X16498062Y-29549660D01*
X16406100Y-29508833D01*
X16317030Y-29470098D01*
X16236445Y-29435933D01*
X16169938Y-29408817D01*
X16123101Y-29391228D01*
X16101527Y-29385645D01*
X16100760Y-29386102D01*
X15707821Y-29386102D01*
X15696195Y-29357980D01*
X15692592Y-29349398D01*
X15647354Y-29241187D01*
X15601908Y-29131263D01*
X15558199Y-29024463D01*
X15518173Y-28925622D01*
X15483775Y-28839577D01*
X15456952Y-28771163D01*
X15439650Y-28725217D01*
X15433814Y-28706575D01*
X15433882Y-28706420D01*
X15450622Y-28711490D01*
X15490459Y-28728009D01*
X15543560Y-28751849D01*
X15595669Y-28775706D01*
X15671847Y-28810287D01*
X15764051Y-28851954D01*
X15864234Y-28897068D01*
X15930541Y-28926840D01*
X16028073Y-28970629D01*
X16119558Y-29011799D01*
X16198004Y-29047195D01*
X16256420Y-29073665D01*
X16282341Y-29085514D01*
X16320261Y-29103030D01*
X16383781Y-29132395D01*
X16466571Y-29170681D01*
X16562303Y-29214961D01*
X16664649Y-29262309D01*
X16669322Y-29264471D01*
X16985942Y-29410963D01*
X18441517Y-29415658D01*
X19897092Y-29420354D01*
X19897092Y-36684439D01*
X18920475Y-36684439D01*
X18691990Y-36381222D01*
X18603897Y-36262518D01*
X18533855Y-36162879D01*
X18477353Y-36074380D01*
X18429877Y-35989094D01*
X18386916Y-35899095D01*
X18343959Y-35796457D01*
X18311378Y-35712590D01*
X18294756Y-35678115D01*
X18281321Y-35664218D01*
X18266361Y-35676182D01*
X18229884Y-35709972D01*
X18175144Y-35762436D01*
X18105396Y-35830419D01*
X18023896Y-35910769D01*
X17933897Y-36000331D01*
X17918793Y-36015438D01*
X17816111Y-36118019D01*
X17735234Y-36198063D01*
X17673224Y-36258039D01*
X17627141Y-36300418D01*
X17594045Y-36327668D01*
X17570998Y-36342260D01*
X17555060Y-36346662D01*
X17543292Y-36343344D01*
X17535577Y-36337405D01*
X17527440Y-36328012D01*
X17525106Y-36316493D01*
X17530962Y-36300028D01*
X17547393Y-36275795D01*
X17576787Y-36240974D01*
X17621529Y-36192745D01*
X17684005Y-36128286D01*
X17766603Y-36044777D01*
X17871707Y-35939397D01*
X17875479Y-35935622D01*
X18247706Y-35563092D01*
X18190670Y-35420165D01*
X18158712Y-35347305D01*
X18131036Y-35298241D01*
X18110316Y-35277597D01*
X18108024Y-35277237D01*
X18083233Y-35283472D01*
X18032366Y-35300619D01*
X17961938Y-35326342D01*
X17878465Y-35358303D01*
X17842004Y-35372660D01*
X17699139Y-35429125D01*
X17562878Y-35482525D01*
X17436912Y-35531452D01*
X17324931Y-35574497D01*
X17230625Y-35610250D01*
X17157685Y-35637302D01*
X17109802Y-35654244D01*
X17090665Y-35659668D01*
X17090502Y-35659586D01*
X17083262Y-35641603D01*
X17075710Y-35618420D01*
X17074474Y-35607090D01*
X17080206Y-35595545D01*
X17096253Y-35582204D01*
X17125963Y-35565485D01*
X17172683Y-35543808D01*
X17239760Y-35515592D01*
X17330543Y-35479255D01*
X17448378Y-35433217D01*
X17555951Y-35391591D01*
X17680528Y-35343321D01*
X17794954Y-35298669D01*
X17894967Y-35259324D01*
X17976307Y-35226972D01*
X18034712Y-35203303D01*
X18065921Y-35190002D01*
X18069500Y-35188192D01*
X18077593Y-35172532D01*
X18072451Y-35139534D01*
X18052826Y-35083667D01*
X18037276Y-35045631D01*
X17983093Y-34916641D01*
X17458133Y-34907846D01*
X16933172Y-34899051D01*
X16927551Y-34859474D01*
X16921931Y-34819896D01*
X17942076Y-34819896D01*
X17810377Y-34498878D01*
X17760901Y-34378366D01*
X17707678Y-34248868D01*
X17655304Y-34121561D01*
X17608377Y-34007621D01*
X17580650Y-33940395D01*
X17539529Y-33840648D01*
X17497405Y-33738241D01*
X17458882Y-33644380D01*
X17428565Y-33570273D01*
X17425277Y-33562209D01*
X17368808Y-33423677D01*
X17323546Y-33312749D01*
X17287441Y-33224439D01*
X17258446Y-33153764D01*
X17234513Y-33095739D01*
X17213593Y-33045380D01*
X17193639Y-32997703D01*
X17179525Y-32964148D01*
X17158474Y-32913744D01*
X17126171Y-32835831D01*
X17084698Y-32735457D01*
X17036135Y-32617670D01*
X16982564Y-32487515D01*
X16926068Y-32350041D01*
X16889336Y-32260547D01*
X16812208Y-32072553D01*
X17754709Y-32072553D01*
X17763260Y-32170724D01*
X17774928Y-32229539D01*
X17815782Y-32350614D01*
X17879809Y-32489127D01*
X17964004Y-32639012D01*
X18026285Y-32736904D01*
X18069544Y-32798779D01*
X18123255Y-32870820D01*
X18183233Y-32947957D01*
X18245296Y-33025120D01*
X18305262Y-33097240D01*
X18358948Y-33159248D01*
X18402171Y-33206073D01*
X18430748Y-33232647D01*
X18438727Y-33236794D01*
X18443735Y-33219994D01*
X18448048Y-33172747D01*
X18451452Y-33099783D01*
X18453738Y-33005832D01*
X18454694Y-32895624D01*
X18454710Y-32878961D01*
X18454710Y-32521129D01*
X18202314Y-32101489D01*
X18135921Y-31991962D01*
X18074731Y-31892651D01*
X18021239Y-31807477D01*
X17977941Y-31740362D01*
X17947333Y-31695227D01*
X17931912Y-31675993D01*
X17931251Y-31675627D01*
X17906865Y-31683777D01*
X17871475Y-31713840D01*
X17832725Y-31757897D01*
X17798260Y-31808029D01*
X17791096Y-31820797D01*
X17769081Y-31886100D01*
X17756801Y-31973849D01*
X17754709Y-32072553D01*
X16812208Y-32072553D01*
X16809943Y-32067031D01*
X16742668Y-31903096D01*
G37*
%TD*%
M02*
