%TF.GenerationSoftware,KiCad,Pcbnew,(6.0.7)*%
%TF.CreationDate,2022-09-02T18:47:48+01:00*%
%TF.ProjectId,Dayspring_Mini,44617973-7072-4696-9e67-5f4d696e692e,rev?*%
%TF.SameCoordinates,Original*%
%TF.FileFunction,Copper,L2,Bot*%
%TF.FilePolarity,Positive*%
%FSLAX46Y46*%
G04 Gerber Fmt 4.6, Leading zero omitted, Abs format (unit mm)*
G04 Created by KiCad (PCBNEW (6.0.7)) date 2022-09-02 18:47:48*
%MOMM*%
%LPD*%
G01*
G04 APERTURE LIST*
G04 Aperture macros list*
%AMRoundRect*
0 Rectangle with rounded corners*
0 $1 Rounding radius*
0 $2 $3 $4 $5 $6 $7 $8 $9 X,Y pos of 4 corners*
0 Add a 4 corners polygon primitive as box body*
4,1,4,$2,$3,$4,$5,$6,$7,$8,$9,$2,$3,0*
0 Add four circle primitives for the rounded corners*
1,1,$1+$1,$2,$3*
1,1,$1+$1,$4,$5*
1,1,$1+$1,$6,$7*
1,1,$1+$1,$8,$9*
0 Add four rect primitives between the rounded corners*
20,1,$1+$1,$2,$3,$4,$5,0*
20,1,$1+$1,$4,$5,$6,$7,0*
20,1,$1+$1,$6,$7,$8,$9,0*
20,1,$1+$1,$8,$9,$2,$3,0*%
G04 Aperture macros list end*
%TA.AperFunction,ComponentPad*%
%ADD10C,0.800000*%
%TD*%
%TA.AperFunction,ComponentPad*%
%ADD11C,6.400000*%
%TD*%
%TA.AperFunction,ComponentPad*%
%ADD12RoundRect,0.250000X-0.750000X0.600000X-0.750000X-0.600000X0.750000X-0.600000X0.750000X0.600000X0*%
%TD*%
%TA.AperFunction,ComponentPad*%
%ADD13O,2.000000X1.700000*%
%TD*%
%TA.AperFunction,ComponentPad*%
%ADD14RoundRect,0.250000X0.750000X-0.600000X0.750000X0.600000X-0.750000X0.600000X-0.750000X-0.600000X0*%
%TD*%
%TA.AperFunction,ViaPad*%
%ADD15C,0.800000*%
%TD*%
G04 APERTURE END LIST*
D10*
%TO.P,H2,1,1*%
%TO.N,GND*%
X184802944Y-34697056D03*
X188197056Y-31302944D03*
X186500000Y-35400000D03*
X188900000Y-33000000D03*
D11*
X186500000Y-33000000D03*
D10*
X184802944Y-31302944D03*
X184100000Y-33000000D03*
X186500000Y-30600000D03*
X188197056Y-34697056D03*
%TD*%
%TO.P,H1,1,1*%
%TO.N,GND*%
X52900000Y-33000000D03*
X50500000Y-30600000D03*
X52197056Y-34697056D03*
X50500000Y-35400000D03*
X52197056Y-31302944D03*
D11*
X50500000Y-33000000D03*
D10*
X48100000Y-33000000D03*
X48802944Y-34697056D03*
X48802944Y-31302944D03*
%TD*%
D12*
%TO.P,J1,1,Pin_1*%
%TO.N,GND*%
X26500000Y-31700000D03*
D13*
%TO.P,J1,2,Pin_2*%
%TO.N,+24V*%
X26500000Y-34200000D03*
%TD*%
D14*
%TO.P,J2,1,Pin_1*%
%TO.N,GND*%
X210500000Y-34200000D03*
D13*
%TO.P,J2,2,Pin_2*%
%TO.N,+24V*%
X210500000Y-31700000D03*
%TD*%
D15*
%TO.N,GND*%
X173000000Y-36500000D03*
X193500000Y-36500000D03*
X133000000Y-36500000D03*
X148000000Y-36500000D03*
X113000000Y-36500000D03*
X128000000Y-36500000D03*
X178000000Y-36500000D03*
X33500000Y-36500000D03*
X153000000Y-36500000D03*
X108000000Y-36500000D03*
X163000000Y-36500000D03*
X98000000Y-36500000D03*
X203500000Y-36500000D03*
X28500000Y-36500000D03*
X24500000Y-36500000D03*
X88000000Y-36500000D03*
X45300000Y-36500000D03*
X78000000Y-36500000D03*
X190500000Y-36500000D03*
X138000000Y-36500000D03*
X181500000Y-36500000D03*
X68000000Y-36500000D03*
X212500000Y-36500000D03*
X123000000Y-36500000D03*
X198500000Y-36500000D03*
X55000000Y-36500000D03*
X118000000Y-36500000D03*
X93000000Y-36500000D03*
X38500000Y-36500000D03*
X168000000Y-36500000D03*
X143000000Y-36500000D03*
X58000000Y-36500000D03*
X158000000Y-36500000D03*
X63000000Y-36500000D03*
X103000000Y-36500000D03*
X41500000Y-36500000D03*
X208500000Y-36500000D03*
X83000000Y-36500000D03*
X73000000Y-36500000D03*
%TD*%
%TA.AperFunction,Conductor*%
%TO.N,GND*%
G36*
X219354984Y-28028502D02*
G01*
X219362926Y-28034049D01*
X219630541Y-28236709D01*
X220085092Y-28580933D01*
X220125551Y-28633447D01*
X222982026Y-35577472D01*
X222991500Y-35625406D01*
X222991500Y-37237181D01*
X222971498Y-37305302D01*
X222954596Y-37326276D01*
X222326278Y-37954595D01*
X222263965Y-37988620D01*
X222237182Y-37991500D01*
X17713138Y-37991500D01*
X17645017Y-37971498D01*
X17637071Y-37965948D01*
X17622080Y-37954595D01*
X17098448Y-37558057D01*
X16914909Y-37419066D01*
X16874450Y-37366552D01*
X16225581Y-35789167D01*
X48070322Y-35789167D01*
X48077780Y-35799536D01*
X48319639Y-35995389D01*
X48324982Y-35999271D01*
X48644691Y-36206893D01*
X48650400Y-36210189D01*
X48990074Y-36383262D01*
X48996085Y-36385938D01*
X49351982Y-36522554D01*
X49358259Y-36524594D01*
X49726482Y-36623258D01*
X49732932Y-36624629D01*
X50109466Y-36684267D01*
X50116004Y-36684953D01*
X50496699Y-36704905D01*
X50503301Y-36704905D01*
X50883996Y-36684953D01*
X50890534Y-36684267D01*
X51267068Y-36624629D01*
X51273518Y-36623258D01*
X51641741Y-36524594D01*
X51648018Y-36522554D01*
X52003915Y-36385938D01*
X52009926Y-36383262D01*
X52349600Y-36210189D01*
X52355309Y-36206893D01*
X52675018Y-35999271D01*
X52680361Y-35995389D01*
X52921269Y-35800305D01*
X52928963Y-35789167D01*
X184070322Y-35789167D01*
X184077780Y-35799536D01*
X184319639Y-35995389D01*
X184324982Y-35999271D01*
X184644691Y-36206893D01*
X184650400Y-36210189D01*
X184990074Y-36383262D01*
X184996085Y-36385938D01*
X185351982Y-36522554D01*
X185358259Y-36524594D01*
X185726482Y-36623258D01*
X185732932Y-36624629D01*
X186109466Y-36684267D01*
X186116004Y-36684953D01*
X186496699Y-36704905D01*
X186503301Y-36704905D01*
X186883996Y-36684953D01*
X186890534Y-36684267D01*
X187267068Y-36624629D01*
X187273518Y-36623258D01*
X187641741Y-36524594D01*
X187648018Y-36522554D01*
X188003915Y-36385938D01*
X188009926Y-36383262D01*
X188349600Y-36210189D01*
X188355309Y-36206893D01*
X188675018Y-35999271D01*
X188680361Y-35995389D01*
X188921269Y-35800305D01*
X188929737Y-35788047D01*
X188923404Y-35776957D01*
X186512812Y-33366365D01*
X186498868Y-33358751D01*
X186497035Y-33358882D01*
X186490420Y-33363133D01*
X184077462Y-35776091D01*
X184070322Y-35789167D01*
X52928963Y-35789167D01*
X52929737Y-35788047D01*
X52923404Y-35776957D01*
X50512812Y-33366365D01*
X50498868Y-33358751D01*
X50497035Y-33358882D01*
X50490420Y-33363133D01*
X48077462Y-35776091D01*
X48070322Y-35789167D01*
X16225581Y-35789167D01*
X15545446Y-34135774D01*
X24988102Y-34135774D01*
X24996751Y-34366158D01*
X25044093Y-34591791D01*
X25128776Y-34806221D01*
X25131543Y-34810780D01*
X25131544Y-34810783D01*
X25155099Y-34849600D01*
X25248377Y-35003317D01*
X25251874Y-35007347D01*
X25338438Y-35107103D01*
X25399477Y-35177445D01*
X25403608Y-35180832D01*
X25573627Y-35320240D01*
X25573633Y-35320244D01*
X25577755Y-35323624D01*
X25582391Y-35326263D01*
X25582394Y-35326265D01*
X25634303Y-35355813D01*
X25778114Y-35437675D01*
X25994825Y-35516337D01*
X26000074Y-35517286D01*
X26000077Y-35517287D01*
X26217608Y-35556623D01*
X26217615Y-35556624D01*
X26221692Y-35557361D01*
X26239414Y-35558197D01*
X26244356Y-35558430D01*
X26244363Y-35558430D01*
X26245844Y-35558500D01*
X26707890Y-35558500D01*
X26774809Y-35552822D01*
X26874409Y-35544371D01*
X26874413Y-35544370D01*
X26879720Y-35543920D01*
X26884875Y-35542582D01*
X26884881Y-35542581D01*
X27097703Y-35487343D01*
X27097707Y-35487342D01*
X27102872Y-35486001D01*
X27107738Y-35483809D01*
X27107741Y-35483808D01*
X27308202Y-35393507D01*
X27313075Y-35391312D01*
X27504319Y-35262559D01*
X27671135Y-35103424D01*
X27808754Y-34918458D01*
X27913240Y-34712949D01*
X27949321Y-34596752D01*
X27980024Y-34497871D01*
X27981607Y-34492773D01*
X27987276Y-34450000D01*
X28011198Y-34269511D01*
X28011198Y-34269506D01*
X28011898Y-34264226D01*
X28003249Y-34033842D01*
X27955907Y-33808209D01*
X27871224Y-33593779D01*
X27846742Y-33553433D01*
X27754390Y-33401243D01*
X27751623Y-33396683D01*
X27740614Y-33383996D01*
X27604023Y-33226588D01*
X27604021Y-33226586D01*
X27600523Y-33222555D01*
X27557932Y-33187633D01*
X27517938Y-33128974D01*
X27516006Y-33058004D01*
X27549093Y-33003301D01*
X46795095Y-33003301D01*
X46815047Y-33383996D01*
X46815733Y-33390534D01*
X46875371Y-33767068D01*
X46876742Y-33773518D01*
X46975406Y-34141741D01*
X46977446Y-34148018D01*
X47114062Y-34503915D01*
X47116738Y-34509926D01*
X47289811Y-34849600D01*
X47293107Y-34855309D01*
X47500729Y-35175018D01*
X47504611Y-35180361D01*
X47699695Y-35421269D01*
X47711953Y-35429737D01*
X47723043Y-35423404D01*
X50133635Y-33012812D01*
X50140013Y-33001132D01*
X50858751Y-33001132D01*
X50858882Y-33002965D01*
X50863133Y-33009580D01*
X53276091Y-35422538D01*
X53289167Y-35429678D01*
X53299536Y-35422220D01*
X53495389Y-35180361D01*
X53499271Y-35175018D01*
X53706893Y-34855309D01*
X53710189Y-34849600D01*
X53883262Y-34509926D01*
X53885938Y-34503915D01*
X54022554Y-34148018D01*
X54024594Y-34141741D01*
X54123258Y-33773518D01*
X54124629Y-33767068D01*
X54184267Y-33390534D01*
X54184953Y-33383996D01*
X54204905Y-33003301D01*
X182795095Y-33003301D01*
X182815047Y-33383996D01*
X182815733Y-33390534D01*
X182875371Y-33767068D01*
X182876742Y-33773518D01*
X182975406Y-34141741D01*
X182977446Y-34148018D01*
X183114062Y-34503915D01*
X183116738Y-34509926D01*
X183289811Y-34849600D01*
X183293107Y-34855309D01*
X183500729Y-35175018D01*
X183504611Y-35180361D01*
X183699695Y-35421269D01*
X183711953Y-35429737D01*
X183723043Y-35423404D01*
X186133635Y-33012812D01*
X186140013Y-33001132D01*
X186858751Y-33001132D01*
X186858882Y-33002965D01*
X186863133Y-33009580D01*
X189276091Y-35422538D01*
X189289167Y-35429678D01*
X189299536Y-35422220D01*
X189495389Y-35180361D01*
X189499271Y-35175018D01*
X189706893Y-34855309D01*
X189710189Y-34849600D01*
X189711734Y-34846567D01*
X209000001Y-34846567D01*
X209000339Y-34853087D01*
X209010140Y-34947560D01*
X209013031Y-34960951D01*
X209063882Y-35113368D01*
X209070056Y-35126547D01*
X209154374Y-35262804D01*
X209163410Y-35274205D01*
X209276821Y-35387418D01*
X209288232Y-35396430D01*
X209424646Y-35480516D01*
X209437827Y-35486663D01*
X209590343Y-35537251D01*
X209603719Y-35540118D01*
X209696966Y-35549672D01*
X209703382Y-35550000D01*
X210231885Y-35550000D01*
X210247124Y-35545525D01*
X210248329Y-35544135D01*
X210250000Y-35536452D01*
X210250000Y-35531884D01*
X210750000Y-35531884D01*
X210754475Y-35547123D01*
X210755865Y-35548328D01*
X210763548Y-35549999D01*
X211296567Y-35549999D01*
X211303087Y-35549661D01*
X211397560Y-35539860D01*
X211410951Y-35536969D01*
X211563368Y-35486118D01*
X211576547Y-35479944D01*
X211712804Y-35395626D01*
X211724205Y-35386590D01*
X211837418Y-35273179D01*
X211846430Y-35261768D01*
X211930516Y-35125354D01*
X211936663Y-35112173D01*
X211987251Y-34959657D01*
X211990118Y-34946281D01*
X211999672Y-34853034D01*
X212000000Y-34846618D01*
X212000000Y-34468115D01*
X211995525Y-34452876D01*
X211994135Y-34451671D01*
X211986452Y-34450000D01*
X210768115Y-34450000D01*
X210752876Y-34454475D01*
X210751671Y-34455865D01*
X210750000Y-34463548D01*
X210750000Y-35531884D01*
X210250000Y-35531884D01*
X210250000Y-34468115D01*
X210245525Y-34452876D01*
X210244135Y-34451671D01*
X210236452Y-34450000D01*
X209018116Y-34450000D01*
X209002877Y-34454475D01*
X209001672Y-34455865D01*
X209000001Y-34463548D01*
X209000001Y-34846567D01*
X189711734Y-34846567D01*
X189883262Y-34509926D01*
X189885938Y-34503915D01*
X190022554Y-34148018D01*
X190024594Y-34141741D01*
X190123258Y-33773518D01*
X190124629Y-33767068D01*
X190184267Y-33390534D01*
X190184953Y-33383996D01*
X190204905Y-33003301D01*
X190204905Y-32996699D01*
X190184953Y-32616004D01*
X190184267Y-32609466D01*
X190124629Y-32232932D01*
X190123258Y-32226482D01*
X190024594Y-31858259D01*
X190022554Y-31851982D01*
X189939560Y-31635774D01*
X208988102Y-31635774D01*
X208996751Y-31866158D01*
X209044093Y-32091791D01*
X209046051Y-32096750D01*
X209046052Y-32096752D01*
X209099833Y-32232932D01*
X209128776Y-32306221D01*
X209131543Y-32310780D01*
X209131544Y-32310783D01*
X209157183Y-32353034D01*
X209248377Y-32503317D01*
X209251874Y-32507347D01*
X209361461Y-32633635D01*
X209399477Y-32677445D01*
X209442068Y-32712367D01*
X209482062Y-32771026D01*
X209483994Y-32841996D01*
X209447250Y-32902745D01*
X209428480Y-32916945D01*
X209287196Y-33004374D01*
X209275795Y-33013410D01*
X209162582Y-33126821D01*
X209153570Y-33138232D01*
X209069484Y-33274646D01*
X209063337Y-33287827D01*
X209012749Y-33440343D01*
X209009882Y-33453719D01*
X209000328Y-33546966D01*
X209000000Y-33553383D01*
X209000000Y-33931885D01*
X209004475Y-33947124D01*
X209005865Y-33948329D01*
X209013548Y-33950000D01*
X211981884Y-33950000D01*
X211997123Y-33945525D01*
X211998328Y-33944135D01*
X211999999Y-33936452D01*
X211999999Y-33553433D01*
X211999661Y-33546913D01*
X211989860Y-33452440D01*
X211986969Y-33439049D01*
X211936118Y-33286632D01*
X211929944Y-33273453D01*
X211845626Y-33137196D01*
X211836590Y-33125795D01*
X211723179Y-33012582D01*
X211711768Y-33003570D01*
X211571302Y-32916986D01*
X211523809Y-32864214D01*
X211512385Y-32794142D01*
X211540659Y-32729019D01*
X211550446Y-32718556D01*
X211631484Y-32641249D01*
X211671135Y-32603424D01*
X211808754Y-32418458D01*
X211913240Y-32212949D01*
X211949321Y-32096752D01*
X211980024Y-31997871D01*
X211981607Y-31992773D01*
X211987276Y-31950000D01*
X212011198Y-31769511D01*
X212011198Y-31769506D01*
X212011898Y-31764226D01*
X212003249Y-31533842D01*
X211955907Y-31308209D01*
X211871224Y-31093779D01*
X211846742Y-31053433D01*
X211754390Y-30901243D01*
X211751623Y-30896683D01*
X211664755Y-30796576D01*
X211604023Y-30726588D01*
X211604021Y-30726586D01*
X211600523Y-30722555D01*
X211558970Y-30688484D01*
X211426373Y-30579760D01*
X211426367Y-30579756D01*
X211422245Y-30576376D01*
X211417609Y-30573737D01*
X211417606Y-30573735D01*
X211226529Y-30464968D01*
X211221886Y-30462325D01*
X211005175Y-30383663D01*
X210999926Y-30382714D01*
X210999923Y-30382713D01*
X210782392Y-30343377D01*
X210782385Y-30343376D01*
X210778308Y-30342639D01*
X210760586Y-30341803D01*
X210755644Y-30341570D01*
X210755637Y-30341570D01*
X210754156Y-30341500D01*
X210292110Y-30341500D01*
X210225191Y-30347178D01*
X210125591Y-30355629D01*
X210125587Y-30355630D01*
X210120280Y-30356080D01*
X210115125Y-30357418D01*
X210115119Y-30357419D01*
X209902297Y-30412657D01*
X209902293Y-30412658D01*
X209897128Y-30413999D01*
X209892262Y-30416191D01*
X209892259Y-30416192D01*
X209783980Y-30464968D01*
X209686925Y-30508688D01*
X209495681Y-30637441D01*
X209491824Y-30641120D01*
X209491822Y-30641122D01*
X209422464Y-30707287D01*
X209328865Y-30796576D01*
X209191246Y-30981542D01*
X209086760Y-31187051D01*
X209085178Y-31192145D01*
X209085177Y-31192148D01*
X209023115Y-31392020D01*
X209018393Y-31407227D01*
X209017692Y-31412516D01*
X209002304Y-31528623D01*
X208988102Y-31635774D01*
X189939560Y-31635774D01*
X189885938Y-31496085D01*
X189883262Y-31490074D01*
X189710189Y-31150400D01*
X189706893Y-31144691D01*
X189499271Y-30824982D01*
X189495389Y-30819639D01*
X189300305Y-30578731D01*
X189288047Y-30570263D01*
X189276957Y-30576596D01*
X186866365Y-32987188D01*
X186858751Y-33001132D01*
X186140013Y-33001132D01*
X186141249Y-32998868D01*
X186141118Y-32997035D01*
X186136867Y-32990420D01*
X183723909Y-30577462D01*
X183710833Y-30570322D01*
X183700464Y-30577780D01*
X183504611Y-30819639D01*
X183500729Y-30824982D01*
X183293107Y-31144691D01*
X183289811Y-31150400D01*
X183116738Y-31490074D01*
X183114062Y-31496085D01*
X182977446Y-31851982D01*
X182975406Y-31858259D01*
X182876742Y-32226482D01*
X182875371Y-32232932D01*
X182815733Y-32609466D01*
X182815047Y-32616004D01*
X182795095Y-32996699D01*
X182795095Y-33003301D01*
X54204905Y-33003301D01*
X54204905Y-32996699D01*
X54184953Y-32616004D01*
X54184267Y-32609466D01*
X54124629Y-32232932D01*
X54123258Y-32226482D01*
X54024594Y-31858259D01*
X54022554Y-31851982D01*
X53885938Y-31496085D01*
X53883262Y-31490074D01*
X53710189Y-31150400D01*
X53706893Y-31144691D01*
X53499271Y-30824982D01*
X53495389Y-30819639D01*
X53300305Y-30578731D01*
X53288047Y-30570263D01*
X53276957Y-30576596D01*
X50866365Y-32987188D01*
X50858751Y-33001132D01*
X50140013Y-33001132D01*
X50141249Y-32998868D01*
X50141118Y-32997035D01*
X50136867Y-32990420D01*
X47723909Y-30577462D01*
X47710833Y-30570322D01*
X47700464Y-30577780D01*
X47504611Y-30819639D01*
X47500729Y-30824982D01*
X47293107Y-31144691D01*
X47289811Y-31150400D01*
X47116738Y-31490074D01*
X47114062Y-31496085D01*
X46977446Y-31851982D01*
X46975406Y-31858259D01*
X46876742Y-32226482D01*
X46875371Y-32232932D01*
X46815733Y-32609466D01*
X46815047Y-32616004D01*
X46795095Y-32996699D01*
X46795095Y-33003301D01*
X27549093Y-33003301D01*
X27552750Y-32997255D01*
X27571520Y-32983055D01*
X27712804Y-32895626D01*
X27724205Y-32886590D01*
X27837418Y-32773179D01*
X27846430Y-32761768D01*
X27930516Y-32625354D01*
X27936663Y-32612173D01*
X27987251Y-32459657D01*
X27990118Y-32446281D01*
X27999672Y-32353034D01*
X28000000Y-32346618D01*
X28000000Y-31968115D01*
X27995525Y-31952876D01*
X27994135Y-31951671D01*
X27986452Y-31950000D01*
X25018116Y-31950000D01*
X25002877Y-31954475D01*
X25001672Y-31955865D01*
X25000001Y-31963548D01*
X25000001Y-32346567D01*
X25000339Y-32353087D01*
X25010140Y-32447560D01*
X25013031Y-32460951D01*
X25063882Y-32613368D01*
X25070056Y-32626547D01*
X25154374Y-32762804D01*
X25163410Y-32774205D01*
X25276821Y-32887418D01*
X25288232Y-32896430D01*
X25428698Y-32983014D01*
X25476191Y-33035786D01*
X25487615Y-33105858D01*
X25459341Y-33170981D01*
X25449554Y-33181444D01*
X25328865Y-33296576D01*
X25191246Y-33481542D01*
X25086760Y-33687051D01*
X25085178Y-33692145D01*
X25085177Y-33692148D01*
X25023115Y-33892020D01*
X25018393Y-33907227D01*
X25017692Y-33912516D01*
X25002304Y-34028623D01*
X24988102Y-34135774D01*
X15545446Y-34135774D01*
X14433181Y-31431885D01*
X25000000Y-31431885D01*
X25004475Y-31447124D01*
X25005865Y-31448329D01*
X25013548Y-31450000D01*
X26231885Y-31450000D01*
X26247124Y-31445525D01*
X26248329Y-31444135D01*
X26250000Y-31436452D01*
X26250000Y-31431885D01*
X26750000Y-31431885D01*
X26754475Y-31447124D01*
X26755865Y-31448329D01*
X26763548Y-31450000D01*
X27981884Y-31450000D01*
X27997123Y-31445525D01*
X27998328Y-31444135D01*
X27999999Y-31436452D01*
X27999999Y-31053433D01*
X27999661Y-31046913D01*
X27989860Y-30952440D01*
X27986969Y-30939049D01*
X27936118Y-30786632D01*
X27929944Y-30773453D01*
X27845626Y-30637196D01*
X27836590Y-30625795D01*
X27723179Y-30512582D01*
X27711768Y-30503570D01*
X27575354Y-30419484D01*
X27562173Y-30413337D01*
X27409657Y-30362749D01*
X27396281Y-30359882D01*
X27303034Y-30350328D01*
X27296617Y-30350000D01*
X26768115Y-30350000D01*
X26752876Y-30354475D01*
X26751671Y-30355865D01*
X26750000Y-30363548D01*
X26750000Y-31431885D01*
X26250000Y-31431885D01*
X26250000Y-30368116D01*
X26245525Y-30352877D01*
X26244135Y-30351672D01*
X26236452Y-30350001D01*
X25703433Y-30350001D01*
X25696913Y-30350339D01*
X25602440Y-30360140D01*
X25589049Y-30363031D01*
X25436632Y-30413882D01*
X25423453Y-30420056D01*
X25287196Y-30504374D01*
X25275795Y-30513410D01*
X25162582Y-30626821D01*
X25153570Y-30638232D01*
X25069484Y-30774646D01*
X25063337Y-30787827D01*
X25012749Y-30940343D01*
X25009882Y-30953719D01*
X25000328Y-31046966D01*
X25000000Y-31053383D01*
X25000000Y-31431885D01*
X14433181Y-31431885D01*
X14017975Y-30422528D01*
X14008501Y-30374594D01*
X14008501Y-30211953D01*
X48070263Y-30211953D01*
X48076596Y-30223043D01*
X50487188Y-32633635D01*
X50501132Y-32641249D01*
X50502965Y-32641118D01*
X50509580Y-32636867D01*
X52922538Y-30223909D01*
X52929066Y-30211953D01*
X184070263Y-30211953D01*
X184076596Y-30223043D01*
X186487188Y-32633635D01*
X186501132Y-32641249D01*
X186502965Y-32641118D01*
X186509580Y-32636867D01*
X188922538Y-30223909D01*
X188929678Y-30210833D01*
X188922220Y-30200464D01*
X188680361Y-30004611D01*
X188675018Y-30000729D01*
X188355309Y-29793107D01*
X188349600Y-29789811D01*
X188009926Y-29616738D01*
X188003915Y-29614062D01*
X187648018Y-29477446D01*
X187641741Y-29475406D01*
X187273518Y-29376742D01*
X187267068Y-29375371D01*
X186890534Y-29315733D01*
X186883996Y-29315047D01*
X186503301Y-29295095D01*
X186496699Y-29295095D01*
X186116004Y-29315047D01*
X186109466Y-29315733D01*
X185732932Y-29375371D01*
X185726482Y-29376742D01*
X185358259Y-29475406D01*
X185351982Y-29477446D01*
X184996085Y-29614062D01*
X184990074Y-29616738D01*
X184650400Y-29789811D01*
X184644691Y-29793107D01*
X184324982Y-30000729D01*
X184319639Y-30004611D01*
X184078731Y-30199695D01*
X184070263Y-30211953D01*
X52929066Y-30211953D01*
X52929678Y-30210833D01*
X52922220Y-30200464D01*
X52680361Y-30004611D01*
X52675018Y-30000729D01*
X52355309Y-29793107D01*
X52349600Y-29789811D01*
X52009926Y-29616738D01*
X52003915Y-29614062D01*
X51648018Y-29477446D01*
X51641741Y-29475406D01*
X51273518Y-29376742D01*
X51267068Y-29375371D01*
X50890534Y-29315733D01*
X50883996Y-29315047D01*
X50503301Y-29295095D01*
X50496699Y-29295095D01*
X50116004Y-29315047D01*
X50109466Y-29315733D01*
X49732932Y-29375371D01*
X49726482Y-29376742D01*
X49358259Y-29475406D01*
X49351982Y-29477446D01*
X48996085Y-29614062D01*
X48990074Y-29616738D01*
X48650400Y-29789811D01*
X48644691Y-29793107D01*
X48324982Y-30000729D01*
X48319639Y-30004611D01*
X48078731Y-30199695D01*
X48070263Y-30211953D01*
X14008501Y-30211953D01*
X14008501Y-28762819D01*
X14028503Y-28694698D01*
X14045405Y-28673724D01*
X14673723Y-28045405D01*
X14736036Y-28011380D01*
X14762819Y-28008500D01*
X219286863Y-28008500D01*
X219354984Y-28028502D01*
G37*
%TD.AperFunction*%
%TD*%
M02*
