%TF.GenerationSoftware,KiCad,Pcbnew,(6.0.7)*%
%TF.CreationDate,2022-09-02T18:47:48+01:00*%
%TF.ProjectId,Dayspring_Mini,44617973-7072-4696-9e67-5f4d696e692e,rev?*%
%TF.SameCoordinates,Original*%
%TF.FileFunction,Copper,L1,Top*%
%TF.FilePolarity,Positive*%
%FSLAX46Y46*%
G04 Gerber Fmt 4.6, Leading zero omitted, Abs format (unit mm)*
G04 Created by KiCad (PCBNEW (6.0.7)) date 2022-09-02 18:47:48*
%MOMM*%
%LPD*%
G01*
G04 APERTURE LIST*
G04 Aperture macros list*
%AMRoundRect*
0 Rectangle with rounded corners*
0 $1 Rounding radius*
0 $2 $3 $4 $5 $6 $7 $8 $9 X,Y pos of 4 corners*
0 Add a 4 corners polygon primitive as box body*
4,1,4,$2,$3,$4,$5,$6,$7,$8,$9,$2,$3,0*
0 Add four circle primitives for the rounded corners*
1,1,$1+$1,$2,$3*
1,1,$1+$1,$4,$5*
1,1,$1+$1,$6,$7*
1,1,$1+$1,$8,$9*
0 Add four rect primitives between the rounded corners*
20,1,$1+$1,$2,$3,$4,$5,0*
20,1,$1+$1,$4,$5,$6,$7,0*
20,1,$1+$1,$6,$7,$8,$9,0*
20,1,$1+$1,$8,$9,$2,$3,0*%
G04 Aperture macros list end*
%TA.AperFunction,ComponentPad*%
%ADD10C,0.800000*%
%TD*%
%TA.AperFunction,ComponentPad*%
%ADD11C,6.400000*%
%TD*%
%TA.AperFunction,SMDPad,CuDef*%
%ADD12R,2.200000X2.200000*%
%TD*%
%TA.AperFunction,SMDPad,CuDef*%
%ADD13R,2.200000X1.250000*%
%TD*%
%TA.AperFunction,SMDPad,CuDef*%
%ADD14RoundRect,0.250000X0.625000X-0.312500X0.625000X0.312500X-0.625000X0.312500X-0.625000X-0.312500X0*%
%TD*%
%TA.AperFunction,ComponentPad*%
%ADD15RoundRect,0.250000X-0.750000X0.600000X-0.750000X-0.600000X0.750000X-0.600000X0.750000X0.600000X0*%
%TD*%
%TA.AperFunction,ComponentPad*%
%ADD16O,2.000000X1.700000*%
%TD*%
%TA.AperFunction,ComponentPad*%
%ADD17RoundRect,0.250000X0.750000X-0.600000X0.750000X0.600000X-0.750000X0.600000X-0.750000X-0.600000X0*%
%TD*%
%TA.AperFunction,ViaPad*%
%ADD18C,0.800000*%
%TD*%
%TA.AperFunction,Conductor*%
%ADD19C,0.500000*%
%TD*%
%TA.AperFunction,Conductor*%
%ADD20C,1.000000*%
%TD*%
G04 APERTURE END LIST*
D10*
%TO.P,H2,1,1*%
%TO.N,GND*%
X184802944Y-34697056D03*
X188197056Y-31302944D03*
X186500000Y-35400000D03*
X188900000Y-33000000D03*
D11*
X186500000Y-33000000D03*
D10*
X184802944Y-31302944D03*
X184100000Y-33000000D03*
X186500000Y-30600000D03*
X188197056Y-34697056D03*
%TD*%
D12*
%TO.P,D9,1,K*%
%TO.N,Net-(D9-Pad1)*%
X138923072Y-34150000D03*
D13*
%TO.P,D9,2,A*%
%TO.N,Net-(D8-Pad1)*%
X138923072Y-31875000D03*
%TD*%
D12*
%TO.P,D3,1,K*%
%TO.N,Net-(D3-Pad1)*%
X57230768Y-34150000D03*
D13*
%TO.P,D3,2,A*%
%TO.N,Net-(D2-Pad1)*%
X57230768Y-31875000D03*
%TD*%
D12*
%TO.P,D7,1,K*%
%TO.N,GND*%
X111692304Y-34150000D03*
D13*
%TO.P,D7,2,A*%
%TO.N,Net-(D6-Pad1)*%
X111692304Y-31875000D03*
%TD*%
D14*
%TO.P,R2,1*%
%TO.N,Net-(D5-Pad2)*%
X78000000Y-34712500D03*
%TO.P,R2,2*%
%TO.N,Net-(D4-Pad1)*%
X78000000Y-31787500D03*
%TD*%
D12*
%TO.P,D12,1,K*%
%TO.N,Net-(D12-Pad1)*%
X179769224Y-34150000D03*
D13*
%TO.P,D12,2,A*%
%TO.N,Net-(D12-Pad2)*%
X179769224Y-31875000D03*
%TD*%
D12*
%TO.P,D6,1,K*%
%TO.N,Net-(D6-Pad1)*%
X98076920Y-34150000D03*
D13*
%TO.P,D6,2,A*%
%TO.N,Net-(D5-Pad1)*%
X98076920Y-31875000D03*
%TD*%
D12*
%TO.P,D13,1,K*%
%TO.N,Net-(D13-Pad1)*%
X193384608Y-34150000D03*
D13*
%TO.P,D13,2,A*%
%TO.N,Net-(D12-Pad1)*%
X193384608Y-31875000D03*
%TD*%
D10*
%TO.P,H1,1,1*%
%TO.N,GND*%
X52900000Y-33000000D03*
X50500000Y-30600000D03*
X52197056Y-34697056D03*
X50500000Y-35400000D03*
X52197056Y-31302944D03*
D11*
X50500000Y-33000000D03*
D10*
X48100000Y-33000000D03*
X48802944Y-34697056D03*
X48802944Y-31302944D03*
%TD*%
D14*
%TO.P,R1,1*%
%TO.N,Net-(D4-Pad2)*%
X63500000Y-34712500D03*
%TO.P,R1,2*%
%TO.N,Net-(D3-Pad1)*%
X63500000Y-31787500D03*
%TD*%
D12*
%TO.P,D4,1,K*%
%TO.N,Net-(D4-Pad1)*%
X70846152Y-34150000D03*
D13*
%TO.P,D4,2,A*%
%TO.N,Net-(D4-Pad2)*%
X70846152Y-31875000D03*
%TD*%
D14*
%TO.P,R3,1*%
%TO.N,Net-(D10-Pad2)*%
X146000000Y-34462500D03*
%TO.P,R3,2*%
%TO.N,Net-(D9-Pad1)*%
X146000000Y-31537500D03*
%TD*%
D12*
%TO.P,D5,1,K*%
%TO.N,Net-(D5-Pad1)*%
X84461536Y-34150000D03*
D13*
%TO.P,D5,2,A*%
%TO.N,Net-(D5-Pad2)*%
X84461536Y-31875000D03*
%TD*%
D12*
%TO.P,D8,1,K*%
%TO.N,Net-(D8-Pad1)*%
X125307688Y-34150000D03*
D13*
%TO.P,D8,2,A*%
%TO.N,+24V*%
X125307688Y-31875000D03*
%TD*%
D12*
%TO.P,D11,1,K*%
%TO.N,Net-(D11-Pad1)*%
X166153840Y-34150000D03*
D13*
%TO.P,D11,2,A*%
%TO.N,Net-(D10-Pad1)*%
X166153840Y-31875000D03*
%TD*%
D12*
%TO.P,D2,1,K*%
%TO.N,Net-(D2-Pad1)*%
X43615384Y-34150000D03*
D13*
%TO.P,D2,2,A*%
%TO.N,Net-(D1-Pad1)*%
X43615384Y-31875000D03*
%TD*%
D14*
%TO.P,R4,1*%
%TO.N,Net-(D12-Pad2)*%
X173000000Y-34462500D03*
%TO.P,R4,2*%
%TO.N,Net-(D11-Pad1)*%
X173000000Y-31537500D03*
%TD*%
D12*
%TO.P,D10,1,K*%
%TO.N,Net-(D10-Pad1)*%
X152538456Y-34150000D03*
D13*
%TO.P,D10,2,A*%
%TO.N,Net-(D10-Pad2)*%
X152538456Y-31875000D03*
%TD*%
D12*
%TO.P,D14,1,K*%
%TO.N,GND*%
X207000000Y-34175000D03*
D13*
%TO.P,D14,2,A*%
%TO.N,Net-(D13-Pad1)*%
X207000000Y-31900000D03*
%TD*%
D12*
%TO.P,D1,1,K*%
%TO.N,Net-(D1-Pad1)*%
X30000000Y-34150000D03*
D13*
%TO.P,D1,2,A*%
%TO.N,+24V*%
X30000000Y-31875000D03*
%TD*%
D15*
%TO.P,J1,1,Pin_1*%
%TO.N,GND*%
X26500000Y-31700000D03*
D16*
%TO.P,J1,2,Pin_2*%
%TO.N,+24V*%
X26500000Y-34200000D03*
%TD*%
D17*
%TO.P,J2,1,Pin_1*%
%TO.N,GND*%
X210500000Y-34200000D03*
D16*
%TO.P,J2,2,Pin_2*%
%TO.N,+24V*%
X210500000Y-31700000D03*
%TD*%
D18*
%TO.N,GND*%
X173000000Y-36500000D03*
X193500000Y-36500000D03*
X133000000Y-36500000D03*
X148000000Y-36500000D03*
X113000000Y-36500000D03*
X128000000Y-36500000D03*
X178000000Y-36500000D03*
X33500000Y-36500000D03*
X153000000Y-36500000D03*
X108000000Y-36500000D03*
X163000000Y-36500000D03*
X98000000Y-36500000D03*
X203500000Y-36500000D03*
X28500000Y-36500000D03*
X24500000Y-36500000D03*
X88000000Y-36500000D03*
X45300000Y-36500000D03*
X78000000Y-36500000D03*
X190500000Y-36500000D03*
X138000000Y-36500000D03*
X181500000Y-36500000D03*
X68000000Y-36500000D03*
X212500000Y-36500000D03*
X123000000Y-36500000D03*
X198500000Y-36500000D03*
X55000000Y-36500000D03*
X118000000Y-36500000D03*
X93000000Y-36500000D03*
X38500000Y-36500000D03*
X168000000Y-36500000D03*
X143000000Y-36500000D03*
X58000000Y-36500000D03*
X158000000Y-36500000D03*
X63000000Y-36500000D03*
X103000000Y-36500000D03*
X41500000Y-36500000D03*
X208500000Y-36500000D03*
X83000000Y-36500000D03*
X73000000Y-36500000D03*
%TD*%
D19*
%TO.N,Net-(D1-Pad1)*%
X38125000Y-31875000D02*
X43615384Y-31875000D01*
X35850000Y-34150000D02*
X38125000Y-31875000D01*
X30000000Y-34150000D02*
X35850000Y-34150000D01*
D20*
%TO.N,+24V*%
X24800000Y-34200000D02*
X24250000Y-33650000D01*
X26500000Y-34200000D02*
X24800000Y-34200000D01*
X24250000Y-33650000D02*
X24250000Y-30000000D01*
D19*
%TO.N,Net-(D3-Pad1)*%
X61856250Y-31787500D02*
X63500000Y-31787500D01*
X59493750Y-34150000D02*
X61856250Y-31787500D01*
X57230768Y-34150000D02*
X59493750Y-34150000D01*
%TO.N,Net-(D4-Pad1)*%
X76212500Y-31787500D02*
X78000000Y-31787500D01*
X73850000Y-34150000D02*
X76212500Y-31787500D01*
X70846152Y-34150000D02*
X73850000Y-34150000D01*
%TO.N,Net-(D5-Pad1)*%
X92688460Y-31875000D02*
X98076920Y-31875000D01*
X84461536Y-34150000D02*
X90413460Y-34150000D01*
X90413460Y-34150000D02*
X92688460Y-31875000D01*
%TO.N,Net-(D10-Pad2)*%
X150106250Y-31875000D02*
X152538456Y-31875000D01*
X146000000Y-34462500D02*
X147518750Y-34462500D01*
X147518750Y-34462500D02*
X150106250Y-31875000D01*
%TO.N,Net-(D11-Pad1)*%
X166153840Y-34150000D02*
X168368750Y-34150000D01*
X170981250Y-31537500D02*
X173000000Y-31537500D01*
X168368750Y-34150000D02*
X170981250Y-31537500D01*
%TO.N,Net-(D6-Pad1)*%
X98076920Y-34150000D02*
X103471152Y-34150000D01*
X103471152Y-34150000D02*
X105746152Y-31875000D01*
X105746152Y-31875000D02*
X111692304Y-31875000D01*
%TO.N,Net-(D8-Pad1)*%
X130850000Y-34150000D02*
X133125000Y-31875000D01*
X133125000Y-31875000D02*
X138923072Y-31875000D01*
X125307688Y-34150000D02*
X130850000Y-34150000D01*
%TO.N,Net-(D10-Pad1)*%
X152538456Y-34150000D02*
X157850000Y-34150000D01*
X160125000Y-31875000D02*
X166153840Y-31875000D01*
X157850000Y-34150000D02*
X160125000Y-31875000D01*
%TO.N,Net-(D2-Pad1)*%
X43615384Y-34150000D02*
X45950000Y-34150000D01*
X48450000Y-36650000D02*
X52030768Y-36650000D01*
X55680768Y-33000000D02*
X55680768Y-32600000D01*
X45950000Y-34150000D02*
X48450000Y-36650000D01*
X55680768Y-32600000D02*
X56405768Y-31875000D01*
X56405768Y-31875000D02*
X57230768Y-31875000D01*
X52030768Y-36650000D02*
X55680768Y-33000000D01*
%TO.N,Net-(D12-Pad1)*%
X184450000Y-36650000D02*
X188350000Y-36650000D01*
X191834608Y-33165392D02*
X191834608Y-32600000D01*
X181950000Y-34150000D02*
X184450000Y-36650000D01*
X191834608Y-32600000D02*
X192559608Y-31875000D01*
X188350000Y-36650000D02*
X191834608Y-33165392D01*
X179769224Y-34150000D02*
X181950000Y-34150000D01*
X192559608Y-31875000D02*
X193384608Y-31875000D01*
%TO.N,Net-(D4-Pad2)*%
X63500000Y-34712500D02*
X65143750Y-34712500D01*
X65143750Y-34712500D02*
X67981250Y-31875000D01*
X67981250Y-31875000D02*
X70846152Y-31875000D01*
%TO.N,Net-(D5-Pad2)*%
X82375000Y-31875000D02*
X84461536Y-31875000D01*
X78000000Y-34712500D02*
X79537500Y-34712500D01*
X79537500Y-34712500D02*
X82375000Y-31875000D01*
%TO.N,Net-(D9-Pad1)*%
X144231250Y-31537500D02*
X146000000Y-31537500D01*
X138923072Y-34150000D02*
X141618750Y-34150000D01*
X141618750Y-34150000D02*
X144231250Y-31537500D01*
%TO.N,Net-(D12-Pad2)*%
X173000000Y-34462500D02*
X174518750Y-34462500D01*
X177106250Y-31875000D02*
X179769224Y-31875000D01*
X174518750Y-34462500D02*
X177106250Y-31875000D01*
%TO.N,Net-(D13-Pad1)*%
X199137500Y-34150000D02*
X201387500Y-31900000D01*
X193384608Y-34150000D02*
X199137500Y-34150000D01*
X201387500Y-31900000D02*
X207000000Y-31900000D01*
%TD*%
%TA.AperFunction,Conductor*%
%TO.N,GND*%
G36*
X28333621Y-33520002D02*
G01*
X28380114Y-33573658D01*
X28391500Y-33626000D01*
X28391500Y-35298134D01*
X28398255Y-35360316D01*
X28449385Y-35496705D01*
X28536739Y-35613261D01*
X28653295Y-35700615D01*
X28789684Y-35751745D01*
X28851866Y-35758500D01*
X31148134Y-35758500D01*
X31210316Y-35751745D01*
X31346705Y-35700615D01*
X31463261Y-35613261D01*
X31550615Y-35496705D01*
X31601745Y-35360316D01*
X31608500Y-35298134D01*
X31608500Y-35034500D01*
X31628502Y-34966379D01*
X31682158Y-34919886D01*
X31734500Y-34908500D01*
X35782930Y-34908500D01*
X35801880Y-34909933D01*
X35816115Y-34912099D01*
X35816119Y-34912099D01*
X35823349Y-34913199D01*
X35830641Y-34912606D01*
X35830644Y-34912606D01*
X35876018Y-34908915D01*
X35886233Y-34908500D01*
X35894293Y-34908500D01*
X35907583Y-34906951D01*
X35922507Y-34905211D01*
X35926882Y-34904778D01*
X35992339Y-34899454D01*
X35992342Y-34899453D01*
X35999637Y-34898860D01*
X36006601Y-34896604D01*
X36012560Y-34895413D01*
X36018415Y-34894029D01*
X36025681Y-34893182D01*
X36094327Y-34868265D01*
X36098455Y-34866848D01*
X36160936Y-34846607D01*
X36160938Y-34846606D01*
X36167899Y-34844351D01*
X36174154Y-34840555D01*
X36179628Y-34838049D01*
X36185058Y-34835330D01*
X36191937Y-34832833D01*
X36252976Y-34792814D01*
X36256680Y-34790477D01*
X36319107Y-34752595D01*
X36327484Y-34745197D01*
X36327508Y-34745224D01*
X36330500Y-34742571D01*
X36333733Y-34739868D01*
X36339852Y-34735856D01*
X36393128Y-34679617D01*
X36395506Y-34677175D01*
X37535776Y-33536905D01*
X37598088Y-33502879D01*
X37624871Y-33500000D01*
X41880884Y-33500000D01*
X41949005Y-33520002D01*
X41995498Y-33573658D01*
X42006884Y-33626000D01*
X42006884Y-35298134D01*
X42013639Y-35360316D01*
X42064769Y-35496705D01*
X42152123Y-35613261D01*
X42268679Y-35700615D01*
X42405068Y-35751745D01*
X42467250Y-35758500D01*
X44763518Y-35758500D01*
X44825700Y-35751745D01*
X44962089Y-35700615D01*
X45078645Y-35613261D01*
X45165999Y-35496705D01*
X45217129Y-35360316D01*
X45223884Y-35298134D01*
X45223884Y-35034500D01*
X45243886Y-34966379D01*
X45297542Y-34919886D01*
X45349884Y-34908500D01*
X45583629Y-34908500D01*
X45651750Y-34928502D01*
X45672724Y-34945405D01*
X47866230Y-37138911D01*
X47878616Y-37153323D01*
X47887149Y-37164918D01*
X47887154Y-37164923D01*
X47891492Y-37170818D01*
X47897070Y-37175557D01*
X47897073Y-37175560D01*
X47931768Y-37205035D01*
X47939284Y-37211965D01*
X47944979Y-37217660D01*
X47947861Y-37219940D01*
X47967251Y-37235281D01*
X47970655Y-37238072D01*
X48020703Y-37280591D01*
X48026285Y-37285333D01*
X48032801Y-37288661D01*
X48037850Y-37292028D01*
X48042979Y-37295195D01*
X48048716Y-37299734D01*
X48114875Y-37330655D01*
X48118769Y-37332558D01*
X48183808Y-37365769D01*
X48190916Y-37367508D01*
X48196559Y-37369607D01*
X48202322Y-37371524D01*
X48208950Y-37374622D01*
X48216112Y-37376112D01*
X48216113Y-37376112D01*
X48280412Y-37389486D01*
X48284696Y-37390456D01*
X48355610Y-37407808D01*
X48361212Y-37408156D01*
X48361215Y-37408156D01*
X48366764Y-37408500D01*
X48366762Y-37408536D01*
X48370755Y-37408775D01*
X48374947Y-37409149D01*
X48382115Y-37410640D01*
X48459520Y-37408546D01*
X48462928Y-37408500D01*
X51963698Y-37408500D01*
X51982648Y-37409933D01*
X51996883Y-37412099D01*
X51996887Y-37412099D01*
X52004117Y-37413199D01*
X52011409Y-37412606D01*
X52011412Y-37412606D01*
X52056786Y-37408915D01*
X52067001Y-37408500D01*
X52075061Y-37408500D01*
X52092448Y-37406473D01*
X52103275Y-37405211D01*
X52107650Y-37404778D01*
X52173107Y-37399454D01*
X52173110Y-37399453D01*
X52180405Y-37398860D01*
X52187369Y-37396604D01*
X52193328Y-37395413D01*
X52199183Y-37394029D01*
X52206449Y-37393182D01*
X52275095Y-37368265D01*
X52279223Y-37366848D01*
X52341704Y-37346607D01*
X52341706Y-37346606D01*
X52348667Y-37344351D01*
X52354922Y-37340555D01*
X52360396Y-37338049D01*
X52365826Y-37335330D01*
X52372705Y-37332833D01*
X52378826Y-37328820D01*
X52433744Y-37292814D01*
X52437448Y-37290477D01*
X52499875Y-37252595D01*
X52508252Y-37245197D01*
X52508276Y-37245224D01*
X52511268Y-37242571D01*
X52514501Y-37239868D01*
X52520620Y-37235856D01*
X52573896Y-37179617D01*
X52576274Y-37177175D01*
X55407173Y-34346276D01*
X55469485Y-34312250D01*
X55540300Y-34317315D01*
X55597136Y-34359862D01*
X55621947Y-34426382D01*
X55622268Y-34435371D01*
X55622268Y-35298134D01*
X55629023Y-35360316D01*
X55680153Y-35496705D01*
X55767507Y-35613261D01*
X55884063Y-35700615D01*
X56020452Y-35751745D01*
X56082634Y-35758500D01*
X58378902Y-35758500D01*
X58441084Y-35751745D01*
X58577473Y-35700615D01*
X58694029Y-35613261D01*
X58781383Y-35496705D01*
X58832513Y-35360316D01*
X58839268Y-35298134D01*
X58839268Y-35034500D01*
X58859270Y-34966379D01*
X58912926Y-34919886D01*
X58965268Y-34908500D01*
X59426680Y-34908500D01*
X59445630Y-34909933D01*
X59459865Y-34912099D01*
X59459869Y-34912099D01*
X59467099Y-34913199D01*
X59474391Y-34912606D01*
X59474394Y-34912606D01*
X59519768Y-34908915D01*
X59529983Y-34908500D01*
X59538043Y-34908500D01*
X59551333Y-34906951D01*
X59566257Y-34905211D01*
X59570632Y-34904778D01*
X59636089Y-34899454D01*
X59636092Y-34899453D01*
X59643387Y-34898860D01*
X59650351Y-34896604D01*
X59656310Y-34895413D01*
X59662165Y-34894029D01*
X59669431Y-34893182D01*
X59738077Y-34868265D01*
X59742205Y-34866848D01*
X59804686Y-34846607D01*
X59804688Y-34846606D01*
X59811649Y-34844351D01*
X59817904Y-34840555D01*
X59823378Y-34838049D01*
X59828808Y-34835330D01*
X59835687Y-34832833D01*
X59896726Y-34792814D01*
X59900430Y-34790477D01*
X59962857Y-34752595D01*
X59971234Y-34745197D01*
X59971258Y-34745224D01*
X59974250Y-34742571D01*
X59977483Y-34739868D01*
X59983602Y-34735856D01*
X60036878Y-34679617D01*
X60039256Y-34677175D01*
X61179526Y-33536905D01*
X61241838Y-33502879D01*
X61268621Y-33500000D01*
X62444846Y-33500000D01*
X62512967Y-33520002D01*
X62559460Y-33573658D01*
X62569564Y-33643932D01*
X62540070Y-33708512D01*
X62511149Y-33733144D01*
X62400652Y-33801522D01*
X62275695Y-33926697D01*
X62271855Y-33932927D01*
X62271854Y-33932928D01*
X62209650Y-34033842D01*
X62182885Y-34077262D01*
X62127203Y-34245139D01*
X62126503Y-34251975D01*
X62126502Y-34251978D01*
X62125247Y-34264226D01*
X62116500Y-34349600D01*
X62116500Y-35075400D01*
X62116837Y-35078646D01*
X62116837Y-35078650D01*
X62126387Y-35170686D01*
X62127474Y-35181166D01*
X62129655Y-35187702D01*
X62129655Y-35187704D01*
X62149873Y-35248303D01*
X62183450Y-35348946D01*
X62276522Y-35499348D01*
X62401697Y-35624305D01*
X62407927Y-35628145D01*
X62407928Y-35628146D01*
X62545090Y-35712694D01*
X62552262Y-35717115D01*
X62610562Y-35736452D01*
X62713611Y-35770632D01*
X62713613Y-35770632D01*
X62720139Y-35772797D01*
X62726975Y-35773497D01*
X62726978Y-35773498D01*
X62770031Y-35777909D01*
X62824600Y-35783500D01*
X64175400Y-35783500D01*
X64178646Y-35783163D01*
X64178650Y-35783163D01*
X64274308Y-35773238D01*
X64274312Y-35773237D01*
X64281166Y-35772526D01*
X64287702Y-35770345D01*
X64287704Y-35770345D01*
X64434909Y-35721233D01*
X64448946Y-35716550D01*
X64599348Y-35623478D01*
X64664283Y-35558430D01*
X64714643Y-35507982D01*
X64776926Y-35473903D01*
X64803816Y-35471000D01*
X65076680Y-35471000D01*
X65095630Y-35472433D01*
X65109865Y-35474599D01*
X65109869Y-35474599D01*
X65117099Y-35475699D01*
X65124391Y-35475106D01*
X65124394Y-35475106D01*
X65169768Y-35471415D01*
X65179983Y-35471000D01*
X65188043Y-35471000D01*
X65201604Y-35469419D01*
X65216257Y-35467711D01*
X65220632Y-35467278D01*
X65286089Y-35461954D01*
X65286092Y-35461953D01*
X65293387Y-35461360D01*
X65300351Y-35459104D01*
X65306310Y-35457913D01*
X65312165Y-35456529D01*
X65319431Y-35455682D01*
X65388077Y-35430765D01*
X65392205Y-35429348D01*
X65454686Y-35409107D01*
X65454688Y-35409106D01*
X65461649Y-35406851D01*
X65467904Y-35403055D01*
X65473378Y-35400549D01*
X65478808Y-35397830D01*
X65485687Y-35395333D01*
X65496373Y-35388327D01*
X65546726Y-35355314D01*
X65550430Y-35352977D01*
X65612857Y-35315095D01*
X65621234Y-35307697D01*
X65621258Y-35307724D01*
X65624250Y-35305071D01*
X65627483Y-35302368D01*
X65633602Y-35298356D01*
X65686878Y-35242117D01*
X65689256Y-35239675D01*
X67392026Y-33536905D01*
X67454338Y-33502879D01*
X67481121Y-33500000D01*
X69111652Y-33500000D01*
X69179773Y-33520002D01*
X69226266Y-33573658D01*
X69237652Y-33626000D01*
X69237652Y-35298134D01*
X69244407Y-35360316D01*
X69295537Y-35496705D01*
X69382891Y-35613261D01*
X69499447Y-35700615D01*
X69635836Y-35751745D01*
X69698018Y-35758500D01*
X71994286Y-35758500D01*
X72056468Y-35751745D01*
X72192857Y-35700615D01*
X72309413Y-35613261D01*
X72396767Y-35496705D01*
X72447897Y-35360316D01*
X72454652Y-35298134D01*
X72454652Y-35034500D01*
X72474654Y-34966379D01*
X72528310Y-34919886D01*
X72580652Y-34908500D01*
X73782930Y-34908500D01*
X73801880Y-34909933D01*
X73816115Y-34912099D01*
X73816119Y-34912099D01*
X73823349Y-34913199D01*
X73830641Y-34912606D01*
X73830644Y-34912606D01*
X73876018Y-34908915D01*
X73886233Y-34908500D01*
X73894293Y-34908500D01*
X73907583Y-34906951D01*
X73922507Y-34905211D01*
X73926882Y-34904778D01*
X73992339Y-34899454D01*
X73992342Y-34899453D01*
X73999637Y-34898860D01*
X74006601Y-34896604D01*
X74012560Y-34895413D01*
X74018415Y-34894029D01*
X74025681Y-34893182D01*
X74094327Y-34868265D01*
X74098455Y-34866848D01*
X74160936Y-34846607D01*
X74160938Y-34846606D01*
X74167899Y-34844351D01*
X74174154Y-34840555D01*
X74179628Y-34838049D01*
X74185058Y-34835330D01*
X74191937Y-34832833D01*
X74252976Y-34792814D01*
X74256680Y-34790477D01*
X74319107Y-34752595D01*
X74327484Y-34745197D01*
X74327508Y-34745224D01*
X74330500Y-34742571D01*
X74333733Y-34739868D01*
X74339852Y-34735856D01*
X74393128Y-34679617D01*
X74395506Y-34677175D01*
X75535776Y-33536905D01*
X75598088Y-33502879D01*
X75624871Y-33500000D01*
X76944846Y-33500000D01*
X77012967Y-33520002D01*
X77059460Y-33573658D01*
X77069564Y-33643932D01*
X77040070Y-33708512D01*
X77011149Y-33733144D01*
X76900652Y-33801522D01*
X76775695Y-33926697D01*
X76771855Y-33932927D01*
X76771854Y-33932928D01*
X76709650Y-34033842D01*
X76682885Y-34077262D01*
X76627203Y-34245139D01*
X76626503Y-34251975D01*
X76626502Y-34251978D01*
X76625247Y-34264226D01*
X76616500Y-34349600D01*
X76616500Y-35075400D01*
X76616837Y-35078646D01*
X76616837Y-35078650D01*
X76626387Y-35170686D01*
X76627474Y-35181166D01*
X76629655Y-35187702D01*
X76629655Y-35187704D01*
X76649873Y-35248303D01*
X76683450Y-35348946D01*
X76776522Y-35499348D01*
X76901697Y-35624305D01*
X76907927Y-35628145D01*
X76907928Y-35628146D01*
X77045090Y-35712694D01*
X77052262Y-35717115D01*
X77110562Y-35736452D01*
X77213611Y-35770632D01*
X77213613Y-35770632D01*
X77220139Y-35772797D01*
X77226975Y-35773497D01*
X77226978Y-35773498D01*
X77270031Y-35777909D01*
X77324600Y-35783500D01*
X78675400Y-35783500D01*
X78678646Y-35783163D01*
X78678650Y-35783163D01*
X78774308Y-35773238D01*
X78774312Y-35773237D01*
X78781166Y-35772526D01*
X78787702Y-35770345D01*
X78787704Y-35770345D01*
X78934909Y-35721233D01*
X78948946Y-35716550D01*
X79099348Y-35623478D01*
X79164283Y-35558430D01*
X79214643Y-35507982D01*
X79276926Y-35473903D01*
X79303816Y-35471000D01*
X79470430Y-35471000D01*
X79489380Y-35472433D01*
X79503615Y-35474599D01*
X79503619Y-35474599D01*
X79510849Y-35475699D01*
X79518141Y-35475106D01*
X79518144Y-35475106D01*
X79563518Y-35471415D01*
X79573733Y-35471000D01*
X79581793Y-35471000D01*
X79595354Y-35469419D01*
X79610007Y-35467711D01*
X79614382Y-35467278D01*
X79679839Y-35461954D01*
X79679842Y-35461953D01*
X79687137Y-35461360D01*
X79694101Y-35459104D01*
X79700060Y-35457913D01*
X79705915Y-35456529D01*
X79713181Y-35455682D01*
X79781827Y-35430765D01*
X79785955Y-35429348D01*
X79848436Y-35409107D01*
X79848438Y-35409106D01*
X79855399Y-35406851D01*
X79861654Y-35403055D01*
X79867128Y-35400549D01*
X79872558Y-35397830D01*
X79879437Y-35395333D01*
X79890123Y-35388327D01*
X79940476Y-35355314D01*
X79944180Y-35352977D01*
X80006607Y-35315095D01*
X80014984Y-35307697D01*
X80015008Y-35307724D01*
X80018000Y-35305071D01*
X80021233Y-35302368D01*
X80027352Y-35298356D01*
X80080628Y-35242117D01*
X80083006Y-35239675D01*
X81785776Y-33536905D01*
X81848088Y-33502879D01*
X81874871Y-33500000D01*
X82727036Y-33500000D01*
X82795157Y-33520002D01*
X82841650Y-33573658D01*
X82853036Y-33626000D01*
X82853036Y-35298134D01*
X82859791Y-35360316D01*
X82910921Y-35496705D01*
X82998275Y-35613261D01*
X83114831Y-35700615D01*
X83251220Y-35751745D01*
X83313402Y-35758500D01*
X85609670Y-35758500D01*
X85671852Y-35751745D01*
X85808241Y-35700615D01*
X85924797Y-35613261D01*
X86012151Y-35496705D01*
X86063281Y-35360316D01*
X86070036Y-35298134D01*
X86070036Y-35034500D01*
X86090038Y-34966379D01*
X86143694Y-34919886D01*
X86196036Y-34908500D01*
X90346390Y-34908500D01*
X90365340Y-34909933D01*
X90379575Y-34912099D01*
X90379579Y-34912099D01*
X90386809Y-34913199D01*
X90394101Y-34912606D01*
X90394104Y-34912606D01*
X90439478Y-34908915D01*
X90449693Y-34908500D01*
X90457753Y-34908500D01*
X90471043Y-34906951D01*
X90485967Y-34905211D01*
X90490342Y-34904778D01*
X90555799Y-34899454D01*
X90555802Y-34899453D01*
X90563097Y-34898860D01*
X90570061Y-34896604D01*
X90576020Y-34895413D01*
X90581875Y-34894029D01*
X90589141Y-34893182D01*
X90657787Y-34868265D01*
X90661915Y-34866848D01*
X90724396Y-34846607D01*
X90724398Y-34846606D01*
X90731359Y-34844351D01*
X90737614Y-34840555D01*
X90743088Y-34838049D01*
X90748518Y-34835330D01*
X90755397Y-34832833D01*
X90816436Y-34792814D01*
X90820140Y-34790477D01*
X90882567Y-34752595D01*
X90890944Y-34745197D01*
X90890968Y-34745224D01*
X90893960Y-34742571D01*
X90897193Y-34739868D01*
X90903312Y-34735856D01*
X90956588Y-34679617D01*
X90958966Y-34677175D01*
X92099236Y-33536905D01*
X92161548Y-33502879D01*
X92188331Y-33500000D01*
X96342420Y-33500000D01*
X96410541Y-33520002D01*
X96457034Y-33573658D01*
X96468420Y-33626000D01*
X96468420Y-35298134D01*
X96475175Y-35360316D01*
X96526305Y-35496705D01*
X96613659Y-35613261D01*
X96730215Y-35700615D01*
X96866604Y-35751745D01*
X96928786Y-35758500D01*
X99225054Y-35758500D01*
X99287236Y-35751745D01*
X99423625Y-35700615D01*
X99540181Y-35613261D01*
X99627535Y-35496705D01*
X99678665Y-35360316D01*
X99685420Y-35298134D01*
X99685420Y-35293915D01*
X110092304Y-35293915D01*
X110092673Y-35300729D01*
X110098093Y-35350621D01*
X110101718Y-35365867D01*
X110146071Y-35484177D01*
X110154603Y-35499763D01*
X110229734Y-35600009D01*
X110242295Y-35612570D01*
X110342541Y-35687701D01*
X110358127Y-35696233D01*
X110476437Y-35740586D01*
X110491683Y-35744211D01*
X110541575Y-35749631D01*
X110548389Y-35750000D01*
X111424189Y-35750000D01*
X111439428Y-35745525D01*
X111440633Y-35744135D01*
X111442304Y-35736452D01*
X111442304Y-35731885D01*
X111942304Y-35731885D01*
X111946779Y-35747124D01*
X111948169Y-35748329D01*
X111955852Y-35750000D01*
X112836219Y-35750000D01*
X112843033Y-35749631D01*
X112892925Y-35744211D01*
X112908171Y-35740586D01*
X113026481Y-35696233D01*
X113042067Y-35687701D01*
X113142313Y-35612570D01*
X113154874Y-35600009D01*
X113230005Y-35499763D01*
X113238537Y-35484177D01*
X113282890Y-35365867D01*
X113286515Y-35350621D01*
X113291935Y-35300729D01*
X113292304Y-35293915D01*
X113292304Y-34418115D01*
X113287829Y-34402876D01*
X113286439Y-34401671D01*
X113278756Y-34400000D01*
X111960419Y-34400000D01*
X111945180Y-34404475D01*
X111943975Y-34405865D01*
X111942304Y-34413548D01*
X111942304Y-35731885D01*
X111442304Y-35731885D01*
X111442304Y-34418115D01*
X111437829Y-34402876D01*
X111436439Y-34401671D01*
X111428756Y-34400000D01*
X110110419Y-34400000D01*
X110095180Y-34404475D01*
X110093975Y-34405865D01*
X110092304Y-34413548D01*
X110092304Y-35293915D01*
X99685420Y-35293915D01*
X99685420Y-35034500D01*
X99705422Y-34966379D01*
X99759078Y-34919886D01*
X99811420Y-34908500D01*
X103404082Y-34908500D01*
X103423032Y-34909933D01*
X103437267Y-34912099D01*
X103437271Y-34912099D01*
X103444501Y-34913199D01*
X103451793Y-34912606D01*
X103451796Y-34912606D01*
X103497170Y-34908915D01*
X103507385Y-34908500D01*
X103515445Y-34908500D01*
X103528735Y-34906951D01*
X103543659Y-34905211D01*
X103548034Y-34904778D01*
X103613491Y-34899454D01*
X103613494Y-34899453D01*
X103620789Y-34898860D01*
X103627753Y-34896604D01*
X103633712Y-34895413D01*
X103639567Y-34894029D01*
X103646833Y-34893182D01*
X103715479Y-34868265D01*
X103719607Y-34866848D01*
X103782088Y-34846607D01*
X103782090Y-34846606D01*
X103789051Y-34844351D01*
X103795306Y-34840555D01*
X103800780Y-34838049D01*
X103806210Y-34835330D01*
X103813089Y-34832833D01*
X103874128Y-34792814D01*
X103877832Y-34790477D01*
X103940259Y-34752595D01*
X103948636Y-34745197D01*
X103948660Y-34745224D01*
X103951652Y-34742571D01*
X103954885Y-34739868D01*
X103961004Y-34735856D01*
X104014280Y-34679617D01*
X104016658Y-34677175D01*
X105156928Y-33536905D01*
X105219240Y-33502879D01*
X105246023Y-33500000D01*
X109966304Y-33500000D01*
X110034425Y-33520002D01*
X110080918Y-33573658D01*
X110092304Y-33626000D01*
X110092304Y-33881885D01*
X110096779Y-33897124D01*
X110098169Y-33898329D01*
X110105852Y-33900000D01*
X113274189Y-33900000D01*
X113289428Y-33895525D01*
X113290633Y-33894135D01*
X113292304Y-33886452D01*
X113292304Y-33626000D01*
X113312306Y-33557879D01*
X113365962Y-33511386D01*
X113418304Y-33500000D01*
X123573188Y-33500000D01*
X123641309Y-33520002D01*
X123687802Y-33573658D01*
X123699188Y-33626000D01*
X123699188Y-35298134D01*
X123705943Y-35360316D01*
X123757073Y-35496705D01*
X123844427Y-35613261D01*
X123960983Y-35700615D01*
X124097372Y-35751745D01*
X124159554Y-35758500D01*
X126455822Y-35758500D01*
X126518004Y-35751745D01*
X126654393Y-35700615D01*
X126770949Y-35613261D01*
X126858303Y-35496705D01*
X126909433Y-35360316D01*
X126916188Y-35298134D01*
X126916188Y-35034500D01*
X126936190Y-34966379D01*
X126989846Y-34919886D01*
X127042188Y-34908500D01*
X130782930Y-34908500D01*
X130801880Y-34909933D01*
X130816115Y-34912099D01*
X130816119Y-34912099D01*
X130823349Y-34913199D01*
X130830641Y-34912606D01*
X130830644Y-34912606D01*
X130876018Y-34908915D01*
X130886233Y-34908500D01*
X130894293Y-34908500D01*
X130907583Y-34906951D01*
X130922507Y-34905211D01*
X130926882Y-34904778D01*
X130992339Y-34899454D01*
X130992342Y-34899453D01*
X130999637Y-34898860D01*
X131006601Y-34896604D01*
X131012560Y-34895413D01*
X131018415Y-34894029D01*
X131025681Y-34893182D01*
X131094327Y-34868265D01*
X131098455Y-34866848D01*
X131160936Y-34846607D01*
X131160938Y-34846606D01*
X131167899Y-34844351D01*
X131174154Y-34840555D01*
X131179628Y-34838049D01*
X131185058Y-34835330D01*
X131191937Y-34832833D01*
X131252976Y-34792814D01*
X131256680Y-34790477D01*
X131319107Y-34752595D01*
X131327484Y-34745197D01*
X131327508Y-34745224D01*
X131330500Y-34742571D01*
X131333733Y-34739868D01*
X131339852Y-34735856D01*
X131393128Y-34679617D01*
X131395506Y-34677175D01*
X132535776Y-33536905D01*
X132598088Y-33502879D01*
X132624871Y-33500000D01*
X137188572Y-33500000D01*
X137256693Y-33520002D01*
X137303186Y-33573658D01*
X137314572Y-33626000D01*
X137314572Y-35298134D01*
X137321327Y-35360316D01*
X137372457Y-35496705D01*
X137459811Y-35613261D01*
X137576367Y-35700615D01*
X137712756Y-35751745D01*
X137774938Y-35758500D01*
X140071206Y-35758500D01*
X140133388Y-35751745D01*
X140269777Y-35700615D01*
X140386333Y-35613261D01*
X140473687Y-35496705D01*
X140524817Y-35360316D01*
X140531572Y-35298134D01*
X140531572Y-35034500D01*
X140551574Y-34966379D01*
X140605230Y-34919886D01*
X140657572Y-34908500D01*
X141551680Y-34908500D01*
X141570630Y-34909933D01*
X141584865Y-34912099D01*
X141584869Y-34912099D01*
X141592099Y-34913199D01*
X141599391Y-34912606D01*
X141599394Y-34912606D01*
X141644768Y-34908915D01*
X141654983Y-34908500D01*
X141663043Y-34908500D01*
X141676333Y-34906951D01*
X141691257Y-34905211D01*
X141695632Y-34904778D01*
X141761089Y-34899454D01*
X141761092Y-34899453D01*
X141768387Y-34898860D01*
X141775351Y-34896604D01*
X141781310Y-34895413D01*
X141787165Y-34894029D01*
X141794431Y-34893182D01*
X141863077Y-34868265D01*
X141867205Y-34866848D01*
X141929686Y-34846607D01*
X141929688Y-34846606D01*
X141936649Y-34844351D01*
X141942904Y-34840555D01*
X141948378Y-34838049D01*
X141953808Y-34835330D01*
X141960687Y-34832833D01*
X142021726Y-34792814D01*
X142025430Y-34790477D01*
X142087857Y-34752595D01*
X142096234Y-34745197D01*
X142096258Y-34745224D01*
X142099250Y-34742571D01*
X142102483Y-34739868D01*
X142108602Y-34735856D01*
X142161878Y-34679617D01*
X142164256Y-34677175D01*
X143304526Y-33536905D01*
X143366838Y-33502879D01*
X143393621Y-33500000D01*
X144658931Y-33500000D01*
X144727052Y-33520002D01*
X144773545Y-33573658D01*
X144783649Y-33643932D01*
X144766192Y-33692114D01*
X144740829Y-33733260D01*
X144697691Y-33803243D01*
X144682885Y-33827262D01*
X144627203Y-33995139D01*
X144626503Y-34001975D01*
X144626502Y-34001978D01*
X144622999Y-34036169D01*
X144616500Y-34099600D01*
X144616500Y-34825400D01*
X144616837Y-34828646D01*
X144616837Y-34828650D01*
X144626600Y-34922740D01*
X144627474Y-34931166D01*
X144629655Y-34937702D01*
X144629655Y-34937704D01*
X144661180Y-35032194D01*
X144683450Y-35098946D01*
X144776522Y-35249348D01*
X144901697Y-35374305D01*
X144907927Y-35378145D01*
X144907928Y-35378146D01*
X145045090Y-35462694D01*
X145052262Y-35467115D01*
X145092665Y-35480516D01*
X145213611Y-35520632D01*
X145213613Y-35520632D01*
X145220139Y-35522797D01*
X145226975Y-35523497D01*
X145226978Y-35523498D01*
X145270031Y-35527909D01*
X145324600Y-35533500D01*
X146675400Y-35533500D01*
X146678646Y-35533163D01*
X146678650Y-35533163D01*
X146774308Y-35523238D01*
X146774312Y-35523237D01*
X146781166Y-35522526D01*
X146787702Y-35520345D01*
X146787704Y-35520345D01*
X146926906Y-35473903D01*
X146948946Y-35466550D01*
X147099348Y-35373478D01*
X147161340Y-35311378D01*
X147214643Y-35257982D01*
X147276926Y-35223903D01*
X147303816Y-35221000D01*
X147451680Y-35221000D01*
X147470630Y-35222433D01*
X147484865Y-35224599D01*
X147484869Y-35224599D01*
X147492099Y-35225699D01*
X147499391Y-35225106D01*
X147499394Y-35225106D01*
X147544768Y-35221415D01*
X147554983Y-35221000D01*
X147563043Y-35221000D01*
X147576333Y-35219451D01*
X147591257Y-35217711D01*
X147595632Y-35217278D01*
X147661089Y-35211954D01*
X147661092Y-35211953D01*
X147668387Y-35211360D01*
X147675351Y-35209104D01*
X147681310Y-35207913D01*
X147687165Y-35206529D01*
X147694431Y-35205682D01*
X147763077Y-35180765D01*
X147767205Y-35179348D01*
X147829686Y-35159107D01*
X147829688Y-35159106D01*
X147836649Y-35156851D01*
X147842904Y-35153055D01*
X147848378Y-35150549D01*
X147853808Y-35147830D01*
X147860687Y-35145333D01*
X147883401Y-35130441D01*
X147921726Y-35105314D01*
X147925430Y-35102977D01*
X147987857Y-35065095D01*
X147996234Y-35057697D01*
X147996258Y-35057724D01*
X147999250Y-35055071D01*
X148002483Y-35052368D01*
X148008602Y-35048356D01*
X148061878Y-34992117D01*
X148064256Y-34989675D01*
X149517026Y-33536905D01*
X149579338Y-33502879D01*
X149606121Y-33500000D01*
X150803956Y-33500000D01*
X150872077Y-33520002D01*
X150918570Y-33573658D01*
X150929956Y-33626000D01*
X150929956Y-35298134D01*
X150936711Y-35360316D01*
X150987841Y-35496705D01*
X151075195Y-35613261D01*
X151191751Y-35700615D01*
X151328140Y-35751745D01*
X151390322Y-35758500D01*
X153686590Y-35758500D01*
X153748772Y-35751745D01*
X153885161Y-35700615D01*
X154001717Y-35613261D01*
X154089071Y-35496705D01*
X154140201Y-35360316D01*
X154146956Y-35298134D01*
X154146956Y-35034500D01*
X154166958Y-34966379D01*
X154220614Y-34919886D01*
X154272956Y-34908500D01*
X157782930Y-34908500D01*
X157801880Y-34909933D01*
X157816115Y-34912099D01*
X157816119Y-34912099D01*
X157823349Y-34913199D01*
X157830641Y-34912606D01*
X157830644Y-34912606D01*
X157876018Y-34908915D01*
X157886233Y-34908500D01*
X157894293Y-34908500D01*
X157907583Y-34906951D01*
X157922507Y-34905211D01*
X157926882Y-34904778D01*
X157992339Y-34899454D01*
X157992342Y-34899453D01*
X157999637Y-34898860D01*
X158006601Y-34896604D01*
X158012560Y-34895413D01*
X158018415Y-34894029D01*
X158025681Y-34893182D01*
X158094327Y-34868265D01*
X158098455Y-34866848D01*
X158160936Y-34846607D01*
X158160938Y-34846606D01*
X158167899Y-34844351D01*
X158174154Y-34840555D01*
X158179628Y-34838049D01*
X158185058Y-34835330D01*
X158191937Y-34832833D01*
X158252976Y-34792814D01*
X158256680Y-34790477D01*
X158319107Y-34752595D01*
X158327484Y-34745197D01*
X158327508Y-34745224D01*
X158330500Y-34742571D01*
X158333733Y-34739868D01*
X158339852Y-34735856D01*
X158393128Y-34679617D01*
X158395506Y-34677175D01*
X159535776Y-33536905D01*
X159598088Y-33502879D01*
X159624871Y-33500000D01*
X164419340Y-33500000D01*
X164487461Y-33520002D01*
X164533954Y-33573658D01*
X164545340Y-33626000D01*
X164545340Y-35298134D01*
X164552095Y-35360316D01*
X164603225Y-35496705D01*
X164690579Y-35613261D01*
X164807135Y-35700615D01*
X164943524Y-35751745D01*
X165005706Y-35758500D01*
X167301974Y-35758500D01*
X167364156Y-35751745D01*
X167500545Y-35700615D01*
X167617101Y-35613261D01*
X167704455Y-35496705D01*
X167755585Y-35360316D01*
X167762340Y-35298134D01*
X167762340Y-35034500D01*
X167782342Y-34966379D01*
X167835998Y-34919886D01*
X167888340Y-34908500D01*
X168301680Y-34908500D01*
X168320630Y-34909933D01*
X168334865Y-34912099D01*
X168334869Y-34912099D01*
X168342099Y-34913199D01*
X168349391Y-34912606D01*
X168349394Y-34912606D01*
X168394768Y-34908915D01*
X168404983Y-34908500D01*
X168413043Y-34908500D01*
X168426333Y-34906951D01*
X168441257Y-34905211D01*
X168445632Y-34904778D01*
X168511089Y-34899454D01*
X168511092Y-34899453D01*
X168518387Y-34898860D01*
X168525351Y-34896604D01*
X168531310Y-34895413D01*
X168537165Y-34894029D01*
X168544431Y-34893182D01*
X168613077Y-34868265D01*
X168617205Y-34866848D01*
X168679686Y-34846607D01*
X168679688Y-34846606D01*
X168686649Y-34844351D01*
X168692904Y-34840555D01*
X168698378Y-34838049D01*
X168703808Y-34835330D01*
X168710687Y-34832833D01*
X168771726Y-34792814D01*
X168775430Y-34790477D01*
X168837857Y-34752595D01*
X168846234Y-34745197D01*
X168846258Y-34745224D01*
X168849250Y-34742571D01*
X168852483Y-34739868D01*
X168858602Y-34735856D01*
X168911878Y-34679617D01*
X168914256Y-34677175D01*
X170054526Y-33536905D01*
X170116838Y-33502879D01*
X170143621Y-33500000D01*
X171658931Y-33500000D01*
X171727052Y-33520002D01*
X171773545Y-33573658D01*
X171783649Y-33643932D01*
X171766192Y-33692114D01*
X171740829Y-33733260D01*
X171697691Y-33803243D01*
X171682885Y-33827262D01*
X171627203Y-33995139D01*
X171626503Y-34001975D01*
X171626502Y-34001978D01*
X171622999Y-34036169D01*
X171616500Y-34099600D01*
X171616500Y-34825400D01*
X171616837Y-34828646D01*
X171616837Y-34828650D01*
X171626600Y-34922740D01*
X171627474Y-34931166D01*
X171629655Y-34937702D01*
X171629655Y-34937704D01*
X171661180Y-35032194D01*
X171683450Y-35098946D01*
X171776522Y-35249348D01*
X171901697Y-35374305D01*
X171907927Y-35378145D01*
X171907928Y-35378146D01*
X172045090Y-35462694D01*
X172052262Y-35467115D01*
X172092665Y-35480516D01*
X172213611Y-35520632D01*
X172213613Y-35520632D01*
X172220139Y-35522797D01*
X172226975Y-35523497D01*
X172226978Y-35523498D01*
X172270031Y-35527909D01*
X172324600Y-35533500D01*
X173675400Y-35533500D01*
X173678646Y-35533163D01*
X173678650Y-35533163D01*
X173774308Y-35523238D01*
X173774312Y-35523237D01*
X173781166Y-35522526D01*
X173787702Y-35520345D01*
X173787704Y-35520345D01*
X173926906Y-35473903D01*
X173948946Y-35466550D01*
X174099348Y-35373478D01*
X174161340Y-35311378D01*
X174214643Y-35257982D01*
X174276926Y-35223903D01*
X174303816Y-35221000D01*
X174451680Y-35221000D01*
X174470630Y-35222433D01*
X174484865Y-35224599D01*
X174484869Y-35224599D01*
X174492099Y-35225699D01*
X174499391Y-35225106D01*
X174499394Y-35225106D01*
X174544768Y-35221415D01*
X174554983Y-35221000D01*
X174563043Y-35221000D01*
X174576333Y-35219451D01*
X174591257Y-35217711D01*
X174595632Y-35217278D01*
X174661089Y-35211954D01*
X174661092Y-35211953D01*
X174668387Y-35211360D01*
X174675351Y-35209104D01*
X174681310Y-35207913D01*
X174687165Y-35206529D01*
X174694431Y-35205682D01*
X174763077Y-35180765D01*
X174767205Y-35179348D01*
X174829686Y-35159107D01*
X174829688Y-35159106D01*
X174836649Y-35156851D01*
X174842904Y-35153055D01*
X174848378Y-35150549D01*
X174853808Y-35147830D01*
X174860687Y-35145333D01*
X174883401Y-35130441D01*
X174921726Y-35105314D01*
X174925430Y-35102977D01*
X174987857Y-35065095D01*
X174996234Y-35057697D01*
X174996258Y-35057724D01*
X174999250Y-35055071D01*
X175002483Y-35052368D01*
X175008602Y-35048356D01*
X175061878Y-34992117D01*
X175064256Y-34989675D01*
X176517026Y-33536905D01*
X176579338Y-33502879D01*
X176606121Y-33500000D01*
X178034724Y-33500000D01*
X178102845Y-33520002D01*
X178149338Y-33573658D01*
X178160724Y-33626000D01*
X178160724Y-35298134D01*
X178167479Y-35360316D01*
X178218609Y-35496705D01*
X178305963Y-35613261D01*
X178422519Y-35700615D01*
X178558908Y-35751745D01*
X178621090Y-35758500D01*
X180917358Y-35758500D01*
X180979540Y-35751745D01*
X181115929Y-35700615D01*
X181232485Y-35613261D01*
X181319839Y-35496705D01*
X181370969Y-35360316D01*
X181377724Y-35298134D01*
X181377724Y-35034500D01*
X181397726Y-34966379D01*
X181451382Y-34919886D01*
X181503724Y-34908500D01*
X181583629Y-34908500D01*
X181651750Y-34928502D01*
X181672724Y-34945405D01*
X183866230Y-37138911D01*
X183878616Y-37153323D01*
X183887149Y-37164918D01*
X183887154Y-37164923D01*
X183891492Y-37170818D01*
X183897070Y-37175557D01*
X183897073Y-37175560D01*
X183931768Y-37205035D01*
X183939284Y-37211965D01*
X183944979Y-37217660D01*
X183947861Y-37219940D01*
X183967251Y-37235281D01*
X183970655Y-37238072D01*
X184020703Y-37280591D01*
X184026285Y-37285333D01*
X184032801Y-37288661D01*
X184037850Y-37292028D01*
X184042979Y-37295195D01*
X184048716Y-37299734D01*
X184114875Y-37330655D01*
X184118769Y-37332558D01*
X184183808Y-37365769D01*
X184190916Y-37367508D01*
X184196559Y-37369607D01*
X184202322Y-37371524D01*
X184208950Y-37374622D01*
X184216112Y-37376112D01*
X184216113Y-37376112D01*
X184280412Y-37389486D01*
X184284696Y-37390456D01*
X184355610Y-37407808D01*
X184361212Y-37408156D01*
X184361215Y-37408156D01*
X184366764Y-37408500D01*
X184366762Y-37408536D01*
X184370755Y-37408775D01*
X184374947Y-37409149D01*
X184382115Y-37410640D01*
X184459520Y-37408546D01*
X184462928Y-37408500D01*
X188282930Y-37408500D01*
X188301880Y-37409933D01*
X188316115Y-37412099D01*
X188316119Y-37412099D01*
X188323349Y-37413199D01*
X188330641Y-37412606D01*
X188330644Y-37412606D01*
X188376018Y-37408915D01*
X188386233Y-37408500D01*
X188394293Y-37408500D01*
X188411680Y-37406473D01*
X188422507Y-37405211D01*
X188426882Y-37404778D01*
X188492339Y-37399454D01*
X188492342Y-37399453D01*
X188499637Y-37398860D01*
X188506601Y-37396604D01*
X188512560Y-37395413D01*
X188518415Y-37394029D01*
X188525681Y-37393182D01*
X188594327Y-37368265D01*
X188598455Y-37366848D01*
X188660936Y-37346607D01*
X188660938Y-37346606D01*
X188667899Y-37344351D01*
X188674154Y-37340555D01*
X188679628Y-37338049D01*
X188685058Y-37335330D01*
X188691937Y-37332833D01*
X188698058Y-37328820D01*
X188752976Y-37292814D01*
X188756680Y-37290477D01*
X188819107Y-37252595D01*
X188827484Y-37245197D01*
X188827508Y-37245224D01*
X188830500Y-37242571D01*
X188833733Y-37239868D01*
X188839852Y-37235856D01*
X188893128Y-37179617D01*
X188895506Y-37177175D01*
X191561013Y-34511668D01*
X191623325Y-34477642D01*
X191694140Y-34482707D01*
X191750976Y-34525254D01*
X191775787Y-34591774D01*
X191776108Y-34600763D01*
X191776108Y-35298134D01*
X191782863Y-35360316D01*
X191833993Y-35496705D01*
X191921347Y-35613261D01*
X192037903Y-35700615D01*
X192174292Y-35751745D01*
X192236474Y-35758500D01*
X194532742Y-35758500D01*
X194594924Y-35751745D01*
X194731313Y-35700615D01*
X194847869Y-35613261D01*
X194935223Y-35496705D01*
X194986353Y-35360316D01*
X194990851Y-35318915D01*
X205400000Y-35318915D01*
X205400369Y-35325729D01*
X205405789Y-35375621D01*
X205409414Y-35390867D01*
X205453767Y-35509177D01*
X205462299Y-35524763D01*
X205537430Y-35625009D01*
X205549991Y-35637570D01*
X205650237Y-35712701D01*
X205665823Y-35721233D01*
X205784133Y-35765586D01*
X205799379Y-35769211D01*
X205849271Y-35774631D01*
X205856085Y-35775000D01*
X206731885Y-35775000D01*
X206747124Y-35770525D01*
X206748329Y-35769135D01*
X206750000Y-35761452D01*
X206750000Y-35756885D01*
X207250000Y-35756885D01*
X207254475Y-35772124D01*
X207255865Y-35773329D01*
X207263548Y-35775000D01*
X208143915Y-35775000D01*
X208150729Y-35774631D01*
X208200621Y-35769211D01*
X208215867Y-35765586D01*
X208334177Y-35721233D01*
X208349763Y-35712701D01*
X208450009Y-35637570D01*
X208462570Y-35625009D01*
X208537701Y-35524763D01*
X208546233Y-35509177D01*
X208590586Y-35390867D01*
X208594211Y-35375621D01*
X208599631Y-35325729D01*
X208600000Y-35318915D01*
X208600000Y-34846567D01*
X209000001Y-34846567D01*
X209000339Y-34853087D01*
X209010140Y-34947560D01*
X209013031Y-34960951D01*
X209063882Y-35113368D01*
X209070056Y-35126547D01*
X209154374Y-35262804D01*
X209163410Y-35274205D01*
X209276821Y-35387418D01*
X209288232Y-35396430D01*
X209424646Y-35480516D01*
X209437827Y-35486663D01*
X209590343Y-35537251D01*
X209603719Y-35540118D01*
X209696966Y-35549672D01*
X209703382Y-35550000D01*
X210231885Y-35550000D01*
X210247124Y-35545525D01*
X210248329Y-35544135D01*
X210250000Y-35536452D01*
X210250000Y-35531884D01*
X210750000Y-35531884D01*
X210754475Y-35547123D01*
X210755865Y-35548328D01*
X210763548Y-35549999D01*
X211296567Y-35549999D01*
X211303087Y-35549661D01*
X211397560Y-35539860D01*
X211410951Y-35536969D01*
X211563368Y-35486118D01*
X211576547Y-35479944D01*
X211712804Y-35395626D01*
X211724205Y-35386590D01*
X211837418Y-35273179D01*
X211846430Y-35261768D01*
X211930516Y-35125354D01*
X211936663Y-35112173D01*
X211987251Y-34959657D01*
X211990118Y-34946281D01*
X211999672Y-34853034D01*
X212000000Y-34846618D01*
X212000000Y-34468115D01*
X211995525Y-34452876D01*
X211994135Y-34451671D01*
X211986452Y-34450000D01*
X210768115Y-34450000D01*
X210752876Y-34454475D01*
X210751671Y-34455865D01*
X210750000Y-34463548D01*
X210750000Y-35531884D01*
X210250000Y-35531884D01*
X210250000Y-34468115D01*
X210245525Y-34452876D01*
X210244135Y-34451671D01*
X210236452Y-34450000D01*
X209018116Y-34450000D01*
X209002877Y-34454475D01*
X209001672Y-34455865D01*
X209000001Y-34463548D01*
X209000001Y-34846567D01*
X208600000Y-34846567D01*
X208600000Y-34443115D01*
X208595525Y-34427876D01*
X208594135Y-34426671D01*
X208586452Y-34425000D01*
X207268115Y-34425000D01*
X207252876Y-34429475D01*
X207251671Y-34430865D01*
X207250000Y-34438548D01*
X207250000Y-35756885D01*
X206750000Y-35756885D01*
X206750000Y-34443115D01*
X206745525Y-34427876D01*
X206744135Y-34426671D01*
X206736452Y-34425000D01*
X205418115Y-34425000D01*
X205402876Y-34429475D01*
X205401671Y-34430865D01*
X205400000Y-34438548D01*
X205400000Y-35318915D01*
X194990851Y-35318915D01*
X194993108Y-35298134D01*
X194993108Y-35034500D01*
X195013110Y-34966379D01*
X195066766Y-34919886D01*
X195119108Y-34908500D01*
X199070430Y-34908500D01*
X199089380Y-34909933D01*
X199103615Y-34912099D01*
X199103619Y-34912099D01*
X199110849Y-34913199D01*
X199118141Y-34912606D01*
X199118144Y-34912606D01*
X199163518Y-34908915D01*
X199173733Y-34908500D01*
X199181793Y-34908500D01*
X199195083Y-34906951D01*
X199210007Y-34905211D01*
X199214382Y-34904778D01*
X199279839Y-34899454D01*
X199279842Y-34899453D01*
X199287137Y-34898860D01*
X199294101Y-34896604D01*
X199300060Y-34895413D01*
X199305915Y-34894029D01*
X199313181Y-34893182D01*
X199381827Y-34868265D01*
X199385955Y-34866848D01*
X199448436Y-34846607D01*
X199448438Y-34846606D01*
X199455399Y-34844351D01*
X199461654Y-34840555D01*
X199467128Y-34838049D01*
X199472558Y-34835330D01*
X199479437Y-34832833D01*
X199540476Y-34792814D01*
X199544180Y-34790477D01*
X199606607Y-34752595D01*
X199614984Y-34745197D01*
X199615008Y-34745224D01*
X199618000Y-34742571D01*
X199621233Y-34739868D01*
X199627352Y-34735856D01*
X199680628Y-34679617D01*
X199683006Y-34677175D01*
X200823276Y-33536905D01*
X200885588Y-33502879D01*
X200912371Y-33500000D01*
X205274000Y-33500000D01*
X205342121Y-33520002D01*
X205388614Y-33573658D01*
X205400000Y-33626000D01*
X205400000Y-33906885D01*
X205404475Y-33922124D01*
X205405865Y-33923329D01*
X205413548Y-33925000D01*
X208581885Y-33925000D01*
X208597124Y-33920525D01*
X208598329Y-33919135D01*
X208600000Y-33911452D01*
X208600000Y-33626000D01*
X208620002Y-33557879D01*
X208673658Y-33511386D01*
X208726000Y-33500000D01*
X208874000Y-33500000D01*
X208942121Y-33520002D01*
X208988614Y-33573658D01*
X209000000Y-33626000D01*
X209000000Y-33931885D01*
X209004475Y-33947124D01*
X209005865Y-33948329D01*
X209013548Y-33950000D01*
X211981884Y-33950000D01*
X211997123Y-33945525D01*
X211998328Y-33944135D01*
X211999999Y-33936452D01*
X211999999Y-33626000D01*
X212020001Y-33557879D01*
X212073657Y-33511386D01*
X212125999Y-33500000D01*
X213374000Y-33500000D01*
X213442121Y-33520002D01*
X213488614Y-33573658D01*
X213500000Y-33626000D01*
X213500000Y-37865500D01*
X213479998Y-37933621D01*
X213426342Y-37980114D01*
X213374000Y-37991500D01*
X23626000Y-37991500D01*
X23557879Y-37971498D01*
X23511386Y-37917842D01*
X23500000Y-37865500D01*
X23500000Y-34630425D01*
X23520002Y-34562304D01*
X23573658Y-34515811D01*
X23643932Y-34505707D01*
X23708512Y-34535201D01*
X23715095Y-34541330D01*
X24043149Y-34869384D01*
X24052251Y-34879527D01*
X24075968Y-34909025D01*
X24114446Y-34941312D01*
X24118062Y-34944467D01*
X24119888Y-34946123D01*
X24122074Y-34948309D01*
X24124454Y-34950264D01*
X24124464Y-34950273D01*
X24155268Y-34975576D01*
X24156283Y-34976418D01*
X24227474Y-35036154D01*
X24232148Y-35038723D01*
X24236261Y-35042102D01*
X24241698Y-35045017D01*
X24241699Y-35045018D01*
X24265396Y-35057724D01*
X24292271Y-35072134D01*
X24318047Y-35085955D01*
X24319177Y-35086568D01*
X24400787Y-35131433D01*
X24405869Y-35133045D01*
X24410563Y-35135562D01*
X24499531Y-35162762D01*
X24500559Y-35163082D01*
X24589306Y-35191235D01*
X24594602Y-35191829D01*
X24599698Y-35193387D01*
X24692222Y-35202785D01*
X24693342Y-35202905D01*
X24726664Y-35206642D01*
X24739730Y-35208108D01*
X24739734Y-35208108D01*
X24743227Y-35208500D01*
X24746754Y-35208500D01*
X24747757Y-35208556D01*
X24753441Y-35209003D01*
X24776644Y-35211360D01*
X24790336Y-35212751D01*
X24790338Y-35212751D01*
X24796462Y-35213373D01*
X24842101Y-35209059D01*
X24853957Y-35208500D01*
X25392299Y-35208500D01*
X25460420Y-35228502D01*
X25472190Y-35237066D01*
X25573627Y-35320240D01*
X25573633Y-35320244D01*
X25577755Y-35323624D01*
X25582391Y-35326263D01*
X25582394Y-35326265D01*
X25712893Y-35400549D01*
X25778114Y-35437675D01*
X25994825Y-35516337D01*
X26000074Y-35517286D01*
X26000077Y-35517287D01*
X26217608Y-35556623D01*
X26217615Y-35556624D01*
X26221692Y-35557361D01*
X26239414Y-35558197D01*
X26244356Y-35558430D01*
X26244363Y-35558430D01*
X26245844Y-35558500D01*
X26707890Y-35558500D01*
X26774809Y-35552822D01*
X26874409Y-35544371D01*
X26874413Y-35544370D01*
X26879720Y-35543920D01*
X26884875Y-35542582D01*
X26884881Y-35542581D01*
X27097703Y-35487343D01*
X27097707Y-35487342D01*
X27102872Y-35486001D01*
X27107738Y-35483809D01*
X27107741Y-35483808D01*
X27290811Y-35401341D01*
X27313075Y-35391312D01*
X27504319Y-35262559D01*
X27524697Y-35243120D01*
X27621735Y-35150549D01*
X27671135Y-35103424D01*
X27694416Y-35072134D01*
X27788705Y-34945405D01*
X27808754Y-34918458D01*
X27811730Y-34912606D01*
X27893083Y-34752595D01*
X27913240Y-34712949D01*
X27981607Y-34492773D01*
X27990406Y-34426382D01*
X28011198Y-34269511D01*
X28011198Y-34269506D01*
X28011898Y-34264226D01*
X28011182Y-34245139D01*
X28003449Y-34039173D01*
X28003249Y-34033842D01*
X27955907Y-33808209D01*
X27930219Y-33743163D01*
X27902227Y-33672281D01*
X27895809Y-33601575D01*
X27928637Y-33538624D01*
X27990287Y-33503414D01*
X28019419Y-33500000D01*
X28265500Y-33500000D01*
X28333621Y-33520002D01*
G37*
%TD.AperFunction*%
%TA.AperFunction,Conductor*%
G36*
X49334879Y-33915734D02*
G01*
X49379942Y-33944695D01*
X49555305Y-34120058D01*
X49589331Y-34182370D01*
X49584266Y-34253185D01*
X49555305Y-34298248D01*
X48452212Y-35401341D01*
X48389900Y-35435367D01*
X48319085Y-35430302D01*
X48274022Y-35401341D01*
X48098659Y-35225978D01*
X48064633Y-35163666D01*
X48069698Y-35092851D01*
X48098659Y-35047788D01*
X49201752Y-33944695D01*
X49264064Y-33910669D01*
X49334879Y-33915734D01*
G37*
%TD.AperFunction*%
%TA.AperFunction,Conductor*%
G36*
X185334879Y-33915734D02*
G01*
X185379942Y-33944695D01*
X185555305Y-34120058D01*
X185589331Y-34182370D01*
X185584266Y-34253185D01*
X185555305Y-34298248D01*
X184452212Y-35401341D01*
X184389900Y-35435367D01*
X184319085Y-35430302D01*
X184274022Y-35401341D01*
X184098659Y-35225978D01*
X184064633Y-35163666D01*
X184069698Y-35092851D01*
X184098659Y-35047788D01*
X185201752Y-33944695D01*
X185264064Y-33910669D01*
X185334879Y-33915734D01*
G37*
%TD.AperFunction*%
%TA.AperFunction,Conductor*%
G36*
X187753185Y-33915734D02*
G01*
X187798248Y-33944695D01*
X188801341Y-34947788D01*
X188835367Y-35010100D01*
X188830302Y-35080915D01*
X188801341Y-35125978D01*
X188625978Y-35301341D01*
X188563666Y-35335367D01*
X188492851Y-35330302D01*
X188447788Y-35301341D01*
X187444695Y-34298248D01*
X187410669Y-34235936D01*
X187415734Y-34165121D01*
X187444695Y-34120058D01*
X187620058Y-33944695D01*
X187682370Y-33910669D01*
X187753185Y-33915734D01*
G37*
%TD.AperFunction*%
%TA.AperFunction,Conductor*%
G36*
X51753185Y-33915734D02*
G01*
X51798248Y-33944695D01*
X52641725Y-34788172D01*
X52675751Y-34850484D01*
X52670686Y-34921299D01*
X52641725Y-34966362D01*
X52466362Y-35141725D01*
X52404050Y-35175751D01*
X52333235Y-35170686D01*
X52288172Y-35141725D01*
X51444695Y-34298248D01*
X51410669Y-34235936D01*
X51415734Y-34165121D01*
X51444695Y-34120058D01*
X51620058Y-33944695D01*
X51682370Y-33910669D01*
X51753185Y-33915734D01*
G37*
%TD.AperFunction*%
%TD*%
%TA.AperFunction,Conductor*%
%TO.N,+24V*%
G36*
X213442121Y-28028502D02*
G01*
X213488614Y-28082158D01*
X213500000Y-28134500D01*
X213500000Y-32374000D01*
X213479998Y-32442121D01*
X213426342Y-32488614D01*
X213374000Y-32500000D01*
X211964295Y-32500000D01*
X211896174Y-32479998D01*
X211849681Y-32426342D01*
X211839577Y-32356068D01*
X211850100Y-32320750D01*
X211921108Y-32168473D01*
X211924854Y-32158181D01*
X211975948Y-31967497D01*
X211975612Y-31953401D01*
X211967670Y-31950000D01*
X209037479Y-31950000D01*
X209023948Y-31953973D01*
X209022719Y-31962522D01*
X209075146Y-32158181D01*
X209078892Y-32168473D01*
X209149901Y-32320750D01*
X209160562Y-32390941D01*
X209131582Y-32455754D01*
X209072163Y-32494611D01*
X209035706Y-32500000D01*
X208734500Y-32500000D01*
X208666379Y-32479998D01*
X208619886Y-32426342D01*
X208608500Y-32374000D01*
X208608500Y-31432503D01*
X209024052Y-31432503D01*
X209024388Y-31446599D01*
X209032330Y-31450000D01*
X210231885Y-31450000D01*
X210247124Y-31445525D01*
X210248329Y-31444135D01*
X210250000Y-31436452D01*
X210250000Y-31431885D01*
X210750000Y-31431885D01*
X210754475Y-31447124D01*
X210755865Y-31448329D01*
X210763548Y-31450000D01*
X211962521Y-31450000D01*
X211976052Y-31446027D01*
X211977281Y-31437478D01*
X211924854Y-31241819D01*
X211921108Y-31231527D01*
X211825926Y-31027409D01*
X211820443Y-31017913D01*
X211691269Y-30833433D01*
X211684213Y-30825025D01*
X211524975Y-30665787D01*
X211516567Y-30658731D01*
X211332087Y-30529557D01*
X211322591Y-30524074D01*
X211118473Y-30428892D01*
X211108181Y-30425146D01*
X210890636Y-30366855D01*
X210879841Y-30364952D01*
X210768046Y-30355171D01*
X210753099Y-30358175D01*
X210750000Y-30369925D01*
X210750000Y-31431885D01*
X210250000Y-31431885D01*
X210250000Y-30371707D01*
X210245705Y-30357078D01*
X210233728Y-30355016D01*
X210120159Y-30364952D01*
X210109364Y-30366855D01*
X209891819Y-30425146D01*
X209881527Y-30428892D01*
X209677409Y-30524074D01*
X209667913Y-30529557D01*
X209483433Y-30658731D01*
X209475025Y-30665787D01*
X209315787Y-30825025D01*
X209308731Y-30833433D01*
X209179557Y-31017913D01*
X209174074Y-31027408D01*
X209078892Y-31231527D01*
X209075146Y-31241819D01*
X209024052Y-31432503D01*
X208608500Y-31432503D01*
X208608500Y-31226866D01*
X208601745Y-31164684D01*
X208550615Y-31028295D01*
X208463261Y-30911739D01*
X208346705Y-30824385D01*
X208210316Y-30773255D01*
X208148134Y-30766500D01*
X205851866Y-30766500D01*
X205789684Y-30773255D01*
X205653295Y-30824385D01*
X205536739Y-30911739D01*
X205449385Y-31028295D01*
X205446233Y-31036703D01*
X205446231Y-31036707D01*
X205437599Y-31059731D01*
X205394957Y-31116495D01*
X205328395Y-31141194D01*
X205319618Y-31141500D01*
X201454570Y-31141500D01*
X201435620Y-31140067D01*
X201421385Y-31137901D01*
X201421381Y-31137901D01*
X201414151Y-31136801D01*
X201406859Y-31137394D01*
X201406856Y-31137394D01*
X201361482Y-31141085D01*
X201351267Y-31141500D01*
X201343207Y-31141500D01*
X201339573Y-31141924D01*
X201339567Y-31141924D01*
X201328573Y-31143206D01*
X201314980Y-31144791D01*
X201310632Y-31145221D01*
X201288559Y-31147016D01*
X201245162Y-31150546D01*
X201245159Y-31150547D01*
X201237864Y-31151140D01*
X201230900Y-31153396D01*
X201224961Y-31154583D01*
X201219090Y-31155970D01*
X201211819Y-31156818D01*
X201204943Y-31159314D01*
X201204934Y-31159316D01*
X201143202Y-31181725D01*
X201139098Y-31183135D01*
X201069601Y-31205648D01*
X201063346Y-31209444D01*
X201057887Y-31211943D01*
X201052439Y-31214671D01*
X201045563Y-31217167D01*
X200984510Y-31257195D01*
X200980837Y-31259513D01*
X200953466Y-31276122D01*
X200932007Y-31289144D01*
X200918393Y-31297405D01*
X200910017Y-31304802D01*
X200909993Y-31304775D01*
X200906999Y-31307430D01*
X200903768Y-31310132D01*
X200897648Y-31314144D01*
X200868055Y-31345383D01*
X200844372Y-31370383D01*
X200841994Y-31372825D01*
X199751724Y-32463095D01*
X199689412Y-32497121D01*
X199662629Y-32500000D01*
X195119108Y-32500000D01*
X195050987Y-32479998D01*
X195004494Y-32426342D01*
X194993108Y-32374000D01*
X194993108Y-31201866D01*
X194986353Y-31139684D01*
X194935223Y-31003295D01*
X194847869Y-30886739D01*
X194731313Y-30799385D01*
X194594924Y-30748255D01*
X194532742Y-30741500D01*
X192236474Y-30741500D01*
X192174292Y-30748255D01*
X192037903Y-30799385D01*
X191921347Y-30886739D01*
X191833993Y-31003295D01*
X191782863Y-31139684D01*
X191776108Y-31201866D01*
X191776108Y-31533629D01*
X191756106Y-31601750D01*
X191739203Y-31622724D01*
X191345697Y-32016230D01*
X191331285Y-32028616D01*
X191319690Y-32037149D01*
X191319685Y-32037154D01*
X191313790Y-32041492D01*
X191309051Y-32047070D01*
X191309048Y-32047073D01*
X191279573Y-32081768D01*
X191272643Y-32089284D01*
X191266948Y-32094979D01*
X191264668Y-32097861D01*
X191249327Y-32117251D01*
X191246536Y-32120655D01*
X191208190Y-32165791D01*
X191199275Y-32176285D01*
X191195947Y-32182801D01*
X191192580Y-32187850D01*
X191189413Y-32192979D01*
X191184874Y-32198716D01*
X191153953Y-32264875D01*
X191152050Y-32268769D01*
X191118839Y-32333808D01*
X191117100Y-32340916D01*
X191115001Y-32346559D01*
X191113084Y-32352322D01*
X191109986Y-32358950D01*
X191108496Y-32366112D01*
X191108495Y-32366116D01*
X191101519Y-32399657D01*
X191068065Y-32462278D01*
X191006066Y-32496871D01*
X190978159Y-32500000D01*
X190283149Y-32500000D01*
X190215028Y-32479998D01*
X190168535Y-32426342D01*
X190158700Y-32393711D01*
X190151840Y-32350400D01*
X190132438Y-32227901D01*
X190031833Y-31852438D01*
X189892532Y-31489547D01*
X189869393Y-31444135D01*
X189717561Y-31146147D01*
X189717557Y-31146140D01*
X189716062Y-31143206D01*
X189707660Y-31130267D01*
X189506152Y-30819971D01*
X189506152Y-30819970D01*
X189504357Y-30817207D01*
X189277697Y-30537306D01*
X189261809Y-30517686D01*
X189261806Y-30517682D01*
X189259734Y-30515124D01*
X188984876Y-30240266D01*
X188682793Y-29995643D01*
X188356795Y-29783938D01*
X188353861Y-29782443D01*
X188353854Y-29782439D01*
X188013393Y-29608966D01*
X188010453Y-29607468D01*
X187647562Y-29468167D01*
X187272099Y-29367562D01*
X187068207Y-29335268D01*
X186891424Y-29307268D01*
X186891416Y-29307267D01*
X186888176Y-29306754D01*
X186500000Y-29286411D01*
X186111824Y-29306754D01*
X186108584Y-29307267D01*
X186108576Y-29307268D01*
X185931793Y-29335268D01*
X185727901Y-29367562D01*
X185352438Y-29468167D01*
X184989547Y-29607468D01*
X184986607Y-29608966D01*
X184646147Y-29782439D01*
X184646140Y-29782443D01*
X184643206Y-29783938D01*
X184317207Y-29995643D01*
X184015124Y-30240266D01*
X183740266Y-30515124D01*
X183738194Y-30517682D01*
X183738191Y-30517686D01*
X183722303Y-30537306D01*
X183495643Y-30817207D01*
X183493848Y-30819970D01*
X183493848Y-30819971D01*
X183292341Y-31130267D01*
X183283938Y-31143206D01*
X183282443Y-31146140D01*
X183282439Y-31146147D01*
X183130607Y-31444135D01*
X183107468Y-31489547D01*
X182968167Y-31852438D01*
X182867562Y-32227901D01*
X182848160Y-32350400D01*
X182841300Y-32393711D01*
X182810887Y-32457864D01*
X182750619Y-32495391D01*
X182716851Y-32500000D01*
X181503724Y-32500000D01*
X181435603Y-32479998D01*
X181389110Y-32426342D01*
X181377724Y-32374000D01*
X181377724Y-31201866D01*
X181370969Y-31139684D01*
X181319839Y-31003295D01*
X181232485Y-30886739D01*
X181115929Y-30799385D01*
X180979540Y-30748255D01*
X180917358Y-30741500D01*
X178621090Y-30741500D01*
X178558908Y-30748255D01*
X178422519Y-30799385D01*
X178305963Y-30886739D01*
X178218609Y-31003295D01*
X178215457Y-31011703D01*
X178215455Y-31011707D01*
X178206823Y-31034731D01*
X178164181Y-31091495D01*
X178097619Y-31116194D01*
X178088842Y-31116500D01*
X177173320Y-31116500D01*
X177154370Y-31115067D01*
X177140135Y-31112901D01*
X177140131Y-31112901D01*
X177132901Y-31111801D01*
X177125609Y-31112394D01*
X177125606Y-31112394D01*
X177080232Y-31116085D01*
X177070017Y-31116500D01*
X177061957Y-31116500D01*
X177058323Y-31116924D01*
X177058317Y-31116924D01*
X177045292Y-31118443D01*
X177033730Y-31119791D01*
X177029382Y-31120221D01*
X177007309Y-31122016D01*
X176963912Y-31125546D01*
X176963909Y-31125547D01*
X176956614Y-31126140D01*
X176949650Y-31128396D01*
X176943711Y-31129583D01*
X176937840Y-31130970D01*
X176930569Y-31131818D01*
X176923693Y-31134314D01*
X176923684Y-31134316D01*
X176861952Y-31156725D01*
X176857848Y-31158135D01*
X176788351Y-31180648D01*
X176782096Y-31184444D01*
X176776637Y-31186943D01*
X176771189Y-31189671D01*
X176764313Y-31192167D01*
X176703260Y-31232195D01*
X176699587Y-31234513D01*
X176637143Y-31272405D01*
X176628767Y-31279802D01*
X176628743Y-31279775D01*
X176625749Y-31282430D01*
X176622518Y-31285132D01*
X176616398Y-31289144D01*
X176598175Y-31308381D01*
X176563122Y-31345383D01*
X176560744Y-31347825D01*
X175445474Y-32463095D01*
X175383162Y-32497121D01*
X175356379Y-32500000D01*
X174341069Y-32500000D01*
X174272948Y-32479998D01*
X174226455Y-32426342D01*
X174216351Y-32356068D01*
X174233809Y-32307884D01*
X174241135Y-32296000D01*
X174317115Y-32172738D01*
X174372797Y-32004861D01*
X174383500Y-31900400D01*
X174383500Y-31174600D01*
X174381794Y-31158153D01*
X174373238Y-31075692D01*
X174373237Y-31075688D01*
X174372526Y-31068834D01*
X174367183Y-31052817D01*
X174318868Y-30908002D01*
X174316550Y-30901054D01*
X174223478Y-30750652D01*
X174098303Y-30625695D01*
X174089841Y-30620479D01*
X173953968Y-30536725D01*
X173953966Y-30536724D01*
X173947738Y-30532885D01*
X173850688Y-30500695D01*
X173786389Y-30479368D01*
X173786387Y-30479368D01*
X173779861Y-30477203D01*
X173773025Y-30476503D01*
X173773022Y-30476502D01*
X173729969Y-30472091D01*
X173675400Y-30466500D01*
X172324600Y-30466500D01*
X172321354Y-30466837D01*
X172321350Y-30466837D01*
X172225692Y-30476762D01*
X172225688Y-30476763D01*
X172218834Y-30477474D01*
X172212298Y-30479655D01*
X172212296Y-30479655D01*
X172098304Y-30517686D01*
X172051054Y-30533450D01*
X171900652Y-30626522D01*
X171895479Y-30631704D01*
X171785357Y-30742018D01*
X171723074Y-30776097D01*
X171696184Y-30779000D01*
X171048320Y-30779000D01*
X171029370Y-30777567D01*
X171015135Y-30775401D01*
X171015131Y-30775401D01*
X171007901Y-30774301D01*
X171000609Y-30774894D01*
X171000606Y-30774894D01*
X170955232Y-30778585D01*
X170945017Y-30779000D01*
X170936957Y-30779000D01*
X170933323Y-30779424D01*
X170933317Y-30779424D01*
X170923395Y-30780581D01*
X170908730Y-30782291D01*
X170904382Y-30782721D01*
X170831614Y-30788640D01*
X170824653Y-30790895D01*
X170818713Y-30792082D01*
X170812838Y-30793471D01*
X170805569Y-30794318D01*
X170736920Y-30819236D01*
X170732792Y-30820653D01*
X170670314Y-30840893D01*
X170670312Y-30840894D01*
X170663351Y-30843149D01*
X170657096Y-30846945D01*
X170651622Y-30849451D01*
X170646192Y-30852170D01*
X170639313Y-30854667D01*
X170633193Y-30858680D01*
X170633192Y-30858680D01*
X170578274Y-30894686D01*
X170574570Y-30897023D01*
X170512143Y-30934905D01*
X170503766Y-30942303D01*
X170503742Y-30942276D01*
X170500750Y-30944929D01*
X170497517Y-30947632D01*
X170491398Y-30951644D01*
X170449276Y-30996109D01*
X170438122Y-31007883D01*
X170435744Y-31010325D01*
X168982974Y-32463095D01*
X168920662Y-32497121D01*
X168893879Y-32500000D01*
X167888340Y-32500000D01*
X167820219Y-32479998D01*
X167773726Y-32426342D01*
X167762340Y-32374000D01*
X167762340Y-31201866D01*
X167755585Y-31139684D01*
X167704455Y-31003295D01*
X167617101Y-30886739D01*
X167500545Y-30799385D01*
X167364156Y-30748255D01*
X167301974Y-30741500D01*
X165005706Y-30741500D01*
X164943524Y-30748255D01*
X164807135Y-30799385D01*
X164690579Y-30886739D01*
X164603225Y-31003295D01*
X164600073Y-31011703D01*
X164600071Y-31011707D01*
X164591439Y-31034731D01*
X164548797Y-31091495D01*
X164482235Y-31116194D01*
X164473458Y-31116500D01*
X160192070Y-31116500D01*
X160173120Y-31115067D01*
X160158885Y-31112901D01*
X160158881Y-31112901D01*
X160151651Y-31111801D01*
X160144359Y-31112394D01*
X160144356Y-31112394D01*
X160098982Y-31116085D01*
X160088767Y-31116500D01*
X160080707Y-31116500D01*
X160077073Y-31116924D01*
X160077067Y-31116924D01*
X160064042Y-31118443D01*
X160052480Y-31119791D01*
X160048132Y-31120221D01*
X159975364Y-31126140D01*
X159968403Y-31128395D01*
X159962463Y-31129582D01*
X159956588Y-31130971D01*
X159949319Y-31131818D01*
X159880670Y-31156736D01*
X159876542Y-31158153D01*
X159814064Y-31178393D01*
X159814062Y-31178394D01*
X159807101Y-31180649D01*
X159800846Y-31184445D01*
X159795372Y-31186951D01*
X159789942Y-31189670D01*
X159783063Y-31192167D01*
X159776943Y-31196180D01*
X159776942Y-31196180D01*
X159722024Y-31232186D01*
X159718327Y-31234519D01*
X159655893Y-31272405D01*
X159647516Y-31279803D01*
X159647492Y-31279776D01*
X159644500Y-31282429D01*
X159641267Y-31285132D01*
X159635148Y-31289144D01*
X159616925Y-31308381D01*
X159581872Y-31345383D01*
X159579494Y-31347825D01*
X158464224Y-32463095D01*
X158401912Y-32497121D01*
X158375129Y-32500000D01*
X154272956Y-32500000D01*
X154204835Y-32479998D01*
X154158342Y-32426342D01*
X154146956Y-32374000D01*
X154146956Y-31201866D01*
X154140201Y-31139684D01*
X154089071Y-31003295D01*
X154001717Y-30886739D01*
X153885161Y-30799385D01*
X153748772Y-30748255D01*
X153686590Y-30741500D01*
X151390322Y-30741500D01*
X151328140Y-30748255D01*
X151191751Y-30799385D01*
X151075195Y-30886739D01*
X150987841Y-31003295D01*
X150984689Y-31011703D01*
X150984687Y-31011707D01*
X150976055Y-31034731D01*
X150933413Y-31091495D01*
X150866851Y-31116194D01*
X150858074Y-31116500D01*
X150173320Y-31116500D01*
X150154370Y-31115067D01*
X150140135Y-31112901D01*
X150140131Y-31112901D01*
X150132901Y-31111801D01*
X150125609Y-31112394D01*
X150125606Y-31112394D01*
X150080232Y-31116085D01*
X150070017Y-31116500D01*
X150061957Y-31116500D01*
X150058323Y-31116924D01*
X150058317Y-31116924D01*
X150045292Y-31118443D01*
X150033730Y-31119791D01*
X150029382Y-31120221D01*
X150007309Y-31122016D01*
X149963912Y-31125546D01*
X149963909Y-31125547D01*
X149956614Y-31126140D01*
X149949650Y-31128396D01*
X149943711Y-31129583D01*
X149937840Y-31130970D01*
X149930569Y-31131818D01*
X149923693Y-31134314D01*
X149923684Y-31134316D01*
X149861952Y-31156725D01*
X149857848Y-31158135D01*
X149788351Y-31180648D01*
X149782096Y-31184444D01*
X149776637Y-31186943D01*
X149771189Y-31189671D01*
X149764313Y-31192167D01*
X149703260Y-31232195D01*
X149699587Y-31234513D01*
X149637143Y-31272405D01*
X149628767Y-31279802D01*
X149628743Y-31279775D01*
X149625749Y-31282430D01*
X149622518Y-31285132D01*
X149616398Y-31289144D01*
X149598175Y-31308381D01*
X149563122Y-31345383D01*
X149560744Y-31347825D01*
X148445474Y-32463095D01*
X148383162Y-32497121D01*
X148356379Y-32500000D01*
X147341069Y-32500000D01*
X147272948Y-32479998D01*
X147226455Y-32426342D01*
X147216351Y-32356068D01*
X147233809Y-32307884D01*
X147241135Y-32296000D01*
X147317115Y-32172738D01*
X147372797Y-32004861D01*
X147383500Y-31900400D01*
X147383500Y-31174600D01*
X147381794Y-31158153D01*
X147373238Y-31075692D01*
X147373237Y-31075688D01*
X147372526Y-31068834D01*
X147367183Y-31052817D01*
X147318868Y-30908002D01*
X147316550Y-30901054D01*
X147223478Y-30750652D01*
X147098303Y-30625695D01*
X147089841Y-30620479D01*
X146953968Y-30536725D01*
X146953966Y-30536724D01*
X146947738Y-30532885D01*
X146850688Y-30500695D01*
X146786389Y-30479368D01*
X146786387Y-30479368D01*
X146779861Y-30477203D01*
X146773025Y-30476503D01*
X146773022Y-30476502D01*
X146729969Y-30472091D01*
X146675400Y-30466500D01*
X145324600Y-30466500D01*
X145321354Y-30466837D01*
X145321350Y-30466837D01*
X145225692Y-30476762D01*
X145225688Y-30476763D01*
X145218834Y-30477474D01*
X145212298Y-30479655D01*
X145212296Y-30479655D01*
X145098304Y-30517686D01*
X145051054Y-30533450D01*
X144900652Y-30626522D01*
X144895479Y-30631704D01*
X144785357Y-30742018D01*
X144723074Y-30776097D01*
X144696184Y-30779000D01*
X144298320Y-30779000D01*
X144279370Y-30777567D01*
X144265135Y-30775401D01*
X144265131Y-30775401D01*
X144257901Y-30774301D01*
X144250609Y-30774894D01*
X144250606Y-30774894D01*
X144205232Y-30778585D01*
X144195017Y-30779000D01*
X144186957Y-30779000D01*
X144183323Y-30779424D01*
X144183317Y-30779424D01*
X144173395Y-30780581D01*
X144158730Y-30782291D01*
X144154382Y-30782721D01*
X144081614Y-30788640D01*
X144074653Y-30790895D01*
X144068713Y-30792082D01*
X144062838Y-30793471D01*
X144055569Y-30794318D01*
X143986920Y-30819236D01*
X143982792Y-30820653D01*
X143920314Y-30840893D01*
X143920312Y-30840894D01*
X143913351Y-30843149D01*
X143907096Y-30846945D01*
X143901622Y-30849451D01*
X143896192Y-30852170D01*
X143889313Y-30854667D01*
X143883193Y-30858680D01*
X143883192Y-30858680D01*
X143828274Y-30894686D01*
X143824570Y-30897023D01*
X143762143Y-30934905D01*
X143753766Y-30942303D01*
X143753742Y-30942276D01*
X143750750Y-30944929D01*
X143747517Y-30947632D01*
X143741398Y-30951644D01*
X143699276Y-30996109D01*
X143688122Y-31007883D01*
X143685744Y-31010325D01*
X142232974Y-32463095D01*
X142170662Y-32497121D01*
X142143879Y-32500000D01*
X140657572Y-32500000D01*
X140589451Y-32479998D01*
X140542958Y-32426342D01*
X140531572Y-32374000D01*
X140531572Y-31201866D01*
X140524817Y-31139684D01*
X140473687Y-31003295D01*
X140386333Y-30886739D01*
X140269777Y-30799385D01*
X140133388Y-30748255D01*
X140071206Y-30741500D01*
X137774938Y-30741500D01*
X137712756Y-30748255D01*
X137576367Y-30799385D01*
X137459811Y-30886739D01*
X137372457Y-31003295D01*
X137369305Y-31011703D01*
X137369303Y-31011707D01*
X137360671Y-31034731D01*
X137318029Y-31091495D01*
X137251467Y-31116194D01*
X137242690Y-31116500D01*
X133192070Y-31116500D01*
X133173120Y-31115067D01*
X133158885Y-31112901D01*
X133158881Y-31112901D01*
X133151651Y-31111801D01*
X133144359Y-31112394D01*
X133144356Y-31112394D01*
X133098982Y-31116085D01*
X133088767Y-31116500D01*
X133080707Y-31116500D01*
X133077073Y-31116924D01*
X133077067Y-31116924D01*
X133064042Y-31118443D01*
X133052480Y-31119791D01*
X133048132Y-31120221D01*
X132975364Y-31126140D01*
X132968403Y-31128395D01*
X132962463Y-31129582D01*
X132956588Y-31130971D01*
X132949319Y-31131818D01*
X132880670Y-31156736D01*
X132876542Y-31158153D01*
X132814064Y-31178393D01*
X132814062Y-31178394D01*
X132807101Y-31180649D01*
X132800846Y-31184445D01*
X132795372Y-31186951D01*
X132789942Y-31189670D01*
X132783063Y-31192167D01*
X132776943Y-31196180D01*
X132776942Y-31196180D01*
X132722024Y-31232186D01*
X132718327Y-31234519D01*
X132655893Y-31272405D01*
X132647516Y-31279803D01*
X132647492Y-31279776D01*
X132644500Y-31282429D01*
X132641267Y-31285132D01*
X132635148Y-31289144D01*
X132616925Y-31308381D01*
X132581872Y-31345383D01*
X132579494Y-31347825D01*
X131464224Y-32463095D01*
X131401912Y-32497121D01*
X131375129Y-32500000D01*
X127033688Y-32500000D01*
X126965567Y-32479998D01*
X126919074Y-32426342D01*
X126907688Y-32374000D01*
X126907688Y-32143115D01*
X126903213Y-32127876D01*
X126901823Y-32126671D01*
X126894140Y-32125000D01*
X123725803Y-32125000D01*
X123710564Y-32129475D01*
X123709359Y-32130865D01*
X123707688Y-32138548D01*
X123707688Y-32374000D01*
X123687686Y-32442121D01*
X123634030Y-32488614D01*
X123581688Y-32500000D01*
X113426804Y-32500000D01*
X113358683Y-32479998D01*
X113312190Y-32426342D01*
X113300804Y-32374000D01*
X113300804Y-31606885D01*
X123707688Y-31606885D01*
X123712163Y-31622124D01*
X123713553Y-31623329D01*
X123721236Y-31625000D01*
X125039573Y-31625000D01*
X125054812Y-31620525D01*
X125056017Y-31619135D01*
X125057688Y-31611452D01*
X125057688Y-31606885D01*
X125557688Y-31606885D01*
X125562163Y-31622124D01*
X125563553Y-31623329D01*
X125571236Y-31625000D01*
X126889573Y-31625000D01*
X126904812Y-31620525D01*
X126906017Y-31619135D01*
X126907688Y-31611452D01*
X126907688Y-31206085D01*
X126907319Y-31199271D01*
X126901899Y-31149379D01*
X126898274Y-31134133D01*
X126853921Y-31015823D01*
X126845389Y-31000237D01*
X126770258Y-30899991D01*
X126757697Y-30887430D01*
X126657451Y-30812299D01*
X126641865Y-30803767D01*
X126523555Y-30759414D01*
X126508309Y-30755789D01*
X126458417Y-30750369D01*
X126451603Y-30750000D01*
X125575803Y-30750000D01*
X125560564Y-30754475D01*
X125559359Y-30755865D01*
X125557688Y-30763548D01*
X125557688Y-31606885D01*
X125057688Y-31606885D01*
X125057688Y-30768115D01*
X125053213Y-30752876D01*
X125051823Y-30751671D01*
X125044140Y-30750000D01*
X124163773Y-30750000D01*
X124156959Y-30750369D01*
X124107067Y-30755789D01*
X124091821Y-30759414D01*
X123973511Y-30803767D01*
X123957925Y-30812299D01*
X123857679Y-30887430D01*
X123845118Y-30899991D01*
X123769987Y-31000237D01*
X123761455Y-31015823D01*
X123717102Y-31134133D01*
X123713477Y-31149379D01*
X123708057Y-31199271D01*
X123707688Y-31206085D01*
X123707688Y-31606885D01*
X113300804Y-31606885D01*
X113300804Y-31201866D01*
X113294049Y-31139684D01*
X113242919Y-31003295D01*
X113155565Y-30886739D01*
X113039009Y-30799385D01*
X112902620Y-30748255D01*
X112840438Y-30741500D01*
X110544170Y-30741500D01*
X110481988Y-30748255D01*
X110345599Y-30799385D01*
X110229043Y-30886739D01*
X110141689Y-31003295D01*
X110138537Y-31011703D01*
X110138535Y-31011707D01*
X110129903Y-31034731D01*
X110087261Y-31091495D01*
X110020699Y-31116194D01*
X110011922Y-31116500D01*
X105813222Y-31116500D01*
X105794272Y-31115067D01*
X105780037Y-31112901D01*
X105780033Y-31112901D01*
X105772803Y-31111801D01*
X105765511Y-31112394D01*
X105765508Y-31112394D01*
X105720134Y-31116085D01*
X105709919Y-31116500D01*
X105701859Y-31116500D01*
X105698225Y-31116924D01*
X105698219Y-31116924D01*
X105685194Y-31118443D01*
X105673632Y-31119791D01*
X105669284Y-31120221D01*
X105596516Y-31126140D01*
X105589555Y-31128395D01*
X105583615Y-31129582D01*
X105577740Y-31130971D01*
X105570471Y-31131818D01*
X105501822Y-31156736D01*
X105497694Y-31158153D01*
X105435216Y-31178393D01*
X105435214Y-31178394D01*
X105428253Y-31180649D01*
X105421998Y-31184445D01*
X105416524Y-31186951D01*
X105411094Y-31189670D01*
X105404215Y-31192167D01*
X105398095Y-31196180D01*
X105398094Y-31196180D01*
X105343176Y-31232186D01*
X105339479Y-31234519D01*
X105277045Y-31272405D01*
X105268668Y-31279803D01*
X105268644Y-31279776D01*
X105265652Y-31282429D01*
X105262419Y-31285132D01*
X105256300Y-31289144D01*
X105238077Y-31308381D01*
X105203024Y-31345383D01*
X105200646Y-31347825D01*
X104085376Y-32463095D01*
X104023064Y-32497121D01*
X103996281Y-32500000D01*
X99811420Y-32500000D01*
X99743299Y-32479998D01*
X99696806Y-32426342D01*
X99685420Y-32374000D01*
X99685420Y-31201866D01*
X99678665Y-31139684D01*
X99627535Y-31003295D01*
X99540181Y-30886739D01*
X99423625Y-30799385D01*
X99287236Y-30748255D01*
X99225054Y-30741500D01*
X96928786Y-30741500D01*
X96866604Y-30748255D01*
X96730215Y-30799385D01*
X96613659Y-30886739D01*
X96526305Y-31003295D01*
X96523153Y-31011703D01*
X96523151Y-31011707D01*
X96514519Y-31034731D01*
X96471877Y-31091495D01*
X96405315Y-31116194D01*
X96396538Y-31116500D01*
X92755530Y-31116500D01*
X92736580Y-31115067D01*
X92722345Y-31112901D01*
X92722341Y-31112901D01*
X92715111Y-31111801D01*
X92707819Y-31112394D01*
X92707816Y-31112394D01*
X92662442Y-31116085D01*
X92652227Y-31116500D01*
X92644167Y-31116500D01*
X92640533Y-31116924D01*
X92640527Y-31116924D01*
X92627502Y-31118443D01*
X92615940Y-31119791D01*
X92611592Y-31120221D01*
X92538824Y-31126140D01*
X92531863Y-31128395D01*
X92525923Y-31129582D01*
X92520048Y-31130971D01*
X92512779Y-31131818D01*
X92444130Y-31156736D01*
X92440002Y-31158153D01*
X92377524Y-31178393D01*
X92377522Y-31178394D01*
X92370561Y-31180649D01*
X92364306Y-31184445D01*
X92358832Y-31186951D01*
X92353402Y-31189670D01*
X92346523Y-31192167D01*
X92340403Y-31196180D01*
X92340402Y-31196180D01*
X92285484Y-31232186D01*
X92281787Y-31234519D01*
X92219353Y-31272405D01*
X92210976Y-31279803D01*
X92210952Y-31279776D01*
X92207960Y-31282429D01*
X92204727Y-31285132D01*
X92198608Y-31289144D01*
X92180385Y-31308381D01*
X92145332Y-31345383D01*
X92142954Y-31347825D01*
X91027684Y-32463095D01*
X90965372Y-32497121D01*
X90938589Y-32500000D01*
X86196036Y-32500000D01*
X86127915Y-32479998D01*
X86081422Y-32426342D01*
X86070036Y-32374000D01*
X86070036Y-31201866D01*
X86063281Y-31139684D01*
X86012151Y-31003295D01*
X85924797Y-30886739D01*
X85808241Y-30799385D01*
X85671852Y-30748255D01*
X85609670Y-30741500D01*
X83313402Y-30741500D01*
X83251220Y-30748255D01*
X83114831Y-30799385D01*
X82998275Y-30886739D01*
X82910921Y-31003295D01*
X82907769Y-31011703D01*
X82907767Y-31011707D01*
X82899135Y-31034731D01*
X82856493Y-31091495D01*
X82789931Y-31116194D01*
X82781154Y-31116500D01*
X82442070Y-31116500D01*
X82423120Y-31115067D01*
X82408885Y-31112901D01*
X82408881Y-31112901D01*
X82401651Y-31111801D01*
X82394359Y-31112394D01*
X82394356Y-31112394D01*
X82348982Y-31116085D01*
X82338767Y-31116500D01*
X82330707Y-31116500D01*
X82317417Y-31118049D01*
X82302493Y-31119789D01*
X82298118Y-31120222D01*
X82232661Y-31125546D01*
X82232658Y-31125547D01*
X82225363Y-31126140D01*
X82218399Y-31128396D01*
X82212440Y-31129587D01*
X82206585Y-31130971D01*
X82199319Y-31131818D01*
X82130673Y-31156735D01*
X82126545Y-31158152D01*
X82064064Y-31178393D01*
X82064062Y-31178394D01*
X82057101Y-31180649D01*
X82050846Y-31184445D01*
X82045372Y-31186951D01*
X82039942Y-31189670D01*
X82033063Y-31192167D01*
X82026943Y-31196180D01*
X82026942Y-31196180D01*
X81972024Y-31232186D01*
X81968327Y-31234519D01*
X81905893Y-31272405D01*
X81897516Y-31279803D01*
X81897492Y-31279776D01*
X81894500Y-31282429D01*
X81891267Y-31285132D01*
X81885148Y-31289144D01*
X81866925Y-31308381D01*
X81831872Y-31345383D01*
X81829494Y-31347825D01*
X80714224Y-32463095D01*
X80651912Y-32497121D01*
X80625129Y-32500000D01*
X79466030Y-32500000D01*
X79397909Y-32479998D01*
X79351416Y-32426342D01*
X79341312Y-32356068D01*
X79346435Y-32334340D01*
X79372797Y-32254861D01*
X79383500Y-32150400D01*
X79383500Y-31424600D01*
X79372526Y-31318834D01*
X79368722Y-31307430D01*
X79318868Y-31158002D01*
X79316550Y-31151054D01*
X79223478Y-31000652D01*
X79098303Y-30875695D01*
X79070700Y-30858680D01*
X78953968Y-30786725D01*
X78953966Y-30786724D01*
X78947738Y-30782885D01*
X78843331Y-30748255D01*
X78786389Y-30729368D01*
X78786387Y-30729368D01*
X78779861Y-30727203D01*
X78773025Y-30726503D01*
X78773022Y-30726502D01*
X78729969Y-30722091D01*
X78675400Y-30716500D01*
X77324600Y-30716500D01*
X77321354Y-30716837D01*
X77321350Y-30716837D01*
X77225692Y-30726762D01*
X77225688Y-30726763D01*
X77218834Y-30727474D01*
X77212298Y-30729655D01*
X77212296Y-30729655D01*
X77123098Y-30759414D01*
X77051054Y-30783450D01*
X76900652Y-30876522D01*
X76895479Y-30881704D01*
X76785357Y-30992018D01*
X76723074Y-31026097D01*
X76696184Y-31029000D01*
X76279570Y-31029000D01*
X76260620Y-31027567D01*
X76246385Y-31025401D01*
X76246381Y-31025401D01*
X76239151Y-31024301D01*
X76231859Y-31024894D01*
X76231856Y-31024894D01*
X76186482Y-31028585D01*
X76176267Y-31029000D01*
X76168207Y-31029000D01*
X76164573Y-31029424D01*
X76164567Y-31029424D01*
X76151542Y-31030943D01*
X76139980Y-31032291D01*
X76135632Y-31032721D01*
X76113559Y-31034516D01*
X76070162Y-31038046D01*
X76070159Y-31038047D01*
X76062864Y-31038640D01*
X76055900Y-31040896D01*
X76049961Y-31042083D01*
X76044090Y-31043470D01*
X76036819Y-31044318D01*
X76029943Y-31046814D01*
X76029934Y-31046816D01*
X75968202Y-31069225D01*
X75964098Y-31070635D01*
X75894601Y-31093148D01*
X75888346Y-31096944D01*
X75882887Y-31099443D01*
X75877439Y-31102171D01*
X75870563Y-31104667D01*
X75809510Y-31144695D01*
X75805837Y-31147013D01*
X75787480Y-31158152D01*
X75750407Y-31180649D01*
X75743393Y-31184905D01*
X75735017Y-31192302D01*
X75734993Y-31192275D01*
X75731999Y-31194930D01*
X75728768Y-31197632D01*
X75722648Y-31201644D01*
X75717616Y-31206956D01*
X75669372Y-31257883D01*
X75666994Y-31260325D01*
X74464224Y-32463095D01*
X74401912Y-32497121D01*
X74375129Y-32500000D01*
X72580652Y-32500000D01*
X72512531Y-32479998D01*
X72466038Y-32426342D01*
X72454652Y-32374000D01*
X72454652Y-31201866D01*
X72447897Y-31139684D01*
X72396767Y-31003295D01*
X72309413Y-30886739D01*
X72192857Y-30799385D01*
X72056468Y-30748255D01*
X71994286Y-30741500D01*
X69698018Y-30741500D01*
X69635836Y-30748255D01*
X69499447Y-30799385D01*
X69382891Y-30886739D01*
X69295537Y-31003295D01*
X69292385Y-31011703D01*
X69292383Y-31011707D01*
X69283751Y-31034731D01*
X69241109Y-31091495D01*
X69174547Y-31116194D01*
X69165770Y-31116500D01*
X68048320Y-31116500D01*
X68029370Y-31115067D01*
X68015135Y-31112901D01*
X68015131Y-31112901D01*
X68007901Y-31111801D01*
X68000609Y-31112394D01*
X68000606Y-31112394D01*
X67955232Y-31116085D01*
X67945017Y-31116500D01*
X67936957Y-31116500D01*
X67923667Y-31118049D01*
X67908743Y-31119789D01*
X67904368Y-31120222D01*
X67838911Y-31125546D01*
X67838908Y-31125547D01*
X67831613Y-31126140D01*
X67824649Y-31128396D01*
X67818690Y-31129587D01*
X67812835Y-31130971D01*
X67805569Y-31131818D01*
X67736923Y-31156735D01*
X67732795Y-31158152D01*
X67670314Y-31178393D01*
X67670312Y-31178394D01*
X67663351Y-31180649D01*
X67657096Y-31184445D01*
X67651622Y-31186951D01*
X67646192Y-31189670D01*
X67639313Y-31192167D01*
X67633193Y-31196180D01*
X67633192Y-31196180D01*
X67578274Y-31232186D01*
X67574577Y-31234519D01*
X67512143Y-31272405D01*
X67503766Y-31279803D01*
X67503742Y-31279776D01*
X67500750Y-31282429D01*
X67497517Y-31285132D01*
X67491398Y-31289144D01*
X67473175Y-31308381D01*
X67438122Y-31345383D01*
X67435744Y-31347825D01*
X66320474Y-32463095D01*
X66258162Y-32497121D01*
X66231379Y-32500000D01*
X64966030Y-32500000D01*
X64897909Y-32479998D01*
X64851416Y-32426342D01*
X64841312Y-32356068D01*
X64846435Y-32334340D01*
X64872797Y-32254861D01*
X64883500Y-32150400D01*
X64883500Y-31424600D01*
X64872526Y-31318834D01*
X64868722Y-31307430D01*
X64818868Y-31158002D01*
X64816550Y-31151054D01*
X64723478Y-31000652D01*
X64598303Y-30875695D01*
X64570700Y-30858680D01*
X64453968Y-30786725D01*
X64453966Y-30786724D01*
X64447738Y-30782885D01*
X64343331Y-30748255D01*
X64286389Y-30729368D01*
X64286387Y-30729368D01*
X64279861Y-30727203D01*
X64273025Y-30726503D01*
X64273022Y-30726502D01*
X64229969Y-30722091D01*
X64175400Y-30716500D01*
X62824600Y-30716500D01*
X62821354Y-30716837D01*
X62821350Y-30716837D01*
X62725692Y-30726762D01*
X62725688Y-30726763D01*
X62718834Y-30727474D01*
X62712298Y-30729655D01*
X62712296Y-30729655D01*
X62623098Y-30759414D01*
X62551054Y-30783450D01*
X62400652Y-30876522D01*
X62395479Y-30881704D01*
X62285357Y-30992018D01*
X62223074Y-31026097D01*
X62196184Y-31029000D01*
X61923320Y-31029000D01*
X61904370Y-31027567D01*
X61890135Y-31025401D01*
X61890131Y-31025401D01*
X61882901Y-31024301D01*
X61875609Y-31024894D01*
X61875606Y-31024894D01*
X61830232Y-31028585D01*
X61820017Y-31029000D01*
X61811957Y-31029000D01*
X61808323Y-31029424D01*
X61808317Y-31029424D01*
X61795292Y-31030943D01*
X61783730Y-31032291D01*
X61779382Y-31032721D01*
X61757309Y-31034516D01*
X61713912Y-31038046D01*
X61713909Y-31038047D01*
X61706614Y-31038640D01*
X61699650Y-31040896D01*
X61693711Y-31042083D01*
X61687840Y-31043470D01*
X61680569Y-31044318D01*
X61673693Y-31046814D01*
X61673684Y-31046816D01*
X61611952Y-31069225D01*
X61607848Y-31070635D01*
X61538351Y-31093148D01*
X61532096Y-31096944D01*
X61526637Y-31099443D01*
X61521189Y-31102171D01*
X61514313Y-31104667D01*
X61453260Y-31144695D01*
X61449587Y-31147013D01*
X61431230Y-31158152D01*
X61394157Y-31180649D01*
X61387143Y-31184905D01*
X61378767Y-31192302D01*
X61378743Y-31192275D01*
X61375749Y-31194930D01*
X61372518Y-31197632D01*
X61366398Y-31201644D01*
X61361366Y-31206956D01*
X61313122Y-31257883D01*
X61310744Y-31260325D01*
X60107974Y-32463095D01*
X60045662Y-32497121D01*
X60018879Y-32500000D01*
X58965268Y-32500000D01*
X58897147Y-32479998D01*
X58850654Y-32426342D01*
X58839268Y-32374000D01*
X58839268Y-31201866D01*
X58832513Y-31139684D01*
X58781383Y-31003295D01*
X58694029Y-30886739D01*
X58577473Y-30799385D01*
X58441084Y-30748255D01*
X58378902Y-30741500D01*
X56082634Y-30741500D01*
X56020452Y-30748255D01*
X55884063Y-30799385D01*
X55767507Y-30886739D01*
X55680153Y-31003295D01*
X55629023Y-31139684D01*
X55622268Y-31201866D01*
X55622268Y-31533629D01*
X55602266Y-31601750D01*
X55585363Y-31622724D01*
X55191857Y-32016230D01*
X55177445Y-32028616D01*
X55165850Y-32037149D01*
X55165845Y-32037154D01*
X55159950Y-32041492D01*
X55155211Y-32047070D01*
X55155208Y-32047073D01*
X55125733Y-32081768D01*
X55118803Y-32089284D01*
X55113108Y-32094979D01*
X55110828Y-32097861D01*
X55095487Y-32117251D01*
X55092696Y-32120655D01*
X55054350Y-32165791D01*
X55045435Y-32176285D01*
X55042107Y-32182801D01*
X55038740Y-32187850D01*
X55035573Y-32192979D01*
X55031034Y-32198716D01*
X55000113Y-32264875D01*
X54998210Y-32268769D01*
X54964999Y-32333808D01*
X54963260Y-32340916D01*
X54961161Y-32346559D01*
X54959244Y-32352322D01*
X54956146Y-32358950D01*
X54954656Y-32366112D01*
X54954655Y-32366116D01*
X54947679Y-32399657D01*
X54914225Y-32462278D01*
X54852226Y-32496871D01*
X54824319Y-32500000D01*
X54283149Y-32500000D01*
X54215028Y-32479998D01*
X54168535Y-32426342D01*
X54158700Y-32393711D01*
X54151840Y-32350400D01*
X54132438Y-32227901D01*
X54031833Y-31852438D01*
X53892532Y-31489547D01*
X53869393Y-31444135D01*
X53717561Y-31146147D01*
X53717557Y-31146140D01*
X53716062Y-31143206D01*
X53707660Y-31130267D01*
X53506152Y-30819971D01*
X53506152Y-30819970D01*
X53504357Y-30817207D01*
X53277697Y-30537306D01*
X53261809Y-30517686D01*
X53261806Y-30517682D01*
X53259734Y-30515124D01*
X52984876Y-30240266D01*
X52682793Y-29995643D01*
X52356795Y-29783938D01*
X52353861Y-29782443D01*
X52353854Y-29782439D01*
X52013393Y-29608966D01*
X52010453Y-29607468D01*
X51647562Y-29468167D01*
X51272099Y-29367562D01*
X51068207Y-29335268D01*
X50891424Y-29307268D01*
X50891416Y-29307267D01*
X50888176Y-29306754D01*
X50500000Y-29286411D01*
X50111824Y-29306754D01*
X50108584Y-29307267D01*
X50108576Y-29307268D01*
X49931793Y-29335268D01*
X49727901Y-29367562D01*
X49352438Y-29468167D01*
X48989547Y-29607468D01*
X48986607Y-29608966D01*
X48646147Y-29782439D01*
X48646140Y-29782443D01*
X48643206Y-29783938D01*
X48317207Y-29995643D01*
X48015124Y-30240266D01*
X47740266Y-30515124D01*
X47738194Y-30517682D01*
X47738191Y-30517686D01*
X47722303Y-30537306D01*
X47495643Y-30817207D01*
X47493848Y-30819970D01*
X47493848Y-30819971D01*
X47292341Y-31130267D01*
X47283938Y-31143206D01*
X47282443Y-31146140D01*
X47282439Y-31146147D01*
X47130607Y-31444135D01*
X47107468Y-31489547D01*
X46968167Y-31852438D01*
X46867562Y-32227901D01*
X46848160Y-32350400D01*
X46841300Y-32393711D01*
X46810887Y-32457864D01*
X46750619Y-32495391D01*
X46716851Y-32500000D01*
X45349884Y-32500000D01*
X45281763Y-32479998D01*
X45235270Y-32426342D01*
X45223884Y-32374000D01*
X45223884Y-31201866D01*
X45217129Y-31139684D01*
X45165999Y-31003295D01*
X45078645Y-30886739D01*
X44962089Y-30799385D01*
X44825700Y-30748255D01*
X44763518Y-30741500D01*
X42467250Y-30741500D01*
X42405068Y-30748255D01*
X42268679Y-30799385D01*
X42152123Y-30886739D01*
X42064769Y-31003295D01*
X42061617Y-31011703D01*
X42061615Y-31011707D01*
X42052983Y-31034731D01*
X42010341Y-31091495D01*
X41943779Y-31116194D01*
X41935002Y-31116500D01*
X38192070Y-31116500D01*
X38173120Y-31115067D01*
X38158885Y-31112901D01*
X38158881Y-31112901D01*
X38151651Y-31111801D01*
X38144359Y-31112394D01*
X38144356Y-31112394D01*
X38098982Y-31116085D01*
X38088767Y-31116500D01*
X38080707Y-31116500D01*
X38077073Y-31116924D01*
X38077067Y-31116924D01*
X38064042Y-31118443D01*
X38052480Y-31119791D01*
X38048132Y-31120221D01*
X37975364Y-31126140D01*
X37968403Y-31128395D01*
X37962463Y-31129582D01*
X37956588Y-31130971D01*
X37949319Y-31131818D01*
X37880670Y-31156736D01*
X37876542Y-31158153D01*
X37814064Y-31178393D01*
X37814062Y-31178394D01*
X37807101Y-31180649D01*
X37800846Y-31184445D01*
X37795372Y-31186951D01*
X37789942Y-31189670D01*
X37783063Y-31192167D01*
X37776943Y-31196180D01*
X37776942Y-31196180D01*
X37722024Y-31232186D01*
X37718327Y-31234519D01*
X37655893Y-31272405D01*
X37647516Y-31279803D01*
X37647492Y-31279776D01*
X37644500Y-31282429D01*
X37641267Y-31285132D01*
X37635148Y-31289144D01*
X37616925Y-31308381D01*
X37581872Y-31345383D01*
X37579494Y-31347825D01*
X36464224Y-32463095D01*
X36401912Y-32497121D01*
X36375129Y-32500000D01*
X31726000Y-32500000D01*
X31657879Y-32479998D01*
X31611386Y-32426342D01*
X31600000Y-32374000D01*
X31600000Y-32143115D01*
X31595525Y-32127876D01*
X31594135Y-32126671D01*
X31586452Y-32125000D01*
X28418115Y-32125000D01*
X28402876Y-32129475D01*
X28401671Y-32130865D01*
X28400000Y-32138548D01*
X28400000Y-32374000D01*
X28379998Y-32442121D01*
X28326342Y-32488614D01*
X28274000Y-32500000D01*
X28132742Y-32500000D01*
X28064621Y-32479998D01*
X28018128Y-32426342D01*
X28007398Y-32361159D01*
X28008172Y-32353603D01*
X28008172Y-32353600D01*
X28008500Y-32350400D01*
X28008500Y-31606885D01*
X28400000Y-31606885D01*
X28404475Y-31622124D01*
X28405865Y-31623329D01*
X28413548Y-31625000D01*
X29731885Y-31625000D01*
X29747124Y-31620525D01*
X29748329Y-31619135D01*
X29750000Y-31611452D01*
X29750000Y-31606885D01*
X30250000Y-31606885D01*
X30254475Y-31622124D01*
X30255865Y-31623329D01*
X30263548Y-31625000D01*
X31581885Y-31625000D01*
X31597124Y-31620525D01*
X31598329Y-31619135D01*
X31600000Y-31611452D01*
X31600000Y-31206085D01*
X31599631Y-31199271D01*
X31594211Y-31149379D01*
X31590586Y-31134133D01*
X31546233Y-31015823D01*
X31537701Y-31000237D01*
X31462570Y-30899991D01*
X31450009Y-30887430D01*
X31349763Y-30812299D01*
X31334177Y-30803767D01*
X31215867Y-30759414D01*
X31200621Y-30755789D01*
X31150729Y-30750369D01*
X31143915Y-30750000D01*
X30268115Y-30750000D01*
X30252876Y-30754475D01*
X30251671Y-30755865D01*
X30250000Y-30763548D01*
X30250000Y-31606885D01*
X29750000Y-31606885D01*
X29750000Y-30768115D01*
X29745525Y-30752876D01*
X29744135Y-30751671D01*
X29736452Y-30750000D01*
X28856085Y-30750000D01*
X28849271Y-30750369D01*
X28799379Y-30755789D01*
X28784133Y-30759414D01*
X28665823Y-30803767D01*
X28650237Y-30812299D01*
X28549991Y-30887430D01*
X28537430Y-30899991D01*
X28462299Y-31000237D01*
X28453767Y-31015823D01*
X28409414Y-31134133D01*
X28405789Y-31149379D01*
X28400369Y-31199271D01*
X28400000Y-31206085D01*
X28400000Y-31606885D01*
X28008500Y-31606885D01*
X28008500Y-31049600D01*
X28006749Y-31032722D01*
X27998238Y-30950692D01*
X27998237Y-30950688D01*
X27997526Y-30943834D01*
X27985572Y-30908002D01*
X27944271Y-30784209D01*
X27941550Y-30776054D01*
X27848478Y-30625652D01*
X27723303Y-30500695D01*
X27689170Y-30479655D01*
X27578968Y-30411725D01*
X27578966Y-30411724D01*
X27572738Y-30407885D01*
X27463664Y-30371707D01*
X27411389Y-30354368D01*
X27411387Y-30354368D01*
X27404861Y-30352203D01*
X27398025Y-30351503D01*
X27398022Y-30351502D01*
X27354969Y-30347091D01*
X27300400Y-30341500D01*
X25699600Y-30341500D01*
X25696354Y-30341837D01*
X25696350Y-30341837D01*
X25600692Y-30351762D01*
X25600688Y-30351763D01*
X25593834Y-30352474D01*
X25587298Y-30354655D01*
X25587296Y-30354655D01*
X25455194Y-30398728D01*
X25426054Y-30408450D01*
X25275652Y-30501522D01*
X25150695Y-30626697D01*
X25146855Y-30632927D01*
X25146854Y-30632928D01*
X25068887Y-30759414D01*
X25057885Y-30777262D01*
X25052742Y-30792767D01*
X25006563Y-30931995D01*
X25002203Y-30945139D01*
X24991500Y-31049600D01*
X24991500Y-32350400D01*
X24992088Y-32356068D01*
X24992600Y-32361001D01*
X24979732Y-32430822D01*
X24931159Y-32482602D01*
X24867272Y-32500000D01*
X23626000Y-32500000D01*
X23557879Y-32479998D01*
X23511386Y-32426342D01*
X23500000Y-32374000D01*
X23500000Y-28134500D01*
X23520002Y-28066379D01*
X23573658Y-28019886D01*
X23626000Y-28008500D01*
X213374000Y-28008500D01*
X213442121Y-28028502D01*
G37*
%TD.AperFunction*%
%TD*%
M02*
