%TF.GenerationSoftware,KiCad,Pcbnew,(6.0.7)*%
%TF.CreationDate,2022-09-02T18:47:48+01:00*%
%TF.ProjectId,Dayspring_Mini,44617973-7072-4696-9e67-5f4d696e692e,rev?*%
%TF.SameCoordinates,Original*%
%TF.FileFunction,Legend,Bot*%
%TF.FilePolarity,Positive*%
%FSLAX46Y46*%
G04 Gerber Fmt 4.6, Leading zero omitted, Abs format (unit mm)*
G04 Created by KiCad (PCBNEW (6.0.7)) date 2022-09-02 18:47:48*
%MOMM*%
%LPD*%
G01*
G04 APERTURE LIST*
%ADD10C,0.300000*%
%ADD11C,0.250000*%
%ADD12C,0.150000*%
%ADD13C,0.120000*%
G04 APERTURE END LIST*
D10*
X84750000Y-32428571D02*
X84750000Y-33500000D01*
X84821428Y-33714285D01*
X84964285Y-33857142D01*
X85178571Y-33928571D01*
X85321428Y-33928571D01*
X83321428Y-33928571D02*
X84035714Y-33928571D01*
X84035714Y-32428571D01*
X81964285Y-33785714D02*
X82035714Y-33857142D01*
X82250000Y-33928571D01*
X82392857Y-33928571D01*
X82607142Y-33857142D01*
X82750000Y-33714285D01*
X82821428Y-33571428D01*
X82892857Y-33285714D01*
X82892857Y-33071428D01*
X82821428Y-32785714D01*
X82750000Y-32642857D01*
X82607142Y-32500000D01*
X82392857Y-32428571D01*
X82250000Y-32428571D01*
X82035714Y-32500000D01*
X81964285Y-32571428D01*
X80892857Y-32428571D02*
X80892857Y-33500000D01*
X80964285Y-33714285D01*
X81107142Y-33857142D01*
X81321428Y-33928571D01*
X81464285Y-33928571D01*
X79464285Y-33928571D02*
X80178571Y-33928571D01*
X80178571Y-32428571D01*
X78107142Y-33785714D02*
X78178571Y-33857142D01*
X78392857Y-33928571D01*
X78535714Y-33928571D01*
X78750000Y-33857142D01*
X78892857Y-33714285D01*
X78964285Y-33571428D01*
X79035714Y-33285714D01*
X79035714Y-33071428D01*
X78964285Y-32785714D01*
X78892857Y-32642857D01*
X78750000Y-32500000D01*
X78535714Y-32428571D01*
X78392857Y-32428571D01*
X78178571Y-32500000D01*
X78107142Y-32571428D01*
X77035714Y-32428571D02*
X77035714Y-33500000D01*
X77107142Y-33714285D01*
X77250000Y-33857142D01*
X77464285Y-33928571D01*
X77607142Y-33928571D01*
X75607142Y-33928571D02*
X76321428Y-33928571D01*
X76321428Y-32428571D01*
X74250000Y-33785714D02*
X74321428Y-33857142D01*
X74535714Y-33928571D01*
X74678571Y-33928571D01*
X74892857Y-33857142D01*
X75035714Y-33714285D01*
X75107142Y-33571428D01*
X75178571Y-33285714D01*
X75178571Y-33071428D01*
X75107142Y-32785714D01*
X75035714Y-32642857D01*
X74892857Y-32500000D01*
X74678571Y-32428571D01*
X74535714Y-32428571D01*
X74321428Y-32500000D01*
X74250000Y-32571428D01*
D11*
X216851785Y-31213928D02*
X216780357Y-31142500D01*
X216637500Y-31071071D01*
X216280357Y-31071071D01*
X216137500Y-31142500D01*
X216066071Y-31213928D01*
X215994642Y-31356785D01*
X215994642Y-31499642D01*
X216066071Y-31713928D01*
X216923214Y-32571071D01*
X215994642Y-32571071D01*
X214708928Y-31571071D02*
X214708928Y-32571071D01*
X215066071Y-30999642D02*
X215423214Y-32071071D01*
X214494642Y-32071071D01*
X214137500Y-31071071D02*
X213637500Y-32571071D01*
X213137500Y-31071071D01*
X215994642Y-33557500D02*
X216137500Y-33486071D01*
X216351785Y-33486071D01*
X216566071Y-33557500D01*
X216708928Y-33700357D01*
X216780357Y-33843214D01*
X216851785Y-34128928D01*
X216851785Y-34343214D01*
X216780357Y-34628928D01*
X216708928Y-34771785D01*
X216566071Y-34914642D01*
X216351785Y-34986071D01*
X216208928Y-34986071D01*
X215994642Y-34914642D01*
X215923214Y-34843214D01*
X215923214Y-34343214D01*
X216208928Y-34343214D01*
X215280357Y-34986071D02*
X215280357Y-33486071D01*
X214423214Y-34986071D01*
X214423214Y-33486071D01*
X213708928Y-34986071D02*
X213708928Y-33486071D01*
X213351785Y-33486071D01*
X213137500Y-33557500D01*
X212994642Y-33700357D01*
X212923214Y-33843214D01*
X212851785Y-34128928D01*
X212851785Y-34343214D01*
X212923214Y-34628928D01*
X212994642Y-34771785D01*
X213137500Y-34914642D01*
X213351785Y-34986071D01*
X213708928Y-34986071D01*
X23091071Y-31242500D02*
X23233928Y-31171071D01*
X23448214Y-31171071D01*
X23662500Y-31242500D01*
X23805357Y-31385357D01*
X23876785Y-31528214D01*
X23948214Y-31813928D01*
X23948214Y-32028214D01*
X23876785Y-32313928D01*
X23805357Y-32456785D01*
X23662500Y-32599642D01*
X23448214Y-32671071D01*
X23305357Y-32671071D01*
X23091071Y-32599642D01*
X23019642Y-32528214D01*
X23019642Y-32028214D01*
X23305357Y-32028214D01*
X22376785Y-32671071D02*
X22376785Y-31171071D01*
X21519642Y-32671071D01*
X21519642Y-31171071D01*
X20805357Y-32671071D02*
X20805357Y-31171071D01*
X20448214Y-31171071D01*
X20233928Y-31242500D01*
X20091071Y-31385357D01*
X20019642Y-31528214D01*
X19948214Y-31813928D01*
X19948214Y-32028214D01*
X20019642Y-32313928D01*
X20091071Y-32456785D01*
X20233928Y-32599642D01*
X20448214Y-32671071D01*
X20805357Y-32671071D01*
X23519642Y-33728928D02*
X23448214Y-33657500D01*
X23305357Y-33586071D01*
X22948214Y-33586071D01*
X22805357Y-33657500D01*
X22733928Y-33728928D01*
X22662500Y-33871785D01*
X22662500Y-34014642D01*
X22733928Y-34228928D01*
X23591071Y-35086071D01*
X22662500Y-35086071D01*
X21376785Y-34086071D02*
X21376785Y-35086071D01*
X21733928Y-33514642D02*
X22091071Y-34586071D01*
X21162500Y-34586071D01*
X20805357Y-33586071D02*
X20305357Y-35086071D01*
X19805357Y-33586071D01*
D12*
X129690476Y-31742380D02*
X129690476Y-30742380D01*
X129452380Y-30742380D01*
X129309523Y-30790000D01*
X129214285Y-30885238D01*
X129166666Y-30980476D01*
X129119047Y-31170952D01*
X129119047Y-31313809D01*
X129166666Y-31504285D01*
X129214285Y-31599523D01*
X129309523Y-31694761D01*
X129452380Y-31742380D01*
X129690476Y-31742380D01*
X128261904Y-31742380D02*
X128261904Y-31218571D01*
X128309523Y-31123333D01*
X128404761Y-31075714D01*
X128595238Y-31075714D01*
X128690476Y-31123333D01*
X128261904Y-31694761D02*
X128357142Y-31742380D01*
X128595238Y-31742380D01*
X128690476Y-31694761D01*
X128738095Y-31599523D01*
X128738095Y-31504285D01*
X128690476Y-31409047D01*
X128595238Y-31361428D01*
X128357142Y-31361428D01*
X128261904Y-31313809D01*
X127880952Y-31075714D02*
X127642857Y-31742380D01*
X127404761Y-31075714D02*
X127642857Y-31742380D01*
X127738095Y-31980476D01*
X127785714Y-32028095D01*
X127880952Y-32075714D01*
X126880952Y-31742380D02*
X126976190Y-31694761D01*
X127023809Y-31599523D01*
X127023809Y-30742380D01*
X126500000Y-31742380D02*
X126500000Y-31075714D01*
X126500000Y-30742380D02*
X126547619Y-30790000D01*
X126500000Y-30837619D01*
X126452380Y-30790000D01*
X126500000Y-30742380D01*
X126500000Y-30837619D01*
X125595238Y-31075714D02*
X125595238Y-31885238D01*
X125642857Y-31980476D01*
X125690476Y-32028095D01*
X125785714Y-32075714D01*
X125928571Y-32075714D01*
X126023809Y-32028095D01*
X125595238Y-31694761D02*
X125690476Y-31742380D01*
X125880952Y-31742380D01*
X125976190Y-31694761D01*
X126023809Y-31647142D01*
X126071428Y-31551904D01*
X126071428Y-31266190D01*
X126023809Y-31170952D01*
X125976190Y-31123333D01*
X125880952Y-31075714D01*
X125690476Y-31075714D01*
X125595238Y-31123333D01*
X125119047Y-31742380D02*
X125119047Y-30742380D01*
X124690476Y-31742380D02*
X124690476Y-31218571D01*
X124738095Y-31123333D01*
X124833333Y-31075714D01*
X124976190Y-31075714D01*
X125071428Y-31123333D01*
X125119047Y-31170952D01*
X124357142Y-31075714D02*
X123976190Y-31075714D01*
X124214285Y-30742380D02*
X124214285Y-31599523D01*
X124166666Y-31694761D01*
X124071428Y-31742380D01*
X123976190Y-31742380D01*
X122738095Y-31742380D02*
X122833333Y-31694761D01*
X122880952Y-31647142D01*
X122928571Y-31551904D01*
X122928571Y-31266190D01*
X122880952Y-31170952D01*
X122833333Y-31123333D01*
X122738095Y-31075714D01*
X122595238Y-31075714D01*
X122500000Y-31123333D01*
X122452380Y-31170952D01*
X122404761Y-31266190D01*
X122404761Y-31551904D01*
X122452380Y-31647142D01*
X122500000Y-31694761D01*
X122595238Y-31742380D01*
X122738095Y-31742380D01*
X121976190Y-31075714D02*
X121976190Y-31742380D01*
X121976190Y-31170952D02*
X121928571Y-31123333D01*
X121833333Y-31075714D01*
X121690476Y-31075714D01*
X121595238Y-31123333D01*
X121547619Y-31218571D01*
X121547619Y-31742380D01*
X119880952Y-31742380D02*
X119880952Y-31218571D01*
X119928571Y-31123333D01*
X120023809Y-31075714D01*
X120214285Y-31075714D01*
X120309523Y-31123333D01*
X119880952Y-31694761D02*
X119976190Y-31742380D01*
X120214285Y-31742380D01*
X120309523Y-31694761D01*
X120357142Y-31599523D01*
X120357142Y-31504285D01*
X120309523Y-31409047D01*
X120214285Y-31361428D01*
X119976190Y-31361428D01*
X119880952Y-31313809D01*
X118690476Y-31694761D02*
X118595238Y-31742380D01*
X118404761Y-31742380D01*
X118309523Y-31694761D01*
X118261904Y-31599523D01*
X118261904Y-31551904D01*
X118309523Y-31456666D01*
X118404761Y-31409047D01*
X118547619Y-31409047D01*
X118642857Y-31361428D01*
X118690476Y-31266190D01*
X118690476Y-31218571D01*
X118642857Y-31123333D01*
X118547619Y-31075714D01*
X118404761Y-31075714D01*
X118309523Y-31123333D01*
X117976190Y-31075714D02*
X117595238Y-31075714D01*
X117833333Y-30742380D02*
X117833333Y-31599523D01*
X117785714Y-31694761D01*
X117690476Y-31742380D01*
X117595238Y-31742380D01*
X117261904Y-31742380D02*
X117261904Y-31075714D01*
X117261904Y-30742380D02*
X117309523Y-30790000D01*
X117261904Y-30837619D01*
X117214285Y-30790000D01*
X117261904Y-30742380D01*
X117261904Y-30837619D01*
X116357142Y-31694761D02*
X116452380Y-31742380D01*
X116642857Y-31742380D01*
X116738095Y-31694761D01*
X116785714Y-31647142D01*
X116833333Y-31551904D01*
X116833333Y-31266190D01*
X116785714Y-31170952D01*
X116738095Y-31123333D01*
X116642857Y-31075714D01*
X116452380Y-31075714D01*
X116357142Y-31123333D01*
X115928571Y-31742380D02*
X115928571Y-30742380D01*
X115833333Y-31361428D02*
X115547619Y-31742380D01*
X115547619Y-31075714D02*
X115928571Y-31456666D01*
X114357142Y-31742380D02*
X114357142Y-30742380D01*
X114357142Y-31123333D02*
X114261904Y-31075714D01*
X114071428Y-31075714D01*
X113976190Y-31123333D01*
X113928571Y-31170952D01*
X113880952Y-31266190D01*
X113880952Y-31551904D01*
X113928571Y-31647142D01*
X113976190Y-31694761D01*
X114071428Y-31742380D01*
X114261904Y-31742380D01*
X114357142Y-31694761D01*
X113547619Y-31075714D02*
X113309523Y-31742380D01*
X113071428Y-31075714D02*
X113309523Y-31742380D01*
X113404761Y-31980476D01*
X113452380Y-32028095D01*
X113547619Y-32075714D01*
X111595238Y-31218571D02*
X111452380Y-31266190D01*
X111404761Y-31313809D01*
X111357142Y-31409047D01*
X111357142Y-31551904D01*
X111404761Y-31647142D01*
X111452380Y-31694761D01*
X111547619Y-31742380D01*
X111928571Y-31742380D01*
X111928571Y-30742380D01*
X111595238Y-30742380D01*
X111500000Y-30790000D01*
X111452380Y-30837619D01*
X111404761Y-30932857D01*
X111404761Y-31028095D01*
X111452380Y-31123333D01*
X111500000Y-31170952D01*
X111595238Y-31218571D01*
X111928571Y-31218571D01*
X110785714Y-31742380D02*
X110880952Y-31694761D01*
X110928571Y-31599523D01*
X110928571Y-30742380D01*
X109976190Y-31742380D02*
X109976190Y-31218571D01*
X110023809Y-31123333D01*
X110119047Y-31075714D01*
X110309523Y-31075714D01*
X110404761Y-31123333D01*
X109976190Y-31694761D02*
X110071428Y-31742380D01*
X110309523Y-31742380D01*
X110404761Y-31694761D01*
X110452380Y-31599523D01*
X110452380Y-31504285D01*
X110404761Y-31409047D01*
X110309523Y-31361428D01*
X110071428Y-31361428D01*
X109976190Y-31313809D01*
X109500000Y-31742380D02*
X109500000Y-31075714D01*
X109500000Y-31170952D02*
X109452380Y-31123333D01*
X109357142Y-31075714D01*
X109214285Y-31075714D01*
X109119047Y-31123333D01*
X109071428Y-31218571D01*
X109071428Y-31742380D01*
X109071428Y-31218571D02*
X109023809Y-31123333D01*
X108928571Y-31075714D01*
X108785714Y-31075714D01*
X108690476Y-31123333D01*
X108642857Y-31218571D01*
X108642857Y-31742380D01*
X108166666Y-31742380D02*
X108166666Y-31075714D01*
X108166666Y-31170952D02*
X108119047Y-31123333D01*
X108023809Y-31075714D01*
X107880952Y-31075714D01*
X107785714Y-31123333D01*
X107738095Y-31218571D01*
X107738095Y-31742380D01*
X107738095Y-31218571D02*
X107690476Y-31123333D01*
X107595238Y-31075714D01*
X107452380Y-31075714D01*
X107357142Y-31123333D01*
X107309523Y-31218571D01*
X107309523Y-31742380D01*
X129071428Y-33352380D02*
X129071428Y-32352380D01*
X128833333Y-32352380D01*
X128690476Y-32400000D01*
X128595238Y-32495238D01*
X128547619Y-32590476D01*
X128500000Y-32780952D01*
X128500000Y-32923809D01*
X128547619Y-33114285D01*
X128595238Y-33209523D01*
X128690476Y-33304761D01*
X128833333Y-33352380D01*
X129071428Y-33352380D01*
X127642857Y-33352380D02*
X127642857Y-32828571D01*
X127690476Y-32733333D01*
X127785714Y-32685714D01*
X127976190Y-32685714D01*
X128071428Y-32733333D01*
X127642857Y-33304761D02*
X127738095Y-33352380D01*
X127976190Y-33352380D01*
X128071428Y-33304761D01*
X128119047Y-33209523D01*
X128119047Y-33114285D01*
X128071428Y-33019047D01*
X127976190Y-32971428D01*
X127738095Y-32971428D01*
X127642857Y-32923809D01*
X127261904Y-32685714D02*
X127023809Y-33352380D01*
X126785714Y-32685714D02*
X127023809Y-33352380D01*
X127119047Y-33590476D01*
X127166666Y-33638095D01*
X127261904Y-33685714D01*
X126452380Y-33304761D02*
X126357142Y-33352380D01*
X126166666Y-33352380D01*
X126071428Y-33304761D01*
X126023809Y-33209523D01*
X126023809Y-33161904D01*
X126071428Y-33066666D01*
X126166666Y-33019047D01*
X126309523Y-33019047D01*
X126404761Y-32971428D01*
X126452380Y-32876190D01*
X126452380Y-32828571D01*
X126404761Y-32733333D01*
X126309523Y-32685714D01*
X126166666Y-32685714D01*
X126071428Y-32733333D01*
X125595238Y-32685714D02*
X125595238Y-33685714D01*
X125595238Y-32733333D02*
X125500000Y-32685714D01*
X125309523Y-32685714D01*
X125214285Y-32733333D01*
X125166666Y-32780952D01*
X125119047Y-32876190D01*
X125119047Y-33161904D01*
X125166666Y-33257142D01*
X125214285Y-33304761D01*
X125309523Y-33352380D01*
X125500000Y-33352380D01*
X125595238Y-33304761D01*
X124690476Y-33352380D02*
X124690476Y-32685714D01*
X124690476Y-32876190D02*
X124642857Y-32780952D01*
X124595238Y-32733333D01*
X124500000Y-32685714D01*
X124404761Y-32685714D01*
X124071428Y-33352380D02*
X124071428Y-32685714D01*
X124071428Y-32352380D02*
X124119047Y-32400000D01*
X124071428Y-32447619D01*
X124023809Y-32400000D01*
X124071428Y-32352380D01*
X124071428Y-32447619D01*
X123595238Y-32685714D02*
X123595238Y-33352380D01*
X123595238Y-32780952D02*
X123547619Y-32733333D01*
X123452380Y-32685714D01*
X123309523Y-32685714D01*
X123214285Y-32733333D01*
X123166666Y-32828571D01*
X123166666Y-33352380D01*
X122261904Y-32685714D02*
X122261904Y-33495238D01*
X122309523Y-33590476D01*
X122357142Y-33638095D01*
X122452380Y-33685714D01*
X122595238Y-33685714D01*
X122690476Y-33638095D01*
X122261904Y-33304761D02*
X122357142Y-33352380D01*
X122547619Y-33352380D01*
X122642857Y-33304761D01*
X122690476Y-33257142D01*
X122738095Y-33161904D01*
X122738095Y-32876190D01*
X122690476Y-32780952D01*
X122642857Y-32733333D01*
X122547619Y-32685714D01*
X122357142Y-32685714D01*
X122261904Y-32733333D01*
X121023809Y-33352380D02*
X121023809Y-32352380D01*
X120690476Y-33066666D01*
X120357142Y-32352380D01*
X120357142Y-33352380D01*
X119880952Y-33352380D02*
X119880952Y-32685714D01*
X119880952Y-32352380D02*
X119928571Y-32400000D01*
X119880952Y-32447619D01*
X119833333Y-32400000D01*
X119880952Y-32352380D01*
X119880952Y-32447619D01*
X119404761Y-32685714D02*
X119404761Y-33352380D01*
X119404761Y-32780952D02*
X119357142Y-32733333D01*
X119261904Y-32685714D01*
X119119047Y-32685714D01*
X119023809Y-32733333D01*
X118976190Y-32828571D01*
X118976190Y-33352380D01*
X118500000Y-33352380D02*
X118500000Y-32685714D01*
X118500000Y-32352380D02*
X118547619Y-32400000D01*
X118500000Y-32447619D01*
X118452380Y-32400000D01*
X118500000Y-32352380D01*
X118500000Y-32447619D01*
X117261904Y-33352380D02*
X117261904Y-32352380D01*
X117261904Y-32733333D02*
X117166666Y-32685714D01*
X116976190Y-32685714D01*
X116880952Y-32733333D01*
X116833333Y-32780952D01*
X116785714Y-32876190D01*
X116785714Y-33161904D01*
X116833333Y-33257142D01*
X116880952Y-33304761D01*
X116976190Y-33352380D01*
X117166666Y-33352380D01*
X117261904Y-33304761D01*
X116452380Y-32685714D02*
X116214285Y-33352380D01*
X115976190Y-32685714D02*
X116214285Y-33352380D01*
X116309523Y-33590476D01*
X116357142Y-33638095D01*
X116452380Y-33685714D01*
X114976190Y-32352380D02*
X114642857Y-33352380D01*
X114309523Y-32352380D01*
X113595238Y-33304761D02*
X113690476Y-33352380D01*
X113880952Y-33352380D01*
X113976190Y-33304761D01*
X114023809Y-33209523D01*
X114023809Y-32828571D01*
X113976190Y-32733333D01*
X113880952Y-32685714D01*
X113690476Y-32685714D01*
X113595238Y-32733333D01*
X113547619Y-32828571D01*
X113547619Y-32923809D01*
X114023809Y-33019047D01*
X112690476Y-33304761D02*
X112785714Y-33352380D01*
X112976190Y-33352380D01*
X113071428Y-33304761D01*
X113119047Y-33257142D01*
X113166666Y-33161904D01*
X113166666Y-32876190D01*
X113119047Y-32780952D01*
X113071428Y-32733333D01*
X112976190Y-32685714D01*
X112785714Y-32685714D01*
X112690476Y-32733333D01*
X112404761Y-32685714D02*
X112023809Y-32685714D01*
X112261904Y-32352380D02*
X112261904Y-33209523D01*
X112214285Y-33304761D01*
X112119047Y-33352380D01*
X112023809Y-33352380D01*
X111547619Y-33352380D02*
X111642857Y-33304761D01*
X111690476Y-33257142D01*
X111738095Y-33161904D01*
X111738095Y-32876190D01*
X111690476Y-32780952D01*
X111642857Y-32733333D01*
X111547619Y-32685714D01*
X111404761Y-32685714D01*
X111309523Y-32733333D01*
X111261904Y-32780952D01*
X111214285Y-32876190D01*
X111214285Y-33161904D01*
X111261904Y-33257142D01*
X111309523Y-33304761D01*
X111404761Y-33352380D01*
X111547619Y-33352380D01*
X110785714Y-33352380D02*
X110785714Y-32685714D01*
X110785714Y-32876190D02*
X110738095Y-32780952D01*
X110690476Y-32733333D01*
X110595238Y-32685714D01*
X110500000Y-32685714D01*
X109500000Y-32352380D02*
X108880952Y-32352380D01*
X109214285Y-32733333D01*
X109071428Y-32733333D01*
X108976190Y-32780952D01*
X108928571Y-32828571D01*
X108880952Y-32923809D01*
X108880952Y-33161904D01*
X108928571Y-33257142D01*
X108976190Y-33304761D01*
X109071428Y-33352380D01*
X109357142Y-33352380D01*
X109452380Y-33304761D01*
X109500000Y-33257142D01*
X108452380Y-33352380D02*
X108452380Y-32352380D01*
X108214285Y-32352380D01*
X108071428Y-32400000D01*
X107976190Y-32495238D01*
X107928571Y-32590476D01*
X107880952Y-32780952D01*
X107880952Y-32923809D01*
X107928571Y-33114285D01*
X107976190Y-33209523D01*
X108071428Y-33304761D01*
X108214285Y-33352380D01*
X108452380Y-33352380D01*
X120023809Y-33962380D02*
X119690476Y-34962380D01*
X119357142Y-33962380D01*
X118500000Y-34962380D02*
X119071428Y-34962380D01*
X118785714Y-34962380D02*
X118785714Y-33962380D01*
X118880952Y-34105238D01*
X118976190Y-34200476D01*
X119071428Y-34248095D01*
X118071428Y-34867142D02*
X118023809Y-34914761D01*
X118071428Y-34962380D01*
X118119047Y-34914761D01*
X118071428Y-34867142D01*
X118071428Y-34962380D01*
X117404761Y-33962380D02*
X117309523Y-33962380D01*
X117214285Y-34010000D01*
X117166666Y-34057619D01*
X117119047Y-34152857D01*
X117071428Y-34343333D01*
X117071428Y-34581428D01*
X117119047Y-34771904D01*
X117166666Y-34867142D01*
X117214285Y-34914761D01*
X117309523Y-34962380D01*
X117404761Y-34962380D01*
X117500000Y-34914761D01*
X117547619Y-34867142D01*
X117595238Y-34771904D01*
X117642857Y-34581428D01*
X117642857Y-34343333D01*
X117595238Y-34152857D01*
X117547619Y-34057619D01*
X117500000Y-34010000D01*
X117404761Y-33962380D01*
D13*
%TO.C,J1*%
X29700000Y-33950000D02*
X33200000Y-33950000D01*
X26500000Y-36760000D02*
X26500000Y-35340000D01*
X28590000Y-30560000D02*
X28590000Y-32950000D01*
X25000000Y-31700000D02*
X24400000Y-31400000D01*
X24400000Y-32000000D02*
X25000000Y-31700000D01*
X33200000Y-31450000D02*
X33200000Y-31950000D01*
X33800000Y-29140000D02*
X26500000Y-29140000D01*
X33200000Y-34450000D02*
X29700000Y-34450000D01*
X26500000Y-35340000D02*
X28590000Y-35340000D01*
X26500000Y-29140000D02*
X26500000Y-30560000D01*
X28590000Y-35340000D02*
X28590000Y-32950000D01*
X29700000Y-34450000D02*
X29700000Y-33950000D01*
X33800000Y-32950000D02*
X33800000Y-36760000D01*
X29700000Y-31450000D02*
X33200000Y-31450000D01*
X33200000Y-33950000D02*
X33200000Y-34450000D01*
X24400000Y-31400000D02*
X24400000Y-32000000D01*
X33200000Y-31950000D02*
X29700000Y-31950000D01*
X29700000Y-31950000D02*
X29700000Y-31450000D01*
X33800000Y-36760000D02*
X26500000Y-36760000D01*
X33800000Y-32950000D02*
X33800000Y-29140000D01*
X26500000Y-30560000D02*
X28590000Y-30560000D01*
%TO.C,J2*%
X203200000Y-32950000D02*
X203200000Y-29140000D01*
X212000000Y-34200000D02*
X212600000Y-34500000D01*
X203800000Y-34450000D02*
X203800000Y-33950000D01*
X210500000Y-30560000D02*
X208410000Y-30560000D01*
X208410000Y-35340000D02*
X208410000Y-32950000D01*
X203200000Y-36760000D02*
X210500000Y-36760000D01*
X210500000Y-35340000D02*
X208410000Y-35340000D01*
X203200000Y-29140000D02*
X210500000Y-29140000D01*
X207300000Y-31950000D02*
X203800000Y-31950000D01*
X207300000Y-31450000D02*
X207300000Y-31950000D01*
X210500000Y-29140000D02*
X210500000Y-30560000D01*
X207300000Y-34450000D02*
X203800000Y-34450000D01*
X212600000Y-34500000D02*
X212600000Y-33900000D01*
X203800000Y-31950000D02*
X203800000Y-31450000D01*
X203800000Y-31450000D02*
X207300000Y-31450000D01*
X203200000Y-32950000D02*
X203200000Y-36760000D01*
X208410000Y-30560000D02*
X208410000Y-32950000D01*
X212600000Y-33900000D02*
X212000000Y-34200000D01*
X207300000Y-33950000D02*
X207300000Y-34450000D01*
X210500000Y-36760000D02*
X210500000Y-35340000D01*
X203800000Y-33950000D02*
X207300000Y-33950000D01*
%TD*%
M02*
