%TF.GenerationSoftware,KiCad,Pcbnew,(6.0.7)*%
%TF.CreationDate,2023-02-06T13:38:00+00:00*%
%TF.ProjectId,Dayspring_P,44617973-7072-4696-9e67-5f502e6b6963,rev?*%
%TF.SameCoordinates,Original*%
%TF.FileFunction,Legend,Top*%
%TF.FilePolarity,Positive*%
%FSLAX46Y46*%
G04 Gerber Fmt 4.6, Leading zero omitted, Abs format (unit mm)*
G04 Created by KiCad (PCBNEW (6.0.7)) date 2023-02-06 13:38:00*
%MOMM*%
%LPD*%
G01*
G04 APERTURE LIST*
%ADD10C,0.150000*%
%ADD11C,0.250000*%
%ADD12C,0.300000*%
%ADD13C,0.120000*%
G04 APERTURE END LIST*
D10*
X304500000Y-35750001D02*
X35500000Y-35750001D01*
X304500000Y-49750002D02*
X35500000Y-49750002D01*
X304500000Y-63750003D02*
X35500000Y-63750003D01*
X304500000Y-77750004D02*
X35500000Y-77750004D01*
X304500000Y-91750005D02*
X35500000Y-91750005D01*
X304500000Y-105750006D02*
X35500000Y-105750006D01*
X304500000Y-119750007D02*
X35500000Y-119750007D01*
X304500000Y-147750009D02*
X35500000Y-147750009D01*
X304500000Y-133750008D02*
X35500000Y-133750008D01*
X304500000Y-161750010D02*
X35500000Y-161750010D01*
X27000000Y-27250001D02*
X17500000Y-27250001D01*
X27000000Y-41250002D02*
X17500000Y-41250002D01*
X27000000Y-55250003D02*
X17500000Y-55250003D01*
X27000000Y-69250004D02*
X17500000Y-69250004D01*
X27000000Y-83250005D02*
X17500000Y-83250005D01*
X27000000Y-97250006D02*
X17500000Y-97250006D01*
X27000000Y-111250007D02*
X17500000Y-111250007D01*
X27000000Y-139250009D02*
X17500000Y-139250009D01*
X27000000Y-125250008D02*
X17500000Y-125250008D01*
X27000000Y-153250010D02*
X17500000Y-153250010D01*
X35500000Y-27250001D02*
X304500000Y-27250001D01*
X35500000Y-41250002D02*
X304500000Y-41250002D01*
X35500000Y-55250003D02*
X304500000Y-55250003D01*
X35500000Y-69250004D02*
X304500000Y-69250004D01*
X35500000Y-83250005D02*
X304500000Y-83250005D01*
X35500000Y-97250006D02*
X304500000Y-97250006D01*
X35500000Y-111250007D02*
X304500000Y-111250007D01*
X35500000Y-125250008D02*
X304500000Y-125250008D01*
X35500000Y-139250009D02*
X304500000Y-139250009D01*
X35500000Y-153250010D02*
X304500000Y-153250010D01*
X322500000Y-35750001D02*
X313000000Y-35750001D01*
X322500000Y-49750002D02*
X313000000Y-49750002D01*
X322500000Y-63750003D02*
X313000000Y-63750003D01*
X322500000Y-77750004D02*
X313000000Y-77750004D01*
X322500000Y-91750005D02*
X313000000Y-91750005D01*
X322500000Y-105750006D02*
X313000000Y-105750006D01*
X322500000Y-119750007D02*
X313000000Y-119750007D01*
X322500000Y-147750009D02*
X313000000Y-147750009D01*
X322500000Y-133750008D02*
X313000000Y-133750008D01*
X322500000Y-161750010D02*
X313000000Y-161750010D01*
X27000000Y-35750001D02*
X17500000Y-35750001D01*
X27000000Y-49750002D02*
X17500000Y-49750002D01*
X27000000Y-63750003D02*
X17500000Y-63750003D01*
X27000000Y-77750004D02*
X17500000Y-77750004D01*
X27000000Y-91750005D02*
X17500000Y-91750005D01*
X27000000Y-105750006D02*
X17500000Y-105750006D01*
X27000000Y-119750007D02*
X17500000Y-119750007D01*
X27000000Y-133750008D02*
X17500000Y-133750008D01*
X27000000Y-147750009D02*
X17500000Y-147750009D01*
X27000000Y-161750010D02*
X17500000Y-161750010D01*
X322500000Y-27250001D02*
X313000000Y-27250001D01*
X322500000Y-41250002D02*
X313000000Y-41250002D01*
X322500000Y-55250003D02*
X313000000Y-55250003D01*
X322500000Y-69250004D02*
X313000000Y-69250004D01*
X322500000Y-83250005D02*
X313000000Y-83250005D01*
X322500000Y-97250006D02*
X313000000Y-97250006D01*
X322500000Y-111250007D02*
X313000000Y-111250007D01*
X322500000Y-125250008D02*
X313000000Y-125250008D01*
X322500000Y-139250009D02*
X313000000Y-139250009D01*
X322500000Y-153250010D02*
X313000000Y-153250010D01*
D11*
X48337500Y-30399643D02*
X49480357Y-30399643D01*
X48908928Y-30971072D02*
X48908928Y-29828215D01*
X48337500Y-32814643D02*
X49480357Y-32814643D01*
X48337500Y-44399644D02*
X49480357Y-44399644D01*
X48908928Y-44971073D02*
X48908928Y-43828216D01*
X48337500Y-46814644D02*
X49480357Y-46814644D01*
X48337500Y-58399645D02*
X49480357Y-58399645D01*
X48908928Y-58971074D02*
X48908928Y-57828217D01*
X48337500Y-60814645D02*
X49480357Y-60814645D01*
X48337500Y-72399646D02*
X49480357Y-72399646D01*
X48908928Y-72971075D02*
X48908928Y-71828218D01*
X48337500Y-74814646D02*
X49480357Y-74814646D01*
X48337500Y-86399647D02*
X49480357Y-86399647D01*
X48908928Y-86971076D02*
X48908928Y-85828219D01*
X48337500Y-88814647D02*
X49480357Y-88814647D01*
X48337500Y-100399648D02*
X49480357Y-100399648D01*
X48908928Y-100971077D02*
X48908928Y-99828220D01*
X48337500Y-102814648D02*
X49480357Y-102814648D01*
X48337500Y-142399651D02*
X49480357Y-142399651D01*
X48908928Y-142971080D02*
X48908928Y-141828223D01*
X48337500Y-144814651D02*
X49480357Y-144814651D01*
X48337500Y-114399649D02*
X49480357Y-114399649D01*
X48908928Y-114971078D02*
X48908928Y-113828221D01*
X48337500Y-116814649D02*
X49480357Y-116814649D01*
X48337500Y-128399650D02*
X49480357Y-128399650D01*
X48908928Y-128971079D02*
X48908928Y-127828222D01*
X48337500Y-130814650D02*
X49480357Y-130814650D01*
X48337500Y-156399652D02*
X49480357Y-156399652D01*
X48908928Y-156971081D02*
X48908928Y-155828224D01*
X48337500Y-158814652D02*
X49480357Y-158814652D01*
X292362500Y-32700358D02*
X291219642Y-32700358D01*
X291791071Y-32128929D02*
X291791071Y-33271786D01*
X292362500Y-30285358D02*
X291219642Y-30285358D01*
X292362500Y-46700359D02*
X291219642Y-46700359D01*
X291791071Y-46128930D02*
X291791071Y-47271787D01*
X292362500Y-44285359D02*
X291219642Y-44285359D01*
X292362500Y-60700360D02*
X291219642Y-60700360D01*
X291791071Y-60128931D02*
X291791071Y-61271788D01*
X292362500Y-58285360D02*
X291219642Y-58285360D01*
X292362500Y-74700361D02*
X291219642Y-74700361D01*
X291791071Y-74128932D02*
X291791071Y-75271789D01*
X292362500Y-72285361D02*
X291219642Y-72285361D01*
X292362500Y-88700362D02*
X291219642Y-88700362D01*
X291791071Y-88128933D02*
X291791071Y-89271790D01*
X292362500Y-86285362D02*
X291219642Y-86285362D01*
X292362500Y-102700363D02*
X291219642Y-102700363D01*
X291791071Y-102128934D02*
X291791071Y-103271791D01*
X292362500Y-100285363D02*
X291219642Y-100285363D01*
X292362500Y-144700366D02*
X291219642Y-144700366D01*
X291791071Y-144128937D02*
X291791071Y-145271794D01*
X292362500Y-142285366D02*
X291219642Y-142285366D01*
X292362500Y-116700364D02*
X291219642Y-116700364D01*
X291791071Y-116128935D02*
X291791071Y-117271792D01*
X292362500Y-114285364D02*
X291219642Y-114285364D01*
X292362500Y-130700365D02*
X291219642Y-130700365D01*
X291791071Y-130128936D02*
X291791071Y-131271793D01*
X292362500Y-128285365D02*
X291219642Y-128285365D01*
X292362500Y-158700367D02*
X291219642Y-158700367D01*
X291791071Y-158128938D02*
X291791071Y-159271795D01*
X292362500Y-156285367D02*
X291219642Y-156285367D01*
X311537500Y-30399643D02*
X312680357Y-30399643D01*
X312108928Y-30971072D02*
X312108928Y-29828215D01*
X311537500Y-32814643D02*
X312680357Y-32814643D01*
X311537500Y-44399644D02*
X312680357Y-44399644D01*
X312108928Y-44971073D02*
X312108928Y-43828216D01*
X311537500Y-46814644D02*
X312680357Y-46814644D01*
X311537500Y-58399645D02*
X312680357Y-58399645D01*
X312108928Y-58971074D02*
X312108928Y-57828217D01*
X311537500Y-60814645D02*
X312680357Y-60814645D01*
X311537500Y-72399646D02*
X312680357Y-72399646D01*
X312108928Y-72971075D02*
X312108928Y-71828218D01*
X311537500Y-74814646D02*
X312680357Y-74814646D01*
X311537500Y-86399647D02*
X312680357Y-86399647D01*
X312108928Y-86971076D02*
X312108928Y-85828219D01*
X311537500Y-88814647D02*
X312680357Y-88814647D01*
X311537500Y-100399648D02*
X312680357Y-100399648D01*
X312108928Y-100971077D02*
X312108928Y-99828220D01*
X311537500Y-102814648D02*
X312680357Y-102814648D01*
X311537500Y-142399651D02*
X312680357Y-142399651D01*
X312108928Y-142971080D02*
X312108928Y-141828223D01*
X311537500Y-144814651D02*
X312680357Y-144814651D01*
X311537500Y-114399649D02*
X312680357Y-114399649D01*
X312108928Y-114971078D02*
X312108928Y-113828221D01*
X311537500Y-116814649D02*
X312680357Y-116814649D01*
X311537500Y-128399650D02*
X312680357Y-128399650D01*
X312108928Y-128971079D02*
X312108928Y-127828222D01*
X311537500Y-130814650D02*
X312680357Y-130814650D01*
X311537500Y-156399652D02*
X312680357Y-156399652D01*
X312108928Y-156971081D02*
X312108928Y-155828224D01*
X311537500Y-158814652D02*
X312680357Y-158814652D01*
D12*
X154857142Y-18178571D02*
X155357142Y-19678571D01*
X155857142Y-18178571D01*
X156928571Y-19607142D02*
X156785714Y-19678571D01*
X156500000Y-19678571D01*
X156357142Y-19607142D01*
X156285714Y-19464285D01*
X156285714Y-18892857D01*
X156357142Y-18750000D01*
X156500000Y-18678571D01*
X156785714Y-18678571D01*
X156928571Y-18750000D01*
X157000000Y-18892857D01*
X157000000Y-19035714D01*
X156285714Y-19178571D01*
X158285714Y-19607142D02*
X158142857Y-19678571D01*
X157857142Y-19678571D01*
X157714285Y-19607142D01*
X157642857Y-19535714D01*
X157571428Y-19392857D01*
X157571428Y-18964285D01*
X157642857Y-18821428D01*
X157714285Y-18750000D01*
X157857142Y-18678571D01*
X158142857Y-18678571D01*
X158285714Y-18750000D01*
X158714285Y-18678571D02*
X159285714Y-18678571D01*
X158928571Y-18178571D02*
X158928571Y-19464285D01*
X159000000Y-19607142D01*
X159142857Y-19678571D01*
X159285714Y-19678571D01*
X160000000Y-19678571D02*
X159857142Y-19607142D01*
X159785714Y-19535714D01*
X159714285Y-19392857D01*
X159714285Y-18964285D01*
X159785714Y-18821428D01*
X159857142Y-18750000D01*
X160000000Y-18678571D01*
X160214285Y-18678571D01*
X160357142Y-18750000D01*
X160428571Y-18821428D01*
X160500000Y-18964285D01*
X160500000Y-19392857D01*
X160428571Y-19535714D01*
X160357142Y-19607142D01*
X160214285Y-19678571D01*
X160000000Y-19678571D01*
X161142857Y-19678571D02*
X161142857Y-18678571D01*
X161142857Y-18964285D02*
X161214285Y-18821428D01*
X161285714Y-18750000D01*
X161428571Y-18678571D01*
X161571428Y-18678571D01*
X163071428Y-18178571D02*
X164000000Y-18178571D01*
X163500000Y-18750000D01*
X163714285Y-18750000D01*
X163857142Y-18821428D01*
X163928571Y-18892857D01*
X164000000Y-19035714D01*
X164000000Y-19392857D01*
X163928571Y-19535714D01*
X163857142Y-19607142D01*
X163714285Y-19678571D01*
X163285714Y-19678571D01*
X163142857Y-19607142D01*
X163071428Y-19535714D01*
X164642857Y-19678571D02*
X164642857Y-18178571D01*
X165000000Y-18178571D01*
X165214285Y-18250000D01*
X165357142Y-18392857D01*
X165428571Y-18535714D01*
X165500000Y-18821428D01*
X165500000Y-19035714D01*
X165428571Y-19321428D01*
X165357142Y-19464285D01*
X165214285Y-19607142D01*
X165000000Y-19678571D01*
X164642857Y-19678571D01*
X167285714Y-19678571D02*
X167285714Y-18178571D01*
X167642857Y-18178571D01*
X167857142Y-18250000D01*
X168000000Y-18392857D01*
X168071428Y-18535714D01*
X168142857Y-18821428D01*
X168142857Y-19035714D01*
X168071428Y-19321428D01*
X168000000Y-19464285D01*
X167857142Y-19607142D01*
X167642857Y-19678571D01*
X167285714Y-19678571D01*
X169428571Y-19678571D02*
X169428571Y-18892857D01*
X169357142Y-18750000D01*
X169214285Y-18678571D01*
X168928571Y-18678571D01*
X168785714Y-18750000D01*
X169428571Y-19607142D02*
X169285714Y-19678571D01*
X168928571Y-19678571D01*
X168785714Y-19607142D01*
X168714285Y-19464285D01*
X168714285Y-19321428D01*
X168785714Y-19178571D01*
X168928571Y-19107142D01*
X169285714Y-19107142D01*
X169428571Y-19035714D01*
X170000000Y-18678571D02*
X170357142Y-19678571D01*
X170714285Y-18678571D02*
X170357142Y-19678571D01*
X170214285Y-20035714D01*
X170142857Y-20107142D01*
X170000000Y-20178571D01*
X171214285Y-19607142D02*
X171357142Y-19678571D01*
X171642857Y-19678571D01*
X171785714Y-19607142D01*
X171857142Y-19464285D01*
X171857142Y-19392857D01*
X171785714Y-19250000D01*
X171642857Y-19178571D01*
X171428571Y-19178571D01*
X171285714Y-19107142D01*
X171214285Y-18964285D01*
X171214285Y-18892857D01*
X171285714Y-18750000D01*
X171428571Y-18678571D01*
X171642857Y-18678571D01*
X171785714Y-18750000D01*
X172500000Y-18678571D02*
X172500000Y-20178571D01*
X172500000Y-18750000D02*
X172642857Y-18678571D01*
X172928571Y-18678571D01*
X173071428Y-18750000D01*
X173142857Y-18821428D01*
X173214285Y-18964285D01*
X173214285Y-19392857D01*
X173142857Y-19535714D01*
X173071428Y-19607142D01*
X172928571Y-19678571D01*
X172642857Y-19678571D01*
X172500000Y-19607142D01*
X173857142Y-19678571D02*
X173857142Y-18678571D01*
X173857142Y-18964285D02*
X173928571Y-18821428D01*
X174000000Y-18750000D01*
X174142857Y-18678571D01*
X174285714Y-18678571D01*
X174785714Y-19678571D02*
X174785714Y-18678571D01*
X174785714Y-18178571D02*
X174714285Y-18250000D01*
X174785714Y-18321428D01*
X174857142Y-18250000D01*
X174785714Y-18178571D01*
X174785714Y-18321428D01*
X175500000Y-18678571D02*
X175500000Y-19678571D01*
X175500000Y-18821428D02*
X175571428Y-18750000D01*
X175714285Y-18678571D01*
X175928571Y-18678571D01*
X176071428Y-18750000D01*
X176142857Y-18892857D01*
X176142857Y-19678571D01*
X177500000Y-18678571D02*
X177500000Y-19892857D01*
X177428571Y-20035714D01*
X177357142Y-20107142D01*
X177214285Y-20178571D01*
X177000000Y-20178571D01*
X176857142Y-20107142D01*
X177500000Y-19607142D02*
X177357142Y-19678571D01*
X177071428Y-19678571D01*
X176928571Y-19607142D01*
X176857142Y-19535714D01*
X176785714Y-19392857D01*
X176785714Y-18964285D01*
X176857142Y-18821428D01*
X176928571Y-18750000D01*
X177071428Y-18678571D01*
X177357142Y-18678571D01*
X177500000Y-18750000D01*
X179357142Y-19678571D02*
X179357142Y-18178571D01*
X179928571Y-18178571D01*
X180071428Y-18250000D01*
X180142857Y-18321428D01*
X180214285Y-18464285D01*
X180214285Y-18678571D01*
X180142857Y-18821428D01*
X180071428Y-18892857D01*
X179928571Y-18964285D01*
X179357142Y-18964285D01*
X181500000Y-19678571D02*
X181500000Y-18892857D01*
X181428571Y-18750000D01*
X181285714Y-18678571D01*
X181000000Y-18678571D01*
X180857142Y-18750000D01*
X181500000Y-19607142D02*
X181357142Y-19678571D01*
X181000000Y-19678571D01*
X180857142Y-19607142D01*
X180785714Y-19464285D01*
X180785714Y-19321428D01*
X180857142Y-19178571D01*
X181000000Y-19107142D01*
X181357142Y-19107142D01*
X181500000Y-19035714D01*
X182214285Y-18678571D02*
X182214285Y-19678571D01*
X182214285Y-18821428D02*
X182285714Y-18750000D01*
X182428571Y-18678571D01*
X182642857Y-18678571D01*
X182785714Y-18750000D01*
X182857142Y-18892857D01*
X182857142Y-19678571D01*
X184142857Y-19607142D02*
X184000000Y-19678571D01*
X183714285Y-19678571D01*
X183571428Y-19607142D01*
X183500000Y-19464285D01*
X183500000Y-18892857D01*
X183571428Y-18750000D01*
X183714285Y-18678571D01*
X184000000Y-18678571D01*
X184142857Y-18750000D01*
X184214285Y-18892857D01*
X184214285Y-19035714D01*
X183500000Y-19178571D01*
X185071428Y-19678571D02*
X184928571Y-19607142D01*
X184857142Y-19464285D01*
X184857142Y-18178571D01*
D11*
X27337500Y-30649643D02*
X28480357Y-30649643D01*
X27908928Y-31221072D02*
X27908928Y-30078215D01*
X27337500Y-33064643D02*
X28480357Y-33064643D01*
X27337500Y-44649644D02*
X28480357Y-44649644D01*
X27908928Y-45221073D02*
X27908928Y-44078216D01*
X27337500Y-47064644D02*
X28480357Y-47064644D01*
X27337500Y-58649645D02*
X28480357Y-58649645D01*
X27908928Y-59221074D02*
X27908928Y-58078217D01*
X27337500Y-61064645D02*
X28480357Y-61064645D01*
X27337500Y-72649646D02*
X28480357Y-72649646D01*
X27908928Y-73221075D02*
X27908928Y-72078218D01*
X27337500Y-75064646D02*
X28480357Y-75064646D01*
X27337500Y-86649647D02*
X28480357Y-86649647D01*
X27908928Y-87221076D02*
X27908928Y-86078219D01*
X27337500Y-89064647D02*
X28480357Y-89064647D01*
X27337500Y-100649648D02*
X28480357Y-100649648D01*
X27908928Y-101221077D02*
X27908928Y-100078220D01*
X27337500Y-103064648D02*
X28480357Y-103064648D01*
X27337500Y-114649649D02*
X28480357Y-114649649D01*
X27908928Y-115221078D02*
X27908928Y-114078221D01*
X27337500Y-117064649D02*
X28480357Y-117064649D01*
X27337500Y-128649650D02*
X28480357Y-128649650D01*
X27908928Y-129221079D02*
X27908928Y-128078222D01*
X27337500Y-131064650D02*
X28480357Y-131064650D01*
X27337500Y-142649651D02*
X28480357Y-142649651D01*
X27908928Y-143221080D02*
X27908928Y-142078223D01*
X27337500Y-145064651D02*
X28480357Y-145064651D01*
X27337500Y-156649652D02*
X28480357Y-156649652D01*
X27908928Y-157221081D02*
X27908928Y-156078224D01*
X27337500Y-159064652D02*
X28480357Y-159064652D01*
D13*
%TO.C,D12*%
X275200000Y-128100008D02*
X275200000Y-131700008D01*
X272000000Y-128100008D02*
X272000000Y-131700008D01*
X272000000Y-131700008D02*
X275200000Y-131700008D01*
%TO.C,D17*%
X201200000Y-30100001D02*
X201200000Y-33700001D01*
X198000000Y-30100001D02*
X198000000Y-33700001D01*
X198000000Y-33700001D02*
X201200000Y-33700001D01*
%TO.C,D1*%
X23600000Y-44100002D02*
X23600000Y-47700002D01*
X20400000Y-47700002D02*
X23600000Y-47700002D01*
X20400000Y-44100002D02*
X20400000Y-47700002D01*
%TO.C,D7*%
X50000000Y-159700010D02*
X53200000Y-159700010D01*
X50000000Y-156100010D02*
X50000000Y-159700010D01*
X53200000Y-156100010D02*
X53200000Y-159700010D01*
%TO.C,D20*%
X212800000Y-47700002D02*
X216000000Y-47700002D01*
X212800000Y-44100002D02*
X212800000Y-47700002D01*
X216000000Y-44100002D02*
X216000000Y-47700002D01*
%TO.C,D16*%
X94400000Y-89700005D02*
X97600000Y-89700005D01*
X97600000Y-86100005D02*
X97600000Y-89700005D01*
X94400000Y-86100005D02*
X94400000Y-89700005D01*
%TO.C,D18*%
X301600000Y-145700009D02*
X304800000Y-145700009D01*
X304800000Y-142100009D02*
X304800000Y-145700009D01*
X301600000Y-142100009D02*
X301600000Y-145700009D01*
%TO.C,D14*%
X186400000Y-114100007D02*
X186400000Y-117700007D01*
X183200000Y-117700007D02*
X186400000Y-117700007D01*
X183200000Y-114100007D02*
X183200000Y-117700007D01*
%TO.C,D15*%
X290000000Y-128100008D02*
X290000000Y-131700008D01*
X286800000Y-128100008D02*
X286800000Y-131700008D01*
X286800000Y-131700008D02*
X290000000Y-131700008D01*
%TO.C,D11*%
X168400000Y-103700006D02*
X171600000Y-103700006D01*
X168400000Y-100100006D02*
X168400000Y-103700006D01*
X171600000Y-100100006D02*
X171600000Y-103700006D01*
%TO.C,D12*%
X275200000Y-30100001D02*
X275200000Y-33700001D01*
X272000000Y-30100001D02*
X272000000Y-33700001D01*
X272000000Y-33700001D02*
X275200000Y-33700001D01*
X272000000Y-114100007D02*
X272000000Y-117700007D01*
X275200000Y-114100007D02*
X275200000Y-117700007D01*
X272000000Y-117700007D02*
X275200000Y-117700007D01*
%TO.C,D6*%
X242400000Y-159700010D02*
X245600000Y-159700010D01*
X245600000Y-156100010D02*
X245600000Y-159700010D01*
X242400000Y-156100010D02*
X242400000Y-159700010D01*
%TO.C,D16*%
X97600000Y-58100003D02*
X97600000Y-61700003D01*
X94400000Y-61700003D02*
X97600000Y-61700003D01*
X94400000Y-58100003D02*
X94400000Y-61700003D01*
%TO.C,D4*%
X38400000Y-72100004D02*
X38400000Y-75700004D01*
X35200000Y-75700004D02*
X38400000Y-75700004D01*
X35200000Y-72100004D02*
X35200000Y-75700004D01*
%TO.C,D8*%
X153600000Y-131700008D02*
X156800000Y-131700008D01*
X156800000Y-128100008D02*
X156800000Y-131700008D01*
X153600000Y-128100008D02*
X153600000Y-131700008D01*
%TO.C,D2*%
X124000000Y-75700004D02*
X127200000Y-75700004D01*
X124000000Y-72100004D02*
X124000000Y-75700004D01*
X127200000Y-72100004D02*
X127200000Y-75700004D01*
%TO.C,D9*%
X260400000Y-44100002D02*
X260400000Y-47700002D01*
X257200000Y-44100002D02*
X257200000Y-47700002D01*
X257200000Y-47700002D02*
X260400000Y-47700002D01*
%TO.C,R3*%
X148910000Y-102227070D02*
X148910000Y-100772942D01*
X147090000Y-102227070D02*
X147090000Y-100772942D01*
%TO.C,R4*%
X297840000Y-32227065D02*
X297840000Y-30772937D01*
X299660000Y-32227065D02*
X299660000Y-30772937D01*
%TO.C,D8*%
X156800000Y-58100003D02*
X156800000Y-61700003D01*
X153600000Y-58100003D02*
X153600000Y-61700003D01*
X153600000Y-61700003D02*
X156800000Y-61700003D01*
%TO.C,D11*%
X168400000Y-30100001D02*
X168400000Y-33700001D01*
X168400000Y-33700001D02*
X171600000Y-33700001D01*
X171600000Y-30100001D02*
X171600000Y-33700001D01*
%TO.C,D4*%
X35200000Y-89700005D02*
X38400000Y-89700005D01*
X35200000Y-86100005D02*
X35200000Y-89700005D01*
X38400000Y-86100005D02*
X38400000Y-89700005D01*
%TO.C,R2*%
X250340000Y-158227074D02*
X250340000Y-156772946D01*
X252160000Y-158227074D02*
X252160000Y-156772946D01*
%TO.C,D1*%
X20400000Y-142100009D02*
X20400000Y-145700009D01*
X20400000Y-145700009D02*
X23600000Y-145700009D01*
X23600000Y-142100009D02*
X23600000Y-145700009D01*
%TO.C,D3*%
X227600000Y-75700004D02*
X230800000Y-75700004D01*
X227600000Y-72100004D02*
X227600000Y-75700004D01*
X230800000Y-72100004D02*
X230800000Y-75700004D01*
X227600000Y-128100008D02*
X227600000Y-131700008D01*
X227600000Y-131700008D02*
X230800000Y-131700008D01*
X230800000Y-128100008D02*
X230800000Y-131700008D01*
%TO.C,D18*%
X301600000Y-44100002D02*
X301600000Y-47700002D01*
X304800000Y-44100002D02*
X304800000Y-47700002D01*
X301600000Y-47700002D02*
X304800000Y-47700002D01*
%TO.C,D12*%
X275200000Y-44100002D02*
X275200000Y-47700002D01*
X272000000Y-47700002D02*
X275200000Y-47700002D01*
X272000000Y-44100002D02*
X272000000Y-47700002D01*
%TO.C,D1*%
X23600000Y-114100007D02*
X23600000Y-117700007D01*
X20400000Y-114100007D02*
X20400000Y-117700007D01*
X20400000Y-117700007D02*
X23600000Y-117700007D01*
%TO.C,D6*%
X242400000Y-33700001D02*
X245600000Y-33700001D01*
X242400000Y-30100001D02*
X242400000Y-33700001D01*
X245600000Y-30100001D02*
X245600000Y-33700001D01*
%TO.C,D19*%
X109200000Y-58100003D02*
X109200000Y-61700003D01*
X112400000Y-58100003D02*
X112400000Y-61700003D01*
X109200000Y-61700003D02*
X112400000Y-61700003D01*
%TO.C,R3*%
X147090000Y-158227074D02*
X147090000Y-156772946D01*
X148910000Y-158227074D02*
X148910000Y-156772946D01*
%TO.C,D4*%
X38400000Y-114100007D02*
X38400000Y-117700007D01*
X35200000Y-117700007D02*
X38400000Y-117700007D01*
X35200000Y-114100007D02*
X35200000Y-117700007D01*
%TO.C,D10*%
X68000000Y-86100005D02*
X68000000Y-89700005D01*
X64800000Y-89700005D02*
X68000000Y-89700005D01*
X64800000Y-86100005D02*
X64800000Y-89700005D01*
%TO.C,D5*%
X142000000Y-30100001D02*
X142000000Y-33700001D01*
X138800000Y-33700001D02*
X142000000Y-33700001D01*
X138800000Y-30100001D02*
X138800000Y-33700001D01*
%TO.C,D16*%
X94400000Y-159700010D02*
X97600000Y-159700010D01*
X97600000Y-156100010D02*
X97600000Y-159700010D01*
X94400000Y-156100010D02*
X94400000Y-159700010D01*
%TO.C,D3*%
X230800000Y-142100009D02*
X230800000Y-145700009D01*
X227600000Y-142100009D02*
X227600000Y-145700009D01*
X227600000Y-145700009D02*
X230800000Y-145700009D01*
%TO.C,R2*%
X250340000Y-116227071D02*
X250340000Y-114772943D01*
X252160000Y-116227071D02*
X252160000Y-114772943D01*
%TO.C,D1*%
X20400000Y-33700001D02*
X23600000Y-33700001D01*
X23600000Y-30100001D02*
X23600000Y-33700001D01*
X20400000Y-30100001D02*
X20400000Y-33700001D01*
%TO.C,D3*%
X227600000Y-156100010D02*
X227600000Y-159700010D01*
X227600000Y-159700010D02*
X230800000Y-159700010D01*
X230800000Y-156100010D02*
X230800000Y-159700010D01*
X227600000Y-33700001D02*
X230800000Y-33700001D01*
X230800000Y-30100001D02*
X230800000Y-33700001D01*
X227600000Y-30100001D02*
X227600000Y-33700001D01*
%TO.C,D19*%
X109200000Y-72100004D02*
X109200000Y-75700004D01*
X112400000Y-72100004D02*
X112400000Y-75700004D01*
X109200000Y-75700004D02*
X112400000Y-75700004D01*
%TO.C,G\u002A\u002A\u002A*%
G36*
X32897091Y-91879921D02*
G01*
X32533798Y-91879921D01*
X32302079Y-91572838D01*
X32234433Y-91482774D01*
X32174571Y-91402275D01*
X32125545Y-91335511D01*
X32090408Y-91286656D01*
X32072214Y-91259880D01*
X32070360Y-91256217D01*
X32087140Y-91253532D01*
X32134242Y-91251140D01*
X32206808Y-91249152D01*
X32299980Y-91247681D01*
X32408900Y-91246838D01*
X32483725Y-91246680D01*
X32897091Y-91246680D01*
X32897091Y-91879921D01*
G37*
G36*
X29742667Y-86289437D02*
G01*
X29686289Y-86152113D01*
X29639584Y-86038429D01*
X29601332Y-85945414D01*
X29570310Y-85870098D01*
X29545295Y-85809509D01*
X29525067Y-85760677D01*
X29508402Y-85720630D01*
X29502216Y-85705822D01*
X29483761Y-85661553D01*
X29461499Y-85607859D01*
X29434211Y-85541768D01*
X29400672Y-85460309D01*
X29359664Y-85360509D01*
X29309963Y-85239396D01*
X29250348Y-85093997D01*
X29179598Y-84921342D01*
X29115455Y-84764755D01*
X29059209Y-84627618D01*
X29005363Y-84496680D01*
X28955831Y-84376571D01*
X28912527Y-84271920D01*
X28877367Y-84187354D01*
X28852263Y-84127503D01*
X28841737Y-84102880D01*
X28813199Y-84035667D01*
X28786341Y-83969537D01*
X28773330Y-83935774D01*
X28754009Y-83885902D01*
X28726440Y-83817483D01*
X28707820Y-83772443D01*
X29100759Y-83772443D01*
X29105338Y-83792522D01*
X29121360Y-83840186D01*
X29146987Y-83910442D01*
X29180382Y-83998297D01*
X29219708Y-84098758D01*
X29234290Y-84135365D01*
X29276237Y-84240356D01*
X29314174Y-84335581D01*
X29345992Y-84415732D01*
X29369586Y-84475499D01*
X29382849Y-84509573D01*
X29384537Y-84514097D01*
X29401719Y-84540045D01*
X29412569Y-84544880D01*
X29429258Y-84532277D01*
X29464732Y-84497381D01*
X29514824Y-84444559D01*
X29575367Y-84378178D01*
X29624990Y-84322275D01*
X29688597Y-84248028D01*
X29741767Y-84182497D01*
X29781000Y-84130290D01*
X29802792Y-84096015D01*
X29805505Y-84084762D01*
X29782974Y-84070655D01*
X29735371Y-84046246D01*
X29668290Y-84014015D01*
X29587322Y-83976441D01*
X29498061Y-83936001D01*
X29406099Y-83895174D01*
X29317029Y-83856439D01*
X29236444Y-83822274D01*
X29169937Y-83795158D01*
X29123100Y-83777569D01*
X29101526Y-83771986D01*
X29100759Y-83772443D01*
X28707820Y-83772443D01*
X28696194Y-83744321D01*
X28692591Y-83735739D01*
X28647353Y-83627528D01*
X28601907Y-83517604D01*
X28558198Y-83410804D01*
X28518172Y-83311963D01*
X28483774Y-83225918D01*
X28456951Y-83157504D01*
X28439649Y-83111558D01*
X28433813Y-83092916D01*
X28433881Y-83092761D01*
X28450621Y-83097831D01*
X28490458Y-83114350D01*
X28543559Y-83138190D01*
X28595668Y-83162047D01*
X28671846Y-83196628D01*
X28764050Y-83238295D01*
X28864233Y-83283409D01*
X28930540Y-83313181D01*
X29028072Y-83356970D01*
X29119557Y-83398140D01*
X29198003Y-83433536D01*
X29256419Y-83460006D01*
X29282340Y-83471855D01*
X29320260Y-83489371D01*
X29383780Y-83518736D01*
X29466570Y-83557022D01*
X29562302Y-83601302D01*
X29664648Y-83648650D01*
X29669321Y-83650812D01*
X29985941Y-83797304D01*
X31441516Y-83801999D01*
X32897091Y-83806695D01*
X32897091Y-91070780D01*
X31920474Y-91070780D01*
X31691989Y-90767563D01*
X31603896Y-90648859D01*
X31533854Y-90549220D01*
X31477352Y-90460721D01*
X31429876Y-90375435D01*
X31386915Y-90285436D01*
X31343958Y-90182798D01*
X31311377Y-90098931D01*
X31294755Y-90064456D01*
X31281320Y-90050559D01*
X31266360Y-90062523D01*
X31229883Y-90096313D01*
X31175143Y-90148777D01*
X31105395Y-90216760D01*
X31023895Y-90297110D01*
X30933896Y-90386672D01*
X30918792Y-90401779D01*
X30816110Y-90504360D01*
X30735233Y-90584404D01*
X30673223Y-90644380D01*
X30627140Y-90686759D01*
X30594044Y-90714009D01*
X30570997Y-90728601D01*
X30555059Y-90733003D01*
X30543291Y-90729685D01*
X30535576Y-90723746D01*
X30527439Y-90714353D01*
X30525105Y-90702834D01*
X30530961Y-90686369D01*
X30547392Y-90662136D01*
X30576786Y-90627315D01*
X30621528Y-90579086D01*
X30684004Y-90514627D01*
X30766602Y-90431118D01*
X30871706Y-90325738D01*
X30875478Y-90321963D01*
X31247705Y-89949433D01*
X31190669Y-89806506D01*
X31158711Y-89733646D01*
X31131035Y-89684582D01*
X31110315Y-89663938D01*
X31108023Y-89663578D01*
X31083232Y-89669813D01*
X31032365Y-89686960D01*
X30961937Y-89712683D01*
X30878464Y-89744644D01*
X30842003Y-89759001D01*
X30699138Y-89815466D01*
X30562877Y-89868866D01*
X30436911Y-89917793D01*
X30324930Y-89960838D01*
X30230624Y-89996591D01*
X30157684Y-90023643D01*
X30109801Y-90040585D01*
X30090664Y-90046009D01*
X30090501Y-90045927D01*
X30083261Y-90027944D01*
X30075709Y-90004761D01*
X30074473Y-89993431D01*
X30080205Y-89981886D01*
X30096252Y-89968545D01*
X30125962Y-89951826D01*
X30172682Y-89930149D01*
X30239759Y-89901933D01*
X30330542Y-89865596D01*
X30448377Y-89819558D01*
X30555950Y-89777932D01*
X30680527Y-89729662D01*
X30794953Y-89685010D01*
X30894966Y-89645665D01*
X30976306Y-89613313D01*
X31034711Y-89589644D01*
X31065920Y-89576343D01*
X31069499Y-89574533D01*
X31077592Y-89558873D01*
X31072450Y-89525875D01*
X31052825Y-89470008D01*
X31037275Y-89431972D01*
X30983092Y-89302982D01*
X30458132Y-89294187D01*
X29933171Y-89285392D01*
X29927550Y-89245815D01*
X29921930Y-89206237D01*
X30942075Y-89206237D01*
X30810376Y-88885219D01*
X30760900Y-88764707D01*
X30707677Y-88635209D01*
X30655303Y-88507902D01*
X30608376Y-88393962D01*
X30580649Y-88326736D01*
X30539528Y-88226989D01*
X30497404Y-88124582D01*
X30458881Y-88030721D01*
X30428564Y-87956614D01*
X30425276Y-87948550D01*
X30368807Y-87810018D01*
X30323545Y-87699090D01*
X30287440Y-87610780D01*
X30258445Y-87540105D01*
X30234512Y-87482080D01*
X30213592Y-87431721D01*
X30193638Y-87384044D01*
X30179524Y-87350489D01*
X30158473Y-87300085D01*
X30126170Y-87222172D01*
X30084697Y-87121798D01*
X30036134Y-87004011D01*
X29982563Y-86873856D01*
X29926067Y-86736382D01*
X29889335Y-86646888D01*
X29812207Y-86458894D01*
X30754708Y-86458894D01*
X30763259Y-86557065D01*
X30774927Y-86615880D01*
X30815781Y-86736955D01*
X30879808Y-86875468D01*
X30964003Y-87025353D01*
X31026284Y-87123245D01*
X31069543Y-87185120D01*
X31123254Y-87257161D01*
X31183232Y-87334298D01*
X31245295Y-87411461D01*
X31305261Y-87483581D01*
X31358947Y-87545589D01*
X31402170Y-87592414D01*
X31430747Y-87618988D01*
X31438726Y-87623135D01*
X31443734Y-87606335D01*
X31448047Y-87559088D01*
X31451451Y-87486124D01*
X31453737Y-87392173D01*
X31454693Y-87281965D01*
X31454709Y-87265302D01*
X31454709Y-86907470D01*
X31202313Y-86487830D01*
X31135920Y-86378303D01*
X31074730Y-86278992D01*
X31021238Y-86193818D01*
X30977940Y-86126703D01*
X30947332Y-86081568D01*
X30931911Y-86062334D01*
X30931250Y-86061968D01*
X30906864Y-86070118D01*
X30871474Y-86100181D01*
X30832724Y-86144238D01*
X30798259Y-86194370D01*
X30791095Y-86207138D01*
X30769080Y-86272441D01*
X30756800Y-86360190D01*
X30754708Y-86458894D01*
X29812207Y-86458894D01*
X29809942Y-86453372D01*
X29742667Y-86289437D01*
G37*
%TO.C,R1*%
X42410000Y-116227071D02*
X42410000Y-114772943D01*
X40590000Y-116227071D02*
X40590000Y-114772943D01*
%TO.C,D11*%
X171600000Y-58100003D02*
X171600000Y-61700003D01*
X168400000Y-58100003D02*
X168400000Y-61700003D01*
X168400000Y-61700003D02*
X171600000Y-61700003D01*
%TO.C,G\u002A\u002A\u002A*%
G36*
X32897091Y-35879917D02*
G01*
X32533798Y-35879917D01*
X32302079Y-35572834D01*
X32234433Y-35482770D01*
X32174571Y-35402271D01*
X32125545Y-35335507D01*
X32090408Y-35286652D01*
X32072214Y-35259876D01*
X32070360Y-35256213D01*
X32087140Y-35253528D01*
X32134242Y-35251136D01*
X32206808Y-35249148D01*
X32299980Y-35247677D01*
X32408900Y-35246834D01*
X32483725Y-35246676D01*
X32897091Y-35246676D01*
X32897091Y-35879917D01*
G37*
G36*
X29742667Y-30289433D02*
G01*
X29686289Y-30152109D01*
X29639584Y-30038425D01*
X29601332Y-29945410D01*
X29570310Y-29870094D01*
X29545295Y-29809505D01*
X29525067Y-29760673D01*
X29508402Y-29720626D01*
X29502216Y-29705818D01*
X29483761Y-29661549D01*
X29461499Y-29607855D01*
X29434211Y-29541764D01*
X29400672Y-29460305D01*
X29359664Y-29360505D01*
X29309963Y-29239392D01*
X29250348Y-29093993D01*
X29179598Y-28921338D01*
X29115455Y-28764751D01*
X29059209Y-28627614D01*
X29005363Y-28496676D01*
X28955831Y-28376567D01*
X28912527Y-28271916D01*
X28877367Y-28187350D01*
X28852263Y-28127499D01*
X28841737Y-28102876D01*
X28813199Y-28035663D01*
X28786341Y-27969533D01*
X28773330Y-27935770D01*
X28754009Y-27885898D01*
X28726440Y-27817479D01*
X28707820Y-27772439D01*
X29100759Y-27772439D01*
X29105338Y-27792518D01*
X29121360Y-27840182D01*
X29146987Y-27910438D01*
X29180382Y-27998293D01*
X29219708Y-28098754D01*
X29234290Y-28135361D01*
X29276237Y-28240352D01*
X29314174Y-28335577D01*
X29345992Y-28415728D01*
X29369586Y-28475495D01*
X29382849Y-28509569D01*
X29384537Y-28514093D01*
X29401719Y-28540041D01*
X29412569Y-28544876D01*
X29429258Y-28532273D01*
X29464732Y-28497377D01*
X29514824Y-28444555D01*
X29575367Y-28378174D01*
X29624990Y-28322271D01*
X29688597Y-28248024D01*
X29741767Y-28182493D01*
X29781000Y-28130286D01*
X29802792Y-28096011D01*
X29805505Y-28084758D01*
X29782974Y-28070651D01*
X29735371Y-28046242D01*
X29668290Y-28014011D01*
X29587322Y-27976437D01*
X29498061Y-27935997D01*
X29406099Y-27895170D01*
X29317029Y-27856435D01*
X29236444Y-27822270D01*
X29169937Y-27795154D01*
X29123100Y-27777565D01*
X29101526Y-27771982D01*
X29100759Y-27772439D01*
X28707820Y-27772439D01*
X28696194Y-27744317D01*
X28692591Y-27735735D01*
X28647353Y-27627524D01*
X28601907Y-27517600D01*
X28558198Y-27410800D01*
X28518172Y-27311959D01*
X28483774Y-27225914D01*
X28456951Y-27157500D01*
X28439649Y-27111554D01*
X28433813Y-27092912D01*
X28433881Y-27092757D01*
X28450621Y-27097827D01*
X28490458Y-27114346D01*
X28543559Y-27138186D01*
X28595668Y-27162043D01*
X28671846Y-27196624D01*
X28764050Y-27238291D01*
X28864233Y-27283405D01*
X28930540Y-27313177D01*
X29028072Y-27356966D01*
X29119557Y-27398136D01*
X29198003Y-27433532D01*
X29256419Y-27460002D01*
X29282340Y-27471851D01*
X29320260Y-27489367D01*
X29383780Y-27518732D01*
X29466570Y-27557018D01*
X29562302Y-27601298D01*
X29664648Y-27648646D01*
X29669321Y-27650808D01*
X29985941Y-27797300D01*
X31441516Y-27801995D01*
X32897091Y-27806691D01*
X32897091Y-35070776D01*
X31920474Y-35070776D01*
X31691989Y-34767559D01*
X31603896Y-34648855D01*
X31533854Y-34549216D01*
X31477352Y-34460717D01*
X31429876Y-34375431D01*
X31386915Y-34285432D01*
X31343958Y-34182794D01*
X31311377Y-34098927D01*
X31294755Y-34064452D01*
X31281320Y-34050555D01*
X31266360Y-34062519D01*
X31229883Y-34096309D01*
X31175143Y-34148773D01*
X31105395Y-34216756D01*
X31023895Y-34297106D01*
X30933896Y-34386668D01*
X30918792Y-34401775D01*
X30816110Y-34504356D01*
X30735233Y-34584400D01*
X30673223Y-34644376D01*
X30627140Y-34686755D01*
X30594044Y-34714005D01*
X30570997Y-34728597D01*
X30555059Y-34732999D01*
X30543291Y-34729681D01*
X30535576Y-34723742D01*
X30527439Y-34714349D01*
X30525105Y-34702830D01*
X30530961Y-34686365D01*
X30547392Y-34662132D01*
X30576786Y-34627311D01*
X30621528Y-34579082D01*
X30684004Y-34514623D01*
X30766602Y-34431114D01*
X30871706Y-34325734D01*
X30875478Y-34321959D01*
X31247705Y-33949429D01*
X31190669Y-33806502D01*
X31158711Y-33733642D01*
X31131035Y-33684578D01*
X31110315Y-33663934D01*
X31108023Y-33663574D01*
X31083232Y-33669809D01*
X31032365Y-33686956D01*
X30961937Y-33712679D01*
X30878464Y-33744640D01*
X30842003Y-33758997D01*
X30699138Y-33815462D01*
X30562877Y-33868862D01*
X30436911Y-33917789D01*
X30324930Y-33960834D01*
X30230624Y-33996587D01*
X30157684Y-34023639D01*
X30109801Y-34040581D01*
X30090664Y-34046005D01*
X30090501Y-34045923D01*
X30083261Y-34027940D01*
X30075709Y-34004757D01*
X30074473Y-33993427D01*
X30080205Y-33981882D01*
X30096252Y-33968541D01*
X30125962Y-33951822D01*
X30172682Y-33930145D01*
X30239759Y-33901929D01*
X30330542Y-33865592D01*
X30448377Y-33819554D01*
X30555950Y-33777928D01*
X30680527Y-33729658D01*
X30794953Y-33685006D01*
X30894966Y-33645661D01*
X30976306Y-33613309D01*
X31034711Y-33589640D01*
X31065920Y-33576339D01*
X31069499Y-33574529D01*
X31077592Y-33558869D01*
X31072450Y-33525871D01*
X31052825Y-33470004D01*
X31037275Y-33431968D01*
X30983092Y-33302978D01*
X30458132Y-33294183D01*
X29933171Y-33285388D01*
X29927550Y-33245811D01*
X29921930Y-33206233D01*
X30942075Y-33206233D01*
X30810376Y-32885215D01*
X30760900Y-32764703D01*
X30707677Y-32635205D01*
X30655303Y-32507898D01*
X30608376Y-32393958D01*
X30580649Y-32326732D01*
X30539528Y-32226985D01*
X30497404Y-32124578D01*
X30458881Y-32030717D01*
X30428564Y-31956610D01*
X30425276Y-31948546D01*
X30368807Y-31810014D01*
X30323545Y-31699086D01*
X30287440Y-31610776D01*
X30258445Y-31540101D01*
X30234512Y-31482076D01*
X30213592Y-31431717D01*
X30193638Y-31384040D01*
X30179524Y-31350485D01*
X30158473Y-31300081D01*
X30126170Y-31222168D01*
X30084697Y-31121794D01*
X30036134Y-31004007D01*
X29982563Y-30873852D01*
X29926067Y-30736378D01*
X29889335Y-30646884D01*
X29812207Y-30458890D01*
X30754708Y-30458890D01*
X30763259Y-30557061D01*
X30774927Y-30615876D01*
X30815781Y-30736951D01*
X30879808Y-30875464D01*
X30964003Y-31025349D01*
X31026284Y-31123241D01*
X31069543Y-31185116D01*
X31123254Y-31257157D01*
X31183232Y-31334294D01*
X31245295Y-31411457D01*
X31305261Y-31483577D01*
X31358947Y-31545585D01*
X31402170Y-31592410D01*
X31430747Y-31618984D01*
X31438726Y-31623131D01*
X31443734Y-31606331D01*
X31448047Y-31559084D01*
X31451451Y-31486120D01*
X31453737Y-31392169D01*
X31454693Y-31281961D01*
X31454709Y-31265298D01*
X31454709Y-30907466D01*
X31202313Y-30487826D01*
X31135920Y-30378299D01*
X31074730Y-30278988D01*
X31021238Y-30193814D01*
X30977940Y-30126699D01*
X30947332Y-30081564D01*
X30931911Y-30062330D01*
X30931250Y-30061964D01*
X30906864Y-30070114D01*
X30871474Y-30100177D01*
X30832724Y-30144234D01*
X30798259Y-30194366D01*
X30791095Y-30207134D01*
X30769080Y-30272437D01*
X30756800Y-30360186D01*
X30754708Y-30458890D01*
X29812207Y-30458890D01*
X29809942Y-30453368D01*
X29742667Y-30289433D01*
G37*
%TO.C,R2*%
X250340000Y-88227069D02*
X250340000Y-86772941D01*
X252160000Y-88227069D02*
X252160000Y-86772941D01*
%TO.C,D16*%
X94400000Y-47700002D02*
X97600000Y-47700002D01*
X97600000Y-44100002D02*
X97600000Y-47700002D01*
X94400000Y-44100002D02*
X94400000Y-47700002D01*
%TO.C,G\u002A\u002A\u002A*%
G36*
X310073933Y-156736387D02*
G01*
X310017437Y-156873861D01*
X309963866Y-157004016D01*
X309915303Y-157121803D01*
X309873830Y-157222177D01*
X309841527Y-157300090D01*
X309820476Y-157350494D01*
X309806362Y-157384049D01*
X309786408Y-157431726D01*
X309765488Y-157482085D01*
X309741555Y-157540110D01*
X309712560Y-157610785D01*
X309676455Y-157699095D01*
X309631193Y-157810023D01*
X309574724Y-157948555D01*
X309571436Y-157956619D01*
X309541119Y-158030726D01*
X309502596Y-158124587D01*
X309460472Y-158226994D01*
X309419351Y-158326741D01*
X309391624Y-158393967D01*
X309344697Y-158507907D01*
X309292323Y-158635214D01*
X309239100Y-158764712D01*
X309189624Y-158885224D01*
X309057925Y-159206242D01*
X310078070Y-159206242D01*
X310072450Y-159245820D01*
X310066829Y-159285397D01*
X309541868Y-159294192D01*
X309016908Y-159302987D01*
X308962725Y-159431977D01*
X308947175Y-159470013D01*
X308927550Y-159525880D01*
X308922408Y-159558878D01*
X308930501Y-159574538D01*
X308934080Y-159576348D01*
X308965289Y-159589649D01*
X309023694Y-159613318D01*
X309105034Y-159645670D01*
X309205047Y-159685015D01*
X309319473Y-159729667D01*
X309444050Y-159777937D01*
X309551623Y-159819563D01*
X309669458Y-159865601D01*
X309760241Y-159901938D01*
X309827318Y-159930154D01*
X309874038Y-159951831D01*
X309903748Y-159968550D01*
X309919795Y-159981891D01*
X309925527Y-159993436D01*
X309924291Y-160004766D01*
X309916739Y-160027949D01*
X309909499Y-160045932D01*
X309909336Y-160046014D01*
X309890199Y-160040590D01*
X309842316Y-160023648D01*
X309769376Y-159996596D01*
X309675070Y-159960843D01*
X309563089Y-159917798D01*
X309437123Y-159868871D01*
X309300862Y-159815471D01*
X309157997Y-159759006D01*
X309121536Y-159744649D01*
X309038063Y-159712688D01*
X308967635Y-159686965D01*
X308916768Y-159669818D01*
X308891977Y-159663583D01*
X308889685Y-159663943D01*
X308868965Y-159684587D01*
X308841289Y-159733651D01*
X308809331Y-159806511D01*
X308752295Y-159949438D01*
X309124522Y-160321968D01*
X309128294Y-160325743D01*
X309233398Y-160431123D01*
X309315996Y-160514632D01*
X309378472Y-160579091D01*
X309423214Y-160627320D01*
X309452608Y-160662141D01*
X309469039Y-160686374D01*
X309474895Y-160702839D01*
X309472561Y-160714358D01*
X309464424Y-160723751D01*
X309456709Y-160729690D01*
X309444941Y-160733008D01*
X309429003Y-160728606D01*
X309405956Y-160714014D01*
X309372860Y-160686764D01*
X309326777Y-160644385D01*
X309264767Y-160584409D01*
X309183890Y-160504365D01*
X309081208Y-160401784D01*
X309066104Y-160386677D01*
X308976105Y-160297115D01*
X308894605Y-160216765D01*
X308824857Y-160148782D01*
X308770117Y-160096318D01*
X308733640Y-160062528D01*
X308718680Y-160050564D01*
X308705245Y-160064461D01*
X308688623Y-160098936D01*
X308656042Y-160182803D01*
X308613085Y-160285441D01*
X308570124Y-160375440D01*
X308522648Y-160460726D01*
X308466146Y-160549225D01*
X308396104Y-160648864D01*
X308308011Y-160767568D01*
X308079526Y-161070785D01*
X307102909Y-161070785D01*
X307102909Y-157265307D01*
X308545291Y-157265307D01*
X308545307Y-157281970D01*
X308546263Y-157392178D01*
X308548549Y-157486129D01*
X308551953Y-157559093D01*
X308556266Y-157606340D01*
X308561274Y-157623140D01*
X308569253Y-157618993D01*
X308597830Y-157592419D01*
X308641053Y-157545594D01*
X308694739Y-157483586D01*
X308754705Y-157411466D01*
X308816768Y-157334303D01*
X308876746Y-157257166D01*
X308930457Y-157185125D01*
X308973716Y-157123250D01*
X309035997Y-157025358D01*
X309120192Y-156875473D01*
X309184219Y-156736960D01*
X309225073Y-156615885D01*
X309236741Y-156557070D01*
X309245292Y-156458899D01*
X309243200Y-156360195D01*
X309230920Y-156272446D01*
X309208905Y-156207143D01*
X309201741Y-156194375D01*
X309167276Y-156144243D01*
X309128526Y-156100186D01*
X309093136Y-156070123D01*
X309068750Y-156061973D01*
X309068089Y-156062339D01*
X309052668Y-156081573D01*
X309022060Y-156126708D01*
X308978762Y-156193823D01*
X308925270Y-156278997D01*
X308864080Y-156378308D01*
X308797687Y-156487835D01*
X308545291Y-156907475D01*
X308545291Y-157265307D01*
X307102909Y-157265307D01*
X307102909Y-154084767D01*
X310194495Y-154084767D01*
X310197208Y-154096020D01*
X310219000Y-154130295D01*
X310258233Y-154182502D01*
X310311403Y-154248033D01*
X310375010Y-154322280D01*
X310424633Y-154378183D01*
X310485176Y-154444564D01*
X310535268Y-154497386D01*
X310570742Y-154532282D01*
X310587431Y-154544885D01*
X310598281Y-154540050D01*
X310615463Y-154514102D01*
X310617151Y-154509578D01*
X310630414Y-154475504D01*
X310654008Y-154415737D01*
X310685826Y-154335586D01*
X310723763Y-154240361D01*
X310765710Y-154135370D01*
X310780292Y-154098763D01*
X310819618Y-153998302D01*
X310853013Y-153910447D01*
X310878640Y-153840191D01*
X310894662Y-153792527D01*
X310899241Y-153772448D01*
X310898474Y-153771991D01*
X310876900Y-153777574D01*
X310830063Y-153795163D01*
X310763556Y-153822279D01*
X310682971Y-153856444D01*
X310593901Y-153895179D01*
X310501939Y-153936006D01*
X310412678Y-153976446D01*
X310331710Y-154014020D01*
X310264629Y-154046251D01*
X310217026Y-154070660D01*
X310194495Y-154084767D01*
X307102909Y-154084767D01*
X307102909Y-153806700D01*
X308558484Y-153802004D01*
X310014059Y-153797309D01*
X310330679Y-153650817D01*
X310335352Y-153648655D01*
X310437698Y-153601307D01*
X310533430Y-153557027D01*
X310616220Y-153518741D01*
X310679740Y-153489376D01*
X310717660Y-153471860D01*
X310743581Y-153460011D01*
X310801997Y-153433541D01*
X310880443Y-153398145D01*
X310971928Y-153356975D01*
X311069460Y-153313186D01*
X311135767Y-153283414D01*
X311235950Y-153238300D01*
X311328154Y-153196633D01*
X311404332Y-153162052D01*
X311456441Y-153138195D01*
X311509542Y-153114355D01*
X311549379Y-153097836D01*
X311566119Y-153092766D01*
X311566187Y-153092921D01*
X311560351Y-153111563D01*
X311543049Y-153157509D01*
X311516226Y-153225923D01*
X311481828Y-153311968D01*
X311441802Y-153410809D01*
X311398093Y-153517609D01*
X311352647Y-153627533D01*
X311307409Y-153735744D01*
X311303806Y-153744326D01*
X311292180Y-153772448D01*
X311273560Y-153817488D01*
X311245991Y-153885907D01*
X311226670Y-153935779D01*
X311213659Y-153969542D01*
X311186801Y-154035672D01*
X311158263Y-154102885D01*
X311147737Y-154127508D01*
X311122633Y-154187359D01*
X311087473Y-154271925D01*
X311044169Y-154376576D01*
X310994637Y-154496685D01*
X310940791Y-154627623D01*
X310884545Y-154764760D01*
X310820402Y-154921347D01*
X310749652Y-155094002D01*
X310690037Y-155239401D01*
X310640336Y-155360514D01*
X310599328Y-155460314D01*
X310565789Y-155541773D01*
X310538501Y-155607864D01*
X310516239Y-155661558D01*
X310497784Y-155705827D01*
X310491598Y-155720635D01*
X310474933Y-155760682D01*
X310454705Y-155809514D01*
X310429690Y-155870103D01*
X310398668Y-155945419D01*
X310360416Y-156038434D01*
X310313711Y-156152118D01*
X310257333Y-156289442D01*
X310190058Y-156453377D01*
X310187793Y-156458899D01*
X310110665Y-156646893D01*
X310073933Y-156736387D01*
G37*
G36*
X307591100Y-161246843D02*
G01*
X307700020Y-161247686D01*
X307793192Y-161249157D01*
X307865758Y-161251145D01*
X307912860Y-161253537D01*
X307929640Y-161256222D01*
X307927786Y-161259885D01*
X307909592Y-161286661D01*
X307874455Y-161335516D01*
X307825429Y-161402280D01*
X307765567Y-161482779D01*
X307697921Y-161572843D01*
X307466202Y-161879926D01*
X307102909Y-161879926D01*
X307102909Y-161246685D01*
X307516275Y-161246685D01*
X307591100Y-161246843D01*
G37*
%TO.C,D19*%
X109200000Y-103700006D02*
X112400000Y-103700006D01*
X112400000Y-100100006D02*
X112400000Y-103700006D01*
X109200000Y-100100006D02*
X109200000Y-103700006D01*
%TO.C,R3*%
X147090000Y-46227066D02*
X147090000Y-44772938D01*
X148910000Y-46227066D02*
X148910000Y-44772938D01*
%TO.C,D7*%
X50000000Y-114100007D02*
X50000000Y-117700007D01*
X53200000Y-114100007D02*
X53200000Y-117700007D01*
X50000000Y-117700007D02*
X53200000Y-117700007D01*
%TO.C,D5*%
X142000000Y-72100004D02*
X142000000Y-75700004D01*
X138800000Y-72100004D02*
X138800000Y-75700004D01*
X138800000Y-75700004D02*
X142000000Y-75700004D01*
%TO.C,D4*%
X35200000Y-145700009D02*
X38400000Y-145700009D01*
X38400000Y-142100009D02*
X38400000Y-145700009D01*
X35200000Y-142100009D02*
X35200000Y-145700009D01*
%TO.C,D21*%
X316400000Y-75700004D02*
X319600000Y-75700004D01*
X316400000Y-72100004D02*
X316400000Y-75700004D01*
X319600000Y-72100004D02*
X319600000Y-75700004D01*
%TO.C,R5*%
X87340000Y-144227073D02*
X87340000Y-142772945D01*
X89160000Y-144227073D02*
X89160000Y-142772945D01*
%TO.C,R6*%
X191090000Y-158227074D02*
X191090000Y-156772946D01*
X192910000Y-158227074D02*
X192910000Y-156772946D01*
%TO.C,R2*%
X250340000Y-144227073D02*
X250340000Y-142772945D01*
X252160000Y-144227073D02*
X252160000Y-142772945D01*
%TO.C,R4*%
X297840000Y-102227070D02*
X297840000Y-100772942D01*
X299660000Y-102227070D02*
X299660000Y-100772942D01*
%TO.C,R1*%
X40590000Y-130227072D02*
X40590000Y-128772944D01*
X42410000Y-130227072D02*
X42410000Y-128772944D01*
%TO.C,R2*%
X252160000Y-102227070D02*
X252160000Y-100772942D01*
X250340000Y-102227070D02*
X250340000Y-100772942D01*
%TO.C,R4*%
X299660000Y-74227068D02*
X299660000Y-72772940D01*
X297840000Y-74227068D02*
X297840000Y-72772940D01*
%TO.C,D5*%
X142000000Y-100100006D02*
X142000000Y-103700006D01*
X138800000Y-103700006D02*
X142000000Y-103700006D01*
X138800000Y-100100006D02*
X138800000Y-103700006D01*
%TO.C,D2*%
X124000000Y-47700002D02*
X127200000Y-47700002D01*
X127200000Y-44100002D02*
X127200000Y-47700002D01*
X124000000Y-44100002D02*
X124000000Y-47700002D01*
%TO.C,R3*%
X147090000Y-144227073D02*
X147090000Y-142772945D01*
X148910000Y-144227073D02*
X148910000Y-142772945D01*
%TO.C,D17*%
X198000000Y-61700003D02*
X201200000Y-61700003D01*
X198000000Y-58100003D02*
X198000000Y-61700003D01*
X201200000Y-58100003D02*
X201200000Y-61700003D01*
%TO.C,G\u002A\u002A\u002A*%
G36*
X307591100Y-105246839D02*
G01*
X307700020Y-105247682D01*
X307793192Y-105249153D01*
X307865758Y-105251141D01*
X307912860Y-105253533D01*
X307929640Y-105256218D01*
X307927786Y-105259881D01*
X307909592Y-105286657D01*
X307874455Y-105335512D01*
X307825429Y-105402276D01*
X307765567Y-105482775D01*
X307697921Y-105572839D01*
X307466202Y-105879922D01*
X307102909Y-105879922D01*
X307102909Y-105246681D01*
X307516275Y-105246681D01*
X307591100Y-105246839D01*
G37*
G36*
X310073933Y-100736383D02*
G01*
X310017437Y-100873857D01*
X309963866Y-101004012D01*
X309915303Y-101121799D01*
X309873830Y-101222173D01*
X309841527Y-101300086D01*
X309820476Y-101350490D01*
X309806362Y-101384045D01*
X309786408Y-101431722D01*
X309765488Y-101482081D01*
X309741555Y-101540106D01*
X309712560Y-101610781D01*
X309676455Y-101699091D01*
X309631193Y-101810019D01*
X309574724Y-101948551D01*
X309571436Y-101956615D01*
X309541119Y-102030722D01*
X309502596Y-102124583D01*
X309460472Y-102226990D01*
X309419351Y-102326737D01*
X309391624Y-102393963D01*
X309344697Y-102507903D01*
X309292323Y-102635210D01*
X309239100Y-102764708D01*
X309189624Y-102885220D01*
X309057925Y-103206238D01*
X310078070Y-103206238D01*
X310072450Y-103245816D01*
X310066829Y-103285393D01*
X309541868Y-103294188D01*
X309016908Y-103302983D01*
X308962725Y-103431973D01*
X308947175Y-103470009D01*
X308927550Y-103525876D01*
X308922408Y-103558874D01*
X308930501Y-103574534D01*
X308934080Y-103576344D01*
X308965289Y-103589645D01*
X309023694Y-103613314D01*
X309105034Y-103645666D01*
X309205047Y-103685011D01*
X309319473Y-103729663D01*
X309444050Y-103777933D01*
X309551623Y-103819559D01*
X309669458Y-103865597D01*
X309760241Y-103901934D01*
X309827318Y-103930150D01*
X309874038Y-103951827D01*
X309903748Y-103968546D01*
X309919795Y-103981887D01*
X309925527Y-103993432D01*
X309924291Y-104004762D01*
X309916739Y-104027945D01*
X309909499Y-104045928D01*
X309909336Y-104046010D01*
X309890199Y-104040586D01*
X309842316Y-104023644D01*
X309769376Y-103996592D01*
X309675070Y-103960839D01*
X309563089Y-103917794D01*
X309437123Y-103868867D01*
X309300862Y-103815467D01*
X309157997Y-103759002D01*
X309121536Y-103744645D01*
X309038063Y-103712684D01*
X308967635Y-103686961D01*
X308916768Y-103669814D01*
X308891977Y-103663579D01*
X308889685Y-103663939D01*
X308868965Y-103684583D01*
X308841289Y-103733647D01*
X308809331Y-103806507D01*
X308752295Y-103949434D01*
X309124522Y-104321964D01*
X309128294Y-104325739D01*
X309233398Y-104431119D01*
X309315996Y-104514628D01*
X309378472Y-104579087D01*
X309423214Y-104627316D01*
X309452608Y-104662137D01*
X309469039Y-104686370D01*
X309474895Y-104702835D01*
X309472561Y-104714354D01*
X309464424Y-104723747D01*
X309456709Y-104729686D01*
X309444941Y-104733004D01*
X309429003Y-104728602D01*
X309405956Y-104714010D01*
X309372860Y-104686760D01*
X309326777Y-104644381D01*
X309264767Y-104584405D01*
X309183890Y-104504361D01*
X309081208Y-104401780D01*
X309066104Y-104386673D01*
X308976105Y-104297111D01*
X308894605Y-104216761D01*
X308824857Y-104148778D01*
X308770117Y-104096314D01*
X308733640Y-104062524D01*
X308718680Y-104050560D01*
X308705245Y-104064457D01*
X308688623Y-104098932D01*
X308656042Y-104182799D01*
X308613085Y-104285437D01*
X308570124Y-104375436D01*
X308522648Y-104460722D01*
X308466146Y-104549221D01*
X308396104Y-104648860D01*
X308308011Y-104767564D01*
X308079526Y-105070781D01*
X307102909Y-105070781D01*
X307102909Y-101265303D01*
X308545291Y-101265303D01*
X308545307Y-101281966D01*
X308546263Y-101392174D01*
X308548549Y-101486125D01*
X308551953Y-101559089D01*
X308556266Y-101606336D01*
X308561274Y-101623136D01*
X308569253Y-101618989D01*
X308597830Y-101592415D01*
X308641053Y-101545590D01*
X308694739Y-101483582D01*
X308754705Y-101411462D01*
X308816768Y-101334299D01*
X308876746Y-101257162D01*
X308930457Y-101185121D01*
X308973716Y-101123246D01*
X309035997Y-101025354D01*
X309120192Y-100875469D01*
X309184219Y-100736956D01*
X309225073Y-100615881D01*
X309236741Y-100557066D01*
X309245292Y-100458895D01*
X309243200Y-100360191D01*
X309230920Y-100272442D01*
X309208905Y-100207139D01*
X309201741Y-100194371D01*
X309167276Y-100144239D01*
X309128526Y-100100182D01*
X309093136Y-100070119D01*
X309068750Y-100061969D01*
X309068089Y-100062335D01*
X309052668Y-100081569D01*
X309022060Y-100126704D01*
X308978762Y-100193819D01*
X308925270Y-100278993D01*
X308864080Y-100378304D01*
X308797687Y-100487831D01*
X308545291Y-100907471D01*
X308545291Y-101265303D01*
X307102909Y-101265303D01*
X307102909Y-98084763D01*
X310194495Y-98084763D01*
X310197208Y-98096016D01*
X310219000Y-98130291D01*
X310258233Y-98182498D01*
X310311403Y-98248029D01*
X310375010Y-98322276D01*
X310424633Y-98378179D01*
X310485176Y-98444560D01*
X310535268Y-98497382D01*
X310570742Y-98532278D01*
X310587431Y-98544881D01*
X310598281Y-98540046D01*
X310615463Y-98514098D01*
X310617151Y-98509574D01*
X310630414Y-98475500D01*
X310654008Y-98415733D01*
X310685826Y-98335582D01*
X310723763Y-98240357D01*
X310765710Y-98135366D01*
X310780292Y-98098759D01*
X310819618Y-97998298D01*
X310853013Y-97910443D01*
X310878640Y-97840187D01*
X310894662Y-97792523D01*
X310899241Y-97772444D01*
X310898474Y-97771987D01*
X310876900Y-97777570D01*
X310830063Y-97795159D01*
X310763556Y-97822275D01*
X310682971Y-97856440D01*
X310593901Y-97895175D01*
X310501939Y-97936002D01*
X310412678Y-97976442D01*
X310331710Y-98014016D01*
X310264629Y-98046247D01*
X310217026Y-98070656D01*
X310194495Y-98084763D01*
X307102909Y-98084763D01*
X307102909Y-97806696D01*
X308558484Y-97802000D01*
X310014059Y-97797305D01*
X310330679Y-97650813D01*
X310335352Y-97648651D01*
X310437698Y-97601303D01*
X310533430Y-97557023D01*
X310616220Y-97518737D01*
X310679740Y-97489372D01*
X310717660Y-97471856D01*
X310743581Y-97460007D01*
X310801997Y-97433537D01*
X310880443Y-97398141D01*
X310971928Y-97356971D01*
X311069460Y-97313182D01*
X311135767Y-97283410D01*
X311235950Y-97238296D01*
X311328154Y-97196629D01*
X311404332Y-97162048D01*
X311456441Y-97138191D01*
X311509542Y-97114351D01*
X311549379Y-97097832D01*
X311566119Y-97092762D01*
X311566187Y-97092917D01*
X311560351Y-97111559D01*
X311543049Y-97157505D01*
X311516226Y-97225919D01*
X311481828Y-97311964D01*
X311441802Y-97410805D01*
X311398093Y-97517605D01*
X311352647Y-97627529D01*
X311307409Y-97735740D01*
X311303806Y-97744322D01*
X311292180Y-97772444D01*
X311273560Y-97817484D01*
X311245991Y-97885903D01*
X311226670Y-97935775D01*
X311213659Y-97969538D01*
X311186801Y-98035668D01*
X311158263Y-98102881D01*
X311147737Y-98127504D01*
X311122633Y-98187355D01*
X311087473Y-98271921D01*
X311044169Y-98376572D01*
X310994637Y-98496681D01*
X310940791Y-98627619D01*
X310884545Y-98764756D01*
X310820402Y-98921343D01*
X310749652Y-99093998D01*
X310690037Y-99239397D01*
X310640336Y-99360510D01*
X310599328Y-99460310D01*
X310565789Y-99541769D01*
X310538501Y-99607860D01*
X310516239Y-99661554D01*
X310497784Y-99705823D01*
X310491598Y-99720631D01*
X310474933Y-99760678D01*
X310454705Y-99809510D01*
X310429690Y-99870099D01*
X310398668Y-99945415D01*
X310360416Y-100038430D01*
X310313711Y-100152114D01*
X310257333Y-100289438D01*
X310190058Y-100453373D01*
X310187793Y-100458895D01*
X310110665Y-100646889D01*
X310073933Y-100736383D01*
G37*
%TO.C,D2*%
X124000000Y-156100010D02*
X124000000Y-159700010D01*
X124000000Y-159700010D02*
X127200000Y-159700010D01*
X127200000Y-156100010D02*
X127200000Y-159700010D01*
%TO.C,D7*%
X50000000Y-47700002D02*
X53200000Y-47700002D01*
X53200000Y-44100002D02*
X53200000Y-47700002D01*
X50000000Y-44100002D02*
X50000000Y-47700002D01*
%TO.C,D10*%
X64800000Y-128100008D02*
X64800000Y-131700008D01*
X68000000Y-128100008D02*
X68000000Y-131700008D01*
X64800000Y-131700008D02*
X68000000Y-131700008D01*
%TO.C,D20*%
X216000000Y-100100006D02*
X216000000Y-103700006D01*
X212800000Y-103700006D02*
X216000000Y-103700006D01*
X212800000Y-100100006D02*
X212800000Y-103700006D01*
%TO.C,D3*%
X227600000Y-114100007D02*
X227600000Y-117700007D01*
X227600000Y-117700007D02*
X230800000Y-117700007D01*
X230800000Y-114100007D02*
X230800000Y-117700007D01*
%TO.C,D19*%
X109200000Y-89700005D02*
X112400000Y-89700005D01*
X109200000Y-86100005D02*
X109200000Y-89700005D01*
X112400000Y-86100005D02*
X112400000Y-89700005D01*
%TO.C,R6*%
X192910000Y-144227073D02*
X192910000Y-142772945D01*
X191090000Y-144227073D02*
X191090000Y-142772945D01*
%TO.C,D7*%
X50000000Y-58100003D02*
X50000000Y-61700003D01*
X50000000Y-61700003D02*
X53200000Y-61700003D01*
X53200000Y-58100003D02*
X53200000Y-61700003D01*
%TO.C,D18*%
X301600000Y-72100004D02*
X301600000Y-75700004D01*
X301600000Y-75700004D02*
X304800000Y-75700004D01*
X304800000Y-72100004D02*
X304800000Y-75700004D01*
%TO.C,D1*%
X23600000Y-156100010D02*
X23600000Y-159700010D01*
X20400000Y-156100010D02*
X20400000Y-159700010D01*
X20400000Y-159700010D02*
X23600000Y-159700010D01*
X23600000Y-58100003D02*
X23600000Y-61700003D01*
X20400000Y-61700003D02*
X23600000Y-61700003D01*
X20400000Y-58100003D02*
X20400000Y-61700003D01*
%TO.C,D21*%
X319600000Y-58100003D02*
X319600000Y-61700003D01*
X316400000Y-58100003D02*
X316400000Y-61700003D01*
X316400000Y-61700003D02*
X319600000Y-61700003D01*
%TO.C,D6*%
X242400000Y-145700009D02*
X245600000Y-145700009D01*
X242400000Y-142100009D02*
X242400000Y-145700009D01*
X245600000Y-142100009D02*
X245600000Y-145700009D01*
%TO.C,R5*%
X87340000Y-130227072D02*
X87340000Y-128772944D01*
X89160000Y-130227072D02*
X89160000Y-128772944D01*
%TO.C,R3*%
X147090000Y-32227065D02*
X147090000Y-30772937D01*
X148910000Y-32227065D02*
X148910000Y-30772937D01*
%TO.C,D15*%
X290000000Y-100100006D02*
X290000000Y-103700006D01*
X286800000Y-103700006D02*
X290000000Y-103700006D01*
X286800000Y-100100006D02*
X286800000Y-103700006D01*
%TO.C,G\u002A\u002A\u002A*%
G36*
X310073933Y-114736384D02*
G01*
X310017437Y-114873858D01*
X309963866Y-115004013D01*
X309915303Y-115121800D01*
X309873830Y-115222174D01*
X309841527Y-115300087D01*
X309820476Y-115350491D01*
X309806362Y-115384046D01*
X309786408Y-115431723D01*
X309765488Y-115482082D01*
X309741555Y-115540107D01*
X309712560Y-115610782D01*
X309676455Y-115699092D01*
X309631193Y-115810020D01*
X309574724Y-115948552D01*
X309571436Y-115956616D01*
X309541119Y-116030723D01*
X309502596Y-116124584D01*
X309460472Y-116226991D01*
X309419351Y-116326738D01*
X309391624Y-116393964D01*
X309344697Y-116507904D01*
X309292323Y-116635211D01*
X309239100Y-116764709D01*
X309189624Y-116885221D01*
X309057925Y-117206239D01*
X310078070Y-117206239D01*
X310072450Y-117245817D01*
X310066829Y-117285394D01*
X309541868Y-117294189D01*
X309016908Y-117302984D01*
X308962725Y-117431974D01*
X308947175Y-117470010D01*
X308927550Y-117525877D01*
X308922408Y-117558875D01*
X308930501Y-117574535D01*
X308934080Y-117576345D01*
X308965289Y-117589646D01*
X309023694Y-117613315D01*
X309105034Y-117645667D01*
X309205047Y-117685012D01*
X309319473Y-117729664D01*
X309444050Y-117777934D01*
X309551623Y-117819560D01*
X309669458Y-117865598D01*
X309760241Y-117901935D01*
X309827318Y-117930151D01*
X309874038Y-117951828D01*
X309903748Y-117968547D01*
X309919795Y-117981888D01*
X309925527Y-117993433D01*
X309924291Y-118004763D01*
X309916739Y-118027946D01*
X309909499Y-118045929D01*
X309909336Y-118046011D01*
X309890199Y-118040587D01*
X309842316Y-118023645D01*
X309769376Y-117996593D01*
X309675070Y-117960840D01*
X309563089Y-117917795D01*
X309437123Y-117868868D01*
X309300862Y-117815468D01*
X309157997Y-117759003D01*
X309121536Y-117744646D01*
X309038063Y-117712685D01*
X308967635Y-117686962D01*
X308916768Y-117669815D01*
X308891977Y-117663580D01*
X308889685Y-117663940D01*
X308868965Y-117684584D01*
X308841289Y-117733648D01*
X308809331Y-117806508D01*
X308752295Y-117949435D01*
X309124522Y-118321965D01*
X309128294Y-118325740D01*
X309233398Y-118431120D01*
X309315996Y-118514629D01*
X309378472Y-118579088D01*
X309423214Y-118627317D01*
X309452608Y-118662138D01*
X309469039Y-118686371D01*
X309474895Y-118702836D01*
X309472561Y-118714355D01*
X309464424Y-118723748D01*
X309456709Y-118729687D01*
X309444941Y-118733005D01*
X309429003Y-118728603D01*
X309405956Y-118714011D01*
X309372860Y-118686761D01*
X309326777Y-118644382D01*
X309264767Y-118584406D01*
X309183890Y-118504362D01*
X309081208Y-118401781D01*
X309066104Y-118386674D01*
X308976105Y-118297112D01*
X308894605Y-118216762D01*
X308824857Y-118148779D01*
X308770117Y-118096315D01*
X308733640Y-118062525D01*
X308718680Y-118050561D01*
X308705245Y-118064458D01*
X308688623Y-118098933D01*
X308656042Y-118182800D01*
X308613085Y-118285438D01*
X308570124Y-118375437D01*
X308522648Y-118460723D01*
X308466146Y-118549222D01*
X308396104Y-118648861D01*
X308308011Y-118767565D01*
X308079526Y-119070782D01*
X307102909Y-119070782D01*
X307102909Y-115265304D01*
X308545291Y-115265304D01*
X308545307Y-115281967D01*
X308546263Y-115392175D01*
X308548549Y-115486126D01*
X308551953Y-115559090D01*
X308556266Y-115606337D01*
X308561274Y-115623137D01*
X308569253Y-115618990D01*
X308597830Y-115592416D01*
X308641053Y-115545591D01*
X308694739Y-115483583D01*
X308754705Y-115411463D01*
X308816768Y-115334300D01*
X308876746Y-115257163D01*
X308930457Y-115185122D01*
X308973716Y-115123247D01*
X309035997Y-115025355D01*
X309120192Y-114875470D01*
X309184219Y-114736957D01*
X309225073Y-114615882D01*
X309236741Y-114557067D01*
X309245292Y-114458896D01*
X309243200Y-114360192D01*
X309230920Y-114272443D01*
X309208905Y-114207140D01*
X309201741Y-114194372D01*
X309167276Y-114144240D01*
X309128526Y-114100183D01*
X309093136Y-114070120D01*
X309068750Y-114061970D01*
X309068089Y-114062336D01*
X309052668Y-114081570D01*
X309022060Y-114126705D01*
X308978762Y-114193820D01*
X308925270Y-114278994D01*
X308864080Y-114378305D01*
X308797687Y-114487832D01*
X308545291Y-114907472D01*
X308545291Y-115265304D01*
X307102909Y-115265304D01*
X307102909Y-112084764D01*
X310194495Y-112084764D01*
X310197208Y-112096017D01*
X310219000Y-112130292D01*
X310258233Y-112182499D01*
X310311403Y-112248030D01*
X310375010Y-112322277D01*
X310424633Y-112378180D01*
X310485176Y-112444561D01*
X310535268Y-112497383D01*
X310570742Y-112532279D01*
X310587431Y-112544882D01*
X310598281Y-112540047D01*
X310615463Y-112514099D01*
X310617151Y-112509575D01*
X310630414Y-112475501D01*
X310654008Y-112415734D01*
X310685826Y-112335583D01*
X310723763Y-112240358D01*
X310765710Y-112135367D01*
X310780292Y-112098760D01*
X310819618Y-111998299D01*
X310853013Y-111910444D01*
X310878640Y-111840188D01*
X310894662Y-111792524D01*
X310899241Y-111772445D01*
X310898474Y-111771988D01*
X310876900Y-111777571D01*
X310830063Y-111795160D01*
X310763556Y-111822276D01*
X310682971Y-111856441D01*
X310593901Y-111895176D01*
X310501939Y-111936003D01*
X310412678Y-111976443D01*
X310331710Y-112014017D01*
X310264629Y-112046248D01*
X310217026Y-112070657D01*
X310194495Y-112084764D01*
X307102909Y-112084764D01*
X307102909Y-111806697D01*
X308558484Y-111802001D01*
X310014059Y-111797306D01*
X310330679Y-111650814D01*
X310335352Y-111648652D01*
X310437698Y-111601304D01*
X310533430Y-111557024D01*
X310616220Y-111518738D01*
X310679740Y-111489373D01*
X310717660Y-111471857D01*
X310743581Y-111460008D01*
X310801997Y-111433538D01*
X310880443Y-111398142D01*
X310971928Y-111356972D01*
X311069460Y-111313183D01*
X311135767Y-111283411D01*
X311235950Y-111238297D01*
X311328154Y-111196630D01*
X311404332Y-111162049D01*
X311456441Y-111138192D01*
X311509542Y-111114352D01*
X311549379Y-111097833D01*
X311566119Y-111092763D01*
X311566187Y-111092918D01*
X311560351Y-111111560D01*
X311543049Y-111157506D01*
X311516226Y-111225920D01*
X311481828Y-111311965D01*
X311441802Y-111410806D01*
X311398093Y-111517606D01*
X311352647Y-111627530D01*
X311307409Y-111735741D01*
X311303806Y-111744323D01*
X311292180Y-111772445D01*
X311273560Y-111817485D01*
X311245991Y-111885904D01*
X311226670Y-111935776D01*
X311213659Y-111969539D01*
X311186801Y-112035669D01*
X311158263Y-112102882D01*
X311147737Y-112127505D01*
X311122633Y-112187356D01*
X311087473Y-112271922D01*
X311044169Y-112376573D01*
X310994637Y-112496682D01*
X310940791Y-112627620D01*
X310884545Y-112764757D01*
X310820402Y-112921344D01*
X310749652Y-113093999D01*
X310690037Y-113239398D01*
X310640336Y-113360511D01*
X310599328Y-113460311D01*
X310565789Y-113541770D01*
X310538501Y-113607861D01*
X310516239Y-113661555D01*
X310497784Y-113705824D01*
X310491598Y-113720632D01*
X310474933Y-113760679D01*
X310454705Y-113809511D01*
X310429690Y-113870100D01*
X310398668Y-113945416D01*
X310360416Y-114038431D01*
X310313711Y-114152115D01*
X310257333Y-114289439D01*
X310190058Y-114453374D01*
X310187793Y-114458896D01*
X310110665Y-114646890D01*
X310073933Y-114736384D01*
G37*
G36*
X307591100Y-119246840D02*
G01*
X307700020Y-119247683D01*
X307793192Y-119249154D01*
X307865758Y-119251142D01*
X307912860Y-119253534D01*
X307929640Y-119256219D01*
X307927786Y-119259882D01*
X307909592Y-119286658D01*
X307874455Y-119335513D01*
X307825429Y-119402277D01*
X307765567Y-119482776D01*
X307697921Y-119572840D01*
X307466202Y-119879923D01*
X307102909Y-119879923D01*
X307102909Y-119246682D01*
X307516275Y-119246682D01*
X307591100Y-119246840D01*
G37*
%TO.C,D9*%
X257200000Y-159700010D02*
X260400000Y-159700010D01*
X260400000Y-156100010D02*
X260400000Y-159700010D01*
X257200000Y-156100010D02*
X257200000Y-159700010D01*
%TO.C,D13*%
X79600000Y-30100001D02*
X79600000Y-33700001D01*
X79600000Y-33700001D02*
X82800000Y-33700001D01*
X82800000Y-30100001D02*
X82800000Y-33700001D01*
%TO.C,R1*%
X40590000Y-60227067D02*
X40590000Y-58772939D01*
X42410000Y-60227067D02*
X42410000Y-58772939D01*
%TO.C,R2*%
X250340000Y-60227067D02*
X250340000Y-58772939D01*
X252160000Y-60227067D02*
X252160000Y-58772939D01*
%TO.C,G\u002A\u002A\u002A*%
G36*
X29742667Y-114289439D02*
G01*
X29686289Y-114152115D01*
X29639584Y-114038431D01*
X29601332Y-113945416D01*
X29570310Y-113870100D01*
X29545295Y-113809511D01*
X29525067Y-113760679D01*
X29508402Y-113720632D01*
X29502216Y-113705824D01*
X29483761Y-113661555D01*
X29461499Y-113607861D01*
X29434211Y-113541770D01*
X29400672Y-113460311D01*
X29359664Y-113360511D01*
X29309963Y-113239398D01*
X29250348Y-113093999D01*
X29179598Y-112921344D01*
X29115455Y-112764757D01*
X29059209Y-112627620D01*
X29005363Y-112496682D01*
X28955831Y-112376573D01*
X28912527Y-112271922D01*
X28877367Y-112187356D01*
X28852263Y-112127505D01*
X28841737Y-112102882D01*
X28813199Y-112035669D01*
X28786341Y-111969539D01*
X28773330Y-111935776D01*
X28754009Y-111885904D01*
X28726440Y-111817485D01*
X28707820Y-111772445D01*
X29100759Y-111772445D01*
X29105338Y-111792524D01*
X29121360Y-111840188D01*
X29146987Y-111910444D01*
X29180382Y-111998299D01*
X29219708Y-112098760D01*
X29234290Y-112135367D01*
X29276237Y-112240358D01*
X29314174Y-112335583D01*
X29345992Y-112415734D01*
X29369586Y-112475501D01*
X29382849Y-112509575D01*
X29384537Y-112514099D01*
X29401719Y-112540047D01*
X29412569Y-112544882D01*
X29429258Y-112532279D01*
X29464732Y-112497383D01*
X29514824Y-112444561D01*
X29575367Y-112378180D01*
X29624990Y-112322277D01*
X29688597Y-112248030D01*
X29741767Y-112182499D01*
X29781000Y-112130292D01*
X29802792Y-112096017D01*
X29805505Y-112084764D01*
X29782974Y-112070657D01*
X29735371Y-112046248D01*
X29668290Y-112014017D01*
X29587322Y-111976443D01*
X29498061Y-111936003D01*
X29406099Y-111895176D01*
X29317029Y-111856441D01*
X29236444Y-111822276D01*
X29169937Y-111795160D01*
X29123100Y-111777571D01*
X29101526Y-111771988D01*
X29100759Y-111772445D01*
X28707820Y-111772445D01*
X28696194Y-111744323D01*
X28692591Y-111735741D01*
X28647353Y-111627530D01*
X28601907Y-111517606D01*
X28558198Y-111410806D01*
X28518172Y-111311965D01*
X28483774Y-111225920D01*
X28456951Y-111157506D01*
X28439649Y-111111560D01*
X28433813Y-111092918D01*
X28433881Y-111092763D01*
X28450621Y-111097833D01*
X28490458Y-111114352D01*
X28543559Y-111138192D01*
X28595668Y-111162049D01*
X28671846Y-111196630D01*
X28764050Y-111238297D01*
X28864233Y-111283411D01*
X28930540Y-111313183D01*
X29028072Y-111356972D01*
X29119557Y-111398142D01*
X29198003Y-111433538D01*
X29256419Y-111460008D01*
X29282340Y-111471857D01*
X29320260Y-111489373D01*
X29383780Y-111518738D01*
X29466570Y-111557024D01*
X29562302Y-111601304D01*
X29664648Y-111648652D01*
X29669321Y-111650814D01*
X29985941Y-111797306D01*
X31441516Y-111802001D01*
X32897091Y-111806697D01*
X32897091Y-119070782D01*
X31920474Y-119070782D01*
X31691989Y-118767565D01*
X31603896Y-118648861D01*
X31533854Y-118549222D01*
X31477352Y-118460723D01*
X31429876Y-118375437D01*
X31386915Y-118285438D01*
X31343958Y-118182800D01*
X31311377Y-118098933D01*
X31294755Y-118064458D01*
X31281320Y-118050561D01*
X31266360Y-118062525D01*
X31229883Y-118096315D01*
X31175143Y-118148779D01*
X31105395Y-118216762D01*
X31023895Y-118297112D01*
X30933896Y-118386674D01*
X30918792Y-118401781D01*
X30816110Y-118504362D01*
X30735233Y-118584406D01*
X30673223Y-118644382D01*
X30627140Y-118686761D01*
X30594044Y-118714011D01*
X30570997Y-118728603D01*
X30555059Y-118733005D01*
X30543291Y-118729687D01*
X30535576Y-118723748D01*
X30527439Y-118714355D01*
X30525105Y-118702836D01*
X30530961Y-118686371D01*
X30547392Y-118662138D01*
X30576786Y-118627317D01*
X30621528Y-118579088D01*
X30684004Y-118514629D01*
X30766602Y-118431120D01*
X30871706Y-118325740D01*
X30875478Y-118321965D01*
X31247705Y-117949435D01*
X31190669Y-117806508D01*
X31158711Y-117733648D01*
X31131035Y-117684584D01*
X31110315Y-117663940D01*
X31108023Y-117663580D01*
X31083232Y-117669815D01*
X31032365Y-117686962D01*
X30961937Y-117712685D01*
X30878464Y-117744646D01*
X30842003Y-117759003D01*
X30699138Y-117815468D01*
X30562877Y-117868868D01*
X30436911Y-117917795D01*
X30324930Y-117960840D01*
X30230624Y-117996593D01*
X30157684Y-118023645D01*
X30109801Y-118040587D01*
X30090664Y-118046011D01*
X30090501Y-118045929D01*
X30083261Y-118027946D01*
X30075709Y-118004763D01*
X30074473Y-117993433D01*
X30080205Y-117981888D01*
X30096252Y-117968547D01*
X30125962Y-117951828D01*
X30172682Y-117930151D01*
X30239759Y-117901935D01*
X30330542Y-117865598D01*
X30448377Y-117819560D01*
X30555950Y-117777934D01*
X30680527Y-117729664D01*
X30794953Y-117685012D01*
X30894966Y-117645667D01*
X30976306Y-117613315D01*
X31034711Y-117589646D01*
X31065920Y-117576345D01*
X31069499Y-117574535D01*
X31077592Y-117558875D01*
X31072450Y-117525877D01*
X31052825Y-117470010D01*
X31037275Y-117431974D01*
X30983092Y-117302984D01*
X30458132Y-117294189D01*
X29933171Y-117285394D01*
X29927550Y-117245817D01*
X29921930Y-117206239D01*
X30942075Y-117206239D01*
X30810376Y-116885221D01*
X30760900Y-116764709D01*
X30707677Y-116635211D01*
X30655303Y-116507904D01*
X30608376Y-116393964D01*
X30580649Y-116326738D01*
X30539528Y-116226991D01*
X30497404Y-116124584D01*
X30458881Y-116030723D01*
X30428564Y-115956616D01*
X30425276Y-115948552D01*
X30368807Y-115810020D01*
X30323545Y-115699092D01*
X30287440Y-115610782D01*
X30258445Y-115540107D01*
X30234512Y-115482082D01*
X30213592Y-115431723D01*
X30193638Y-115384046D01*
X30179524Y-115350491D01*
X30158473Y-115300087D01*
X30126170Y-115222174D01*
X30084697Y-115121800D01*
X30036134Y-115004013D01*
X29982563Y-114873858D01*
X29926067Y-114736384D01*
X29889335Y-114646890D01*
X29812207Y-114458896D01*
X30754708Y-114458896D01*
X30763259Y-114557067D01*
X30774927Y-114615882D01*
X30815781Y-114736957D01*
X30879808Y-114875470D01*
X30964003Y-115025355D01*
X31026284Y-115123247D01*
X31069543Y-115185122D01*
X31123254Y-115257163D01*
X31183232Y-115334300D01*
X31245295Y-115411463D01*
X31305261Y-115483583D01*
X31358947Y-115545591D01*
X31402170Y-115592416D01*
X31430747Y-115618990D01*
X31438726Y-115623137D01*
X31443734Y-115606337D01*
X31448047Y-115559090D01*
X31451451Y-115486126D01*
X31453737Y-115392175D01*
X31454693Y-115281967D01*
X31454709Y-115265304D01*
X31454709Y-114907472D01*
X31202313Y-114487832D01*
X31135920Y-114378305D01*
X31074730Y-114278994D01*
X31021238Y-114193820D01*
X30977940Y-114126705D01*
X30947332Y-114081570D01*
X30931911Y-114062336D01*
X30931250Y-114061970D01*
X30906864Y-114070120D01*
X30871474Y-114100183D01*
X30832724Y-114144240D01*
X30798259Y-114194372D01*
X30791095Y-114207140D01*
X30769080Y-114272443D01*
X30756800Y-114360192D01*
X30754708Y-114458896D01*
X29812207Y-114458896D01*
X29809942Y-114453374D01*
X29742667Y-114289439D01*
G37*
G36*
X32897091Y-119879923D02*
G01*
X32533798Y-119879923D01*
X32302079Y-119572840D01*
X32234433Y-119482776D01*
X32174571Y-119402277D01*
X32125545Y-119335513D01*
X32090408Y-119286658D01*
X32072214Y-119259882D01*
X32070360Y-119256219D01*
X32087140Y-119253534D01*
X32134242Y-119251142D01*
X32206808Y-119249154D01*
X32299980Y-119247683D01*
X32408900Y-119246840D01*
X32483725Y-119246682D01*
X32897091Y-119246682D01*
X32897091Y-119879923D01*
G37*
%TO.C,D18*%
X301600000Y-100100006D02*
X301600000Y-103700006D01*
X301600000Y-103700006D02*
X304800000Y-103700006D01*
X304800000Y-100100006D02*
X304800000Y-103700006D01*
%TO.C,D6*%
X245600000Y-72100004D02*
X245600000Y-75700004D01*
X242400000Y-72100004D02*
X242400000Y-75700004D01*
X242400000Y-75700004D02*
X245600000Y-75700004D01*
%TO.C,D10*%
X68000000Y-142100009D02*
X68000000Y-145700009D01*
X64800000Y-145700009D02*
X68000000Y-145700009D01*
X64800000Y-142100009D02*
X64800000Y-145700009D01*
%TO.C,D14*%
X183200000Y-30100001D02*
X183200000Y-33700001D01*
X186400000Y-30100001D02*
X186400000Y-33700001D01*
X183200000Y-33700001D02*
X186400000Y-33700001D01*
%TO.C,D20*%
X216000000Y-156100010D02*
X216000000Y-159700010D01*
X212800000Y-159700010D02*
X216000000Y-159700010D01*
X212800000Y-156100010D02*
X212800000Y-159700010D01*
%TO.C,D11*%
X168400000Y-159700010D02*
X171600000Y-159700010D01*
X171600000Y-156100010D02*
X171600000Y-159700010D01*
X168400000Y-156100010D02*
X168400000Y-159700010D01*
%TO.C,R6*%
X192910000Y-102227070D02*
X192910000Y-100772942D01*
X191090000Y-102227070D02*
X191090000Y-100772942D01*
%TO.C,D21*%
X319600000Y-156100010D02*
X319600000Y-159700010D01*
X316400000Y-156100010D02*
X316400000Y-159700010D01*
X316400000Y-159700010D02*
X319600000Y-159700010D01*
X319600000Y-128100008D02*
X319600000Y-131700008D01*
X316400000Y-128100008D02*
X316400000Y-131700008D01*
X316400000Y-131700008D02*
X319600000Y-131700008D01*
%TO.C,D4*%
X38400000Y-30100001D02*
X38400000Y-33700001D01*
X35200000Y-30100001D02*
X35200000Y-33700001D01*
X35200000Y-33700001D02*
X38400000Y-33700001D01*
%TO.C,D10*%
X64800000Y-33700001D02*
X68000000Y-33700001D01*
X68000000Y-30100001D02*
X68000000Y-33700001D01*
X64800000Y-30100001D02*
X64800000Y-33700001D01*
%TO.C,G\u002A\u002A\u002A*%
G36*
X29742667Y-44289434D02*
G01*
X29686289Y-44152110D01*
X29639584Y-44038426D01*
X29601332Y-43945411D01*
X29570310Y-43870095D01*
X29545295Y-43809506D01*
X29525067Y-43760674D01*
X29508402Y-43720627D01*
X29502216Y-43705819D01*
X29483761Y-43661550D01*
X29461499Y-43607856D01*
X29434211Y-43541765D01*
X29400672Y-43460306D01*
X29359664Y-43360506D01*
X29309963Y-43239393D01*
X29250348Y-43093994D01*
X29179598Y-42921339D01*
X29115455Y-42764752D01*
X29059209Y-42627615D01*
X29005363Y-42496677D01*
X28955831Y-42376568D01*
X28912527Y-42271917D01*
X28877367Y-42187351D01*
X28852263Y-42127500D01*
X28841737Y-42102877D01*
X28813199Y-42035664D01*
X28786341Y-41969534D01*
X28773330Y-41935771D01*
X28754009Y-41885899D01*
X28726440Y-41817480D01*
X28707820Y-41772440D01*
X29100759Y-41772440D01*
X29105338Y-41792519D01*
X29121360Y-41840183D01*
X29146987Y-41910439D01*
X29180382Y-41998294D01*
X29219708Y-42098755D01*
X29234290Y-42135362D01*
X29276237Y-42240353D01*
X29314174Y-42335578D01*
X29345992Y-42415729D01*
X29369586Y-42475496D01*
X29382849Y-42509570D01*
X29384537Y-42514094D01*
X29401719Y-42540042D01*
X29412569Y-42544877D01*
X29429258Y-42532274D01*
X29464732Y-42497378D01*
X29514824Y-42444556D01*
X29575367Y-42378175D01*
X29624990Y-42322272D01*
X29688597Y-42248025D01*
X29741767Y-42182494D01*
X29781000Y-42130287D01*
X29802792Y-42096012D01*
X29805505Y-42084759D01*
X29782974Y-42070652D01*
X29735371Y-42046243D01*
X29668290Y-42014012D01*
X29587322Y-41976438D01*
X29498061Y-41935998D01*
X29406099Y-41895171D01*
X29317029Y-41856436D01*
X29236444Y-41822271D01*
X29169937Y-41795155D01*
X29123100Y-41777566D01*
X29101526Y-41771983D01*
X29100759Y-41772440D01*
X28707820Y-41772440D01*
X28696194Y-41744318D01*
X28692591Y-41735736D01*
X28647353Y-41627525D01*
X28601907Y-41517601D01*
X28558198Y-41410801D01*
X28518172Y-41311960D01*
X28483774Y-41225915D01*
X28456951Y-41157501D01*
X28439649Y-41111555D01*
X28433813Y-41092913D01*
X28433881Y-41092758D01*
X28450621Y-41097828D01*
X28490458Y-41114347D01*
X28543559Y-41138187D01*
X28595668Y-41162044D01*
X28671846Y-41196625D01*
X28764050Y-41238292D01*
X28864233Y-41283406D01*
X28930540Y-41313178D01*
X29028072Y-41356967D01*
X29119557Y-41398137D01*
X29198003Y-41433533D01*
X29256419Y-41460003D01*
X29282340Y-41471852D01*
X29320260Y-41489368D01*
X29383780Y-41518733D01*
X29466570Y-41557019D01*
X29562302Y-41601299D01*
X29664648Y-41648647D01*
X29669321Y-41650809D01*
X29985941Y-41797301D01*
X31441516Y-41801996D01*
X32897091Y-41806692D01*
X32897091Y-49070777D01*
X31920474Y-49070777D01*
X31691989Y-48767560D01*
X31603896Y-48648856D01*
X31533854Y-48549217D01*
X31477352Y-48460718D01*
X31429876Y-48375432D01*
X31386915Y-48285433D01*
X31343958Y-48182795D01*
X31311377Y-48098928D01*
X31294755Y-48064453D01*
X31281320Y-48050556D01*
X31266360Y-48062520D01*
X31229883Y-48096310D01*
X31175143Y-48148774D01*
X31105395Y-48216757D01*
X31023895Y-48297107D01*
X30933896Y-48386669D01*
X30918792Y-48401776D01*
X30816110Y-48504357D01*
X30735233Y-48584401D01*
X30673223Y-48644377D01*
X30627140Y-48686756D01*
X30594044Y-48714006D01*
X30570997Y-48728598D01*
X30555059Y-48733000D01*
X30543291Y-48729682D01*
X30535576Y-48723743D01*
X30527439Y-48714350D01*
X30525105Y-48702831D01*
X30530961Y-48686366D01*
X30547392Y-48662133D01*
X30576786Y-48627312D01*
X30621528Y-48579083D01*
X30684004Y-48514624D01*
X30766602Y-48431115D01*
X30871706Y-48325735D01*
X30875478Y-48321960D01*
X31247705Y-47949430D01*
X31190669Y-47806503D01*
X31158711Y-47733643D01*
X31131035Y-47684579D01*
X31110315Y-47663935D01*
X31108023Y-47663575D01*
X31083232Y-47669810D01*
X31032365Y-47686957D01*
X30961937Y-47712680D01*
X30878464Y-47744641D01*
X30842003Y-47758998D01*
X30699138Y-47815463D01*
X30562877Y-47868863D01*
X30436911Y-47917790D01*
X30324930Y-47960835D01*
X30230624Y-47996588D01*
X30157684Y-48023640D01*
X30109801Y-48040582D01*
X30090664Y-48046006D01*
X30090501Y-48045924D01*
X30083261Y-48027941D01*
X30075709Y-48004758D01*
X30074473Y-47993428D01*
X30080205Y-47981883D01*
X30096252Y-47968542D01*
X30125962Y-47951823D01*
X30172682Y-47930146D01*
X30239759Y-47901930D01*
X30330542Y-47865593D01*
X30448377Y-47819555D01*
X30555950Y-47777929D01*
X30680527Y-47729659D01*
X30794953Y-47685007D01*
X30894966Y-47645662D01*
X30976306Y-47613310D01*
X31034711Y-47589641D01*
X31065920Y-47576340D01*
X31069499Y-47574530D01*
X31077592Y-47558870D01*
X31072450Y-47525872D01*
X31052825Y-47470005D01*
X31037275Y-47431969D01*
X30983092Y-47302979D01*
X30458132Y-47294184D01*
X29933171Y-47285389D01*
X29927550Y-47245812D01*
X29921930Y-47206234D01*
X30942075Y-47206234D01*
X30810376Y-46885216D01*
X30760900Y-46764704D01*
X30707677Y-46635206D01*
X30655303Y-46507899D01*
X30608376Y-46393959D01*
X30580649Y-46326733D01*
X30539528Y-46226986D01*
X30497404Y-46124579D01*
X30458881Y-46030718D01*
X30428564Y-45956611D01*
X30425276Y-45948547D01*
X30368807Y-45810015D01*
X30323545Y-45699087D01*
X30287440Y-45610777D01*
X30258445Y-45540102D01*
X30234512Y-45482077D01*
X30213592Y-45431718D01*
X30193638Y-45384041D01*
X30179524Y-45350486D01*
X30158473Y-45300082D01*
X30126170Y-45222169D01*
X30084697Y-45121795D01*
X30036134Y-45004008D01*
X29982563Y-44873853D01*
X29926067Y-44736379D01*
X29889335Y-44646885D01*
X29812207Y-44458891D01*
X30754708Y-44458891D01*
X30763259Y-44557062D01*
X30774927Y-44615877D01*
X30815781Y-44736952D01*
X30879808Y-44875465D01*
X30964003Y-45025350D01*
X31026284Y-45123242D01*
X31069543Y-45185117D01*
X31123254Y-45257158D01*
X31183232Y-45334295D01*
X31245295Y-45411458D01*
X31305261Y-45483578D01*
X31358947Y-45545586D01*
X31402170Y-45592411D01*
X31430747Y-45618985D01*
X31438726Y-45623132D01*
X31443734Y-45606332D01*
X31448047Y-45559085D01*
X31451451Y-45486121D01*
X31453737Y-45392170D01*
X31454693Y-45281962D01*
X31454709Y-45265299D01*
X31454709Y-44907467D01*
X31202313Y-44487827D01*
X31135920Y-44378300D01*
X31074730Y-44278989D01*
X31021238Y-44193815D01*
X30977940Y-44126700D01*
X30947332Y-44081565D01*
X30931911Y-44062331D01*
X30931250Y-44061965D01*
X30906864Y-44070115D01*
X30871474Y-44100178D01*
X30832724Y-44144235D01*
X30798259Y-44194367D01*
X30791095Y-44207135D01*
X30769080Y-44272438D01*
X30756800Y-44360187D01*
X30754708Y-44458891D01*
X29812207Y-44458891D01*
X29809942Y-44453369D01*
X29742667Y-44289434D01*
G37*
G36*
X32897091Y-49879918D02*
G01*
X32533798Y-49879918D01*
X32302079Y-49572835D01*
X32234433Y-49482771D01*
X32174571Y-49402272D01*
X32125545Y-49335508D01*
X32090408Y-49286653D01*
X32072214Y-49259877D01*
X32070360Y-49256214D01*
X32087140Y-49253529D01*
X32134242Y-49251137D01*
X32206808Y-49249149D01*
X32299980Y-49247678D01*
X32408900Y-49246835D01*
X32483725Y-49246677D01*
X32897091Y-49246677D01*
X32897091Y-49879918D01*
G37*
%TO.C,D8*%
X153600000Y-145700009D02*
X156800000Y-145700009D01*
X156800000Y-142100009D02*
X156800000Y-145700009D01*
X153600000Y-142100009D02*
X153600000Y-145700009D01*
%TO.C,D10*%
X64800000Y-58100003D02*
X64800000Y-61700003D01*
X64800000Y-61700003D02*
X68000000Y-61700003D01*
X68000000Y-58100003D02*
X68000000Y-61700003D01*
%TO.C,D17*%
X201200000Y-100100006D02*
X201200000Y-103700006D01*
X198000000Y-103700006D02*
X201200000Y-103700006D01*
X198000000Y-100100006D02*
X198000000Y-103700006D01*
%TO.C,D13*%
X79600000Y-61700003D02*
X82800000Y-61700003D01*
X82800000Y-58100003D02*
X82800000Y-61700003D01*
X79600000Y-58100003D02*
X79600000Y-61700003D01*
%TO.C,D10*%
X64800000Y-75700004D02*
X68000000Y-75700004D01*
X68000000Y-72100004D02*
X68000000Y-75700004D01*
X64800000Y-72100004D02*
X64800000Y-75700004D01*
%TO.C,D9*%
X257200000Y-86100005D02*
X257200000Y-89700005D01*
X257200000Y-89700005D02*
X260400000Y-89700005D01*
X260400000Y-86100005D02*
X260400000Y-89700005D01*
%TO.C,D15*%
X290000000Y-86100005D02*
X290000000Y-89700005D01*
X286800000Y-89700005D02*
X290000000Y-89700005D01*
X286800000Y-86100005D02*
X286800000Y-89700005D01*
%TO.C,R6*%
X191090000Y-130227072D02*
X191090000Y-128772944D01*
X192910000Y-130227072D02*
X192910000Y-128772944D01*
%TO.C,D19*%
X109200000Y-142100009D02*
X109200000Y-145700009D01*
X112400000Y-142100009D02*
X112400000Y-145700009D01*
X109200000Y-145700009D02*
X112400000Y-145700009D01*
%TO.C,D13*%
X79600000Y-47700002D02*
X82800000Y-47700002D01*
X79600000Y-44100002D02*
X79600000Y-47700002D01*
X82800000Y-44100002D02*
X82800000Y-47700002D01*
%TO.C,G\u002A\u002A\u002A*%
G36*
X307591100Y-133246841D02*
G01*
X307700020Y-133247684D01*
X307793192Y-133249155D01*
X307865758Y-133251143D01*
X307912860Y-133253535D01*
X307929640Y-133256220D01*
X307927786Y-133259883D01*
X307909592Y-133286659D01*
X307874455Y-133335514D01*
X307825429Y-133402278D01*
X307765567Y-133482777D01*
X307697921Y-133572841D01*
X307466202Y-133879924D01*
X307102909Y-133879924D01*
X307102909Y-133246683D01*
X307516275Y-133246683D01*
X307591100Y-133246841D01*
G37*
G36*
X310073933Y-128736385D02*
G01*
X310017437Y-128873859D01*
X309963866Y-129004014D01*
X309915303Y-129121801D01*
X309873830Y-129222175D01*
X309841527Y-129300088D01*
X309820476Y-129350492D01*
X309806362Y-129384047D01*
X309786408Y-129431724D01*
X309765488Y-129482083D01*
X309741555Y-129540108D01*
X309712560Y-129610783D01*
X309676455Y-129699093D01*
X309631193Y-129810021D01*
X309574724Y-129948553D01*
X309571436Y-129956617D01*
X309541119Y-130030724D01*
X309502596Y-130124585D01*
X309460472Y-130226992D01*
X309419351Y-130326739D01*
X309391624Y-130393965D01*
X309344697Y-130507905D01*
X309292323Y-130635212D01*
X309239100Y-130764710D01*
X309189624Y-130885222D01*
X309057925Y-131206240D01*
X310078070Y-131206240D01*
X310072450Y-131245818D01*
X310066829Y-131285395D01*
X309541868Y-131294190D01*
X309016908Y-131302985D01*
X308962725Y-131431975D01*
X308947175Y-131470011D01*
X308927550Y-131525878D01*
X308922408Y-131558876D01*
X308930501Y-131574536D01*
X308934080Y-131576346D01*
X308965289Y-131589647D01*
X309023694Y-131613316D01*
X309105034Y-131645668D01*
X309205047Y-131685013D01*
X309319473Y-131729665D01*
X309444050Y-131777935D01*
X309551623Y-131819561D01*
X309669458Y-131865599D01*
X309760241Y-131901936D01*
X309827318Y-131930152D01*
X309874038Y-131951829D01*
X309903748Y-131968548D01*
X309919795Y-131981889D01*
X309925527Y-131993434D01*
X309924291Y-132004764D01*
X309916739Y-132027947D01*
X309909499Y-132045930D01*
X309909336Y-132046012D01*
X309890199Y-132040588D01*
X309842316Y-132023646D01*
X309769376Y-131996594D01*
X309675070Y-131960841D01*
X309563089Y-131917796D01*
X309437123Y-131868869D01*
X309300862Y-131815469D01*
X309157997Y-131759004D01*
X309121536Y-131744647D01*
X309038063Y-131712686D01*
X308967635Y-131686963D01*
X308916768Y-131669816D01*
X308891977Y-131663581D01*
X308889685Y-131663941D01*
X308868965Y-131684585D01*
X308841289Y-131733649D01*
X308809331Y-131806509D01*
X308752295Y-131949436D01*
X309124522Y-132321966D01*
X309128294Y-132325741D01*
X309233398Y-132431121D01*
X309315996Y-132514630D01*
X309378472Y-132579089D01*
X309423214Y-132627318D01*
X309452608Y-132662139D01*
X309469039Y-132686372D01*
X309474895Y-132702837D01*
X309472561Y-132714356D01*
X309464424Y-132723749D01*
X309456709Y-132729688D01*
X309444941Y-132733006D01*
X309429003Y-132728604D01*
X309405956Y-132714012D01*
X309372860Y-132686762D01*
X309326777Y-132644383D01*
X309264767Y-132584407D01*
X309183890Y-132504363D01*
X309081208Y-132401782D01*
X309066104Y-132386675D01*
X308976105Y-132297113D01*
X308894605Y-132216763D01*
X308824857Y-132148780D01*
X308770117Y-132096316D01*
X308733640Y-132062526D01*
X308718680Y-132050562D01*
X308705245Y-132064459D01*
X308688623Y-132098934D01*
X308656042Y-132182801D01*
X308613085Y-132285439D01*
X308570124Y-132375438D01*
X308522648Y-132460724D01*
X308466146Y-132549223D01*
X308396104Y-132648862D01*
X308308011Y-132767566D01*
X308079526Y-133070783D01*
X307102909Y-133070783D01*
X307102909Y-129265305D01*
X308545291Y-129265305D01*
X308545307Y-129281968D01*
X308546263Y-129392176D01*
X308548549Y-129486127D01*
X308551953Y-129559091D01*
X308556266Y-129606338D01*
X308561274Y-129623138D01*
X308569253Y-129618991D01*
X308597830Y-129592417D01*
X308641053Y-129545592D01*
X308694739Y-129483584D01*
X308754705Y-129411464D01*
X308816768Y-129334301D01*
X308876746Y-129257164D01*
X308930457Y-129185123D01*
X308973716Y-129123248D01*
X309035997Y-129025356D01*
X309120192Y-128875471D01*
X309184219Y-128736958D01*
X309225073Y-128615883D01*
X309236741Y-128557068D01*
X309245292Y-128458897D01*
X309243200Y-128360193D01*
X309230920Y-128272444D01*
X309208905Y-128207141D01*
X309201741Y-128194373D01*
X309167276Y-128144241D01*
X309128526Y-128100184D01*
X309093136Y-128070121D01*
X309068750Y-128061971D01*
X309068089Y-128062337D01*
X309052668Y-128081571D01*
X309022060Y-128126706D01*
X308978762Y-128193821D01*
X308925270Y-128278995D01*
X308864080Y-128378306D01*
X308797687Y-128487833D01*
X308545291Y-128907473D01*
X308545291Y-129265305D01*
X307102909Y-129265305D01*
X307102909Y-126084765D01*
X310194495Y-126084765D01*
X310197208Y-126096018D01*
X310219000Y-126130293D01*
X310258233Y-126182500D01*
X310311403Y-126248031D01*
X310375010Y-126322278D01*
X310424633Y-126378181D01*
X310485176Y-126444562D01*
X310535268Y-126497384D01*
X310570742Y-126532280D01*
X310587431Y-126544883D01*
X310598281Y-126540048D01*
X310615463Y-126514100D01*
X310617151Y-126509576D01*
X310630414Y-126475502D01*
X310654008Y-126415735D01*
X310685826Y-126335584D01*
X310723763Y-126240359D01*
X310765710Y-126135368D01*
X310780292Y-126098761D01*
X310819618Y-125998300D01*
X310853013Y-125910445D01*
X310878640Y-125840189D01*
X310894662Y-125792525D01*
X310899241Y-125772446D01*
X310898474Y-125771989D01*
X310876900Y-125777572D01*
X310830063Y-125795161D01*
X310763556Y-125822277D01*
X310682971Y-125856442D01*
X310593901Y-125895177D01*
X310501939Y-125936004D01*
X310412678Y-125976444D01*
X310331710Y-126014018D01*
X310264629Y-126046249D01*
X310217026Y-126070658D01*
X310194495Y-126084765D01*
X307102909Y-126084765D01*
X307102909Y-125806698D01*
X308558484Y-125802002D01*
X310014059Y-125797307D01*
X310330679Y-125650815D01*
X310335352Y-125648653D01*
X310437698Y-125601305D01*
X310533430Y-125557025D01*
X310616220Y-125518739D01*
X310679740Y-125489374D01*
X310717660Y-125471858D01*
X310743581Y-125460009D01*
X310801997Y-125433539D01*
X310880443Y-125398143D01*
X310971928Y-125356973D01*
X311069460Y-125313184D01*
X311135767Y-125283412D01*
X311235950Y-125238298D01*
X311328154Y-125196631D01*
X311404332Y-125162050D01*
X311456441Y-125138193D01*
X311509542Y-125114353D01*
X311549379Y-125097834D01*
X311566119Y-125092764D01*
X311566187Y-125092919D01*
X311560351Y-125111561D01*
X311543049Y-125157507D01*
X311516226Y-125225921D01*
X311481828Y-125311966D01*
X311441802Y-125410807D01*
X311398093Y-125517607D01*
X311352647Y-125627531D01*
X311307409Y-125735742D01*
X311303806Y-125744324D01*
X311292180Y-125772446D01*
X311273560Y-125817486D01*
X311245991Y-125885905D01*
X311226670Y-125935777D01*
X311213659Y-125969540D01*
X311186801Y-126035670D01*
X311158263Y-126102883D01*
X311147737Y-126127506D01*
X311122633Y-126187357D01*
X311087473Y-126271923D01*
X311044169Y-126376574D01*
X310994637Y-126496683D01*
X310940791Y-126627621D01*
X310884545Y-126764758D01*
X310820402Y-126921345D01*
X310749652Y-127094000D01*
X310690037Y-127239399D01*
X310640336Y-127360512D01*
X310599328Y-127460312D01*
X310565789Y-127541771D01*
X310538501Y-127607862D01*
X310516239Y-127661556D01*
X310497784Y-127705825D01*
X310491598Y-127720633D01*
X310474933Y-127760680D01*
X310454705Y-127809512D01*
X310429690Y-127870101D01*
X310398668Y-127945417D01*
X310360416Y-128038432D01*
X310313711Y-128152116D01*
X310257333Y-128289440D01*
X310190058Y-128453375D01*
X310187793Y-128458897D01*
X310110665Y-128646891D01*
X310073933Y-128736385D01*
G37*
G36*
X29742667Y-58289435D02*
G01*
X29686289Y-58152111D01*
X29639584Y-58038427D01*
X29601332Y-57945412D01*
X29570310Y-57870096D01*
X29545295Y-57809507D01*
X29525067Y-57760675D01*
X29508402Y-57720628D01*
X29502216Y-57705820D01*
X29483761Y-57661551D01*
X29461499Y-57607857D01*
X29434211Y-57541766D01*
X29400672Y-57460307D01*
X29359664Y-57360507D01*
X29309963Y-57239394D01*
X29250348Y-57093995D01*
X29179598Y-56921340D01*
X29115455Y-56764753D01*
X29059209Y-56627616D01*
X29005363Y-56496678D01*
X28955831Y-56376569D01*
X28912527Y-56271918D01*
X28877367Y-56187352D01*
X28852263Y-56127501D01*
X28841737Y-56102878D01*
X28813199Y-56035665D01*
X28786341Y-55969535D01*
X28773330Y-55935772D01*
X28754009Y-55885900D01*
X28726440Y-55817481D01*
X28707820Y-55772441D01*
X29100759Y-55772441D01*
X29105338Y-55792520D01*
X29121360Y-55840184D01*
X29146987Y-55910440D01*
X29180382Y-55998295D01*
X29219708Y-56098756D01*
X29234290Y-56135363D01*
X29276237Y-56240354D01*
X29314174Y-56335579D01*
X29345992Y-56415730D01*
X29369586Y-56475497D01*
X29382849Y-56509571D01*
X29384537Y-56514095D01*
X29401719Y-56540043D01*
X29412569Y-56544878D01*
X29429258Y-56532275D01*
X29464732Y-56497379D01*
X29514824Y-56444557D01*
X29575367Y-56378176D01*
X29624990Y-56322273D01*
X29688597Y-56248026D01*
X29741767Y-56182495D01*
X29781000Y-56130288D01*
X29802792Y-56096013D01*
X29805505Y-56084760D01*
X29782974Y-56070653D01*
X29735371Y-56046244D01*
X29668290Y-56014013D01*
X29587322Y-55976439D01*
X29498061Y-55935999D01*
X29406099Y-55895172D01*
X29317029Y-55856437D01*
X29236444Y-55822272D01*
X29169937Y-55795156D01*
X29123100Y-55777567D01*
X29101526Y-55771984D01*
X29100759Y-55772441D01*
X28707820Y-55772441D01*
X28696194Y-55744319D01*
X28692591Y-55735737D01*
X28647353Y-55627526D01*
X28601907Y-55517602D01*
X28558198Y-55410802D01*
X28518172Y-55311961D01*
X28483774Y-55225916D01*
X28456951Y-55157502D01*
X28439649Y-55111556D01*
X28433813Y-55092914D01*
X28433881Y-55092759D01*
X28450621Y-55097829D01*
X28490458Y-55114348D01*
X28543559Y-55138188D01*
X28595668Y-55162045D01*
X28671846Y-55196626D01*
X28764050Y-55238293D01*
X28864233Y-55283407D01*
X28930540Y-55313179D01*
X29028072Y-55356968D01*
X29119557Y-55398138D01*
X29198003Y-55433534D01*
X29256419Y-55460004D01*
X29282340Y-55471853D01*
X29320260Y-55489369D01*
X29383780Y-55518734D01*
X29466570Y-55557020D01*
X29562302Y-55601300D01*
X29664648Y-55648648D01*
X29669321Y-55650810D01*
X29985941Y-55797302D01*
X31441516Y-55801997D01*
X32897091Y-55806693D01*
X32897091Y-63070778D01*
X31920474Y-63070778D01*
X31691989Y-62767561D01*
X31603896Y-62648857D01*
X31533854Y-62549218D01*
X31477352Y-62460719D01*
X31429876Y-62375433D01*
X31386915Y-62285434D01*
X31343958Y-62182796D01*
X31311377Y-62098929D01*
X31294755Y-62064454D01*
X31281320Y-62050557D01*
X31266360Y-62062521D01*
X31229883Y-62096311D01*
X31175143Y-62148775D01*
X31105395Y-62216758D01*
X31023895Y-62297108D01*
X30933896Y-62386670D01*
X30918792Y-62401777D01*
X30816110Y-62504358D01*
X30735233Y-62584402D01*
X30673223Y-62644378D01*
X30627140Y-62686757D01*
X30594044Y-62714007D01*
X30570997Y-62728599D01*
X30555059Y-62733001D01*
X30543291Y-62729683D01*
X30535576Y-62723744D01*
X30527439Y-62714351D01*
X30525105Y-62702832D01*
X30530961Y-62686367D01*
X30547392Y-62662134D01*
X30576786Y-62627313D01*
X30621528Y-62579084D01*
X30684004Y-62514625D01*
X30766602Y-62431116D01*
X30871706Y-62325736D01*
X30875478Y-62321961D01*
X31247705Y-61949431D01*
X31190669Y-61806504D01*
X31158711Y-61733644D01*
X31131035Y-61684580D01*
X31110315Y-61663936D01*
X31108023Y-61663576D01*
X31083232Y-61669811D01*
X31032365Y-61686958D01*
X30961937Y-61712681D01*
X30878464Y-61744642D01*
X30842003Y-61758999D01*
X30699138Y-61815464D01*
X30562877Y-61868864D01*
X30436911Y-61917791D01*
X30324930Y-61960836D01*
X30230624Y-61996589D01*
X30157684Y-62023641D01*
X30109801Y-62040583D01*
X30090664Y-62046007D01*
X30090501Y-62045925D01*
X30083261Y-62027942D01*
X30075709Y-62004759D01*
X30074473Y-61993429D01*
X30080205Y-61981884D01*
X30096252Y-61968543D01*
X30125962Y-61951824D01*
X30172682Y-61930147D01*
X30239759Y-61901931D01*
X30330542Y-61865594D01*
X30448377Y-61819556D01*
X30555950Y-61777930D01*
X30680527Y-61729660D01*
X30794953Y-61685008D01*
X30894966Y-61645663D01*
X30976306Y-61613311D01*
X31034711Y-61589642D01*
X31065920Y-61576341D01*
X31069499Y-61574531D01*
X31077592Y-61558871D01*
X31072450Y-61525873D01*
X31052825Y-61470006D01*
X31037275Y-61431970D01*
X30983092Y-61302980D01*
X30458132Y-61294185D01*
X29933171Y-61285390D01*
X29927550Y-61245813D01*
X29921930Y-61206235D01*
X30942075Y-61206235D01*
X30810376Y-60885217D01*
X30760900Y-60764705D01*
X30707677Y-60635207D01*
X30655303Y-60507900D01*
X30608376Y-60393960D01*
X30580649Y-60326734D01*
X30539528Y-60226987D01*
X30497404Y-60124580D01*
X30458881Y-60030719D01*
X30428564Y-59956612D01*
X30425276Y-59948548D01*
X30368807Y-59810016D01*
X30323545Y-59699088D01*
X30287440Y-59610778D01*
X30258445Y-59540103D01*
X30234512Y-59482078D01*
X30213592Y-59431719D01*
X30193638Y-59384042D01*
X30179524Y-59350487D01*
X30158473Y-59300083D01*
X30126170Y-59222170D01*
X30084697Y-59121796D01*
X30036134Y-59004009D01*
X29982563Y-58873854D01*
X29926067Y-58736380D01*
X29889335Y-58646886D01*
X29812207Y-58458892D01*
X30754708Y-58458892D01*
X30763259Y-58557063D01*
X30774927Y-58615878D01*
X30815781Y-58736953D01*
X30879808Y-58875466D01*
X30964003Y-59025351D01*
X31026284Y-59123243D01*
X31069543Y-59185118D01*
X31123254Y-59257159D01*
X31183232Y-59334296D01*
X31245295Y-59411459D01*
X31305261Y-59483579D01*
X31358947Y-59545587D01*
X31402170Y-59592412D01*
X31430747Y-59618986D01*
X31438726Y-59623133D01*
X31443734Y-59606333D01*
X31448047Y-59559086D01*
X31451451Y-59486122D01*
X31453737Y-59392171D01*
X31454693Y-59281963D01*
X31454709Y-59265300D01*
X31454709Y-58907468D01*
X31202313Y-58487828D01*
X31135920Y-58378301D01*
X31074730Y-58278990D01*
X31021238Y-58193816D01*
X30977940Y-58126701D01*
X30947332Y-58081566D01*
X30931911Y-58062332D01*
X30931250Y-58061966D01*
X30906864Y-58070116D01*
X30871474Y-58100179D01*
X30832724Y-58144236D01*
X30798259Y-58194368D01*
X30791095Y-58207136D01*
X30769080Y-58272439D01*
X30756800Y-58360188D01*
X30754708Y-58458892D01*
X29812207Y-58458892D01*
X29809942Y-58453370D01*
X29742667Y-58289435D01*
G37*
G36*
X32897091Y-63879919D02*
G01*
X32533798Y-63879919D01*
X32302079Y-63572836D01*
X32234433Y-63482772D01*
X32174571Y-63402273D01*
X32125545Y-63335509D01*
X32090408Y-63286654D01*
X32072214Y-63259878D01*
X32070360Y-63256215D01*
X32087140Y-63253530D01*
X32134242Y-63251138D01*
X32206808Y-63249150D01*
X32299980Y-63247679D01*
X32408900Y-63246836D01*
X32483725Y-63246678D01*
X32897091Y-63246678D01*
X32897091Y-63879919D01*
G37*
%TO.C,D15*%
X286800000Y-114100007D02*
X286800000Y-117700007D01*
X290000000Y-114100007D02*
X290000000Y-117700007D01*
X286800000Y-117700007D02*
X290000000Y-117700007D01*
%TO.C,D20*%
X212800000Y-72100004D02*
X212800000Y-75700004D01*
X216000000Y-72100004D02*
X216000000Y-75700004D01*
X212800000Y-75700004D02*
X216000000Y-75700004D01*
%TO.C,D16*%
X94400000Y-100100006D02*
X94400000Y-103700006D01*
X97600000Y-100100006D02*
X97600000Y-103700006D01*
X94400000Y-103700006D02*
X97600000Y-103700006D01*
%TO.C,D12*%
X275200000Y-72100004D02*
X275200000Y-75700004D01*
X272000000Y-72100004D02*
X272000000Y-75700004D01*
X272000000Y-75700004D02*
X275200000Y-75700004D01*
%TO.C,D17*%
X198000000Y-145700009D02*
X201200000Y-145700009D01*
X198000000Y-142100009D02*
X198000000Y-145700009D01*
X201200000Y-142100009D02*
X201200000Y-145700009D01*
%TO.C,D11*%
X168400000Y-86100005D02*
X168400000Y-89700005D01*
X171600000Y-86100005D02*
X171600000Y-89700005D01*
X168400000Y-89700005D02*
X171600000Y-89700005D01*
%TO.C,D14*%
X183200000Y-103700006D02*
X186400000Y-103700006D01*
X183200000Y-100100006D02*
X183200000Y-103700006D01*
X186400000Y-100100006D02*
X186400000Y-103700006D01*
%TO.C,D4*%
X38400000Y-44100002D02*
X38400000Y-47700002D01*
X35200000Y-44100002D02*
X35200000Y-47700002D01*
X35200000Y-47700002D02*
X38400000Y-47700002D01*
%TO.C,D14*%
X183200000Y-72100004D02*
X183200000Y-75700004D01*
X186400000Y-72100004D02*
X186400000Y-75700004D01*
X183200000Y-75700004D02*
X186400000Y-75700004D01*
%TO.C,D12*%
X272000000Y-159700010D02*
X275200000Y-159700010D01*
X272000000Y-156100010D02*
X272000000Y-159700010D01*
X275200000Y-156100010D02*
X275200000Y-159700010D01*
%TO.C,R2*%
X250340000Y-74227068D02*
X250340000Y-72772940D01*
X252160000Y-74227068D02*
X252160000Y-72772940D01*
%TO.C,R4*%
X297840000Y-158227074D02*
X297840000Y-156772946D01*
X299660000Y-158227074D02*
X299660000Y-156772946D01*
%TO.C,D2*%
X127200000Y-86100005D02*
X127200000Y-89700005D01*
X124000000Y-89700005D02*
X127200000Y-89700005D01*
X124000000Y-86100005D02*
X124000000Y-89700005D01*
%TO.C,D6*%
X245600000Y-44100002D02*
X245600000Y-47700002D01*
X242400000Y-47700002D02*
X245600000Y-47700002D01*
X242400000Y-44100002D02*
X242400000Y-47700002D01*
%TO.C,D1*%
X20400000Y-72100004D02*
X20400000Y-75700004D01*
X23600000Y-72100004D02*
X23600000Y-75700004D01*
X20400000Y-75700004D02*
X23600000Y-75700004D01*
%TO.C,D15*%
X286800000Y-58100003D02*
X286800000Y-61700003D01*
X290000000Y-58100003D02*
X290000000Y-61700003D01*
X286800000Y-61700003D02*
X290000000Y-61700003D01*
%TO.C,D2*%
X124000000Y-58100003D02*
X124000000Y-61700003D01*
X124000000Y-61700003D02*
X127200000Y-61700003D01*
X127200000Y-58100003D02*
X127200000Y-61700003D01*
%TO.C,R2*%
X252160000Y-46227066D02*
X252160000Y-44772938D01*
X250340000Y-46227066D02*
X250340000Y-44772938D01*
%TO.C,D20*%
X212800000Y-61700003D02*
X216000000Y-61700003D01*
X216000000Y-58100003D02*
X216000000Y-61700003D01*
X212800000Y-58100003D02*
X212800000Y-61700003D01*
%TO.C,D5*%
X142000000Y-128100008D02*
X142000000Y-131700008D01*
X138800000Y-131700008D02*
X142000000Y-131700008D01*
X138800000Y-128100008D02*
X138800000Y-131700008D01*
%TO.C,D8*%
X153600000Y-103700006D02*
X156800000Y-103700006D01*
X153600000Y-100100006D02*
X153600000Y-103700006D01*
X156800000Y-100100006D02*
X156800000Y-103700006D01*
%TO.C,R1*%
X42410000Y-158227074D02*
X42410000Y-156772946D01*
X40590000Y-158227074D02*
X40590000Y-156772946D01*
%TO.C,D13*%
X82800000Y-142100009D02*
X82800000Y-145700009D01*
X79600000Y-142100009D02*
X79600000Y-145700009D01*
X79600000Y-145700009D02*
X82800000Y-145700009D01*
%TO.C,R3*%
X148910000Y-60227067D02*
X148910000Y-58772939D01*
X147090000Y-60227067D02*
X147090000Y-58772939D01*
%TO.C,G\u002A\u002A\u002A*%
G36*
X310073933Y-86736382D02*
G01*
X310017437Y-86873856D01*
X309963866Y-87004011D01*
X309915303Y-87121798D01*
X309873830Y-87222172D01*
X309841527Y-87300085D01*
X309820476Y-87350489D01*
X309806362Y-87384044D01*
X309786408Y-87431721D01*
X309765488Y-87482080D01*
X309741555Y-87540105D01*
X309712560Y-87610780D01*
X309676455Y-87699090D01*
X309631193Y-87810018D01*
X309574724Y-87948550D01*
X309571436Y-87956614D01*
X309541119Y-88030721D01*
X309502596Y-88124582D01*
X309460472Y-88226989D01*
X309419351Y-88326736D01*
X309391624Y-88393962D01*
X309344697Y-88507902D01*
X309292323Y-88635209D01*
X309239100Y-88764707D01*
X309189624Y-88885219D01*
X309057925Y-89206237D01*
X310078070Y-89206237D01*
X310072450Y-89245815D01*
X310066829Y-89285392D01*
X309541868Y-89294187D01*
X309016908Y-89302982D01*
X308962725Y-89431972D01*
X308947175Y-89470008D01*
X308927550Y-89525875D01*
X308922408Y-89558873D01*
X308930501Y-89574533D01*
X308934080Y-89576343D01*
X308965289Y-89589644D01*
X309023694Y-89613313D01*
X309105034Y-89645665D01*
X309205047Y-89685010D01*
X309319473Y-89729662D01*
X309444050Y-89777932D01*
X309551623Y-89819558D01*
X309669458Y-89865596D01*
X309760241Y-89901933D01*
X309827318Y-89930149D01*
X309874038Y-89951826D01*
X309903748Y-89968545D01*
X309919795Y-89981886D01*
X309925527Y-89993431D01*
X309924291Y-90004761D01*
X309916739Y-90027944D01*
X309909499Y-90045927D01*
X309909336Y-90046009D01*
X309890199Y-90040585D01*
X309842316Y-90023643D01*
X309769376Y-89996591D01*
X309675070Y-89960838D01*
X309563089Y-89917793D01*
X309437123Y-89868866D01*
X309300862Y-89815466D01*
X309157997Y-89759001D01*
X309121536Y-89744644D01*
X309038063Y-89712683D01*
X308967635Y-89686960D01*
X308916768Y-89669813D01*
X308891977Y-89663578D01*
X308889685Y-89663938D01*
X308868965Y-89684582D01*
X308841289Y-89733646D01*
X308809331Y-89806506D01*
X308752295Y-89949433D01*
X309124522Y-90321963D01*
X309128294Y-90325738D01*
X309233398Y-90431118D01*
X309315996Y-90514627D01*
X309378472Y-90579086D01*
X309423214Y-90627315D01*
X309452608Y-90662136D01*
X309469039Y-90686369D01*
X309474895Y-90702834D01*
X309472561Y-90714353D01*
X309464424Y-90723746D01*
X309456709Y-90729685D01*
X309444941Y-90733003D01*
X309429003Y-90728601D01*
X309405956Y-90714009D01*
X309372860Y-90686759D01*
X309326777Y-90644380D01*
X309264767Y-90584404D01*
X309183890Y-90504360D01*
X309081208Y-90401779D01*
X309066104Y-90386672D01*
X308976105Y-90297110D01*
X308894605Y-90216760D01*
X308824857Y-90148777D01*
X308770117Y-90096313D01*
X308733640Y-90062523D01*
X308718680Y-90050559D01*
X308705245Y-90064456D01*
X308688623Y-90098931D01*
X308656042Y-90182798D01*
X308613085Y-90285436D01*
X308570124Y-90375435D01*
X308522648Y-90460721D01*
X308466146Y-90549220D01*
X308396104Y-90648859D01*
X308308011Y-90767563D01*
X308079526Y-91070780D01*
X307102909Y-91070780D01*
X307102909Y-87265302D01*
X308545291Y-87265302D01*
X308545307Y-87281965D01*
X308546263Y-87392173D01*
X308548549Y-87486124D01*
X308551953Y-87559088D01*
X308556266Y-87606335D01*
X308561274Y-87623135D01*
X308569253Y-87618988D01*
X308597830Y-87592414D01*
X308641053Y-87545589D01*
X308694739Y-87483581D01*
X308754705Y-87411461D01*
X308816768Y-87334298D01*
X308876746Y-87257161D01*
X308930457Y-87185120D01*
X308973716Y-87123245D01*
X309035997Y-87025353D01*
X309120192Y-86875468D01*
X309184219Y-86736955D01*
X309225073Y-86615880D01*
X309236741Y-86557065D01*
X309245292Y-86458894D01*
X309243200Y-86360190D01*
X309230920Y-86272441D01*
X309208905Y-86207138D01*
X309201741Y-86194370D01*
X309167276Y-86144238D01*
X309128526Y-86100181D01*
X309093136Y-86070118D01*
X309068750Y-86061968D01*
X309068089Y-86062334D01*
X309052668Y-86081568D01*
X309022060Y-86126703D01*
X308978762Y-86193818D01*
X308925270Y-86278992D01*
X308864080Y-86378303D01*
X308797687Y-86487830D01*
X308545291Y-86907470D01*
X308545291Y-87265302D01*
X307102909Y-87265302D01*
X307102909Y-84084762D01*
X310194495Y-84084762D01*
X310197208Y-84096015D01*
X310219000Y-84130290D01*
X310258233Y-84182497D01*
X310311403Y-84248028D01*
X310375010Y-84322275D01*
X310424633Y-84378178D01*
X310485176Y-84444559D01*
X310535268Y-84497381D01*
X310570742Y-84532277D01*
X310587431Y-84544880D01*
X310598281Y-84540045D01*
X310615463Y-84514097D01*
X310617151Y-84509573D01*
X310630414Y-84475499D01*
X310654008Y-84415732D01*
X310685826Y-84335581D01*
X310723763Y-84240356D01*
X310765710Y-84135365D01*
X310780292Y-84098758D01*
X310819618Y-83998297D01*
X310853013Y-83910442D01*
X310878640Y-83840186D01*
X310894662Y-83792522D01*
X310899241Y-83772443D01*
X310898474Y-83771986D01*
X310876900Y-83777569D01*
X310830063Y-83795158D01*
X310763556Y-83822274D01*
X310682971Y-83856439D01*
X310593901Y-83895174D01*
X310501939Y-83936001D01*
X310412678Y-83976441D01*
X310331710Y-84014015D01*
X310264629Y-84046246D01*
X310217026Y-84070655D01*
X310194495Y-84084762D01*
X307102909Y-84084762D01*
X307102909Y-83806695D01*
X308558484Y-83801999D01*
X310014059Y-83797304D01*
X310330679Y-83650812D01*
X310335352Y-83648650D01*
X310437698Y-83601302D01*
X310533430Y-83557022D01*
X310616220Y-83518736D01*
X310679740Y-83489371D01*
X310717660Y-83471855D01*
X310743581Y-83460006D01*
X310801997Y-83433536D01*
X310880443Y-83398140D01*
X310971928Y-83356970D01*
X311069460Y-83313181D01*
X311135767Y-83283409D01*
X311235950Y-83238295D01*
X311328154Y-83196628D01*
X311404332Y-83162047D01*
X311456441Y-83138190D01*
X311509542Y-83114350D01*
X311549379Y-83097831D01*
X311566119Y-83092761D01*
X311566187Y-83092916D01*
X311560351Y-83111558D01*
X311543049Y-83157504D01*
X311516226Y-83225918D01*
X311481828Y-83311963D01*
X311441802Y-83410804D01*
X311398093Y-83517604D01*
X311352647Y-83627528D01*
X311307409Y-83735739D01*
X311303806Y-83744321D01*
X311292180Y-83772443D01*
X311273560Y-83817483D01*
X311245991Y-83885902D01*
X311226670Y-83935774D01*
X311213659Y-83969537D01*
X311186801Y-84035667D01*
X311158263Y-84102880D01*
X311147737Y-84127503D01*
X311122633Y-84187354D01*
X311087473Y-84271920D01*
X311044169Y-84376571D01*
X310994637Y-84496680D01*
X310940791Y-84627618D01*
X310884545Y-84764755D01*
X310820402Y-84921342D01*
X310749652Y-85093997D01*
X310690037Y-85239396D01*
X310640336Y-85360509D01*
X310599328Y-85460309D01*
X310565789Y-85541768D01*
X310538501Y-85607859D01*
X310516239Y-85661553D01*
X310497784Y-85705822D01*
X310491598Y-85720630D01*
X310474933Y-85760677D01*
X310454705Y-85809509D01*
X310429690Y-85870098D01*
X310398668Y-85945414D01*
X310360416Y-86038429D01*
X310313711Y-86152113D01*
X310257333Y-86289437D01*
X310190058Y-86453372D01*
X310187793Y-86458894D01*
X310110665Y-86646888D01*
X310073933Y-86736382D01*
G37*
G36*
X307591100Y-91246838D02*
G01*
X307700020Y-91247681D01*
X307793192Y-91249152D01*
X307865758Y-91251140D01*
X307912860Y-91253532D01*
X307929640Y-91256217D01*
X307927786Y-91259880D01*
X307909592Y-91286656D01*
X307874455Y-91335511D01*
X307825429Y-91402275D01*
X307765567Y-91482774D01*
X307697921Y-91572838D01*
X307466202Y-91879921D01*
X307102909Y-91879921D01*
X307102909Y-91246680D01*
X307516275Y-91246680D01*
X307591100Y-91246838D01*
G37*
%TO.C,D13*%
X82800000Y-86100005D02*
X82800000Y-89700005D01*
X79600000Y-89700005D02*
X82800000Y-89700005D01*
X79600000Y-86100005D02*
X79600000Y-89700005D01*
%TO.C,D6*%
X245600000Y-58100003D02*
X245600000Y-61700003D01*
X242400000Y-61700003D02*
X245600000Y-61700003D01*
X242400000Y-58100003D02*
X242400000Y-61700003D01*
%TO.C,D5*%
X138800000Y-159700010D02*
X142000000Y-159700010D01*
X142000000Y-156100010D02*
X142000000Y-159700010D01*
X138800000Y-156100010D02*
X138800000Y-159700010D01*
%TO.C,D18*%
X304800000Y-86100005D02*
X304800000Y-89700005D01*
X301600000Y-86100005D02*
X301600000Y-89700005D01*
X301600000Y-89700005D02*
X304800000Y-89700005D01*
%TO.C,D1*%
X20400000Y-89700005D02*
X23600000Y-89700005D01*
X23600000Y-86100005D02*
X23600000Y-89700005D01*
X20400000Y-86100005D02*
X20400000Y-89700005D01*
%TO.C,R3*%
X147090000Y-130227072D02*
X147090000Y-128772944D01*
X148910000Y-130227072D02*
X148910000Y-128772944D01*
%TO.C,D11*%
X168400000Y-128100008D02*
X168400000Y-131700008D01*
X171600000Y-128100008D02*
X171600000Y-131700008D01*
X168400000Y-131700008D02*
X171600000Y-131700008D01*
%TO.C,R6*%
X191090000Y-60227067D02*
X191090000Y-58772939D01*
X192910000Y-60227067D02*
X192910000Y-58772939D01*
%TO.C,D7*%
X50000000Y-145700009D02*
X53200000Y-145700009D01*
X53200000Y-142100009D02*
X53200000Y-145700009D01*
X50000000Y-142100009D02*
X50000000Y-145700009D01*
%TO.C,G\u002A\u002A\u002A*%
G36*
X32897091Y-77879920D02*
G01*
X32533798Y-77879920D01*
X32302079Y-77572837D01*
X32234433Y-77482773D01*
X32174571Y-77402274D01*
X32125545Y-77335510D01*
X32090408Y-77286655D01*
X32072214Y-77259879D01*
X32070360Y-77256216D01*
X32087140Y-77253531D01*
X32134242Y-77251139D01*
X32206808Y-77249151D01*
X32299980Y-77247680D01*
X32408900Y-77246837D01*
X32483725Y-77246679D01*
X32897091Y-77246679D01*
X32897091Y-77879920D01*
G37*
G36*
X29742667Y-72289436D02*
G01*
X29686289Y-72152112D01*
X29639584Y-72038428D01*
X29601332Y-71945413D01*
X29570310Y-71870097D01*
X29545295Y-71809508D01*
X29525067Y-71760676D01*
X29508402Y-71720629D01*
X29502216Y-71705821D01*
X29483761Y-71661552D01*
X29461499Y-71607858D01*
X29434211Y-71541767D01*
X29400672Y-71460308D01*
X29359664Y-71360508D01*
X29309963Y-71239395D01*
X29250348Y-71093996D01*
X29179598Y-70921341D01*
X29115455Y-70764754D01*
X29059209Y-70627617D01*
X29005363Y-70496679D01*
X28955831Y-70376570D01*
X28912527Y-70271919D01*
X28877367Y-70187353D01*
X28852263Y-70127502D01*
X28841737Y-70102879D01*
X28813199Y-70035666D01*
X28786341Y-69969536D01*
X28773330Y-69935773D01*
X28754009Y-69885901D01*
X28726440Y-69817482D01*
X28707820Y-69772442D01*
X29100759Y-69772442D01*
X29105338Y-69792521D01*
X29121360Y-69840185D01*
X29146987Y-69910441D01*
X29180382Y-69998296D01*
X29219708Y-70098757D01*
X29234290Y-70135364D01*
X29276237Y-70240355D01*
X29314174Y-70335580D01*
X29345992Y-70415731D01*
X29369586Y-70475498D01*
X29382849Y-70509572D01*
X29384537Y-70514096D01*
X29401719Y-70540044D01*
X29412569Y-70544879D01*
X29429258Y-70532276D01*
X29464732Y-70497380D01*
X29514824Y-70444558D01*
X29575367Y-70378177D01*
X29624990Y-70322274D01*
X29688597Y-70248027D01*
X29741767Y-70182496D01*
X29781000Y-70130289D01*
X29802792Y-70096014D01*
X29805505Y-70084761D01*
X29782974Y-70070654D01*
X29735371Y-70046245D01*
X29668290Y-70014014D01*
X29587322Y-69976440D01*
X29498061Y-69936000D01*
X29406099Y-69895173D01*
X29317029Y-69856438D01*
X29236444Y-69822273D01*
X29169937Y-69795157D01*
X29123100Y-69777568D01*
X29101526Y-69771985D01*
X29100759Y-69772442D01*
X28707820Y-69772442D01*
X28696194Y-69744320D01*
X28692591Y-69735738D01*
X28647353Y-69627527D01*
X28601907Y-69517603D01*
X28558198Y-69410803D01*
X28518172Y-69311962D01*
X28483774Y-69225917D01*
X28456951Y-69157503D01*
X28439649Y-69111557D01*
X28433813Y-69092915D01*
X28433881Y-69092760D01*
X28450621Y-69097830D01*
X28490458Y-69114349D01*
X28543559Y-69138189D01*
X28595668Y-69162046D01*
X28671846Y-69196627D01*
X28764050Y-69238294D01*
X28864233Y-69283408D01*
X28930540Y-69313180D01*
X29028072Y-69356969D01*
X29119557Y-69398139D01*
X29198003Y-69433535D01*
X29256419Y-69460005D01*
X29282340Y-69471854D01*
X29320260Y-69489370D01*
X29383780Y-69518735D01*
X29466570Y-69557021D01*
X29562302Y-69601301D01*
X29664648Y-69648649D01*
X29669321Y-69650811D01*
X29985941Y-69797303D01*
X31441516Y-69801998D01*
X32897091Y-69806694D01*
X32897091Y-77070779D01*
X31920474Y-77070779D01*
X31691989Y-76767562D01*
X31603896Y-76648858D01*
X31533854Y-76549219D01*
X31477352Y-76460720D01*
X31429876Y-76375434D01*
X31386915Y-76285435D01*
X31343958Y-76182797D01*
X31311377Y-76098930D01*
X31294755Y-76064455D01*
X31281320Y-76050558D01*
X31266360Y-76062522D01*
X31229883Y-76096312D01*
X31175143Y-76148776D01*
X31105395Y-76216759D01*
X31023895Y-76297109D01*
X30933896Y-76386671D01*
X30918792Y-76401778D01*
X30816110Y-76504359D01*
X30735233Y-76584403D01*
X30673223Y-76644379D01*
X30627140Y-76686758D01*
X30594044Y-76714008D01*
X30570997Y-76728600D01*
X30555059Y-76733002D01*
X30543291Y-76729684D01*
X30535576Y-76723745D01*
X30527439Y-76714352D01*
X30525105Y-76702833D01*
X30530961Y-76686368D01*
X30547392Y-76662135D01*
X30576786Y-76627314D01*
X30621528Y-76579085D01*
X30684004Y-76514626D01*
X30766602Y-76431117D01*
X30871706Y-76325737D01*
X30875478Y-76321962D01*
X31247705Y-75949432D01*
X31190669Y-75806505D01*
X31158711Y-75733645D01*
X31131035Y-75684581D01*
X31110315Y-75663937D01*
X31108023Y-75663577D01*
X31083232Y-75669812D01*
X31032365Y-75686959D01*
X30961937Y-75712682D01*
X30878464Y-75744643D01*
X30842003Y-75759000D01*
X30699138Y-75815465D01*
X30562877Y-75868865D01*
X30436911Y-75917792D01*
X30324930Y-75960837D01*
X30230624Y-75996590D01*
X30157684Y-76023642D01*
X30109801Y-76040584D01*
X30090664Y-76046008D01*
X30090501Y-76045926D01*
X30083261Y-76027943D01*
X30075709Y-76004760D01*
X30074473Y-75993430D01*
X30080205Y-75981885D01*
X30096252Y-75968544D01*
X30125962Y-75951825D01*
X30172682Y-75930148D01*
X30239759Y-75901932D01*
X30330542Y-75865595D01*
X30448377Y-75819557D01*
X30555950Y-75777931D01*
X30680527Y-75729661D01*
X30794953Y-75685009D01*
X30894966Y-75645664D01*
X30976306Y-75613312D01*
X31034711Y-75589643D01*
X31065920Y-75576342D01*
X31069499Y-75574532D01*
X31077592Y-75558872D01*
X31072450Y-75525874D01*
X31052825Y-75470007D01*
X31037275Y-75431971D01*
X30983092Y-75302981D01*
X30458132Y-75294186D01*
X29933171Y-75285391D01*
X29927550Y-75245814D01*
X29921930Y-75206236D01*
X30942075Y-75206236D01*
X30810376Y-74885218D01*
X30760900Y-74764706D01*
X30707677Y-74635208D01*
X30655303Y-74507901D01*
X30608376Y-74393961D01*
X30580649Y-74326735D01*
X30539528Y-74226988D01*
X30497404Y-74124581D01*
X30458881Y-74030720D01*
X30428564Y-73956613D01*
X30425276Y-73948549D01*
X30368807Y-73810017D01*
X30323545Y-73699089D01*
X30287440Y-73610779D01*
X30258445Y-73540104D01*
X30234512Y-73482079D01*
X30213592Y-73431720D01*
X30193638Y-73384043D01*
X30179524Y-73350488D01*
X30158473Y-73300084D01*
X30126170Y-73222171D01*
X30084697Y-73121797D01*
X30036134Y-73004010D01*
X29982563Y-72873855D01*
X29926067Y-72736381D01*
X29889335Y-72646887D01*
X29812207Y-72458893D01*
X30754708Y-72458893D01*
X30763259Y-72557064D01*
X30774927Y-72615879D01*
X30815781Y-72736954D01*
X30879808Y-72875467D01*
X30964003Y-73025352D01*
X31026284Y-73123244D01*
X31069543Y-73185119D01*
X31123254Y-73257160D01*
X31183232Y-73334297D01*
X31245295Y-73411460D01*
X31305261Y-73483580D01*
X31358947Y-73545588D01*
X31402170Y-73592413D01*
X31430747Y-73618987D01*
X31438726Y-73623134D01*
X31443734Y-73606334D01*
X31448047Y-73559087D01*
X31451451Y-73486123D01*
X31453737Y-73392172D01*
X31454693Y-73281964D01*
X31454709Y-73265301D01*
X31454709Y-72907469D01*
X31202313Y-72487829D01*
X31135920Y-72378302D01*
X31074730Y-72278991D01*
X31021238Y-72193817D01*
X30977940Y-72126702D01*
X30947332Y-72081567D01*
X30931911Y-72062333D01*
X30931250Y-72061967D01*
X30906864Y-72070117D01*
X30871474Y-72100180D01*
X30832724Y-72144237D01*
X30798259Y-72194369D01*
X30791095Y-72207137D01*
X30769080Y-72272440D01*
X30756800Y-72360189D01*
X30754708Y-72458893D01*
X29812207Y-72458893D01*
X29809942Y-72453371D01*
X29742667Y-72289436D01*
G37*
%TO.C,R6*%
X192910000Y-74227068D02*
X192910000Y-72772940D01*
X191090000Y-74227068D02*
X191090000Y-72772940D01*
%TO.C,D1*%
X20400000Y-131700008D02*
X23600000Y-131700008D01*
X20400000Y-128100008D02*
X20400000Y-131700008D01*
X23600000Y-128100008D02*
X23600000Y-131700008D01*
%TO.C,D16*%
X97600000Y-142100009D02*
X97600000Y-145700009D01*
X94400000Y-145700009D02*
X97600000Y-145700009D01*
X94400000Y-142100009D02*
X94400000Y-145700009D01*
%TO.C,R4*%
X299660000Y-46227066D02*
X299660000Y-44772938D01*
X297840000Y-46227066D02*
X297840000Y-44772938D01*
%TO.C,D15*%
X290000000Y-44100002D02*
X290000000Y-47700002D01*
X286800000Y-44100002D02*
X286800000Y-47700002D01*
X286800000Y-47700002D02*
X290000000Y-47700002D01*
%TO.C,D9*%
X257200000Y-72100004D02*
X257200000Y-75700004D01*
X260400000Y-72100004D02*
X260400000Y-75700004D01*
X257200000Y-75700004D02*
X260400000Y-75700004D01*
%TO.C,D20*%
X212800000Y-86100005D02*
X212800000Y-89700005D01*
X212800000Y-89700005D02*
X216000000Y-89700005D01*
X216000000Y-86100005D02*
X216000000Y-89700005D01*
%TO.C,D10*%
X64800000Y-159700010D02*
X68000000Y-159700010D01*
X68000000Y-156100010D02*
X68000000Y-159700010D01*
X64800000Y-156100010D02*
X64800000Y-159700010D01*
%TO.C,D21*%
X316400000Y-117700007D02*
X319600000Y-117700007D01*
X316400000Y-114100007D02*
X316400000Y-117700007D01*
X319600000Y-114100007D02*
X319600000Y-117700007D01*
%TO.C,D12*%
X272000000Y-58100003D02*
X272000000Y-61700003D01*
X275200000Y-58100003D02*
X275200000Y-61700003D01*
X272000000Y-61700003D02*
X275200000Y-61700003D01*
%TO.C,D21*%
X316400000Y-86100005D02*
X316400000Y-89700005D01*
X316400000Y-89700005D02*
X319600000Y-89700005D01*
X319600000Y-86100005D02*
X319600000Y-89700005D01*
%TO.C,R5*%
X87340000Y-46227066D02*
X87340000Y-44772938D01*
X89160000Y-46227066D02*
X89160000Y-44772938D01*
%TO.C,D7*%
X50000000Y-100100006D02*
X50000000Y-103700006D01*
X53200000Y-100100006D02*
X53200000Y-103700006D01*
X50000000Y-103700006D02*
X53200000Y-103700006D01*
%TO.C,D5*%
X138800000Y-145700009D02*
X142000000Y-145700009D01*
X138800000Y-142100009D02*
X138800000Y-145700009D01*
X142000000Y-142100009D02*
X142000000Y-145700009D01*
%TO.C,D3*%
X227600000Y-103700006D02*
X230800000Y-103700006D01*
X227600000Y-100100006D02*
X227600000Y-103700006D01*
X230800000Y-100100006D02*
X230800000Y-103700006D01*
%TO.C,R5*%
X89160000Y-32227065D02*
X89160000Y-30772937D01*
X87340000Y-32227065D02*
X87340000Y-30772937D01*
%TO.C,R4*%
X299660000Y-130227072D02*
X299660000Y-128772944D01*
X297840000Y-130227072D02*
X297840000Y-128772944D01*
%TO.C,D17*%
X198000000Y-89700005D02*
X201200000Y-89700005D01*
X201200000Y-86100005D02*
X201200000Y-89700005D01*
X198000000Y-86100005D02*
X198000000Y-89700005D01*
%TO.C,R6*%
X191090000Y-116227071D02*
X191090000Y-114772943D01*
X192910000Y-116227071D02*
X192910000Y-114772943D01*
%TO.C,D5*%
X142000000Y-114100007D02*
X142000000Y-117700007D01*
X138800000Y-117700007D02*
X142000000Y-117700007D01*
X138800000Y-114100007D02*
X138800000Y-117700007D01*
%TO.C,D17*%
X201200000Y-72100004D02*
X201200000Y-75700004D01*
X198000000Y-72100004D02*
X198000000Y-75700004D01*
X198000000Y-75700004D02*
X201200000Y-75700004D01*
%TO.C,D11*%
X168400000Y-44100002D02*
X168400000Y-47700002D01*
X168400000Y-47700002D02*
X171600000Y-47700002D01*
X171600000Y-44100002D02*
X171600000Y-47700002D01*
%TO.C,D6*%
X242400000Y-128100008D02*
X242400000Y-131700008D01*
X242400000Y-131700008D02*
X245600000Y-131700008D01*
X245600000Y-128100008D02*
X245600000Y-131700008D01*
%TO.C,D16*%
X94400000Y-114100007D02*
X94400000Y-117700007D01*
X94400000Y-117700007D02*
X97600000Y-117700007D01*
X97600000Y-114100007D02*
X97600000Y-117700007D01*
%TO.C,D15*%
X286800000Y-33700001D02*
X290000000Y-33700001D01*
X290000000Y-30100001D02*
X290000000Y-33700001D01*
X286800000Y-30100001D02*
X286800000Y-33700001D01*
%TO.C,D14*%
X183200000Y-89700005D02*
X186400000Y-89700005D01*
X186400000Y-86100005D02*
X186400000Y-89700005D01*
X183200000Y-86100005D02*
X183200000Y-89700005D01*
%TO.C,D19*%
X109200000Y-47700002D02*
X112400000Y-47700002D01*
X112400000Y-44100002D02*
X112400000Y-47700002D01*
X109200000Y-44100002D02*
X109200000Y-47700002D01*
%TO.C,D13*%
X82800000Y-72100004D02*
X82800000Y-75700004D01*
X79600000Y-72100004D02*
X79600000Y-75700004D01*
X79600000Y-75700004D02*
X82800000Y-75700004D01*
%TO.C,D15*%
X290000000Y-142100009D02*
X290000000Y-145700009D01*
X286800000Y-145700009D02*
X290000000Y-145700009D01*
X286800000Y-142100009D02*
X286800000Y-145700009D01*
%TO.C,D16*%
X94400000Y-131700008D02*
X97600000Y-131700008D01*
X94400000Y-128100008D02*
X94400000Y-131700008D01*
X97600000Y-128100008D02*
X97600000Y-131700008D01*
%TO.C,D19*%
X112400000Y-156100010D02*
X112400000Y-159700010D01*
X109200000Y-159700010D02*
X112400000Y-159700010D01*
X109200000Y-156100010D02*
X109200000Y-159700010D01*
%TO.C,R1*%
X40590000Y-144227073D02*
X40590000Y-142772945D01*
X42410000Y-144227073D02*
X42410000Y-142772945D01*
%TO.C,D2*%
X124000000Y-145700009D02*
X127200000Y-145700009D01*
X124000000Y-142100009D02*
X124000000Y-145700009D01*
X127200000Y-142100009D02*
X127200000Y-145700009D01*
%TO.C,D3*%
X227600000Y-86100005D02*
X227600000Y-89700005D01*
X230800000Y-86100005D02*
X230800000Y-89700005D01*
X227600000Y-89700005D02*
X230800000Y-89700005D01*
%TO.C,D17*%
X198000000Y-47700002D02*
X201200000Y-47700002D01*
X201200000Y-44100002D02*
X201200000Y-47700002D01*
X198000000Y-44100002D02*
X198000000Y-47700002D01*
%TO.C,D4*%
X35200000Y-100100006D02*
X35200000Y-103700006D01*
X38400000Y-100100006D02*
X38400000Y-103700006D01*
X35200000Y-103700006D02*
X38400000Y-103700006D01*
%TO.C,D8*%
X153600000Y-47700002D02*
X156800000Y-47700002D01*
X156800000Y-44100002D02*
X156800000Y-47700002D01*
X153600000Y-44100002D02*
X153600000Y-47700002D01*
%TO.C,D17*%
X198000000Y-159700010D02*
X201200000Y-159700010D01*
X198000000Y-156100010D02*
X198000000Y-159700010D01*
X201200000Y-156100010D02*
X201200000Y-159700010D01*
%TO.C,D10*%
X64800000Y-100100006D02*
X64800000Y-103700006D01*
X64800000Y-103700006D02*
X68000000Y-103700006D01*
X68000000Y-100100006D02*
X68000000Y-103700006D01*
%TO.C,D15*%
X286800000Y-159700010D02*
X290000000Y-159700010D01*
X290000000Y-156100010D02*
X290000000Y-159700010D01*
X286800000Y-156100010D02*
X286800000Y-159700010D01*
%TO.C,D21*%
X316400000Y-44100002D02*
X316400000Y-47700002D01*
X319600000Y-44100002D02*
X319600000Y-47700002D01*
X316400000Y-47700002D02*
X319600000Y-47700002D01*
%TO.C,G\u002A\u002A\u002A*%
G36*
X29742667Y-156289442D02*
G01*
X29686289Y-156152118D01*
X29639584Y-156038434D01*
X29601332Y-155945419D01*
X29570310Y-155870103D01*
X29545295Y-155809514D01*
X29525067Y-155760682D01*
X29508402Y-155720635D01*
X29502216Y-155705827D01*
X29483761Y-155661558D01*
X29461499Y-155607864D01*
X29434211Y-155541773D01*
X29400672Y-155460314D01*
X29359664Y-155360514D01*
X29309963Y-155239401D01*
X29250348Y-155094002D01*
X29179598Y-154921347D01*
X29115455Y-154764760D01*
X29059209Y-154627623D01*
X29005363Y-154496685D01*
X28955831Y-154376576D01*
X28912527Y-154271925D01*
X28877367Y-154187359D01*
X28852263Y-154127508D01*
X28841737Y-154102885D01*
X28813199Y-154035672D01*
X28786341Y-153969542D01*
X28773330Y-153935779D01*
X28754009Y-153885907D01*
X28726440Y-153817488D01*
X28707820Y-153772448D01*
X29100759Y-153772448D01*
X29105338Y-153792527D01*
X29121360Y-153840191D01*
X29146987Y-153910447D01*
X29180382Y-153998302D01*
X29219708Y-154098763D01*
X29234290Y-154135370D01*
X29276237Y-154240361D01*
X29314174Y-154335586D01*
X29345992Y-154415737D01*
X29369586Y-154475504D01*
X29382849Y-154509578D01*
X29384537Y-154514102D01*
X29401719Y-154540050D01*
X29412569Y-154544885D01*
X29429258Y-154532282D01*
X29464732Y-154497386D01*
X29514824Y-154444564D01*
X29575367Y-154378183D01*
X29624990Y-154322280D01*
X29688597Y-154248033D01*
X29741767Y-154182502D01*
X29781000Y-154130295D01*
X29802792Y-154096020D01*
X29805505Y-154084767D01*
X29782974Y-154070660D01*
X29735371Y-154046251D01*
X29668290Y-154014020D01*
X29587322Y-153976446D01*
X29498061Y-153936006D01*
X29406099Y-153895179D01*
X29317029Y-153856444D01*
X29236444Y-153822279D01*
X29169937Y-153795163D01*
X29123100Y-153777574D01*
X29101526Y-153771991D01*
X29100759Y-153772448D01*
X28707820Y-153772448D01*
X28696194Y-153744326D01*
X28692591Y-153735744D01*
X28647353Y-153627533D01*
X28601907Y-153517609D01*
X28558198Y-153410809D01*
X28518172Y-153311968D01*
X28483774Y-153225923D01*
X28456951Y-153157509D01*
X28439649Y-153111563D01*
X28433813Y-153092921D01*
X28433881Y-153092766D01*
X28450621Y-153097836D01*
X28490458Y-153114355D01*
X28543559Y-153138195D01*
X28595668Y-153162052D01*
X28671846Y-153196633D01*
X28764050Y-153238300D01*
X28864233Y-153283414D01*
X28930540Y-153313186D01*
X29028072Y-153356975D01*
X29119557Y-153398145D01*
X29198003Y-153433541D01*
X29256419Y-153460011D01*
X29282340Y-153471860D01*
X29320260Y-153489376D01*
X29383780Y-153518741D01*
X29466570Y-153557027D01*
X29562302Y-153601307D01*
X29664648Y-153648655D01*
X29669321Y-153650817D01*
X29985941Y-153797309D01*
X31441516Y-153802004D01*
X32897091Y-153806700D01*
X32897091Y-161070785D01*
X31920474Y-161070785D01*
X31691989Y-160767568D01*
X31603896Y-160648864D01*
X31533854Y-160549225D01*
X31477352Y-160460726D01*
X31429876Y-160375440D01*
X31386915Y-160285441D01*
X31343958Y-160182803D01*
X31311377Y-160098936D01*
X31294755Y-160064461D01*
X31281320Y-160050564D01*
X31266360Y-160062528D01*
X31229883Y-160096318D01*
X31175143Y-160148782D01*
X31105395Y-160216765D01*
X31023895Y-160297115D01*
X30933896Y-160386677D01*
X30918792Y-160401784D01*
X30816110Y-160504365D01*
X30735233Y-160584409D01*
X30673223Y-160644385D01*
X30627140Y-160686764D01*
X30594044Y-160714014D01*
X30570997Y-160728606D01*
X30555059Y-160733008D01*
X30543291Y-160729690D01*
X30535576Y-160723751D01*
X30527439Y-160714358D01*
X30525105Y-160702839D01*
X30530961Y-160686374D01*
X30547392Y-160662141D01*
X30576786Y-160627320D01*
X30621528Y-160579091D01*
X30684004Y-160514632D01*
X30766602Y-160431123D01*
X30871706Y-160325743D01*
X30875478Y-160321968D01*
X31247705Y-159949438D01*
X31190669Y-159806511D01*
X31158711Y-159733651D01*
X31131035Y-159684587D01*
X31110315Y-159663943D01*
X31108023Y-159663583D01*
X31083232Y-159669818D01*
X31032365Y-159686965D01*
X30961937Y-159712688D01*
X30878464Y-159744649D01*
X30842003Y-159759006D01*
X30699138Y-159815471D01*
X30562877Y-159868871D01*
X30436911Y-159917798D01*
X30324930Y-159960843D01*
X30230624Y-159996596D01*
X30157684Y-160023648D01*
X30109801Y-160040590D01*
X30090664Y-160046014D01*
X30090501Y-160045932D01*
X30083261Y-160027949D01*
X30075709Y-160004766D01*
X30074473Y-159993436D01*
X30080205Y-159981891D01*
X30096252Y-159968550D01*
X30125962Y-159951831D01*
X30172682Y-159930154D01*
X30239759Y-159901938D01*
X30330542Y-159865601D01*
X30448377Y-159819563D01*
X30555950Y-159777937D01*
X30680527Y-159729667D01*
X30794953Y-159685015D01*
X30894966Y-159645670D01*
X30976306Y-159613318D01*
X31034711Y-159589649D01*
X31065920Y-159576348D01*
X31069499Y-159574538D01*
X31077592Y-159558878D01*
X31072450Y-159525880D01*
X31052825Y-159470013D01*
X31037275Y-159431977D01*
X30983092Y-159302987D01*
X30458132Y-159294192D01*
X29933171Y-159285397D01*
X29927550Y-159245820D01*
X29921930Y-159206242D01*
X30942075Y-159206242D01*
X30810376Y-158885224D01*
X30760900Y-158764712D01*
X30707677Y-158635214D01*
X30655303Y-158507907D01*
X30608376Y-158393967D01*
X30580649Y-158326741D01*
X30539528Y-158226994D01*
X30497404Y-158124587D01*
X30458881Y-158030726D01*
X30428564Y-157956619D01*
X30425276Y-157948555D01*
X30368807Y-157810023D01*
X30323545Y-157699095D01*
X30287440Y-157610785D01*
X30258445Y-157540110D01*
X30234512Y-157482085D01*
X30213592Y-157431726D01*
X30193638Y-157384049D01*
X30179524Y-157350494D01*
X30158473Y-157300090D01*
X30126170Y-157222177D01*
X30084697Y-157121803D01*
X30036134Y-157004016D01*
X29982563Y-156873861D01*
X29926067Y-156736387D01*
X29889335Y-156646893D01*
X29812207Y-156458899D01*
X30754708Y-156458899D01*
X30763259Y-156557070D01*
X30774927Y-156615885D01*
X30815781Y-156736960D01*
X30879808Y-156875473D01*
X30964003Y-157025358D01*
X31026284Y-157123250D01*
X31069543Y-157185125D01*
X31123254Y-157257166D01*
X31183232Y-157334303D01*
X31245295Y-157411466D01*
X31305261Y-157483586D01*
X31358947Y-157545594D01*
X31402170Y-157592419D01*
X31430747Y-157618993D01*
X31438726Y-157623140D01*
X31443734Y-157606340D01*
X31448047Y-157559093D01*
X31451451Y-157486129D01*
X31453737Y-157392178D01*
X31454693Y-157281970D01*
X31454709Y-157265307D01*
X31454709Y-156907475D01*
X31202313Y-156487835D01*
X31135920Y-156378308D01*
X31074730Y-156278997D01*
X31021238Y-156193823D01*
X30977940Y-156126708D01*
X30947332Y-156081573D01*
X30931911Y-156062339D01*
X30931250Y-156061973D01*
X30906864Y-156070123D01*
X30871474Y-156100186D01*
X30832724Y-156144243D01*
X30798259Y-156194375D01*
X30791095Y-156207143D01*
X30769080Y-156272446D01*
X30756800Y-156360195D01*
X30754708Y-156458899D01*
X29812207Y-156458899D01*
X29809942Y-156453377D01*
X29742667Y-156289442D01*
G37*
G36*
X32897091Y-161879926D02*
G01*
X32533798Y-161879926D01*
X32302079Y-161572843D01*
X32234433Y-161482779D01*
X32174571Y-161402280D01*
X32125545Y-161335516D01*
X32090408Y-161286661D01*
X32072214Y-161259885D01*
X32070360Y-161256222D01*
X32087140Y-161253537D01*
X32134242Y-161251145D01*
X32206808Y-161249157D01*
X32299980Y-161247686D01*
X32408900Y-161246843D01*
X32483725Y-161246685D01*
X32897091Y-161246685D01*
X32897091Y-161879926D01*
G37*
%TO.C,D18*%
X304800000Y-30100001D02*
X304800000Y-33700001D01*
X301600000Y-33700001D02*
X304800000Y-33700001D01*
X301600000Y-30100001D02*
X301600000Y-33700001D01*
%TO.C,D1*%
X23600000Y-100100006D02*
X23600000Y-103700006D01*
X20400000Y-100100006D02*
X20400000Y-103700006D01*
X20400000Y-103700006D02*
X23600000Y-103700006D01*
%TO.C,D12*%
X272000000Y-103700006D02*
X275200000Y-103700006D01*
X275200000Y-100100006D02*
X275200000Y-103700006D01*
X272000000Y-100100006D02*
X272000000Y-103700006D01*
%TO.C,D19*%
X112400000Y-30100001D02*
X112400000Y-33700001D01*
X109200000Y-33700001D02*
X112400000Y-33700001D01*
X109200000Y-30100001D02*
X109200000Y-33700001D01*
%TO.C,D14*%
X183200000Y-128100008D02*
X183200000Y-131700008D01*
X183200000Y-131700008D02*
X186400000Y-131700008D01*
X186400000Y-128100008D02*
X186400000Y-131700008D01*
%TO.C,D13*%
X79600000Y-114100007D02*
X79600000Y-117700007D01*
X82800000Y-114100007D02*
X82800000Y-117700007D01*
X79600000Y-117700007D02*
X82800000Y-117700007D01*
%TO.C,R6*%
X192910000Y-88227069D02*
X192910000Y-86772941D01*
X191090000Y-88227069D02*
X191090000Y-86772941D01*
%TO.C,D4*%
X35200000Y-128100008D02*
X35200000Y-131700008D01*
X38400000Y-128100008D02*
X38400000Y-131700008D01*
X35200000Y-131700008D02*
X38400000Y-131700008D01*
%TO.C,G\u002A\u002A\u002A*%
G36*
X310073933Y-44736379D02*
G01*
X310017437Y-44873853D01*
X309963866Y-45004008D01*
X309915303Y-45121795D01*
X309873830Y-45222169D01*
X309841527Y-45300082D01*
X309820476Y-45350486D01*
X309806362Y-45384041D01*
X309786408Y-45431718D01*
X309765488Y-45482077D01*
X309741555Y-45540102D01*
X309712560Y-45610777D01*
X309676455Y-45699087D01*
X309631193Y-45810015D01*
X309574724Y-45948547D01*
X309571436Y-45956611D01*
X309541119Y-46030718D01*
X309502596Y-46124579D01*
X309460472Y-46226986D01*
X309419351Y-46326733D01*
X309391624Y-46393959D01*
X309344697Y-46507899D01*
X309292323Y-46635206D01*
X309239100Y-46764704D01*
X309189624Y-46885216D01*
X309057925Y-47206234D01*
X310078070Y-47206234D01*
X310072450Y-47245812D01*
X310066829Y-47285389D01*
X309541868Y-47294184D01*
X309016908Y-47302979D01*
X308962725Y-47431969D01*
X308947175Y-47470005D01*
X308927550Y-47525872D01*
X308922408Y-47558870D01*
X308930501Y-47574530D01*
X308934080Y-47576340D01*
X308965289Y-47589641D01*
X309023694Y-47613310D01*
X309105034Y-47645662D01*
X309205047Y-47685007D01*
X309319473Y-47729659D01*
X309444050Y-47777929D01*
X309551623Y-47819555D01*
X309669458Y-47865593D01*
X309760241Y-47901930D01*
X309827318Y-47930146D01*
X309874038Y-47951823D01*
X309903748Y-47968542D01*
X309919795Y-47981883D01*
X309925527Y-47993428D01*
X309924291Y-48004758D01*
X309916739Y-48027941D01*
X309909499Y-48045924D01*
X309909336Y-48046006D01*
X309890199Y-48040582D01*
X309842316Y-48023640D01*
X309769376Y-47996588D01*
X309675070Y-47960835D01*
X309563089Y-47917790D01*
X309437123Y-47868863D01*
X309300862Y-47815463D01*
X309157997Y-47758998D01*
X309121536Y-47744641D01*
X309038063Y-47712680D01*
X308967635Y-47686957D01*
X308916768Y-47669810D01*
X308891977Y-47663575D01*
X308889685Y-47663935D01*
X308868965Y-47684579D01*
X308841289Y-47733643D01*
X308809331Y-47806503D01*
X308752295Y-47949430D01*
X309124522Y-48321960D01*
X309128294Y-48325735D01*
X309233398Y-48431115D01*
X309315996Y-48514624D01*
X309378472Y-48579083D01*
X309423214Y-48627312D01*
X309452608Y-48662133D01*
X309469039Y-48686366D01*
X309474895Y-48702831D01*
X309472561Y-48714350D01*
X309464424Y-48723743D01*
X309456709Y-48729682D01*
X309444941Y-48733000D01*
X309429003Y-48728598D01*
X309405956Y-48714006D01*
X309372860Y-48686756D01*
X309326777Y-48644377D01*
X309264767Y-48584401D01*
X309183890Y-48504357D01*
X309081208Y-48401776D01*
X309066104Y-48386669D01*
X308976105Y-48297107D01*
X308894605Y-48216757D01*
X308824857Y-48148774D01*
X308770117Y-48096310D01*
X308733640Y-48062520D01*
X308718680Y-48050556D01*
X308705245Y-48064453D01*
X308688623Y-48098928D01*
X308656042Y-48182795D01*
X308613085Y-48285433D01*
X308570124Y-48375432D01*
X308522648Y-48460718D01*
X308466146Y-48549217D01*
X308396104Y-48648856D01*
X308308011Y-48767560D01*
X308079526Y-49070777D01*
X307102909Y-49070777D01*
X307102909Y-45265299D01*
X308545291Y-45265299D01*
X308545307Y-45281962D01*
X308546263Y-45392170D01*
X308548549Y-45486121D01*
X308551953Y-45559085D01*
X308556266Y-45606332D01*
X308561274Y-45623132D01*
X308569253Y-45618985D01*
X308597830Y-45592411D01*
X308641053Y-45545586D01*
X308694739Y-45483578D01*
X308754705Y-45411458D01*
X308816768Y-45334295D01*
X308876746Y-45257158D01*
X308930457Y-45185117D01*
X308973716Y-45123242D01*
X309035997Y-45025350D01*
X309120192Y-44875465D01*
X309184219Y-44736952D01*
X309225073Y-44615877D01*
X309236741Y-44557062D01*
X309245292Y-44458891D01*
X309243200Y-44360187D01*
X309230920Y-44272438D01*
X309208905Y-44207135D01*
X309201741Y-44194367D01*
X309167276Y-44144235D01*
X309128526Y-44100178D01*
X309093136Y-44070115D01*
X309068750Y-44061965D01*
X309068089Y-44062331D01*
X309052668Y-44081565D01*
X309022060Y-44126700D01*
X308978762Y-44193815D01*
X308925270Y-44278989D01*
X308864080Y-44378300D01*
X308797687Y-44487827D01*
X308545291Y-44907467D01*
X308545291Y-45265299D01*
X307102909Y-45265299D01*
X307102909Y-42084759D01*
X310194495Y-42084759D01*
X310197208Y-42096012D01*
X310219000Y-42130287D01*
X310258233Y-42182494D01*
X310311403Y-42248025D01*
X310375010Y-42322272D01*
X310424633Y-42378175D01*
X310485176Y-42444556D01*
X310535268Y-42497378D01*
X310570742Y-42532274D01*
X310587431Y-42544877D01*
X310598281Y-42540042D01*
X310615463Y-42514094D01*
X310617151Y-42509570D01*
X310630414Y-42475496D01*
X310654008Y-42415729D01*
X310685826Y-42335578D01*
X310723763Y-42240353D01*
X310765710Y-42135362D01*
X310780292Y-42098755D01*
X310819618Y-41998294D01*
X310853013Y-41910439D01*
X310878640Y-41840183D01*
X310894662Y-41792519D01*
X310899241Y-41772440D01*
X310898474Y-41771983D01*
X310876900Y-41777566D01*
X310830063Y-41795155D01*
X310763556Y-41822271D01*
X310682971Y-41856436D01*
X310593901Y-41895171D01*
X310501939Y-41935998D01*
X310412678Y-41976438D01*
X310331710Y-42014012D01*
X310264629Y-42046243D01*
X310217026Y-42070652D01*
X310194495Y-42084759D01*
X307102909Y-42084759D01*
X307102909Y-41806692D01*
X308558484Y-41801996D01*
X310014059Y-41797301D01*
X310330679Y-41650809D01*
X310335352Y-41648647D01*
X310437698Y-41601299D01*
X310533430Y-41557019D01*
X310616220Y-41518733D01*
X310679740Y-41489368D01*
X310717660Y-41471852D01*
X310743581Y-41460003D01*
X310801997Y-41433533D01*
X310880443Y-41398137D01*
X310971928Y-41356967D01*
X311069460Y-41313178D01*
X311135767Y-41283406D01*
X311235950Y-41238292D01*
X311328154Y-41196625D01*
X311404332Y-41162044D01*
X311456441Y-41138187D01*
X311509542Y-41114347D01*
X311549379Y-41097828D01*
X311566119Y-41092758D01*
X311566187Y-41092913D01*
X311560351Y-41111555D01*
X311543049Y-41157501D01*
X311516226Y-41225915D01*
X311481828Y-41311960D01*
X311441802Y-41410801D01*
X311398093Y-41517601D01*
X311352647Y-41627525D01*
X311307409Y-41735736D01*
X311303806Y-41744318D01*
X311292180Y-41772440D01*
X311273560Y-41817480D01*
X311245991Y-41885899D01*
X311226670Y-41935771D01*
X311213659Y-41969534D01*
X311186801Y-42035664D01*
X311158263Y-42102877D01*
X311147737Y-42127500D01*
X311122633Y-42187351D01*
X311087473Y-42271917D01*
X311044169Y-42376568D01*
X310994637Y-42496677D01*
X310940791Y-42627615D01*
X310884545Y-42764752D01*
X310820402Y-42921339D01*
X310749652Y-43093994D01*
X310690037Y-43239393D01*
X310640336Y-43360506D01*
X310599328Y-43460306D01*
X310565789Y-43541765D01*
X310538501Y-43607856D01*
X310516239Y-43661550D01*
X310497784Y-43705819D01*
X310491598Y-43720627D01*
X310474933Y-43760674D01*
X310454705Y-43809506D01*
X310429690Y-43870095D01*
X310398668Y-43945411D01*
X310360416Y-44038426D01*
X310313711Y-44152110D01*
X310257333Y-44289434D01*
X310190058Y-44453369D01*
X310187793Y-44458891D01*
X310110665Y-44646885D01*
X310073933Y-44736379D01*
G37*
G36*
X307591100Y-49246835D02*
G01*
X307700020Y-49247678D01*
X307793192Y-49249149D01*
X307865758Y-49251137D01*
X307912860Y-49253529D01*
X307929640Y-49256214D01*
X307927786Y-49259877D01*
X307909592Y-49286653D01*
X307874455Y-49335508D01*
X307825429Y-49402272D01*
X307765567Y-49482771D01*
X307697921Y-49572835D01*
X307466202Y-49879918D01*
X307102909Y-49879918D01*
X307102909Y-49246677D01*
X307516275Y-49246677D01*
X307591100Y-49246835D01*
G37*
G36*
X310073933Y-72736381D02*
G01*
X310017437Y-72873855D01*
X309963866Y-73004010D01*
X309915303Y-73121797D01*
X309873830Y-73222171D01*
X309841527Y-73300084D01*
X309820476Y-73350488D01*
X309806362Y-73384043D01*
X309786408Y-73431720D01*
X309765488Y-73482079D01*
X309741555Y-73540104D01*
X309712560Y-73610779D01*
X309676455Y-73699089D01*
X309631193Y-73810017D01*
X309574724Y-73948549D01*
X309571436Y-73956613D01*
X309541119Y-74030720D01*
X309502596Y-74124581D01*
X309460472Y-74226988D01*
X309419351Y-74326735D01*
X309391624Y-74393961D01*
X309344697Y-74507901D01*
X309292323Y-74635208D01*
X309239100Y-74764706D01*
X309189624Y-74885218D01*
X309057925Y-75206236D01*
X310078070Y-75206236D01*
X310072450Y-75245814D01*
X310066829Y-75285391D01*
X309541868Y-75294186D01*
X309016908Y-75302981D01*
X308962725Y-75431971D01*
X308947175Y-75470007D01*
X308927550Y-75525874D01*
X308922408Y-75558872D01*
X308930501Y-75574532D01*
X308934080Y-75576342D01*
X308965289Y-75589643D01*
X309023694Y-75613312D01*
X309105034Y-75645664D01*
X309205047Y-75685009D01*
X309319473Y-75729661D01*
X309444050Y-75777931D01*
X309551623Y-75819557D01*
X309669458Y-75865595D01*
X309760241Y-75901932D01*
X309827318Y-75930148D01*
X309874038Y-75951825D01*
X309903748Y-75968544D01*
X309919795Y-75981885D01*
X309925527Y-75993430D01*
X309924291Y-76004760D01*
X309916739Y-76027943D01*
X309909499Y-76045926D01*
X309909336Y-76046008D01*
X309890199Y-76040584D01*
X309842316Y-76023642D01*
X309769376Y-75996590D01*
X309675070Y-75960837D01*
X309563089Y-75917792D01*
X309437123Y-75868865D01*
X309300862Y-75815465D01*
X309157997Y-75759000D01*
X309121536Y-75744643D01*
X309038063Y-75712682D01*
X308967635Y-75686959D01*
X308916768Y-75669812D01*
X308891977Y-75663577D01*
X308889685Y-75663937D01*
X308868965Y-75684581D01*
X308841289Y-75733645D01*
X308809331Y-75806505D01*
X308752295Y-75949432D01*
X309124522Y-76321962D01*
X309128294Y-76325737D01*
X309233398Y-76431117D01*
X309315996Y-76514626D01*
X309378472Y-76579085D01*
X309423214Y-76627314D01*
X309452608Y-76662135D01*
X309469039Y-76686368D01*
X309474895Y-76702833D01*
X309472561Y-76714352D01*
X309464424Y-76723745D01*
X309456709Y-76729684D01*
X309444941Y-76733002D01*
X309429003Y-76728600D01*
X309405956Y-76714008D01*
X309372860Y-76686758D01*
X309326777Y-76644379D01*
X309264767Y-76584403D01*
X309183890Y-76504359D01*
X309081208Y-76401778D01*
X309066104Y-76386671D01*
X308976105Y-76297109D01*
X308894605Y-76216759D01*
X308824857Y-76148776D01*
X308770117Y-76096312D01*
X308733640Y-76062522D01*
X308718680Y-76050558D01*
X308705245Y-76064455D01*
X308688623Y-76098930D01*
X308656042Y-76182797D01*
X308613085Y-76285435D01*
X308570124Y-76375434D01*
X308522648Y-76460720D01*
X308466146Y-76549219D01*
X308396104Y-76648858D01*
X308308011Y-76767562D01*
X308079526Y-77070779D01*
X307102909Y-77070779D01*
X307102909Y-73265301D01*
X308545291Y-73265301D01*
X308545307Y-73281964D01*
X308546263Y-73392172D01*
X308548549Y-73486123D01*
X308551953Y-73559087D01*
X308556266Y-73606334D01*
X308561274Y-73623134D01*
X308569253Y-73618987D01*
X308597830Y-73592413D01*
X308641053Y-73545588D01*
X308694739Y-73483580D01*
X308754705Y-73411460D01*
X308816768Y-73334297D01*
X308876746Y-73257160D01*
X308930457Y-73185119D01*
X308973716Y-73123244D01*
X309035997Y-73025352D01*
X309120192Y-72875467D01*
X309184219Y-72736954D01*
X309225073Y-72615879D01*
X309236741Y-72557064D01*
X309245292Y-72458893D01*
X309243200Y-72360189D01*
X309230920Y-72272440D01*
X309208905Y-72207137D01*
X309201741Y-72194369D01*
X309167276Y-72144237D01*
X309128526Y-72100180D01*
X309093136Y-72070117D01*
X309068750Y-72061967D01*
X309068089Y-72062333D01*
X309052668Y-72081567D01*
X309022060Y-72126702D01*
X308978762Y-72193817D01*
X308925270Y-72278991D01*
X308864080Y-72378302D01*
X308797687Y-72487829D01*
X308545291Y-72907469D01*
X308545291Y-73265301D01*
X307102909Y-73265301D01*
X307102909Y-70084761D01*
X310194495Y-70084761D01*
X310197208Y-70096014D01*
X310219000Y-70130289D01*
X310258233Y-70182496D01*
X310311403Y-70248027D01*
X310375010Y-70322274D01*
X310424633Y-70378177D01*
X310485176Y-70444558D01*
X310535268Y-70497380D01*
X310570742Y-70532276D01*
X310587431Y-70544879D01*
X310598281Y-70540044D01*
X310615463Y-70514096D01*
X310617151Y-70509572D01*
X310630414Y-70475498D01*
X310654008Y-70415731D01*
X310685826Y-70335580D01*
X310723763Y-70240355D01*
X310765710Y-70135364D01*
X310780292Y-70098757D01*
X310819618Y-69998296D01*
X310853013Y-69910441D01*
X310878640Y-69840185D01*
X310894662Y-69792521D01*
X310899241Y-69772442D01*
X310898474Y-69771985D01*
X310876900Y-69777568D01*
X310830063Y-69795157D01*
X310763556Y-69822273D01*
X310682971Y-69856438D01*
X310593901Y-69895173D01*
X310501939Y-69936000D01*
X310412678Y-69976440D01*
X310331710Y-70014014D01*
X310264629Y-70046245D01*
X310217026Y-70070654D01*
X310194495Y-70084761D01*
X307102909Y-70084761D01*
X307102909Y-69806694D01*
X308558484Y-69801998D01*
X310014059Y-69797303D01*
X310330679Y-69650811D01*
X310335352Y-69648649D01*
X310437698Y-69601301D01*
X310533430Y-69557021D01*
X310616220Y-69518735D01*
X310679740Y-69489370D01*
X310717660Y-69471854D01*
X310743581Y-69460005D01*
X310801997Y-69433535D01*
X310880443Y-69398139D01*
X310971928Y-69356969D01*
X311069460Y-69313180D01*
X311135767Y-69283408D01*
X311235950Y-69238294D01*
X311328154Y-69196627D01*
X311404332Y-69162046D01*
X311456441Y-69138189D01*
X311509542Y-69114349D01*
X311549379Y-69097830D01*
X311566119Y-69092760D01*
X311566187Y-69092915D01*
X311560351Y-69111557D01*
X311543049Y-69157503D01*
X311516226Y-69225917D01*
X311481828Y-69311962D01*
X311441802Y-69410803D01*
X311398093Y-69517603D01*
X311352647Y-69627527D01*
X311307409Y-69735738D01*
X311303806Y-69744320D01*
X311292180Y-69772442D01*
X311273560Y-69817482D01*
X311245991Y-69885901D01*
X311226670Y-69935773D01*
X311213659Y-69969536D01*
X311186801Y-70035666D01*
X311158263Y-70102879D01*
X311147737Y-70127502D01*
X311122633Y-70187353D01*
X311087473Y-70271919D01*
X311044169Y-70376570D01*
X310994637Y-70496679D01*
X310940791Y-70627617D01*
X310884545Y-70764754D01*
X310820402Y-70921341D01*
X310749652Y-71093996D01*
X310690037Y-71239395D01*
X310640336Y-71360508D01*
X310599328Y-71460308D01*
X310565789Y-71541767D01*
X310538501Y-71607858D01*
X310516239Y-71661552D01*
X310497784Y-71705821D01*
X310491598Y-71720629D01*
X310474933Y-71760676D01*
X310454705Y-71809508D01*
X310429690Y-71870097D01*
X310398668Y-71945413D01*
X310360416Y-72038428D01*
X310313711Y-72152112D01*
X310257333Y-72289436D01*
X310190058Y-72453371D01*
X310187793Y-72458893D01*
X310110665Y-72646887D01*
X310073933Y-72736381D01*
G37*
G36*
X307591100Y-77246837D02*
G01*
X307700020Y-77247680D01*
X307793192Y-77249151D01*
X307865758Y-77251139D01*
X307912860Y-77253531D01*
X307929640Y-77256216D01*
X307927786Y-77259879D01*
X307909592Y-77286655D01*
X307874455Y-77335510D01*
X307825429Y-77402274D01*
X307765567Y-77482773D01*
X307697921Y-77572837D01*
X307466202Y-77879920D01*
X307102909Y-77879920D01*
X307102909Y-77246679D01*
X307516275Y-77246679D01*
X307591100Y-77246837D01*
G37*
%TO.C,D6*%
X242400000Y-117700007D02*
X245600000Y-117700007D01*
X242400000Y-114100007D02*
X242400000Y-117700007D01*
X245600000Y-114100007D02*
X245600000Y-117700007D01*
%TO.C,D14*%
X183200000Y-44100002D02*
X183200000Y-47700002D01*
X183200000Y-47700002D02*
X186400000Y-47700002D01*
X186400000Y-44100002D02*
X186400000Y-47700002D01*
%TO.C,R4*%
X297840000Y-60227067D02*
X297840000Y-58772939D01*
X299660000Y-60227067D02*
X299660000Y-58772939D01*
%TO.C,R1*%
X40590000Y-88227069D02*
X40590000Y-86772941D01*
X42410000Y-88227069D02*
X42410000Y-86772941D01*
%TO.C,D14*%
X183200000Y-61700003D02*
X186400000Y-61700003D01*
X186400000Y-58100003D02*
X186400000Y-61700003D01*
X183200000Y-58100003D02*
X183200000Y-61700003D01*
%TO.C,D7*%
X53200000Y-30100001D02*
X53200000Y-33700001D01*
X50000000Y-30100001D02*
X50000000Y-33700001D01*
X50000000Y-33700001D02*
X53200000Y-33700001D01*
%TO.C,D6*%
X242400000Y-100100006D02*
X242400000Y-103700006D01*
X242400000Y-103700006D02*
X245600000Y-103700006D01*
X245600000Y-100100006D02*
X245600000Y-103700006D01*
%TO.C,R1*%
X42410000Y-102227070D02*
X42410000Y-100772942D01*
X40590000Y-102227070D02*
X40590000Y-100772942D01*
%TO.C,D18*%
X301600000Y-128100008D02*
X301600000Y-131700008D01*
X304800000Y-128100008D02*
X304800000Y-131700008D01*
X301600000Y-131700008D02*
X304800000Y-131700008D01*
%TO.C,D11*%
X168400000Y-142100009D02*
X168400000Y-145700009D01*
X168400000Y-145700009D02*
X171600000Y-145700009D01*
X171600000Y-142100009D02*
X171600000Y-145700009D01*
%TO.C,D9*%
X257200000Y-114100007D02*
X257200000Y-117700007D01*
X260400000Y-114100007D02*
X260400000Y-117700007D01*
X257200000Y-117700007D02*
X260400000Y-117700007D01*
%TO.C,R5*%
X89160000Y-158227074D02*
X89160000Y-156772946D01*
X87340000Y-158227074D02*
X87340000Y-156772946D01*
%TO.C,D16*%
X97600000Y-30100001D02*
X97600000Y-33700001D01*
X94400000Y-30100001D02*
X94400000Y-33700001D01*
X94400000Y-33700001D02*
X97600000Y-33700001D01*
%TO.C,R5*%
X87340000Y-116227071D02*
X87340000Y-114772943D01*
X89160000Y-116227071D02*
X89160000Y-114772943D01*
%TO.C,D9*%
X260400000Y-30100001D02*
X260400000Y-33700001D01*
X257200000Y-30100001D02*
X257200000Y-33700001D01*
X257200000Y-33700001D02*
X260400000Y-33700001D01*
%TO.C,D21*%
X316400000Y-145700009D02*
X319600000Y-145700009D01*
X319600000Y-142100009D02*
X319600000Y-145700009D01*
X316400000Y-142100009D02*
X316400000Y-145700009D01*
%TO.C,D13*%
X79600000Y-131700008D02*
X82800000Y-131700008D01*
X79600000Y-128100008D02*
X79600000Y-131700008D01*
X82800000Y-128100008D02*
X82800000Y-131700008D01*
%TO.C,G\u002A\u002A\u002A*%
G36*
X32897091Y-105879922D02*
G01*
X32533798Y-105879922D01*
X32302079Y-105572839D01*
X32234433Y-105482775D01*
X32174571Y-105402276D01*
X32125545Y-105335512D01*
X32090408Y-105286657D01*
X32072214Y-105259881D01*
X32070360Y-105256218D01*
X32087140Y-105253533D01*
X32134242Y-105251141D01*
X32206808Y-105249153D01*
X32299980Y-105247682D01*
X32408900Y-105246839D01*
X32483725Y-105246681D01*
X32897091Y-105246681D01*
X32897091Y-105879922D01*
G37*
G36*
X29742667Y-100289438D02*
G01*
X29686289Y-100152114D01*
X29639584Y-100038430D01*
X29601332Y-99945415D01*
X29570310Y-99870099D01*
X29545295Y-99809510D01*
X29525067Y-99760678D01*
X29508402Y-99720631D01*
X29502216Y-99705823D01*
X29483761Y-99661554D01*
X29461499Y-99607860D01*
X29434211Y-99541769D01*
X29400672Y-99460310D01*
X29359664Y-99360510D01*
X29309963Y-99239397D01*
X29250348Y-99093998D01*
X29179598Y-98921343D01*
X29115455Y-98764756D01*
X29059209Y-98627619D01*
X29005363Y-98496681D01*
X28955831Y-98376572D01*
X28912527Y-98271921D01*
X28877367Y-98187355D01*
X28852263Y-98127504D01*
X28841737Y-98102881D01*
X28813199Y-98035668D01*
X28786341Y-97969538D01*
X28773330Y-97935775D01*
X28754009Y-97885903D01*
X28726440Y-97817484D01*
X28707820Y-97772444D01*
X29100759Y-97772444D01*
X29105338Y-97792523D01*
X29121360Y-97840187D01*
X29146987Y-97910443D01*
X29180382Y-97998298D01*
X29219708Y-98098759D01*
X29234290Y-98135366D01*
X29276237Y-98240357D01*
X29314174Y-98335582D01*
X29345992Y-98415733D01*
X29369586Y-98475500D01*
X29382849Y-98509574D01*
X29384537Y-98514098D01*
X29401719Y-98540046D01*
X29412569Y-98544881D01*
X29429258Y-98532278D01*
X29464732Y-98497382D01*
X29514824Y-98444560D01*
X29575367Y-98378179D01*
X29624990Y-98322276D01*
X29688597Y-98248029D01*
X29741767Y-98182498D01*
X29781000Y-98130291D01*
X29802792Y-98096016D01*
X29805505Y-98084763D01*
X29782974Y-98070656D01*
X29735371Y-98046247D01*
X29668290Y-98014016D01*
X29587322Y-97976442D01*
X29498061Y-97936002D01*
X29406099Y-97895175D01*
X29317029Y-97856440D01*
X29236444Y-97822275D01*
X29169937Y-97795159D01*
X29123100Y-97777570D01*
X29101526Y-97771987D01*
X29100759Y-97772444D01*
X28707820Y-97772444D01*
X28696194Y-97744322D01*
X28692591Y-97735740D01*
X28647353Y-97627529D01*
X28601907Y-97517605D01*
X28558198Y-97410805D01*
X28518172Y-97311964D01*
X28483774Y-97225919D01*
X28456951Y-97157505D01*
X28439649Y-97111559D01*
X28433813Y-97092917D01*
X28433881Y-97092762D01*
X28450621Y-97097832D01*
X28490458Y-97114351D01*
X28543559Y-97138191D01*
X28595668Y-97162048D01*
X28671846Y-97196629D01*
X28764050Y-97238296D01*
X28864233Y-97283410D01*
X28930540Y-97313182D01*
X29028072Y-97356971D01*
X29119557Y-97398141D01*
X29198003Y-97433537D01*
X29256419Y-97460007D01*
X29282340Y-97471856D01*
X29320260Y-97489372D01*
X29383780Y-97518737D01*
X29466570Y-97557023D01*
X29562302Y-97601303D01*
X29664648Y-97648651D01*
X29669321Y-97650813D01*
X29985941Y-97797305D01*
X31441516Y-97802000D01*
X32897091Y-97806696D01*
X32897091Y-105070781D01*
X31920474Y-105070781D01*
X31691989Y-104767564D01*
X31603896Y-104648860D01*
X31533854Y-104549221D01*
X31477352Y-104460722D01*
X31429876Y-104375436D01*
X31386915Y-104285437D01*
X31343958Y-104182799D01*
X31311377Y-104098932D01*
X31294755Y-104064457D01*
X31281320Y-104050560D01*
X31266360Y-104062524D01*
X31229883Y-104096314D01*
X31175143Y-104148778D01*
X31105395Y-104216761D01*
X31023895Y-104297111D01*
X30933896Y-104386673D01*
X30918792Y-104401780D01*
X30816110Y-104504361D01*
X30735233Y-104584405D01*
X30673223Y-104644381D01*
X30627140Y-104686760D01*
X30594044Y-104714010D01*
X30570997Y-104728602D01*
X30555059Y-104733004D01*
X30543291Y-104729686D01*
X30535576Y-104723747D01*
X30527439Y-104714354D01*
X30525105Y-104702835D01*
X30530961Y-104686370D01*
X30547392Y-104662137D01*
X30576786Y-104627316D01*
X30621528Y-104579087D01*
X30684004Y-104514628D01*
X30766602Y-104431119D01*
X30871706Y-104325739D01*
X30875478Y-104321964D01*
X31247705Y-103949434D01*
X31190669Y-103806507D01*
X31158711Y-103733647D01*
X31131035Y-103684583D01*
X31110315Y-103663939D01*
X31108023Y-103663579D01*
X31083232Y-103669814D01*
X31032365Y-103686961D01*
X30961937Y-103712684D01*
X30878464Y-103744645D01*
X30842003Y-103759002D01*
X30699138Y-103815467D01*
X30562877Y-103868867D01*
X30436911Y-103917794D01*
X30324930Y-103960839D01*
X30230624Y-103996592D01*
X30157684Y-104023644D01*
X30109801Y-104040586D01*
X30090664Y-104046010D01*
X30090501Y-104045928D01*
X30083261Y-104027945D01*
X30075709Y-104004762D01*
X30074473Y-103993432D01*
X30080205Y-103981887D01*
X30096252Y-103968546D01*
X30125962Y-103951827D01*
X30172682Y-103930150D01*
X30239759Y-103901934D01*
X30330542Y-103865597D01*
X30448377Y-103819559D01*
X30555950Y-103777933D01*
X30680527Y-103729663D01*
X30794953Y-103685011D01*
X30894966Y-103645666D01*
X30976306Y-103613314D01*
X31034711Y-103589645D01*
X31065920Y-103576344D01*
X31069499Y-103574534D01*
X31077592Y-103558874D01*
X31072450Y-103525876D01*
X31052825Y-103470009D01*
X31037275Y-103431973D01*
X30983092Y-103302983D01*
X30458132Y-103294188D01*
X29933171Y-103285393D01*
X29927550Y-103245816D01*
X29921930Y-103206238D01*
X30942075Y-103206238D01*
X30810376Y-102885220D01*
X30760900Y-102764708D01*
X30707677Y-102635210D01*
X30655303Y-102507903D01*
X30608376Y-102393963D01*
X30580649Y-102326737D01*
X30539528Y-102226990D01*
X30497404Y-102124583D01*
X30458881Y-102030722D01*
X30428564Y-101956615D01*
X30425276Y-101948551D01*
X30368807Y-101810019D01*
X30323545Y-101699091D01*
X30287440Y-101610781D01*
X30258445Y-101540106D01*
X30234512Y-101482081D01*
X30213592Y-101431722D01*
X30193638Y-101384045D01*
X30179524Y-101350490D01*
X30158473Y-101300086D01*
X30126170Y-101222173D01*
X30084697Y-101121799D01*
X30036134Y-101004012D01*
X29982563Y-100873857D01*
X29926067Y-100736383D01*
X29889335Y-100646889D01*
X29812207Y-100458895D01*
X30754708Y-100458895D01*
X30763259Y-100557066D01*
X30774927Y-100615881D01*
X30815781Y-100736956D01*
X30879808Y-100875469D01*
X30964003Y-101025354D01*
X31026284Y-101123246D01*
X31069543Y-101185121D01*
X31123254Y-101257162D01*
X31183232Y-101334299D01*
X31245295Y-101411462D01*
X31305261Y-101483582D01*
X31358947Y-101545590D01*
X31402170Y-101592415D01*
X31430747Y-101618989D01*
X31438726Y-101623136D01*
X31443734Y-101606336D01*
X31448047Y-101559089D01*
X31451451Y-101486125D01*
X31453737Y-101392174D01*
X31454693Y-101281966D01*
X31454709Y-101265303D01*
X31454709Y-100907471D01*
X31202313Y-100487831D01*
X31135920Y-100378304D01*
X31074730Y-100278993D01*
X31021238Y-100193819D01*
X30977940Y-100126704D01*
X30947332Y-100081569D01*
X30931911Y-100062335D01*
X30931250Y-100061969D01*
X30906864Y-100070119D01*
X30871474Y-100100182D01*
X30832724Y-100144239D01*
X30798259Y-100194371D01*
X30791095Y-100207139D01*
X30769080Y-100272442D01*
X30756800Y-100360191D01*
X30754708Y-100458895D01*
X29812207Y-100458895D01*
X29809942Y-100453373D01*
X29742667Y-100289438D01*
G37*
%TO.C,D18*%
X304800000Y-114100007D02*
X304800000Y-117700007D01*
X301600000Y-114100007D02*
X301600000Y-117700007D01*
X301600000Y-117700007D02*
X304800000Y-117700007D01*
%TO.C,D10*%
X64800000Y-44100002D02*
X64800000Y-47700002D01*
X64800000Y-47700002D02*
X68000000Y-47700002D01*
X68000000Y-44100002D02*
X68000000Y-47700002D01*
%TO.C,D20*%
X216000000Y-142100009D02*
X216000000Y-145700009D01*
X212800000Y-142100009D02*
X212800000Y-145700009D01*
X212800000Y-145700009D02*
X216000000Y-145700009D01*
%TO.C,G\u002A\u002A\u002A*%
G36*
X32897091Y-147879925D02*
G01*
X32533798Y-147879925D01*
X32302079Y-147572842D01*
X32234433Y-147482778D01*
X32174571Y-147402279D01*
X32125545Y-147335515D01*
X32090408Y-147286660D01*
X32072214Y-147259884D01*
X32070360Y-147256221D01*
X32087140Y-147253536D01*
X32134242Y-147251144D01*
X32206808Y-147249156D01*
X32299980Y-147247685D01*
X32408900Y-147246842D01*
X32483725Y-147246684D01*
X32897091Y-147246684D01*
X32897091Y-147879925D01*
G37*
G36*
X29742667Y-142289441D02*
G01*
X29686289Y-142152117D01*
X29639584Y-142038433D01*
X29601332Y-141945418D01*
X29570310Y-141870102D01*
X29545295Y-141809513D01*
X29525067Y-141760681D01*
X29508402Y-141720634D01*
X29502216Y-141705826D01*
X29483761Y-141661557D01*
X29461499Y-141607863D01*
X29434211Y-141541772D01*
X29400672Y-141460313D01*
X29359664Y-141360513D01*
X29309963Y-141239400D01*
X29250348Y-141094001D01*
X29179598Y-140921346D01*
X29115455Y-140764759D01*
X29059209Y-140627622D01*
X29005363Y-140496684D01*
X28955831Y-140376575D01*
X28912527Y-140271924D01*
X28877367Y-140187358D01*
X28852263Y-140127507D01*
X28841737Y-140102884D01*
X28813199Y-140035671D01*
X28786341Y-139969541D01*
X28773330Y-139935778D01*
X28754009Y-139885906D01*
X28726440Y-139817487D01*
X28707820Y-139772447D01*
X29100759Y-139772447D01*
X29105338Y-139792526D01*
X29121360Y-139840190D01*
X29146987Y-139910446D01*
X29180382Y-139998301D01*
X29219708Y-140098762D01*
X29234290Y-140135369D01*
X29276237Y-140240360D01*
X29314174Y-140335585D01*
X29345992Y-140415736D01*
X29369586Y-140475503D01*
X29382849Y-140509577D01*
X29384537Y-140514101D01*
X29401719Y-140540049D01*
X29412569Y-140544884D01*
X29429258Y-140532281D01*
X29464732Y-140497385D01*
X29514824Y-140444563D01*
X29575367Y-140378182D01*
X29624990Y-140322279D01*
X29688597Y-140248032D01*
X29741767Y-140182501D01*
X29781000Y-140130294D01*
X29802792Y-140096019D01*
X29805505Y-140084766D01*
X29782974Y-140070659D01*
X29735371Y-140046250D01*
X29668290Y-140014019D01*
X29587322Y-139976445D01*
X29498061Y-139936005D01*
X29406099Y-139895178D01*
X29317029Y-139856443D01*
X29236444Y-139822278D01*
X29169937Y-139795162D01*
X29123100Y-139777573D01*
X29101526Y-139771990D01*
X29100759Y-139772447D01*
X28707820Y-139772447D01*
X28696194Y-139744325D01*
X28692591Y-139735743D01*
X28647353Y-139627532D01*
X28601907Y-139517608D01*
X28558198Y-139410808D01*
X28518172Y-139311967D01*
X28483774Y-139225922D01*
X28456951Y-139157508D01*
X28439649Y-139111562D01*
X28433813Y-139092920D01*
X28433881Y-139092765D01*
X28450621Y-139097835D01*
X28490458Y-139114354D01*
X28543559Y-139138194D01*
X28595668Y-139162051D01*
X28671846Y-139196632D01*
X28764050Y-139238299D01*
X28864233Y-139283413D01*
X28930540Y-139313185D01*
X29028072Y-139356974D01*
X29119557Y-139398144D01*
X29198003Y-139433540D01*
X29256419Y-139460010D01*
X29282340Y-139471859D01*
X29320260Y-139489375D01*
X29383780Y-139518740D01*
X29466570Y-139557026D01*
X29562302Y-139601306D01*
X29664648Y-139648654D01*
X29669321Y-139650816D01*
X29985941Y-139797308D01*
X31441516Y-139802003D01*
X32897091Y-139806699D01*
X32897091Y-147070784D01*
X31920474Y-147070784D01*
X31691989Y-146767567D01*
X31603896Y-146648863D01*
X31533854Y-146549224D01*
X31477352Y-146460725D01*
X31429876Y-146375439D01*
X31386915Y-146285440D01*
X31343958Y-146182802D01*
X31311377Y-146098935D01*
X31294755Y-146064460D01*
X31281320Y-146050563D01*
X31266360Y-146062527D01*
X31229883Y-146096317D01*
X31175143Y-146148781D01*
X31105395Y-146216764D01*
X31023895Y-146297114D01*
X30933896Y-146386676D01*
X30918792Y-146401783D01*
X30816110Y-146504364D01*
X30735233Y-146584408D01*
X30673223Y-146644384D01*
X30627140Y-146686763D01*
X30594044Y-146714013D01*
X30570997Y-146728605D01*
X30555059Y-146733007D01*
X30543291Y-146729689D01*
X30535576Y-146723750D01*
X30527439Y-146714357D01*
X30525105Y-146702838D01*
X30530961Y-146686373D01*
X30547392Y-146662140D01*
X30576786Y-146627319D01*
X30621528Y-146579090D01*
X30684004Y-146514631D01*
X30766602Y-146431122D01*
X30871706Y-146325742D01*
X30875478Y-146321967D01*
X31247705Y-145949437D01*
X31190669Y-145806510D01*
X31158711Y-145733650D01*
X31131035Y-145684586D01*
X31110315Y-145663942D01*
X31108023Y-145663582D01*
X31083232Y-145669817D01*
X31032365Y-145686964D01*
X30961937Y-145712687D01*
X30878464Y-145744648D01*
X30842003Y-145759005D01*
X30699138Y-145815470D01*
X30562877Y-145868870D01*
X30436911Y-145917797D01*
X30324930Y-145960842D01*
X30230624Y-145996595D01*
X30157684Y-146023647D01*
X30109801Y-146040589D01*
X30090664Y-146046013D01*
X30090501Y-146045931D01*
X30083261Y-146027948D01*
X30075709Y-146004765D01*
X30074473Y-145993435D01*
X30080205Y-145981890D01*
X30096252Y-145968549D01*
X30125962Y-145951830D01*
X30172682Y-145930153D01*
X30239759Y-145901937D01*
X30330542Y-145865600D01*
X30448377Y-145819562D01*
X30555950Y-145777936D01*
X30680527Y-145729666D01*
X30794953Y-145685014D01*
X30894966Y-145645669D01*
X30976306Y-145613317D01*
X31034711Y-145589648D01*
X31065920Y-145576347D01*
X31069499Y-145574537D01*
X31077592Y-145558877D01*
X31072450Y-145525879D01*
X31052825Y-145470012D01*
X31037275Y-145431976D01*
X30983092Y-145302986D01*
X30458132Y-145294191D01*
X29933171Y-145285396D01*
X29927550Y-145245819D01*
X29921930Y-145206241D01*
X30942075Y-145206241D01*
X30810376Y-144885223D01*
X30760900Y-144764711D01*
X30707677Y-144635213D01*
X30655303Y-144507906D01*
X30608376Y-144393966D01*
X30580649Y-144326740D01*
X30539528Y-144226993D01*
X30497404Y-144124586D01*
X30458881Y-144030725D01*
X30428564Y-143956618D01*
X30425276Y-143948554D01*
X30368807Y-143810022D01*
X30323545Y-143699094D01*
X30287440Y-143610784D01*
X30258445Y-143540109D01*
X30234512Y-143482084D01*
X30213592Y-143431725D01*
X30193638Y-143384048D01*
X30179524Y-143350493D01*
X30158473Y-143300089D01*
X30126170Y-143222176D01*
X30084697Y-143121802D01*
X30036134Y-143004015D01*
X29982563Y-142873860D01*
X29926067Y-142736386D01*
X29889335Y-142646892D01*
X29812207Y-142458898D01*
X30754708Y-142458898D01*
X30763259Y-142557069D01*
X30774927Y-142615884D01*
X30815781Y-142736959D01*
X30879808Y-142875472D01*
X30964003Y-143025357D01*
X31026284Y-143123249D01*
X31069543Y-143185124D01*
X31123254Y-143257165D01*
X31183232Y-143334302D01*
X31245295Y-143411465D01*
X31305261Y-143483585D01*
X31358947Y-143545593D01*
X31402170Y-143592418D01*
X31430747Y-143618992D01*
X31438726Y-143623139D01*
X31443734Y-143606339D01*
X31448047Y-143559092D01*
X31451451Y-143486128D01*
X31453737Y-143392177D01*
X31454693Y-143281969D01*
X31454709Y-143265306D01*
X31454709Y-142907474D01*
X31202313Y-142487834D01*
X31135920Y-142378307D01*
X31074730Y-142278996D01*
X31021238Y-142193822D01*
X30977940Y-142126707D01*
X30947332Y-142081572D01*
X30931911Y-142062338D01*
X30931250Y-142061972D01*
X30906864Y-142070122D01*
X30871474Y-142100185D01*
X30832724Y-142144242D01*
X30798259Y-142194374D01*
X30791095Y-142207142D01*
X30769080Y-142272445D01*
X30756800Y-142360194D01*
X30754708Y-142458898D01*
X29812207Y-142458898D01*
X29809942Y-142453376D01*
X29742667Y-142289441D01*
G37*
G36*
X307591100Y-147246842D02*
G01*
X307700020Y-147247685D01*
X307793192Y-147249156D01*
X307865758Y-147251144D01*
X307912860Y-147253536D01*
X307929640Y-147256221D01*
X307927786Y-147259884D01*
X307909592Y-147286660D01*
X307874455Y-147335515D01*
X307825429Y-147402279D01*
X307765567Y-147482778D01*
X307697921Y-147572842D01*
X307466202Y-147879925D01*
X307102909Y-147879925D01*
X307102909Y-147246684D01*
X307516275Y-147246684D01*
X307591100Y-147246842D01*
G37*
G36*
X310073933Y-142736386D02*
G01*
X310017437Y-142873860D01*
X309963866Y-143004015D01*
X309915303Y-143121802D01*
X309873830Y-143222176D01*
X309841527Y-143300089D01*
X309820476Y-143350493D01*
X309806362Y-143384048D01*
X309786408Y-143431725D01*
X309765488Y-143482084D01*
X309741555Y-143540109D01*
X309712560Y-143610784D01*
X309676455Y-143699094D01*
X309631193Y-143810022D01*
X309574724Y-143948554D01*
X309571436Y-143956618D01*
X309541119Y-144030725D01*
X309502596Y-144124586D01*
X309460472Y-144226993D01*
X309419351Y-144326740D01*
X309391624Y-144393966D01*
X309344697Y-144507906D01*
X309292323Y-144635213D01*
X309239100Y-144764711D01*
X309189624Y-144885223D01*
X309057925Y-145206241D01*
X310078070Y-145206241D01*
X310072450Y-145245819D01*
X310066829Y-145285396D01*
X309541868Y-145294191D01*
X309016908Y-145302986D01*
X308962725Y-145431976D01*
X308947175Y-145470012D01*
X308927550Y-145525879D01*
X308922408Y-145558877D01*
X308930501Y-145574537D01*
X308934080Y-145576347D01*
X308965289Y-145589648D01*
X309023694Y-145613317D01*
X309105034Y-145645669D01*
X309205047Y-145685014D01*
X309319473Y-145729666D01*
X309444050Y-145777936D01*
X309551623Y-145819562D01*
X309669458Y-145865600D01*
X309760241Y-145901937D01*
X309827318Y-145930153D01*
X309874038Y-145951830D01*
X309903748Y-145968549D01*
X309919795Y-145981890D01*
X309925527Y-145993435D01*
X309924291Y-146004765D01*
X309916739Y-146027948D01*
X309909499Y-146045931D01*
X309909336Y-146046013D01*
X309890199Y-146040589D01*
X309842316Y-146023647D01*
X309769376Y-145996595D01*
X309675070Y-145960842D01*
X309563089Y-145917797D01*
X309437123Y-145868870D01*
X309300862Y-145815470D01*
X309157997Y-145759005D01*
X309121536Y-145744648D01*
X309038063Y-145712687D01*
X308967635Y-145686964D01*
X308916768Y-145669817D01*
X308891977Y-145663582D01*
X308889685Y-145663942D01*
X308868965Y-145684586D01*
X308841289Y-145733650D01*
X308809331Y-145806510D01*
X308752295Y-145949437D01*
X309124522Y-146321967D01*
X309128294Y-146325742D01*
X309233398Y-146431122D01*
X309315996Y-146514631D01*
X309378472Y-146579090D01*
X309423214Y-146627319D01*
X309452608Y-146662140D01*
X309469039Y-146686373D01*
X309474895Y-146702838D01*
X309472561Y-146714357D01*
X309464424Y-146723750D01*
X309456709Y-146729689D01*
X309444941Y-146733007D01*
X309429003Y-146728605D01*
X309405956Y-146714013D01*
X309372860Y-146686763D01*
X309326777Y-146644384D01*
X309264767Y-146584408D01*
X309183890Y-146504364D01*
X309081208Y-146401783D01*
X309066104Y-146386676D01*
X308976105Y-146297114D01*
X308894605Y-146216764D01*
X308824857Y-146148781D01*
X308770117Y-146096317D01*
X308733640Y-146062527D01*
X308718680Y-146050563D01*
X308705245Y-146064460D01*
X308688623Y-146098935D01*
X308656042Y-146182802D01*
X308613085Y-146285440D01*
X308570124Y-146375439D01*
X308522648Y-146460725D01*
X308466146Y-146549224D01*
X308396104Y-146648863D01*
X308308011Y-146767567D01*
X308079526Y-147070784D01*
X307102909Y-147070784D01*
X307102909Y-143265306D01*
X308545291Y-143265306D01*
X308545307Y-143281969D01*
X308546263Y-143392177D01*
X308548549Y-143486128D01*
X308551953Y-143559092D01*
X308556266Y-143606339D01*
X308561274Y-143623139D01*
X308569253Y-143618992D01*
X308597830Y-143592418D01*
X308641053Y-143545593D01*
X308694739Y-143483585D01*
X308754705Y-143411465D01*
X308816768Y-143334302D01*
X308876746Y-143257165D01*
X308930457Y-143185124D01*
X308973716Y-143123249D01*
X309035997Y-143025357D01*
X309120192Y-142875472D01*
X309184219Y-142736959D01*
X309225073Y-142615884D01*
X309236741Y-142557069D01*
X309245292Y-142458898D01*
X309243200Y-142360194D01*
X309230920Y-142272445D01*
X309208905Y-142207142D01*
X309201741Y-142194374D01*
X309167276Y-142144242D01*
X309128526Y-142100185D01*
X309093136Y-142070122D01*
X309068750Y-142061972D01*
X309068089Y-142062338D01*
X309052668Y-142081572D01*
X309022060Y-142126707D01*
X308978762Y-142193822D01*
X308925270Y-142278996D01*
X308864080Y-142378307D01*
X308797687Y-142487834D01*
X308545291Y-142907474D01*
X308545291Y-143265306D01*
X307102909Y-143265306D01*
X307102909Y-140084766D01*
X310194495Y-140084766D01*
X310197208Y-140096019D01*
X310219000Y-140130294D01*
X310258233Y-140182501D01*
X310311403Y-140248032D01*
X310375010Y-140322279D01*
X310424633Y-140378182D01*
X310485176Y-140444563D01*
X310535268Y-140497385D01*
X310570742Y-140532281D01*
X310587431Y-140544884D01*
X310598281Y-140540049D01*
X310615463Y-140514101D01*
X310617151Y-140509577D01*
X310630414Y-140475503D01*
X310654008Y-140415736D01*
X310685826Y-140335585D01*
X310723763Y-140240360D01*
X310765710Y-140135369D01*
X310780292Y-140098762D01*
X310819618Y-139998301D01*
X310853013Y-139910446D01*
X310878640Y-139840190D01*
X310894662Y-139792526D01*
X310899241Y-139772447D01*
X310898474Y-139771990D01*
X310876900Y-139777573D01*
X310830063Y-139795162D01*
X310763556Y-139822278D01*
X310682971Y-139856443D01*
X310593901Y-139895178D01*
X310501939Y-139936005D01*
X310412678Y-139976445D01*
X310331710Y-140014019D01*
X310264629Y-140046250D01*
X310217026Y-140070659D01*
X310194495Y-140084766D01*
X307102909Y-140084766D01*
X307102909Y-139806699D01*
X308558484Y-139802003D01*
X310014059Y-139797308D01*
X310330679Y-139650816D01*
X310335352Y-139648654D01*
X310437698Y-139601306D01*
X310533430Y-139557026D01*
X310616220Y-139518740D01*
X310679740Y-139489375D01*
X310717660Y-139471859D01*
X310743581Y-139460010D01*
X310801997Y-139433540D01*
X310880443Y-139398144D01*
X310971928Y-139356974D01*
X311069460Y-139313185D01*
X311135767Y-139283413D01*
X311235950Y-139238299D01*
X311328154Y-139196632D01*
X311404332Y-139162051D01*
X311456441Y-139138194D01*
X311509542Y-139114354D01*
X311549379Y-139097835D01*
X311566119Y-139092765D01*
X311566187Y-139092920D01*
X311560351Y-139111562D01*
X311543049Y-139157508D01*
X311516226Y-139225922D01*
X311481828Y-139311967D01*
X311441802Y-139410808D01*
X311398093Y-139517608D01*
X311352647Y-139627532D01*
X311307409Y-139735743D01*
X311303806Y-139744325D01*
X311292180Y-139772447D01*
X311273560Y-139817487D01*
X311245991Y-139885906D01*
X311226670Y-139935778D01*
X311213659Y-139969541D01*
X311186801Y-140035671D01*
X311158263Y-140102884D01*
X311147737Y-140127507D01*
X311122633Y-140187358D01*
X311087473Y-140271924D01*
X311044169Y-140376575D01*
X310994637Y-140496684D01*
X310940791Y-140627622D01*
X310884545Y-140764759D01*
X310820402Y-140921346D01*
X310749652Y-141094001D01*
X310690037Y-141239400D01*
X310640336Y-141360513D01*
X310599328Y-141460313D01*
X310565789Y-141541772D01*
X310538501Y-141607863D01*
X310516239Y-141661557D01*
X310497784Y-141705826D01*
X310491598Y-141720634D01*
X310474933Y-141760681D01*
X310454705Y-141809513D01*
X310429690Y-141870102D01*
X310398668Y-141945418D01*
X310360416Y-142038433D01*
X310313711Y-142152117D01*
X310257333Y-142289441D01*
X310190058Y-142453376D01*
X310187793Y-142458898D01*
X310110665Y-142646892D01*
X310073933Y-142736386D01*
G37*
%TO.C,D19*%
X109200000Y-128100008D02*
X109200000Y-131700008D01*
X112400000Y-128100008D02*
X112400000Y-131700008D01*
X109200000Y-131700008D02*
X112400000Y-131700008D01*
%TO.C,R5*%
X87340000Y-102227070D02*
X87340000Y-100772942D01*
X89160000Y-102227070D02*
X89160000Y-100772942D01*
%TO.C,D3*%
X227600000Y-58100003D02*
X227600000Y-61700003D01*
X227600000Y-61700003D02*
X230800000Y-61700003D01*
X230800000Y-58100003D02*
X230800000Y-61700003D01*
%TO.C,D14*%
X183200000Y-159700010D02*
X186400000Y-159700010D01*
X186400000Y-156100010D02*
X186400000Y-159700010D01*
X183200000Y-156100010D02*
X183200000Y-159700010D01*
%TO.C,R6*%
X191090000Y-46227066D02*
X191090000Y-44772938D01*
X192910000Y-46227066D02*
X192910000Y-44772938D01*
%TO.C,R3*%
X147090000Y-74227068D02*
X147090000Y-72772940D01*
X148910000Y-74227068D02*
X148910000Y-72772940D01*
%TO.C,D12*%
X272000000Y-145700009D02*
X275200000Y-145700009D01*
X272000000Y-142100009D02*
X272000000Y-145700009D01*
X275200000Y-142100009D02*
X275200000Y-145700009D01*
%TO.C,D18*%
X301600000Y-58100003D02*
X301600000Y-61700003D01*
X304800000Y-58100003D02*
X304800000Y-61700003D01*
X301600000Y-61700003D02*
X304800000Y-61700003D01*
%TO.C,R3*%
X147090000Y-116227071D02*
X147090000Y-114772943D01*
X148910000Y-116227071D02*
X148910000Y-114772943D01*
%TO.C,G\u002A\u002A\u002A*%
G36*
X29742667Y-128289440D02*
G01*
X29686289Y-128152116D01*
X29639584Y-128038432D01*
X29601332Y-127945417D01*
X29570310Y-127870101D01*
X29545295Y-127809512D01*
X29525067Y-127760680D01*
X29508402Y-127720633D01*
X29502216Y-127705825D01*
X29483761Y-127661556D01*
X29461499Y-127607862D01*
X29434211Y-127541771D01*
X29400672Y-127460312D01*
X29359664Y-127360512D01*
X29309963Y-127239399D01*
X29250348Y-127094000D01*
X29179598Y-126921345D01*
X29115455Y-126764758D01*
X29059209Y-126627621D01*
X29005363Y-126496683D01*
X28955831Y-126376574D01*
X28912527Y-126271923D01*
X28877367Y-126187357D01*
X28852263Y-126127506D01*
X28841737Y-126102883D01*
X28813199Y-126035670D01*
X28786341Y-125969540D01*
X28773330Y-125935777D01*
X28754009Y-125885905D01*
X28726440Y-125817486D01*
X28707820Y-125772446D01*
X29100759Y-125772446D01*
X29105338Y-125792525D01*
X29121360Y-125840189D01*
X29146987Y-125910445D01*
X29180382Y-125998300D01*
X29219708Y-126098761D01*
X29234290Y-126135368D01*
X29276237Y-126240359D01*
X29314174Y-126335584D01*
X29345992Y-126415735D01*
X29369586Y-126475502D01*
X29382849Y-126509576D01*
X29384537Y-126514100D01*
X29401719Y-126540048D01*
X29412569Y-126544883D01*
X29429258Y-126532280D01*
X29464732Y-126497384D01*
X29514824Y-126444562D01*
X29575367Y-126378181D01*
X29624990Y-126322278D01*
X29688597Y-126248031D01*
X29741767Y-126182500D01*
X29781000Y-126130293D01*
X29802792Y-126096018D01*
X29805505Y-126084765D01*
X29782974Y-126070658D01*
X29735371Y-126046249D01*
X29668290Y-126014018D01*
X29587322Y-125976444D01*
X29498061Y-125936004D01*
X29406099Y-125895177D01*
X29317029Y-125856442D01*
X29236444Y-125822277D01*
X29169937Y-125795161D01*
X29123100Y-125777572D01*
X29101526Y-125771989D01*
X29100759Y-125772446D01*
X28707820Y-125772446D01*
X28696194Y-125744324D01*
X28692591Y-125735742D01*
X28647353Y-125627531D01*
X28601907Y-125517607D01*
X28558198Y-125410807D01*
X28518172Y-125311966D01*
X28483774Y-125225921D01*
X28456951Y-125157507D01*
X28439649Y-125111561D01*
X28433813Y-125092919D01*
X28433881Y-125092764D01*
X28450621Y-125097834D01*
X28490458Y-125114353D01*
X28543559Y-125138193D01*
X28595668Y-125162050D01*
X28671846Y-125196631D01*
X28764050Y-125238298D01*
X28864233Y-125283412D01*
X28930540Y-125313184D01*
X29028072Y-125356973D01*
X29119557Y-125398143D01*
X29198003Y-125433539D01*
X29256419Y-125460009D01*
X29282340Y-125471858D01*
X29320260Y-125489374D01*
X29383780Y-125518739D01*
X29466570Y-125557025D01*
X29562302Y-125601305D01*
X29664648Y-125648653D01*
X29669321Y-125650815D01*
X29985941Y-125797307D01*
X31441516Y-125802002D01*
X32897091Y-125806698D01*
X32897091Y-133070783D01*
X31920474Y-133070783D01*
X31691989Y-132767566D01*
X31603896Y-132648862D01*
X31533854Y-132549223D01*
X31477352Y-132460724D01*
X31429876Y-132375438D01*
X31386915Y-132285439D01*
X31343958Y-132182801D01*
X31311377Y-132098934D01*
X31294755Y-132064459D01*
X31281320Y-132050562D01*
X31266360Y-132062526D01*
X31229883Y-132096316D01*
X31175143Y-132148780D01*
X31105395Y-132216763D01*
X31023895Y-132297113D01*
X30933896Y-132386675D01*
X30918792Y-132401782D01*
X30816110Y-132504363D01*
X30735233Y-132584407D01*
X30673223Y-132644383D01*
X30627140Y-132686762D01*
X30594044Y-132714012D01*
X30570997Y-132728604D01*
X30555059Y-132733006D01*
X30543291Y-132729688D01*
X30535576Y-132723749D01*
X30527439Y-132714356D01*
X30525105Y-132702837D01*
X30530961Y-132686372D01*
X30547392Y-132662139D01*
X30576786Y-132627318D01*
X30621528Y-132579089D01*
X30684004Y-132514630D01*
X30766602Y-132431121D01*
X30871706Y-132325741D01*
X30875478Y-132321966D01*
X31247705Y-131949436D01*
X31190669Y-131806509D01*
X31158711Y-131733649D01*
X31131035Y-131684585D01*
X31110315Y-131663941D01*
X31108023Y-131663581D01*
X31083232Y-131669816D01*
X31032365Y-131686963D01*
X30961937Y-131712686D01*
X30878464Y-131744647D01*
X30842003Y-131759004D01*
X30699138Y-131815469D01*
X30562877Y-131868869D01*
X30436911Y-131917796D01*
X30324930Y-131960841D01*
X30230624Y-131996594D01*
X30157684Y-132023646D01*
X30109801Y-132040588D01*
X30090664Y-132046012D01*
X30090501Y-132045930D01*
X30083261Y-132027947D01*
X30075709Y-132004764D01*
X30074473Y-131993434D01*
X30080205Y-131981889D01*
X30096252Y-131968548D01*
X30125962Y-131951829D01*
X30172682Y-131930152D01*
X30239759Y-131901936D01*
X30330542Y-131865599D01*
X30448377Y-131819561D01*
X30555950Y-131777935D01*
X30680527Y-131729665D01*
X30794953Y-131685013D01*
X30894966Y-131645668D01*
X30976306Y-131613316D01*
X31034711Y-131589647D01*
X31065920Y-131576346D01*
X31069499Y-131574536D01*
X31077592Y-131558876D01*
X31072450Y-131525878D01*
X31052825Y-131470011D01*
X31037275Y-131431975D01*
X30983092Y-131302985D01*
X30458132Y-131294190D01*
X29933171Y-131285395D01*
X29927550Y-131245818D01*
X29921930Y-131206240D01*
X30942075Y-131206240D01*
X30810376Y-130885222D01*
X30760900Y-130764710D01*
X30707677Y-130635212D01*
X30655303Y-130507905D01*
X30608376Y-130393965D01*
X30580649Y-130326739D01*
X30539528Y-130226992D01*
X30497404Y-130124585D01*
X30458881Y-130030724D01*
X30428564Y-129956617D01*
X30425276Y-129948553D01*
X30368807Y-129810021D01*
X30323545Y-129699093D01*
X30287440Y-129610783D01*
X30258445Y-129540108D01*
X30234512Y-129482083D01*
X30213592Y-129431724D01*
X30193638Y-129384047D01*
X30179524Y-129350492D01*
X30158473Y-129300088D01*
X30126170Y-129222175D01*
X30084697Y-129121801D01*
X30036134Y-129004014D01*
X29982563Y-128873859D01*
X29926067Y-128736385D01*
X29889335Y-128646891D01*
X29812207Y-128458897D01*
X30754708Y-128458897D01*
X30763259Y-128557068D01*
X30774927Y-128615883D01*
X30815781Y-128736958D01*
X30879808Y-128875471D01*
X30964003Y-129025356D01*
X31026284Y-129123248D01*
X31069543Y-129185123D01*
X31123254Y-129257164D01*
X31183232Y-129334301D01*
X31245295Y-129411464D01*
X31305261Y-129483584D01*
X31358947Y-129545592D01*
X31402170Y-129592417D01*
X31430747Y-129618991D01*
X31438726Y-129623138D01*
X31443734Y-129606338D01*
X31448047Y-129559091D01*
X31451451Y-129486127D01*
X31453737Y-129392176D01*
X31454693Y-129281968D01*
X31454709Y-129265305D01*
X31454709Y-128907473D01*
X31202313Y-128487833D01*
X31135920Y-128378306D01*
X31074730Y-128278995D01*
X31021238Y-128193821D01*
X30977940Y-128126706D01*
X30947332Y-128081571D01*
X30931911Y-128062337D01*
X30931250Y-128061971D01*
X30906864Y-128070121D01*
X30871474Y-128100184D01*
X30832724Y-128144241D01*
X30798259Y-128194373D01*
X30791095Y-128207141D01*
X30769080Y-128272444D01*
X30756800Y-128360193D01*
X30754708Y-128458897D01*
X29812207Y-128458897D01*
X29809942Y-128453375D01*
X29742667Y-128289440D01*
G37*
G36*
X32897091Y-133879924D02*
G01*
X32533798Y-133879924D01*
X32302079Y-133572841D01*
X32234433Y-133482777D01*
X32174571Y-133402278D01*
X32125545Y-133335514D01*
X32090408Y-133286659D01*
X32072214Y-133259883D01*
X32070360Y-133256220D01*
X32087140Y-133253535D01*
X32134242Y-133251143D01*
X32206808Y-133249155D01*
X32299980Y-133247684D01*
X32408900Y-133246841D01*
X32483725Y-133246683D01*
X32897091Y-133246683D01*
X32897091Y-133879924D01*
G37*
%TO.C,D6*%
X242400000Y-89700005D02*
X245600000Y-89700005D01*
X242400000Y-86100005D02*
X242400000Y-89700005D01*
X245600000Y-86100005D02*
X245600000Y-89700005D01*
%TO.C,D20*%
X216000000Y-30100001D02*
X216000000Y-33700001D01*
X212800000Y-30100001D02*
X212800000Y-33700001D01*
X212800000Y-33700001D02*
X216000000Y-33700001D01*
%TO.C,R4*%
X297840000Y-116227071D02*
X297840000Y-114772943D01*
X299660000Y-116227071D02*
X299660000Y-114772943D01*
%TO.C,D13*%
X79600000Y-100100006D02*
X79600000Y-103700006D01*
X82800000Y-100100006D02*
X82800000Y-103700006D01*
X79600000Y-103700006D02*
X82800000Y-103700006D01*
%TO.C,R2*%
X252160000Y-32227065D02*
X252160000Y-30772937D01*
X250340000Y-32227065D02*
X250340000Y-30772937D01*
%TO.C,G\u002A\u002A\u002A*%
G36*
X310073933Y-30736378D02*
G01*
X310017437Y-30873852D01*
X309963866Y-31004007D01*
X309915303Y-31121794D01*
X309873830Y-31222168D01*
X309841527Y-31300081D01*
X309820476Y-31350485D01*
X309806362Y-31384040D01*
X309786408Y-31431717D01*
X309765488Y-31482076D01*
X309741555Y-31540101D01*
X309712560Y-31610776D01*
X309676455Y-31699086D01*
X309631193Y-31810014D01*
X309574724Y-31948546D01*
X309571436Y-31956610D01*
X309541119Y-32030717D01*
X309502596Y-32124578D01*
X309460472Y-32226985D01*
X309419351Y-32326732D01*
X309391624Y-32393958D01*
X309344697Y-32507898D01*
X309292323Y-32635205D01*
X309239100Y-32764703D01*
X309189624Y-32885215D01*
X309057925Y-33206233D01*
X310078070Y-33206233D01*
X310072450Y-33245811D01*
X310066829Y-33285388D01*
X309541868Y-33294183D01*
X309016908Y-33302978D01*
X308962725Y-33431968D01*
X308947175Y-33470004D01*
X308927550Y-33525871D01*
X308922408Y-33558869D01*
X308930501Y-33574529D01*
X308934080Y-33576339D01*
X308965289Y-33589640D01*
X309023694Y-33613309D01*
X309105034Y-33645661D01*
X309205047Y-33685006D01*
X309319473Y-33729658D01*
X309444050Y-33777928D01*
X309551623Y-33819554D01*
X309669458Y-33865592D01*
X309760241Y-33901929D01*
X309827318Y-33930145D01*
X309874038Y-33951822D01*
X309903748Y-33968541D01*
X309919795Y-33981882D01*
X309925527Y-33993427D01*
X309924291Y-34004757D01*
X309916739Y-34027940D01*
X309909499Y-34045923D01*
X309909336Y-34046005D01*
X309890199Y-34040581D01*
X309842316Y-34023639D01*
X309769376Y-33996587D01*
X309675070Y-33960834D01*
X309563089Y-33917789D01*
X309437123Y-33868862D01*
X309300862Y-33815462D01*
X309157997Y-33758997D01*
X309121536Y-33744640D01*
X309038063Y-33712679D01*
X308967635Y-33686956D01*
X308916768Y-33669809D01*
X308891977Y-33663574D01*
X308889685Y-33663934D01*
X308868965Y-33684578D01*
X308841289Y-33733642D01*
X308809331Y-33806502D01*
X308752295Y-33949429D01*
X309124522Y-34321959D01*
X309128294Y-34325734D01*
X309233398Y-34431114D01*
X309315996Y-34514623D01*
X309378472Y-34579082D01*
X309423214Y-34627311D01*
X309452608Y-34662132D01*
X309469039Y-34686365D01*
X309474895Y-34702830D01*
X309472561Y-34714349D01*
X309464424Y-34723742D01*
X309456709Y-34729681D01*
X309444941Y-34732999D01*
X309429003Y-34728597D01*
X309405956Y-34714005D01*
X309372860Y-34686755D01*
X309326777Y-34644376D01*
X309264767Y-34584400D01*
X309183890Y-34504356D01*
X309081208Y-34401775D01*
X309066104Y-34386668D01*
X308976105Y-34297106D01*
X308894605Y-34216756D01*
X308824857Y-34148773D01*
X308770117Y-34096309D01*
X308733640Y-34062519D01*
X308718680Y-34050555D01*
X308705245Y-34064452D01*
X308688623Y-34098927D01*
X308656042Y-34182794D01*
X308613085Y-34285432D01*
X308570124Y-34375431D01*
X308522648Y-34460717D01*
X308466146Y-34549216D01*
X308396104Y-34648855D01*
X308308011Y-34767559D01*
X308079526Y-35070776D01*
X307102909Y-35070776D01*
X307102909Y-31265298D01*
X308545291Y-31265298D01*
X308545307Y-31281961D01*
X308546263Y-31392169D01*
X308548549Y-31486120D01*
X308551953Y-31559084D01*
X308556266Y-31606331D01*
X308561274Y-31623131D01*
X308569253Y-31618984D01*
X308597830Y-31592410D01*
X308641053Y-31545585D01*
X308694739Y-31483577D01*
X308754705Y-31411457D01*
X308816768Y-31334294D01*
X308876746Y-31257157D01*
X308930457Y-31185116D01*
X308973716Y-31123241D01*
X309035997Y-31025349D01*
X309120192Y-30875464D01*
X309184219Y-30736951D01*
X309225073Y-30615876D01*
X309236741Y-30557061D01*
X309245292Y-30458890D01*
X309243200Y-30360186D01*
X309230920Y-30272437D01*
X309208905Y-30207134D01*
X309201741Y-30194366D01*
X309167276Y-30144234D01*
X309128526Y-30100177D01*
X309093136Y-30070114D01*
X309068750Y-30061964D01*
X309068089Y-30062330D01*
X309052668Y-30081564D01*
X309022060Y-30126699D01*
X308978762Y-30193814D01*
X308925270Y-30278988D01*
X308864080Y-30378299D01*
X308797687Y-30487826D01*
X308545291Y-30907466D01*
X308545291Y-31265298D01*
X307102909Y-31265298D01*
X307102909Y-28084758D01*
X310194495Y-28084758D01*
X310197208Y-28096011D01*
X310219000Y-28130286D01*
X310258233Y-28182493D01*
X310311403Y-28248024D01*
X310375010Y-28322271D01*
X310424633Y-28378174D01*
X310485176Y-28444555D01*
X310535268Y-28497377D01*
X310570742Y-28532273D01*
X310587431Y-28544876D01*
X310598281Y-28540041D01*
X310615463Y-28514093D01*
X310617151Y-28509569D01*
X310630414Y-28475495D01*
X310654008Y-28415728D01*
X310685826Y-28335577D01*
X310723763Y-28240352D01*
X310765710Y-28135361D01*
X310780292Y-28098754D01*
X310819618Y-27998293D01*
X310853013Y-27910438D01*
X310878640Y-27840182D01*
X310894662Y-27792518D01*
X310899241Y-27772439D01*
X310898474Y-27771982D01*
X310876900Y-27777565D01*
X310830063Y-27795154D01*
X310763556Y-27822270D01*
X310682971Y-27856435D01*
X310593901Y-27895170D01*
X310501939Y-27935997D01*
X310412678Y-27976437D01*
X310331710Y-28014011D01*
X310264629Y-28046242D01*
X310217026Y-28070651D01*
X310194495Y-28084758D01*
X307102909Y-28084758D01*
X307102909Y-27806691D01*
X308558484Y-27801995D01*
X310014059Y-27797300D01*
X310330679Y-27650808D01*
X310335352Y-27648646D01*
X310437698Y-27601298D01*
X310533430Y-27557018D01*
X310616220Y-27518732D01*
X310679740Y-27489367D01*
X310717660Y-27471851D01*
X310743581Y-27460002D01*
X310801997Y-27433532D01*
X310880443Y-27398136D01*
X310971928Y-27356966D01*
X311069460Y-27313177D01*
X311135767Y-27283405D01*
X311235950Y-27238291D01*
X311328154Y-27196624D01*
X311404332Y-27162043D01*
X311456441Y-27138186D01*
X311509542Y-27114346D01*
X311549379Y-27097827D01*
X311566119Y-27092757D01*
X311566187Y-27092912D01*
X311560351Y-27111554D01*
X311543049Y-27157500D01*
X311516226Y-27225914D01*
X311481828Y-27311959D01*
X311441802Y-27410800D01*
X311398093Y-27517600D01*
X311352647Y-27627524D01*
X311307409Y-27735735D01*
X311303806Y-27744317D01*
X311292180Y-27772439D01*
X311273560Y-27817479D01*
X311245991Y-27885898D01*
X311226670Y-27935770D01*
X311213659Y-27969533D01*
X311186801Y-28035663D01*
X311158263Y-28102876D01*
X311147737Y-28127499D01*
X311122633Y-28187350D01*
X311087473Y-28271916D01*
X311044169Y-28376567D01*
X310994637Y-28496676D01*
X310940791Y-28627614D01*
X310884545Y-28764751D01*
X310820402Y-28921338D01*
X310749652Y-29093993D01*
X310690037Y-29239392D01*
X310640336Y-29360505D01*
X310599328Y-29460305D01*
X310565789Y-29541764D01*
X310538501Y-29607855D01*
X310516239Y-29661549D01*
X310497784Y-29705818D01*
X310491598Y-29720626D01*
X310474933Y-29760673D01*
X310454705Y-29809505D01*
X310429690Y-29870094D01*
X310398668Y-29945410D01*
X310360416Y-30038425D01*
X310313711Y-30152109D01*
X310257333Y-30289433D01*
X310190058Y-30453368D01*
X310187793Y-30458890D01*
X310110665Y-30646884D01*
X310073933Y-30736378D01*
G37*
G36*
X307591100Y-35246834D02*
G01*
X307700020Y-35247677D01*
X307793192Y-35249148D01*
X307865758Y-35251136D01*
X307912860Y-35253528D01*
X307929640Y-35256213D01*
X307927786Y-35259876D01*
X307909592Y-35286652D01*
X307874455Y-35335507D01*
X307825429Y-35402271D01*
X307765567Y-35482770D01*
X307697921Y-35572834D01*
X307466202Y-35879917D01*
X307102909Y-35879917D01*
X307102909Y-35246676D01*
X307516275Y-35246676D01*
X307591100Y-35246834D01*
G37*
G36*
X307591100Y-63246836D02*
G01*
X307700020Y-63247679D01*
X307793192Y-63249150D01*
X307865758Y-63251138D01*
X307912860Y-63253530D01*
X307929640Y-63256215D01*
X307927786Y-63259878D01*
X307909592Y-63286654D01*
X307874455Y-63335509D01*
X307825429Y-63402273D01*
X307765567Y-63482772D01*
X307697921Y-63572836D01*
X307466202Y-63879919D01*
X307102909Y-63879919D01*
X307102909Y-63246678D01*
X307516275Y-63246678D01*
X307591100Y-63246836D01*
G37*
G36*
X310073933Y-58736380D02*
G01*
X310017437Y-58873854D01*
X309963866Y-59004009D01*
X309915303Y-59121796D01*
X309873830Y-59222170D01*
X309841527Y-59300083D01*
X309820476Y-59350487D01*
X309806362Y-59384042D01*
X309786408Y-59431719D01*
X309765488Y-59482078D01*
X309741555Y-59540103D01*
X309712560Y-59610778D01*
X309676455Y-59699088D01*
X309631193Y-59810016D01*
X309574724Y-59948548D01*
X309571436Y-59956612D01*
X309541119Y-60030719D01*
X309502596Y-60124580D01*
X309460472Y-60226987D01*
X309419351Y-60326734D01*
X309391624Y-60393960D01*
X309344697Y-60507900D01*
X309292323Y-60635207D01*
X309239100Y-60764705D01*
X309189624Y-60885217D01*
X309057925Y-61206235D01*
X310078070Y-61206235D01*
X310072450Y-61245813D01*
X310066829Y-61285390D01*
X309541868Y-61294185D01*
X309016908Y-61302980D01*
X308962725Y-61431970D01*
X308947175Y-61470006D01*
X308927550Y-61525873D01*
X308922408Y-61558871D01*
X308930501Y-61574531D01*
X308934080Y-61576341D01*
X308965289Y-61589642D01*
X309023694Y-61613311D01*
X309105034Y-61645663D01*
X309205047Y-61685008D01*
X309319473Y-61729660D01*
X309444050Y-61777930D01*
X309551623Y-61819556D01*
X309669458Y-61865594D01*
X309760241Y-61901931D01*
X309827318Y-61930147D01*
X309874038Y-61951824D01*
X309903748Y-61968543D01*
X309919795Y-61981884D01*
X309925527Y-61993429D01*
X309924291Y-62004759D01*
X309916739Y-62027942D01*
X309909499Y-62045925D01*
X309909336Y-62046007D01*
X309890199Y-62040583D01*
X309842316Y-62023641D01*
X309769376Y-61996589D01*
X309675070Y-61960836D01*
X309563089Y-61917791D01*
X309437123Y-61868864D01*
X309300862Y-61815464D01*
X309157997Y-61758999D01*
X309121536Y-61744642D01*
X309038063Y-61712681D01*
X308967635Y-61686958D01*
X308916768Y-61669811D01*
X308891977Y-61663576D01*
X308889685Y-61663936D01*
X308868965Y-61684580D01*
X308841289Y-61733644D01*
X308809331Y-61806504D01*
X308752295Y-61949431D01*
X309124522Y-62321961D01*
X309128294Y-62325736D01*
X309233398Y-62431116D01*
X309315996Y-62514625D01*
X309378472Y-62579084D01*
X309423214Y-62627313D01*
X309452608Y-62662134D01*
X309469039Y-62686367D01*
X309474895Y-62702832D01*
X309472561Y-62714351D01*
X309464424Y-62723744D01*
X309456709Y-62729683D01*
X309444941Y-62733001D01*
X309429003Y-62728599D01*
X309405956Y-62714007D01*
X309372860Y-62686757D01*
X309326777Y-62644378D01*
X309264767Y-62584402D01*
X309183890Y-62504358D01*
X309081208Y-62401777D01*
X309066104Y-62386670D01*
X308976105Y-62297108D01*
X308894605Y-62216758D01*
X308824857Y-62148775D01*
X308770117Y-62096311D01*
X308733640Y-62062521D01*
X308718680Y-62050557D01*
X308705245Y-62064454D01*
X308688623Y-62098929D01*
X308656042Y-62182796D01*
X308613085Y-62285434D01*
X308570124Y-62375433D01*
X308522648Y-62460719D01*
X308466146Y-62549218D01*
X308396104Y-62648857D01*
X308308011Y-62767561D01*
X308079526Y-63070778D01*
X307102909Y-63070778D01*
X307102909Y-59265300D01*
X308545291Y-59265300D01*
X308545307Y-59281963D01*
X308546263Y-59392171D01*
X308548549Y-59486122D01*
X308551953Y-59559086D01*
X308556266Y-59606333D01*
X308561274Y-59623133D01*
X308569253Y-59618986D01*
X308597830Y-59592412D01*
X308641053Y-59545587D01*
X308694739Y-59483579D01*
X308754705Y-59411459D01*
X308816768Y-59334296D01*
X308876746Y-59257159D01*
X308930457Y-59185118D01*
X308973716Y-59123243D01*
X309035997Y-59025351D01*
X309120192Y-58875466D01*
X309184219Y-58736953D01*
X309225073Y-58615878D01*
X309236741Y-58557063D01*
X309245292Y-58458892D01*
X309243200Y-58360188D01*
X309230920Y-58272439D01*
X309208905Y-58207136D01*
X309201741Y-58194368D01*
X309167276Y-58144236D01*
X309128526Y-58100179D01*
X309093136Y-58070116D01*
X309068750Y-58061966D01*
X309068089Y-58062332D01*
X309052668Y-58081566D01*
X309022060Y-58126701D01*
X308978762Y-58193816D01*
X308925270Y-58278990D01*
X308864080Y-58378301D01*
X308797687Y-58487828D01*
X308545291Y-58907468D01*
X308545291Y-59265300D01*
X307102909Y-59265300D01*
X307102909Y-56084760D01*
X310194495Y-56084760D01*
X310197208Y-56096013D01*
X310219000Y-56130288D01*
X310258233Y-56182495D01*
X310311403Y-56248026D01*
X310375010Y-56322273D01*
X310424633Y-56378176D01*
X310485176Y-56444557D01*
X310535268Y-56497379D01*
X310570742Y-56532275D01*
X310587431Y-56544878D01*
X310598281Y-56540043D01*
X310615463Y-56514095D01*
X310617151Y-56509571D01*
X310630414Y-56475497D01*
X310654008Y-56415730D01*
X310685826Y-56335579D01*
X310723763Y-56240354D01*
X310765710Y-56135363D01*
X310780292Y-56098756D01*
X310819618Y-55998295D01*
X310853013Y-55910440D01*
X310878640Y-55840184D01*
X310894662Y-55792520D01*
X310899241Y-55772441D01*
X310898474Y-55771984D01*
X310876900Y-55777567D01*
X310830063Y-55795156D01*
X310763556Y-55822272D01*
X310682971Y-55856437D01*
X310593901Y-55895172D01*
X310501939Y-55935999D01*
X310412678Y-55976439D01*
X310331710Y-56014013D01*
X310264629Y-56046244D01*
X310217026Y-56070653D01*
X310194495Y-56084760D01*
X307102909Y-56084760D01*
X307102909Y-55806693D01*
X308558484Y-55801997D01*
X310014059Y-55797302D01*
X310330679Y-55650810D01*
X310335352Y-55648648D01*
X310437698Y-55601300D01*
X310533430Y-55557020D01*
X310616220Y-55518734D01*
X310679740Y-55489369D01*
X310717660Y-55471853D01*
X310743581Y-55460004D01*
X310801997Y-55433534D01*
X310880443Y-55398138D01*
X310971928Y-55356968D01*
X311069460Y-55313179D01*
X311135767Y-55283407D01*
X311235950Y-55238293D01*
X311328154Y-55196626D01*
X311404332Y-55162045D01*
X311456441Y-55138188D01*
X311509542Y-55114348D01*
X311549379Y-55097829D01*
X311566119Y-55092759D01*
X311566187Y-55092914D01*
X311560351Y-55111556D01*
X311543049Y-55157502D01*
X311516226Y-55225916D01*
X311481828Y-55311961D01*
X311441802Y-55410802D01*
X311398093Y-55517602D01*
X311352647Y-55627526D01*
X311307409Y-55735737D01*
X311303806Y-55744319D01*
X311292180Y-55772441D01*
X311273560Y-55817481D01*
X311245991Y-55885900D01*
X311226670Y-55935772D01*
X311213659Y-55969535D01*
X311186801Y-56035665D01*
X311158263Y-56102878D01*
X311147737Y-56127501D01*
X311122633Y-56187352D01*
X311087473Y-56271918D01*
X311044169Y-56376569D01*
X310994637Y-56496678D01*
X310940791Y-56627616D01*
X310884545Y-56764753D01*
X310820402Y-56921340D01*
X310749652Y-57093995D01*
X310690037Y-57239394D01*
X310640336Y-57360507D01*
X310599328Y-57460307D01*
X310565789Y-57541766D01*
X310538501Y-57607857D01*
X310516239Y-57661551D01*
X310497784Y-57705820D01*
X310491598Y-57720628D01*
X310474933Y-57760675D01*
X310454705Y-57809507D01*
X310429690Y-57870096D01*
X310398668Y-57945412D01*
X310360416Y-58038427D01*
X310313711Y-58152111D01*
X310257333Y-58289435D01*
X310190058Y-58453370D01*
X310187793Y-58458892D01*
X310110665Y-58646886D01*
X310073933Y-58736380D01*
G37*
%TO.C,D15*%
X290000000Y-72100004D02*
X290000000Y-75700004D01*
X286800000Y-75700004D02*
X290000000Y-75700004D01*
X286800000Y-72100004D02*
X286800000Y-75700004D01*
%TO.C,R4*%
X299660000Y-144227073D02*
X299660000Y-142772945D01*
X297840000Y-144227073D02*
X297840000Y-142772945D01*
%TO.C,D21*%
X316400000Y-33700001D02*
X319600000Y-33700001D01*
X319600000Y-30100001D02*
X319600000Y-33700001D01*
X316400000Y-30100001D02*
X316400000Y-33700001D01*
%TO.C,D2*%
X124000000Y-100100006D02*
X124000000Y-103700006D01*
X124000000Y-103700006D02*
X127200000Y-103700006D01*
X127200000Y-100100006D02*
X127200000Y-103700006D01*
%TO.C,D19*%
X112400000Y-114100007D02*
X112400000Y-117700007D01*
X109200000Y-117700007D02*
X112400000Y-117700007D01*
X109200000Y-114100007D02*
X109200000Y-117700007D01*
%TO.C,R5*%
X89160000Y-60227067D02*
X89160000Y-58772939D01*
X87340000Y-60227067D02*
X87340000Y-58772939D01*
X87340000Y-74227068D02*
X87340000Y-72772940D01*
X89160000Y-74227068D02*
X89160000Y-72772940D01*
%TO.C,R3*%
X147090000Y-88227069D02*
X147090000Y-86772941D01*
X148910000Y-88227069D02*
X148910000Y-86772941D01*
%TO.C,D17*%
X201200000Y-128100008D02*
X201200000Y-131700008D01*
X198000000Y-131700008D02*
X201200000Y-131700008D01*
X198000000Y-128100008D02*
X198000000Y-131700008D01*
%TO.C,D7*%
X53200000Y-128100008D02*
X53200000Y-131700008D01*
X50000000Y-131700008D02*
X53200000Y-131700008D01*
X50000000Y-128100008D02*
X50000000Y-131700008D01*
%TO.C,D20*%
X216000000Y-114100007D02*
X216000000Y-117700007D01*
X212800000Y-114100007D02*
X212800000Y-117700007D01*
X212800000Y-117700007D02*
X216000000Y-117700007D01*
%TO.C,D8*%
X156800000Y-114100007D02*
X156800000Y-117700007D01*
X153600000Y-117700007D02*
X156800000Y-117700007D01*
X153600000Y-114100007D02*
X153600000Y-117700007D01*
%TO.C,D20*%
X212800000Y-131700008D02*
X216000000Y-131700008D01*
X212800000Y-128100008D02*
X212800000Y-131700008D01*
X216000000Y-128100008D02*
X216000000Y-131700008D01*
%TO.C,D14*%
X183200000Y-142100009D02*
X183200000Y-145700009D01*
X183200000Y-145700009D02*
X186400000Y-145700009D01*
X186400000Y-142100009D02*
X186400000Y-145700009D01*
%TO.C,D9*%
X260400000Y-128100008D02*
X260400000Y-131700008D01*
X257200000Y-128100008D02*
X257200000Y-131700008D01*
X257200000Y-131700008D02*
X260400000Y-131700008D01*
%TO.C,D4*%
X35200000Y-159700010D02*
X38400000Y-159700010D01*
X38400000Y-156100010D02*
X38400000Y-159700010D01*
X35200000Y-156100010D02*
X35200000Y-159700010D01*
%TO.C,R4*%
X297840000Y-88227069D02*
X297840000Y-86772941D01*
X299660000Y-88227069D02*
X299660000Y-86772941D01*
%TO.C,D18*%
X301600000Y-156100010D02*
X301600000Y-159700010D01*
X301600000Y-159700010D02*
X304800000Y-159700010D01*
X304800000Y-156100010D02*
X304800000Y-159700010D01*
%TO.C,D10*%
X68000000Y-114100007D02*
X68000000Y-117700007D01*
X64800000Y-117700007D02*
X68000000Y-117700007D01*
X64800000Y-114100007D02*
X64800000Y-117700007D01*
%TO.C,D8*%
X153600000Y-159700010D02*
X156800000Y-159700010D01*
X153600000Y-156100010D02*
X153600000Y-159700010D01*
X156800000Y-156100010D02*
X156800000Y-159700010D01*
%TO.C,R2*%
X252160000Y-130227072D02*
X252160000Y-128772944D01*
X250340000Y-130227072D02*
X250340000Y-128772944D01*
%TO.C,D11*%
X168400000Y-117700007D02*
X171600000Y-117700007D01*
X168400000Y-114100007D02*
X168400000Y-117700007D01*
X171600000Y-114100007D02*
X171600000Y-117700007D01*
%TO.C,D9*%
X260400000Y-58100003D02*
X260400000Y-61700003D01*
X257200000Y-58100003D02*
X257200000Y-61700003D01*
X257200000Y-61700003D02*
X260400000Y-61700003D01*
%TO.C,D5*%
X138800000Y-58100003D02*
X138800000Y-61700003D01*
X138800000Y-61700003D02*
X142000000Y-61700003D01*
X142000000Y-58100003D02*
X142000000Y-61700003D01*
%TO.C,D9*%
X257200000Y-145700009D02*
X260400000Y-145700009D01*
X257200000Y-142100009D02*
X257200000Y-145700009D01*
X260400000Y-142100009D02*
X260400000Y-145700009D01*
%TO.C,D5*%
X138800000Y-44100002D02*
X138800000Y-47700002D01*
X142000000Y-44100002D02*
X142000000Y-47700002D01*
X138800000Y-47700002D02*
X142000000Y-47700002D01*
%TO.C,D3*%
X230800000Y-44100002D02*
X230800000Y-47700002D01*
X227600000Y-47700002D02*
X230800000Y-47700002D01*
X227600000Y-44100002D02*
X227600000Y-47700002D01*
%TO.C,D12*%
X272000000Y-86100005D02*
X272000000Y-89700005D01*
X275200000Y-86100005D02*
X275200000Y-89700005D01*
X272000000Y-89700005D02*
X275200000Y-89700005D01*
%TO.C,R6*%
X192910000Y-32227065D02*
X192910000Y-30772937D01*
X191090000Y-32227065D02*
X191090000Y-30772937D01*
%TO.C,D7*%
X53200000Y-86100005D02*
X53200000Y-89700005D01*
X50000000Y-86100005D02*
X50000000Y-89700005D01*
X50000000Y-89700005D02*
X53200000Y-89700005D01*
%TO.C,D17*%
X201200000Y-114100007D02*
X201200000Y-117700007D01*
X198000000Y-114100007D02*
X198000000Y-117700007D01*
X198000000Y-117700007D02*
X201200000Y-117700007D01*
%TO.C,D13*%
X79600000Y-156100010D02*
X79600000Y-159700010D01*
X82800000Y-156100010D02*
X82800000Y-159700010D01*
X79600000Y-159700010D02*
X82800000Y-159700010D01*
%TO.C,D5*%
X138800000Y-89700005D02*
X142000000Y-89700005D01*
X138800000Y-86100005D02*
X138800000Y-89700005D01*
X142000000Y-86100005D02*
X142000000Y-89700005D01*
%TO.C,D2*%
X124000000Y-30100001D02*
X124000000Y-33700001D01*
X124000000Y-33700001D02*
X127200000Y-33700001D01*
X127200000Y-30100001D02*
X127200000Y-33700001D01*
%TO.C,R1*%
X40590000Y-46227066D02*
X40590000Y-44772938D01*
X42410000Y-46227066D02*
X42410000Y-44772938D01*
%TO.C,D2*%
X124000000Y-131700008D02*
X127200000Y-131700008D01*
X127200000Y-128100008D02*
X127200000Y-131700008D01*
X124000000Y-128100008D02*
X124000000Y-131700008D01*
%TO.C,D9*%
X257200000Y-100100006D02*
X257200000Y-103700006D01*
X260400000Y-100100006D02*
X260400000Y-103700006D01*
X257200000Y-103700006D02*
X260400000Y-103700006D01*
%TO.C,R5*%
X87340000Y-88227069D02*
X87340000Y-86772941D01*
X89160000Y-88227069D02*
X89160000Y-86772941D01*
%TO.C,D4*%
X35200000Y-58100003D02*
X35200000Y-61700003D01*
X38400000Y-58100003D02*
X38400000Y-61700003D01*
X35200000Y-61700003D02*
X38400000Y-61700003D01*
%TO.C,R1*%
X42410000Y-32227065D02*
X42410000Y-30772937D01*
X40590000Y-32227065D02*
X40590000Y-30772937D01*
%TO.C,D21*%
X316400000Y-103700006D02*
X319600000Y-103700006D01*
X319600000Y-100100006D02*
X319600000Y-103700006D01*
X316400000Y-100100006D02*
X316400000Y-103700006D01*
%TO.C,D8*%
X153600000Y-86100005D02*
X153600000Y-89700005D01*
X156800000Y-86100005D02*
X156800000Y-89700005D01*
X153600000Y-89700005D02*
X156800000Y-89700005D01*
%TO.C,D11*%
X171600000Y-72100004D02*
X171600000Y-75700004D01*
X168400000Y-75700004D02*
X171600000Y-75700004D01*
X168400000Y-72100004D02*
X168400000Y-75700004D01*
%TO.C,R1*%
X42410000Y-74227068D02*
X42410000Y-72772940D01*
X40590000Y-74227068D02*
X40590000Y-72772940D01*
%TO.C,D2*%
X127200000Y-114100007D02*
X127200000Y-117700007D01*
X124000000Y-114100007D02*
X124000000Y-117700007D01*
X124000000Y-117700007D02*
X127200000Y-117700007D01*
%TO.C,D8*%
X153600000Y-75700004D02*
X156800000Y-75700004D01*
X156800000Y-72100004D02*
X156800000Y-75700004D01*
X153600000Y-72100004D02*
X153600000Y-75700004D01*
%TO.C,D16*%
X94400000Y-72100004D02*
X94400000Y-75700004D01*
X94400000Y-75700004D02*
X97600000Y-75700004D01*
X97600000Y-72100004D02*
X97600000Y-75700004D01*
%TO.C,D8*%
X153600000Y-33700001D02*
X156800000Y-33700001D01*
X156800000Y-30100001D02*
X156800000Y-33700001D01*
X153600000Y-30100001D02*
X153600000Y-33700001D01*
%TO.C,D7*%
X53200000Y-72100004D02*
X53200000Y-75700004D01*
X50000000Y-75700004D02*
X53200000Y-75700004D01*
X50000000Y-72100004D02*
X50000000Y-75700004D01*
%TD*%
M02*
