M48
; DRILL file {KiCad (6.0.7)} date Mon Feb  6 13:38:02 2023
; FORMAT={-:-/ absolute / metric / decimal}
; #@! TF.CreationDate,2023-02-06T13:38:02+00:00
; #@! TF.GenerationSoftware,Kicad,Pcbnew,(6.0.7)
; #@! TF.FileFunction,Plated,1,2,PTH
FMAT,2
METRIC
; #@! TA.AperFunction,Plated,PTH,ViaDrill
T1C0.400
; #@! TA.AperFunction,Plated,PTH,ComponentDrill
T2C0.500
; #@! TA.AperFunction,Plated,PTH,ComponentDrill
T3C1.000
; #@! TA.AperFunction,Plated,PTH,ComponentDrill
T4C3.200
%
G90
G05
T1
X17.0Y-35.0
X17.0Y-49.0
X17.0Y-63.0
X17.0Y-77.0
X17.0Y-91.0
X17.0Y-105.0
X17.0Y-119.0
X17.0Y-133.0
X17.0Y-147.0
X17.0Y-161.0
X19.5Y-35.0
X19.5Y-49.0
X19.5Y-63.0
X19.5Y-77.0
X19.5Y-91.0
X19.5Y-105.0
X19.5Y-119.0
X19.5Y-133.0
X19.5Y-147.0
X19.5Y-161.0
X22.0Y-35.0
X22.0Y-49.0
X22.0Y-63.0
X22.0Y-77.0
X22.0Y-91.0
X22.0Y-105.0
X22.0Y-119.0
X22.0Y-133.0
X22.0Y-147.0
X22.0Y-161.0
X35.5Y-35.0
X35.5Y-49.0
X35.5Y-63.0
X35.5Y-77.0
X35.5Y-91.0
X35.5Y-105.0
X35.5Y-119.0
X35.5Y-133.0
X35.5Y-147.0
X35.5Y-161.0
X38.0Y-35.0
X38.0Y-49.0
X38.0Y-63.0
X38.0Y-77.0
X38.0Y-91.0
X38.0Y-105.0
X38.0Y-119.0
X38.0Y-133.0
X38.0Y-147.0
X38.0Y-161.0
X40.5Y-35.0
X40.5Y-49.0
X40.5Y-63.0
X40.5Y-77.0
X40.5Y-91.0
X40.5Y-105.0
X40.5Y-119.0
X40.5Y-133.0
X40.5Y-147.0
X40.5Y-161.0
X50.0Y-35.0
X50.0Y-49.0
X50.0Y-63.0
X50.0Y-77.0
X50.0Y-91.0
X50.0Y-105.0
X50.0Y-119.0
X50.0Y-133.0
X50.0Y-147.0
X50.0Y-161.0
X53.0Y-35.0
X53.0Y-49.0
X53.0Y-63.0
X53.0Y-77.0
X53.0Y-91.0
X53.0Y-105.0
X53.0Y-119.0
X53.0Y-133.0
X53.0Y-147.0
X53.0Y-161.0
X65.0Y-35.0
X65.0Y-49.0
X65.0Y-63.0
X65.0Y-77.0
X65.0Y-91.0
X65.0Y-105.0
X65.0Y-119.0
X65.0Y-133.0
X65.0Y-147.0
X65.0Y-161.0
X70.0Y-35.0
X70.0Y-49.0
X70.0Y-63.0
X70.0Y-77.0
X70.0Y-91.0
X70.0Y-105.0
X70.0Y-119.0
X70.0Y-133.0
X70.0Y-147.0
X70.0Y-161.0
X75.0Y-35.0
X75.0Y-49.0
X75.0Y-63.0
X75.0Y-77.0
X75.0Y-91.0
X75.0Y-105.0
X75.0Y-119.0
X75.0Y-133.0
X75.0Y-147.0
X75.0Y-161.0
X80.0Y-35.0
X80.0Y-49.0
X80.0Y-63.0
X80.0Y-77.0
X80.0Y-91.0
X80.0Y-105.0
X80.0Y-119.0
X80.0Y-133.0
X80.0Y-147.0
X80.0Y-161.0
X85.0Y-35.0
X85.0Y-49.0
X85.0Y-63.0
X85.0Y-77.0
X85.0Y-91.0
X85.0Y-105.0
X85.0Y-119.0
X85.0Y-133.0
X85.0Y-147.0
X85.0Y-161.0
X90.0Y-35.0
X90.0Y-49.0
X90.0Y-63.0
X90.0Y-77.0
X90.0Y-91.0
X90.0Y-105.0
X90.0Y-119.0
X90.0Y-133.0
X90.0Y-147.0
X90.0Y-161.0
X95.0Y-35.0
X95.0Y-49.0
X95.0Y-63.0
X95.0Y-77.0
X95.0Y-91.0
X95.0Y-105.0
X95.0Y-119.0
X95.0Y-133.0
X95.0Y-147.0
X95.0Y-161.0
X100.0Y-35.0
X100.0Y-49.0
X100.0Y-63.0
X100.0Y-77.0
X100.0Y-91.0
X100.0Y-105.0
X100.0Y-119.0
X100.0Y-133.0
X100.0Y-147.0
X100.0Y-161.0
X105.0Y-35.0
X105.0Y-49.0
X105.0Y-63.0
X105.0Y-77.0
X105.0Y-91.0
X105.0Y-105.0
X105.0Y-119.0
X105.0Y-133.0
X105.0Y-147.0
X105.0Y-161.0
X110.0Y-35.0
X110.0Y-49.0
X110.0Y-63.0
X110.0Y-77.0
X110.0Y-91.0
X110.0Y-105.0
X110.0Y-119.0
X110.0Y-133.0
X110.0Y-147.0
X110.0Y-161.0
X115.0Y-35.0
X115.0Y-49.0
X115.0Y-63.0
X115.0Y-77.0
X115.0Y-91.0
X115.0Y-105.0
X115.0Y-119.0
X115.0Y-133.0
X115.0Y-147.0
X115.0Y-161.0
X120.0Y-35.0
X120.0Y-49.0
X120.0Y-63.0
X120.0Y-77.0
X120.0Y-91.0
X120.0Y-105.0
X120.0Y-119.0
X120.0Y-133.0
X120.0Y-147.0
X120.0Y-161.0
X125.0Y-35.0
X125.0Y-49.0
X125.0Y-63.0
X125.0Y-77.0
X125.0Y-91.0
X125.0Y-105.0
X125.0Y-119.0
X125.0Y-133.0
X125.0Y-147.0
X125.0Y-161.0
X130.0Y-35.0
X130.0Y-49.0
X130.0Y-63.0
X130.0Y-77.0
X130.0Y-91.0
X130.0Y-105.0
X130.0Y-119.0
X130.0Y-133.0
X130.0Y-147.0
X130.0Y-161.0
X135.0Y-35.0
X135.0Y-49.0
X135.0Y-63.0
X135.0Y-77.0
X135.0Y-91.0
X135.0Y-105.0
X135.0Y-119.0
X135.0Y-133.0
X135.0Y-147.0
X135.0Y-161.0
X140.0Y-35.0
X140.0Y-49.0
X140.0Y-63.0
X140.0Y-77.0
X140.0Y-91.0
X140.0Y-105.0
X140.0Y-119.0
X140.0Y-133.0
X140.0Y-147.0
X140.0Y-161.0
X145.0Y-35.0
X145.0Y-49.0
X145.0Y-63.0
X145.0Y-77.0
X145.0Y-91.0
X145.0Y-105.0
X145.0Y-119.0
X145.0Y-133.0
X145.0Y-147.0
X145.0Y-161.0
X150.0Y-35.0
X150.0Y-49.0
X150.0Y-63.0
X150.0Y-77.0
X150.0Y-91.0
X150.0Y-105.0
X150.0Y-119.0
X150.0Y-133.0
X150.0Y-147.0
X150.0Y-161.0
X155.0Y-35.0
X155.0Y-49.0
X155.0Y-63.0
X155.0Y-77.0
X155.0Y-91.0
X155.0Y-105.0
X155.0Y-119.0
X155.0Y-133.0
X155.0Y-147.0
X155.0Y-161.0
X160.0Y-35.0
X160.0Y-49.0
X160.0Y-63.0
X160.0Y-77.0
X160.0Y-91.0
X160.0Y-105.0
X160.0Y-119.0
X160.0Y-133.0
X160.0Y-147.0
X160.0Y-161.0
X165.0Y-35.0
X165.0Y-49.0
X165.0Y-63.0
X165.0Y-77.0
X165.0Y-91.0
X165.0Y-105.0
X165.0Y-119.0
X165.0Y-133.0
X165.0Y-147.0
X165.0Y-161.0
X170.0Y-35.0
X170.0Y-49.0
X170.0Y-63.0
X170.0Y-77.0
X170.0Y-91.0
X170.0Y-105.0
X170.0Y-119.0
X170.0Y-133.0
X170.0Y-147.0
X170.0Y-161.0
X175.0Y-35.0
X175.0Y-49.0
X175.0Y-63.0
X175.0Y-77.0
X175.0Y-91.0
X175.0Y-105.0
X175.0Y-119.0
X175.0Y-133.0
X175.0Y-147.0
X175.0Y-161.0
X180.0Y-35.0
X180.0Y-49.0
X180.0Y-63.0
X180.0Y-77.0
X180.0Y-91.0
X180.0Y-105.0
X180.0Y-119.0
X180.0Y-133.0
X180.0Y-147.0
X180.0Y-161.0
X185.0Y-35.0
X185.0Y-49.0
X185.0Y-63.0
X185.0Y-77.0
X185.0Y-91.0
X185.0Y-105.0
X185.0Y-119.0
X185.0Y-133.0
X185.0Y-147.0
X185.0Y-161.0
X190.0Y-35.0
X190.0Y-49.0
X190.0Y-63.0
X190.0Y-77.0
X190.0Y-91.0
X190.0Y-105.0
X190.0Y-119.0
X190.0Y-133.0
X190.0Y-147.0
X190.0Y-161.0
X195.0Y-35.0
X195.0Y-49.0
X195.0Y-63.0
X195.0Y-77.0
X195.0Y-91.0
X195.0Y-105.0
X195.0Y-119.0
X195.0Y-133.0
X195.0Y-147.0
X195.0Y-161.0
X200.0Y-35.0
X200.0Y-49.0
X200.0Y-63.0
X200.0Y-77.0
X200.0Y-91.0
X200.0Y-105.0
X200.0Y-119.0
X200.0Y-133.0
X200.0Y-147.0
X200.0Y-161.0
X205.0Y-35.0
X205.0Y-49.0
X205.0Y-63.0
X205.0Y-77.0
X205.0Y-91.0
X205.0Y-105.0
X205.0Y-119.0
X205.0Y-133.0
X205.0Y-147.0
X205.0Y-161.0
X210.0Y-35.0
X210.0Y-49.0
X210.0Y-63.0
X210.0Y-77.0
X210.0Y-91.0
X210.0Y-105.0
X210.0Y-119.0
X210.0Y-133.0
X210.0Y-147.0
X210.0Y-161.0
X215.0Y-35.0
X215.0Y-49.0
X215.0Y-63.0
X215.0Y-77.0
X215.0Y-91.0
X215.0Y-105.0
X215.0Y-119.0
X215.0Y-133.0
X215.0Y-147.0
X215.0Y-161.0
X220.0Y-35.0
X220.0Y-49.0
X220.0Y-63.0
X220.0Y-77.0
X220.0Y-91.0
X220.0Y-105.0
X220.0Y-119.0
X220.0Y-133.0
X220.0Y-147.0
X220.0Y-161.0
X225.0Y-35.0
X225.0Y-49.0
X225.0Y-63.0
X225.0Y-77.0
X225.0Y-91.0
X225.0Y-105.0
X225.0Y-119.0
X225.0Y-133.0
X225.0Y-147.0
X225.0Y-161.0
X230.0Y-35.0
X230.0Y-49.0
X230.0Y-63.0
X230.0Y-77.0
X230.0Y-91.0
X230.0Y-105.0
X230.0Y-119.0
X230.0Y-133.0
X230.0Y-147.0
X230.0Y-161.0
X235.0Y-35.0
X235.0Y-49.0
X235.0Y-63.0
X235.0Y-77.0
X235.0Y-91.0
X235.0Y-105.0
X235.0Y-119.0
X235.0Y-133.0
X235.0Y-147.0
X235.0Y-161.0
X240.0Y-35.0
X240.0Y-49.0
X240.0Y-63.0
X240.0Y-77.0
X240.0Y-91.0
X240.0Y-105.0
X240.0Y-119.0
X240.0Y-133.0
X240.0Y-147.0
X240.0Y-161.0
X245.0Y-35.0
X245.0Y-49.0
X245.0Y-63.0
X245.0Y-77.0
X245.0Y-91.0
X245.0Y-105.0
X245.0Y-119.0
X245.0Y-133.0
X245.0Y-147.0
X245.0Y-161.0
X250.0Y-35.0
X250.0Y-49.0
X250.0Y-63.0
X250.0Y-77.0
X250.0Y-91.0
X250.0Y-105.0
X250.0Y-119.0
X250.0Y-133.0
X250.0Y-147.0
X250.0Y-161.0
X255.0Y-35.0
X255.0Y-49.0
X255.0Y-63.0
X255.0Y-77.0
X255.0Y-91.0
X255.0Y-105.0
X255.0Y-119.0
X255.0Y-133.0
X255.0Y-147.0
X255.0Y-161.0
X260.0Y-35.0
X260.0Y-49.0
X260.0Y-63.0
X260.0Y-77.0
X260.0Y-91.0
X260.0Y-105.0
X260.0Y-119.0
X260.0Y-133.0
X260.0Y-147.0
X260.0Y-161.0
X265.0Y-35.0
X265.0Y-49.0
X265.0Y-63.0
X265.0Y-77.0
X265.0Y-91.0
X265.0Y-105.0
X265.0Y-119.0
X265.0Y-133.0
X265.0Y-147.0
X265.0Y-161.0
X270.0Y-35.0
X270.0Y-49.0
X270.0Y-63.0
X270.0Y-77.0
X270.0Y-91.0
X270.0Y-105.0
X270.0Y-119.0
X270.0Y-133.0
X270.0Y-147.0
X270.0Y-161.0
X275.0Y-35.0
X275.0Y-49.0
X275.0Y-63.0
X275.0Y-77.0
X275.0Y-91.0
X275.0Y-105.0
X275.0Y-119.0
X275.0Y-133.0
X275.0Y-147.0
X275.0Y-161.0
X286.0Y-35.0
X286.0Y-49.0
X286.0Y-63.0
X286.0Y-77.0
X286.0Y-91.0
X286.0Y-105.0
X286.0Y-119.0
X286.0Y-133.0
X286.0Y-147.0
X286.0Y-161.0
X289.0Y-35.0
X289.0Y-49.0
X289.0Y-63.0
X289.0Y-77.0
X289.0Y-91.0
X289.0Y-105.0
X289.0Y-119.0
X289.0Y-133.0
X289.0Y-147.0
X289.0Y-161.0
X298.0Y-35.0
X298.0Y-49.0
X298.0Y-63.0
X298.0Y-77.0
X298.0Y-91.0
X298.0Y-105.0
X298.0Y-119.0
X298.0Y-133.0
X298.0Y-147.0
X298.0Y-161.0
X300.5Y-35.0
X300.5Y-49.0
X300.5Y-63.0
X300.5Y-77.0
X300.5Y-91.0
X300.5Y-105.0
X300.5Y-119.0
X300.5Y-133.0
X300.5Y-147.0
X300.5Y-161.0
X303.0Y-35.0
X303.0Y-49.0
X303.0Y-63.0
X303.0Y-77.0
X303.0Y-91.0
X303.0Y-105.0
X303.0Y-119.0
X303.0Y-133.0
X303.0Y-147.0
X303.0Y-161.0
X316.5Y-35.0
X316.5Y-49.0
X316.5Y-63.0
X316.5Y-77.0
X316.5Y-91.0
X316.5Y-105.0
X316.5Y-119.0
X316.5Y-133.0
X316.5Y-147.0
X316.5Y-161.0
X319.0Y-35.0
X319.0Y-49.0
X319.0Y-63.0
X319.0Y-77.0
X319.0Y-91.0
X319.0Y-105.0
X319.0Y-119.0
X319.0Y-133.0
X319.0Y-147.0
X319.0Y-161.0
X321.5Y-35.0
X321.5Y-49.0
X321.5Y-63.0
X321.5Y-77.0
X321.5Y-91.0
X321.5Y-105.0
X321.5Y-119.0
X321.5Y-133.0
X321.5Y-147.0
X321.5Y-161.0
T2
X56.6Y-31.5
X56.6Y-45.5
X56.6Y-59.5
X56.6Y-73.5
X56.6Y-87.5
X56.6Y-101.5
X56.6Y-115.5
X56.6Y-129.5
X56.6Y-143.5
X56.6Y-157.5
X57.303Y-29.803
X57.303Y-33.197
X57.303Y-43.803
X57.303Y-47.197
X57.303Y-57.803
X57.303Y-61.197
X57.303Y-71.803
X57.303Y-75.197
X57.303Y-85.803
X57.303Y-89.197
X57.303Y-99.803
X57.303Y-103.197
X57.303Y-113.803
X57.303Y-117.197
X57.303Y-127.803
X57.303Y-131.197
X57.303Y-141.803
X57.303Y-145.197
X57.303Y-155.803
X57.303Y-159.197
X59.0Y-29.1
X59.0Y-33.9
X59.0Y-43.1
X59.0Y-47.9
X59.0Y-57.1
X59.0Y-61.9
X59.0Y-71.1
X59.0Y-75.9
X59.0Y-85.1
X59.0Y-89.9
X59.0Y-99.1
X59.0Y-103.9
X59.0Y-113.1
X59.0Y-117.9
X59.0Y-127.1
X59.0Y-131.9
X59.0Y-141.1
X59.0Y-145.9
X59.0Y-155.1
X59.0Y-159.9
X60.697Y-29.803
X60.697Y-33.197
X60.697Y-43.803
X60.697Y-47.197
X60.697Y-57.803
X60.697Y-61.197
X60.697Y-71.803
X60.697Y-75.197
X60.697Y-85.803
X60.697Y-89.197
X60.697Y-99.803
X60.697Y-103.197
X60.697Y-113.803
X60.697Y-117.197
X60.697Y-127.803
X60.697Y-131.197
X60.697Y-141.803
X60.697Y-145.197
X60.697Y-155.803
X60.697Y-159.197
X61.4Y-31.5
X61.4Y-45.5
X61.4Y-59.5
X61.4Y-73.5
X61.4Y-87.5
X61.4Y-101.5
X61.4Y-115.5
X61.4Y-129.5
X61.4Y-143.5
X61.4Y-157.5
X278.6Y-31.5
X278.6Y-45.5
X278.6Y-59.5
X278.6Y-73.5
X278.6Y-87.5
X278.6Y-101.5
X278.6Y-115.5
X278.6Y-129.5
X278.6Y-143.5
X278.6Y-157.5
X279.303Y-29.803
X279.303Y-33.197
X279.303Y-43.803
X279.303Y-47.197
X279.303Y-57.803
X279.303Y-61.197
X279.303Y-71.803
X279.303Y-75.197
X279.303Y-85.803
X279.303Y-89.197
X279.303Y-99.803
X279.303Y-103.197
X279.303Y-113.803
X279.303Y-117.197
X279.303Y-127.803
X279.303Y-131.197
X279.303Y-141.803
X279.303Y-145.197
X279.303Y-155.803
X279.303Y-159.197
X281.0Y-29.1
X281.0Y-33.9
X281.0Y-43.1
X281.0Y-47.9
X281.0Y-57.1
X281.0Y-61.9
X281.0Y-71.1
X281.0Y-75.9
X281.0Y-85.1
X281.0Y-89.9
X281.0Y-99.1
X281.0Y-103.9
X281.0Y-113.1
X281.0Y-117.9
X281.0Y-127.1
X281.0Y-131.9
X281.0Y-141.1
X281.0Y-145.9
X281.0Y-155.1
X281.0Y-159.9
X282.697Y-29.803
X282.697Y-33.197
X282.697Y-43.803
X282.697Y-47.197
X282.697Y-57.803
X282.697Y-61.197
X282.697Y-71.803
X282.697Y-75.197
X282.697Y-85.803
X282.697Y-89.197
X282.697Y-99.803
X282.697Y-103.197
X282.697Y-113.803
X282.697Y-117.197
X282.697Y-127.803
X282.697Y-131.197
X282.697Y-141.803
X282.697Y-145.197
X282.697Y-155.803
X282.697Y-159.197
X283.4Y-31.5
X283.4Y-45.5
X283.4Y-59.5
X283.4Y-73.5
X283.4Y-87.5
X283.4Y-101.5
X283.4Y-115.5
X283.4Y-129.5
X283.4Y-143.5
X283.4Y-157.5
T3
X25.75Y-30.46
X25.75Y-33.0
X25.75Y-44.46
X25.75Y-47.0
X25.75Y-58.46
X25.75Y-61.0
X25.75Y-72.46
X25.75Y-75.0
X25.75Y-86.46
X25.75Y-89.0
X25.75Y-100.46
X25.75Y-103.0
X25.75Y-114.46
X25.75Y-117.0
X25.75Y-128.46
X25.75Y-131.0
X25.75Y-142.46
X25.75Y-145.0
X25.75Y-156.46
X25.75Y-159.0
X46.5Y-30.25
X46.5Y-32.75
X46.5Y-44.25
X46.5Y-46.75
X46.5Y-58.25
X46.5Y-60.75
X46.5Y-72.25
X46.5Y-74.75
X46.5Y-86.25
X46.5Y-88.75
X46.5Y-100.25
X46.5Y-102.75
X46.5Y-114.25
X46.5Y-116.75
X46.5Y-128.25
X46.5Y-130.75
X46.5Y-142.25
X46.5Y-144.75
X46.5Y-156.25
X46.5Y-158.75
X294.0Y-30.25
X294.0Y-32.75
X294.0Y-44.25
X294.0Y-46.75
X294.0Y-58.25
X294.0Y-60.75
X294.0Y-72.25
X294.0Y-74.75
X294.0Y-86.25
X294.0Y-88.75
X294.0Y-100.25
X294.0Y-102.75
X294.0Y-114.25
X294.0Y-116.75
X294.0Y-128.25
X294.0Y-130.75
X294.0Y-142.25
X294.0Y-144.75
X294.0Y-156.25
X294.0Y-158.75
X314.25Y-30.0
X314.25Y-32.54
X314.25Y-44.0
X314.25Y-46.54
X314.25Y-58.0
X314.25Y-60.54
X314.25Y-72.0
X314.25Y-74.54
X314.25Y-86.0
X314.25Y-88.54
X314.25Y-100.0
X314.25Y-102.54
X314.25Y-114.0
X314.25Y-116.54
X314.25Y-128.0
X314.25Y-130.54
X314.25Y-142.0
X314.25Y-144.54
X314.25Y-156.0
X314.25Y-158.54
T4
X59.0Y-31.5
X59.0Y-45.5
X59.0Y-59.5
X59.0Y-73.5
X59.0Y-87.5
X59.0Y-101.5
X59.0Y-115.5
X59.0Y-129.5
X59.0Y-143.5
X59.0Y-157.5
X281.0Y-31.5
X281.0Y-45.5
X281.0Y-59.5
X281.0Y-73.5
X281.0Y-87.5
X281.0Y-101.5
X281.0Y-115.5
X281.0Y-129.5
X281.0Y-143.5
X281.0Y-157.5
T0
M30
