%TF.GenerationSoftware,KiCad,Pcbnew,(6.0.7)*%
%TF.CreationDate,2023-02-06T14:52:35+00:00*%
%TF.ProjectId,Dayspring_Mini_P,44617973-7072-4696-9e67-5f4d696e695f,rev?*%
%TF.SameCoordinates,Original*%
%TF.FileFunction,Soldermask,Bot*%
%TF.FilePolarity,Negative*%
%FSLAX46Y46*%
G04 Gerber Fmt 4.6, Leading zero omitted, Abs format (unit mm)*
G04 Created by KiCad (PCBNEW (6.0.7)) date 2023-02-06 14:52:35*
%MOMM*%
%LPD*%
G01*
G04 APERTURE LIST*
G04 Aperture macros list*
%AMRoundRect*
0 Rectangle with rounded corners*
0 $1 Rounding radius*
0 $2 $3 $4 $5 $6 $7 $8 $9 X,Y pos of 4 corners*
0 Add a 4 corners polygon primitive as box body*
4,1,4,$2,$3,$4,$5,$6,$7,$8,$9,$2,$3,0*
0 Add four circle primitives for the rounded corners*
1,1,$1+$1,$2,$3*
1,1,$1+$1,$4,$5*
1,1,$1+$1,$6,$7*
1,1,$1+$1,$8,$9*
0 Add four rect primitives between the rounded corners*
20,1,$1+$1,$2,$3,$4,$5,0*
20,1,$1+$1,$4,$5,$6,$7,0*
20,1,$1+$1,$6,$7,$8,$9,0*
20,1,$1+$1,$8,$9,$2,$3,0*%
G04 Aperture macros list end*
%ADD10C,6.400000*%
%ADD11C,0.800000*%
%ADD12R,1.700000X1.700000*%
%ADD13O,1.700000X1.700000*%
%ADD14RoundRect,0.250000X0.750000X-0.600000X0.750000X0.600000X-0.750000X0.600000X-0.750000X-0.600000X0*%
%ADD15O,2.000000X1.700000*%
%ADD16RoundRect,0.250000X-0.750000X0.600000X-0.750000X-0.600000X0.750000X-0.600000X0.750000X0.600000X0*%
%ADD17C,2.000000*%
G04 APERTURE END LIST*
D10*
%TO.C,H2*%
X181000000Y-157500000D03*
D11*
X179302944Y-155802944D03*
X182697056Y-155802944D03*
X183400000Y-157500000D03*
X182697056Y-159197056D03*
X181000000Y-159900000D03*
X181000000Y-155100000D03*
X178600000Y-157500000D03*
X179302944Y-159197056D03*
%TD*%
%TO.C,H1*%
X56600000Y-59500000D03*
X61400000Y-59500000D03*
X59000000Y-61900000D03*
X60697056Y-61197056D03*
D10*
X59000000Y-59500000D03*
D11*
X57302944Y-57802944D03*
X59000000Y-57100000D03*
X60697056Y-57802944D03*
X57302944Y-61197056D03*
%TD*%
%TO.C,H2*%
X181000000Y-33900000D03*
D10*
X181000000Y-31500000D03*
D11*
X182697056Y-33197056D03*
X182697056Y-29802944D03*
X179302944Y-29802944D03*
X183400000Y-31500000D03*
X178600000Y-31500000D03*
X181000000Y-29100000D03*
X179302944Y-33197056D03*
%TD*%
%TO.C,H1*%
X56600000Y-115500000D03*
X57302944Y-113802944D03*
D10*
X59000000Y-115500000D03*
D11*
X61400000Y-115500000D03*
X60697056Y-117197056D03*
X59000000Y-117900000D03*
X60697056Y-113802944D03*
X57302944Y-117197056D03*
X59000000Y-113100000D03*
%TD*%
%TO.C,H2*%
X182697056Y-85802944D03*
X181000000Y-85100000D03*
X181000000Y-89900000D03*
X178600000Y-87500000D03*
X179302944Y-85802944D03*
X182697056Y-89197056D03*
D10*
X181000000Y-87500000D03*
D11*
X183400000Y-87500000D03*
X179302944Y-89197056D03*
%TD*%
D10*
%TO.C,H2*%
X181000000Y-129500000D03*
D11*
X182697056Y-131197056D03*
X178600000Y-129500000D03*
X179302944Y-131197056D03*
X183400000Y-129500000D03*
X182697056Y-127802944D03*
X181000000Y-131900000D03*
X181000000Y-127100000D03*
X179302944Y-127802944D03*
%TD*%
%TO.C,H1*%
X61400000Y-73500000D03*
X57302944Y-71802944D03*
X59000000Y-75900000D03*
X57302944Y-75197056D03*
X60697056Y-71802944D03*
X59000000Y-71100000D03*
X56600000Y-73500000D03*
D10*
X59000000Y-73500000D03*
D11*
X60697056Y-75197056D03*
%TD*%
%TO.C,H1*%
X60697056Y-89197056D03*
X57302944Y-89197056D03*
X59000000Y-85100000D03*
D10*
X59000000Y-87500000D03*
D11*
X60697056Y-85802944D03*
X61400000Y-87500000D03*
X59000000Y-89900000D03*
X56600000Y-87500000D03*
X57302944Y-85802944D03*
%TD*%
%TO.C,H1*%
X59000000Y-33900000D03*
X59000000Y-29100000D03*
X57302944Y-33197056D03*
X61400000Y-31500000D03*
D10*
X59000000Y-31500000D03*
D11*
X60697056Y-33197056D03*
X57302944Y-29802944D03*
X60697056Y-29802944D03*
X56600000Y-31500000D03*
%TD*%
%TO.C,H2*%
X178600000Y-59500000D03*
X179302944Y-61197056D03*
X179302944Y-57802944D03*
X181000000Y-61900000D03*
D10*
X181000000Y-59500000D03*
D11*
X182697056Y-61197056D03*
X182697056Y-57802944D03*
X183400000Y-59500000D03*
X181000000Y-57100000D03*
%TD*%
%TO.C,H2*%
X178600000Y-45500000D03*
X179302944Y-47197056D03*
X179302944Y-43802944D03*
X182697056Y-43802944D03*
X181000000Y-47900000D03*
X183400000Y-45500000D03*
X181000000Y-43100000D03*
D10*
X181000000Y-45500000D03*
D11*
X182697056Y-47197056D03*
%TD*%
%TO.C,H1*%
X60697056Y-155802944D03*
X57302944Y-159197056D03*
X59000000Y-155100000D03*
X60697056Y-159197056D03*
X61400000Y-157500000D03*
D10*
X59000000Y-157500000D03*
D11*
X56600000Y-157500000D03*
X59000000Y-159900000D03*
X57302944Y-155802944D03*
%TD*%
D10*
%TO.C,H1*%
X59000000Y-143500000D03*
D11*
X59000000Y-145900000D03*
X60697056Y-141802944D03*
X59000000Y-141100000D03*
X57302944Y-145197056D03*
X61400000Y-143500000D03*
X60697056Y-145197056D03*
X57302944Y-141802944D03*
X56600000Y-143500000D03*
%TD*%
%TO.C,H2*%
X179302944Y-113802944D03*
X182697056Y-113802944D03*
X181000000Y-113100000D03*
X179302944Y-117197056D03*
X181000000Y-117900000D03*
X183400000Y-115500000D03*
D10*
X181000000Y-115500000D03*
D11*
X182697056Y-117197056D03*
X178600000Y-115500000D03*
%TD*%
D10*
%TO.C,H1*%
X59000000Y-129500000D03*
D11*
X59000000Y-131900000D03*
X60697056Y-131197056D03*
X60697056Y-127802944D03*
X56600000Y-129500000D03*
X57302944Y-131197056D03*
X57302944Y-127802944D03*
X59000000Y-127100000D03*
X61400000Y-129500000D03*
%TD*%
%TO.C,H2*%
X179302944Y-103197056D03*
X178600000Y-101500000D03*
X183400000Y-101500000D03*
X182697056Y-99802944D03*
X179302944Y-99802944D03*
X181000000Y-99100000D03*
X181000000Y-103900000D03*
D10*
X181000000Y-101500000D03*
D11*
X182697056Y-103197056D03*
%TD*%
%TO.C,H2*%
X181000000Y-75900000D03*
X181000000Y-71100000D03*
X182697056Y-71802944D03*
X179302944Y-75197056D03*
X182697056Y-75197056D03*
X179302944Y-71802944D03*
X178600000Y-73500000D03*
D10*
X181000000Y-73500000D03*
D11*
X183400000Y-73500000D03*
%TD*%
%TO.C,H1*%
X59000000Y-99100000D03*
X56600000Y-101500000D03*
X60697056Y-103197056D03*
X57302944Y-103197056D03*
X61400000Y-101500000D03*
X59000000Y-103900000D03*
X60697056Y-99802944D03*
D10*
X59000000Y-101500000D03*
D11*
X57302944Y-99802944D03*
%TD*%
%TO.C,H2*%
X179302944Y-145197056D03*
X182697056Y-141802944D03*
D10*
X181000000Y-143500000D03*
D11*
X182697056Y-145197056D03*
X178600000Y-143500000D03*
X183400000Y-143500000D03*
X181000000Y-141100000D03*
X181000000Y-145900000D03*
X179302944Y-141802944D03*
%TD*%
D10*
%TO.C,H1*%
X59000000Y-45500000D03*
D11*
X57302944Y-47197056D03*
X57302944Y-43802944D03*
X59000000Y-47900000D03*
X59000000Y-43100000D03*
X56600000Y-45500000D03*
X60697056Y-47197056D03*
X60697056Y-43802944D03*
X61400000Y-45500000D03*
%TD*%
D12*
%TO.C,J4*%
X214250000Y-44250000D03*
D13*
X214250000Y-46790000D03*
%TD*%
D12*
%TO.C,J2*%
X25750000Y-74790000D03*
D13*
X25750000Y-72250000D03*
%TD*%
D14*
%TO.C,J1*%
X46000000Y-116750000D03*
D15*
X46000000Y-114250000D03*
%TD*%
D12*
%TO.C,J4*%
X214250000Y-114250000D03*
D13*
X214250000Y-116790000D03*
%TD*%
D12*
%TO.C,J4*%
X214250000Y-72250000D03*
D13*
X214250000Y-74790000D03*
%TD*%
D12*
%TO.C,J4*%
X214250000Y-142250000D03*
D13*
X214250000Y-144790000D03*
%TD*%
D12*
%TO.C,J2*%
X25750000Y-144790000D03*
D13*
X25750000Y-142250000D03*
%TD*%
D16*
%TO.C,J3*%
X194000000Y-30250000D03*
D15*
X194000000Y-32750000D03*
%TD*%
D12*
%TO.C,J2*%
X25750000Y-60790000D03*
D13*
X25750000Y-58250000D03*
%TD*%
D17*
%TO.C,REF\u002A\u002A*%
X220500000Y-169500000D03*
%TD*%
D12*
%TO.C,J2*%
X25750000Y-130790000D03*
D13*
X25750000Y-128250000D03*
%TD*%
D12*
%TO.C,J2*%
X25750000Y-46790000D03*
D13*
X25750000Y-44250000D03*
%TD*%
D12*
%TO.C,J2*%
X25750000Y-102790000D03*
D13*
X25750000Y-100250000D03*
%TD*%
D12*
%TO.C,J4*%
X214250000Y-30250000D03*
D13*
X214250000Y-32790000D03*
%TD*%
D12*
%TO.C,J2*%
X25750000Y-88790000D03*
D13*
X25750000Y-86250000D03*
%TD*%
D16*
%TO.C,J3*%
X194000000Y-44250000D03*
D15*
X194000000Y-46750000D03*
%TD*%
D14*
%TO.C,J1*%
X46000000Y-144750000D03*
D15*
X46000000Y-142250000D03*
%TD*%
D17*
%TO.C,REF\u002A\u002A*%
X19500000Y-19500000D03*
%TD*%
D16*
%TO.C,J3*%
X194000000Y-72250000D03*
D15*
X194000000Y-74750000D03*
%TD*%
D12*
%TO.C,J4*%
X214250000Y-86250000D03*
D13*
X214250000Y-88790000D03*
%TD*%
D12*
%TO.C,J4*%
X214250000Y-128250000D03*
D13*
X214250000Y-130790000D03*
%TD*%
D12*
%TO.C,J4*%
X214250000Y-58250000D03*
D13*
X214250000Y-60790000D03*
%TD*%
D16*
%TO.C,J3*%
X194000000Y-114250000D03*
D15*
X194000000Y-116750000D03*
%TD*%
D12*
%TO.C,J2*%
X25750000Y-32790000D03*
D13*
X25750000Y-30250000D03*
%TD*%
D14*
%TO.C,J1*%
X46000000Y-32750000D03*
D15*
X46000000Y-30250000D03*
%TD*%
D16*
%TO.C,J3*%
X194000000Y-100250000D03*
D15*
X194000000Y-102750000D03*
%TD*%
D14*
%TO.C,J1*%
X46000000Y-88750000D03*
D15*
X46000000Y-86250000D03*
%TD*%
D16*
%TO.C,J3*%
X194000000Y-86250000D03*
D15*
X194000000Y-88750000D03*
%TD*%
D17*
%TO.C,REF\u002A\u002A*%
X220500000Y-19500000D03*
%TD*%
D12*
%TO.C,J4*%
X214250000Y-156250000D03*
D13*
X214250000Y-158790000D03*
%TD*%
D14*
%TO.C,J1*%
X46000000Y-158750000D03*
D15*
X46000000Y-156250000D03*
%TD*%
D17*
%TO.C,REF\u002A\u002A*%
X19500000Y-169500000D03*
%TD*%
D16*
%TO.C,J3*%
X194000000Y-58250000D03*
D15*
X194000000Y-60750000D03*
%TD*%
D16*
%TO.C,J3*%
X194000000Y-128250000D03*
D15*
X194000000Y-130750000D03*
%TD*%
D16*
%TO.C,J3*%
X194000000Y-142250000D03*
D15*
X194000000Y-144750000D03*
%TD*%
D12*
%TO.C,J2*%
X25750000Y-116790000D03*
D13*
X25750000Y-114250000D03*
%TD*%
D14*
%TO.C,J1*%
X46000000Y-74750000D03*
D15*
X46000000Y-72250000D03*
%TD*%
D14*
%TO.C,J1*%
X46000000Y-46750000D03*
D15*
X46000000Y-44250000D03*
%TD*%
D14*
%TO.C,J1*%
X46000000Y-60750000D03*
D15*
X46000000Y-58250000D03*
%TD*%
D12*
%TO.C,J2*%
X25750000Y-158790000D03*
D13*
X25750000Y-156250000D03*
%TD*%
D12*
%TO.C,J4*%
X214250000Y-100250000D03*
D13*
X214250000Y-102790000D03*
%TD*%
D14*
%TO.C,J1*%
X46000000Y-102750000D03*
D15*
X46000000Y-100250000D03*
%TD*%
D16*
%TO.C,J3*%
X194000000Y-156250000D03*
D15*
X194000000Y-158750000D03*
%TD*%
D14*
%TO.C,J1*%
X46000000Y-130750000D03*
D15*
X46000000Y-128250000D03*
%TD*%
M02*
