%TF.GenerationSoftware,KiCad,Pcbnew,(6.0.7)*%
%TF.CreationDate,2023-02-06T14:52:35+00:00*%
%TF.ProjectId,Dayspring_Mini_P,44617973-7072-4696-9e67-5f4d696e695f,rev?*%
%TF.SameCoordinates,Original*%
%TF.FileFunction,Soldermask,Top*%
%TF.FilePolarity,Negative*%
%FSLAX46Y46*%
G04 Gerber Fmt 4.6, Leading zero omitted, Abs format (unit mm)*
G04 Created by KiCad (PCBNEW (6.0.7)) date 2023-02-06 14:52:35*
%MOMM*%
%LPD*%
G01*
G04 APERTURE LIST*
G04 Aperture macros list*
%AMRoundRect*
0 Rectangle with rounded corners*
0 $1 Rounding radius*
0 $2 $3 $4 $5 $6 $7 $8 $9 X,Y pos of 4 corners*
0 Add a 4 corners polygon primitive as box body*
4,1,4,$2,$3,$4,$5,$6,$7,$8,$9,$2,$3,0*
0 Add four circle primitives for the rounded corners*
1,1,$1+$1,$2,$3*
1,1,$1+$1,$4,$5*
1,1,$1+$1,$6,$7*
1,1,$1+$1,$8,$9*
0 Add four rect primitives between the rounded corners*
20,1,$1+$1,$2,$3,$4,$5,0*
20,1,$1+$1,$4,$5,$6,$7,0*
20,1,$1+$1,$6,$7,$8,$9,0*
20,1,$1+$1,$8,$9,$2,$3,0*%
G04 Aperture macros list end*
%ADD10R,2.200000X2.200000*%
%ADD11R,2.200000X1.250000*%
%ADD12RoundRect,0.250000X0.625000X-0.312500X0.625000X0.312500X-0.625000X0.312500X-0.625000X-0.312500X0*%
%ADD13C,6.400000*%
%ADD14C,0.800000*%
%ADD15C,2.000000*%
%ADD16R,1.700000X1.700000*%
%ADD17O,1.700000X1.700000*%
%ADD18RoundRect,0.250000X0.750000X-0.600000X0.750000X0.600000X-0.750000X0.600000X-0.750000X-0.600000X0*%
%ADD19O,2.000000X1.700000*%
%ADD20RoundRect,0.250000X-0.750000X0.600000X-0.750000X-0.600000X0.750000X-0.600000X0.750000X0.600000X0*%
G04 APERTURE END LIST*
D10*
%TO.C,D10*%
X187846153Y-144400000D03*
D11*
X187846153Y-142125000D03*
%TD*%
D12*
%TO.C,R4*%
X198000000Y-88962500D03*
X198000000Y-86037500D03*
%TD*%
D10*
%TO.C,D11*%
X97384615Y-46400000D03*
D11*
X97384615Y-44125000D03*
%TD*%
D10*
%TO.C,D2*%
X127538461Y-46400000D03*
D11*
X127538461Y-44125000D03*
%TD*%
D10*
%TO.C,D5*%
X52153846Y-116400000D03*
D11*
X52153846Y-114125000D03*
%TD*%
D10*
%TO.C,D7*%
X67230769Y-102400000D03*
D11*
X67230769Y-100125000D03*
%TD*%
D10*
%TO.C,D10*%
X187846153Y-116400000D03*
D11*
X187846153Y-114125000D03*
%TD*%
D10*
%TO.C,D14*%
X218000000Y-144400000D03*
D11*
X218000000Y-142125000D03*
%TD*%
D10*
%TO.C,D4*%
X142615384Y-116400000D03*
D11*
X142615384Y-114125000D03*
%TD*%
D10*
%TO.C,D2*%
X127538461Y-116400000D03*
D11*
X127538461Y-114125000D03*
%TD*%
D10*
%TO.C,D12*%
X202923076Y-88400000D03*
D11*
X202923076Y-86125000D03*
%TD*%
D10*
%TO.C,D11*%
X97384615Y-130400000D03*
D11*
X97384615Y-128125000D03*
%TD*%
D12*
%TO.C,R4*%
X198000000Y-102962500D03*
X198000000Y-100037500D03*
%TD*%
D13*
%TO.C,H2*%
X181000000Y-157500000D03*
D14*
X179302944Y-155802944D03*
X182697056Y-155802944D03*
X183400000Y-157500000D03*
X182697056Y-159197056D03*
X181000000Y-159900000D03*
X181000000Y-155100000D03*
X178600000Y-157500000D03*
X179302944Y-159197056D03*
%TD*%
D10*
%TO.C,D12*%
X202923076Y-144400000D03*
D11*
X202923076Y-142125000D03*
%TD*%
D10*
%TO.C,D5*%
X52153846Y-144400000D03*
D11*
X52153846Y-142125000D03*
%TD*%
D10*
%TO.C,D12*%
X202923076Y-158400000D03*
D11*
X202923076Y-156125000D03*
%TD*%
D10*
%TO.C,D5*%
X52153846Y-32400000D03*
D11*
X52153846Y-30125000D03*
%TD*%
D10*
%TO.C,D3*%
X37076923Y-74400000D03*
D11*
X37076923Y-72125000D03*
%TD*%
D10*
%TO.C,D7*%
X67230769Y-46400000D03*
D11*
X67230769Y-44125000D03*
%TD*%
D12*
%TO.C,R3*%
X89500000Y-116962500D03*
X89500000Y-114037500D03*
%TD*%
%TO.C,R4*%
X198000000Y-74962500D03*
X198000000Y-72037500D03*
%TD*%
D10*
%TO.C,D5*%
X52153846Y-60400000D03*
D11*
X52153846Y-58125000D03*
%TD*%
D10*
%TO.C,D9*%
X82307692Y-130400000D03*
D11*
X82307692Y-128125000D03*
%TD*%
D15*
%TO.C,REF\u002A\u002A*%
X19500000Y-169500000D03*
%TD*%
D10*
%TO.C,D9*%
X82307692Y-88400000D03*
D11*
X82307692Y-86125000D03*
%TD*%
D14*
%TO.C,H1*%
X56600000Y-59500000D03*
X61400000Y-59500000D03*
X59000000Y-61900000D03*
X60697056Y-61197056D03*
D13*
X59000000Y-59500000D03*
D14*
X57302944Y-57802944D03*
X59000000Y-57100000D03*
X60697056Y-57802944D03*
X57302944Y-61197056D03*
%TD*%
D10*
%TO.C,D6*%
X157692307Y-144400000D03*
D11*
X157692307Y-142125000D03*
%TD*%
D10*
%TO.C,D12*%
X202923076Y-130400000D03*
D11*
X202923076Y-128125000D03*
%TD*%
D10*
%TO.C,D1*%
X22000000Y-46400000D03*
D11*
X22000000Y-44125000D03*
%TD*%
D12*
%TO.C,R4*%
X198000000Y-116962500D03*
X198000000Y-114037500D03*
%TD*%
D14*
%TO.C,H2*%
X181000000Y-33900000D03*
D13*
X181000000Y-31500000D03*
D14*
X182697056Y-33197056D03*
X182697056Y-29802944D03*
X179302944Y-29802944D03*
X183400000Y-31500000D03*
X178600000Y-31500000D03*
X181000000Y-29100000D03*
X179302944Y-33197056D03*
%TD*%
D12*
%TO.C,R1*%
X41750000Y-130962500D03*
X41750000Y-128037500D03*
%TD*%
D10*
%TO.C,D8*%
X172769230Y-74400000D03*
D11*
X172769230Y-72125000D03*
%TD*%
D10*
%TO.C,D1*%
X22000000Y-60400000D03*
D11*
X22000000Y-58125000D03*
%TD*%
D12*
%TO.C,R1*%
X41750000Y-46962500D03*
X41750000Y-44037500D03*
%TD*%
D10*
%TO.C,D4*%
X142615384Y-144400000D03*
D11*
X142615384Y-142125000D03*
%TD*%
D10*
%TO.C,D3*%
X37076923Y-116400000D03*
D11*
X37076923Y-114125000D03*
%TD*%
D12*
%TO.C,R2*%
X150000000Y-60962500D03*
X150000000Y-58037500D03*
%TD*%
D10*
%TO.C,D3*%
X37076923Y-46400000D03*
D11*
X37076923Y-44125000D03*
%TD*%
D12*
%TO.C,R2*%
X150000000Y-144962500D03*
X150000000Y-142037500D03*
%TD*%
D10*
%TO.C,D9*%
X82307692Y-60400000D03*
D11*
X82307692Y-58125000D03*
%TD*%
D14*
%TO.C,H1*%
X56600000Y-115500000D03*
X57302944Y-113802944D03*
D13*
X59000000Y-115500000D03*
D14*
X61400000Y-115500000D03*
X60697056Y-117197056D03*
X59000000Y-117900000D03*
X60697056Y-113802944D03*
X57302944Y-117197056D03*
X59000000Y-113100000D03*
%TD*%
D12*
%TO.C,R3*%
X89500000Y-130962500D03*
X89500000Y-128037500D03*
%TD*%
%TO.C,R4*%
X198000000Y-32962500D03*
X198000000Y-30037500D03*
%TD*%
D14*
%TO.C,H2*%
X182697056Y-85802944D03*
X181000000Y-85100000D03*
X181000000Y-89900000D03*
X178600000Y-87500000D03*
X179302944Y-85802944D03*
X182697056Y-89197056D03*
D13*
X181000000Y-87500000D03*
D14*
X183400000Y-87500000D03*
X179302944Y-89197056D03*
%TD*%
D10*
%TO.C,D13*%
X112461538Y-60400000D03*
D11*
X112461538Y-58125000D03*
%TD*%
D10*
%TO.C,D4*%
X142615384Y-158400000D03*
D11*
X142615384Y-156125000D03*
%TD*%
D12*
%TO.C,R3*%
X89500000Y-158962500D03*
X89500000Y-156037500D03*
%TD*%
D13*
%TO.C,H2*%
X181000000Y-129500000D03*
D14*
X182697056Y-131197056D03*
X178600000Y-129500000D03*
X179302944Y-131197056D03*
X183400000Y-129500000D03*
X182697056Y-127802944D03*
X181000000Y-131900000D03*
X181000000Y-127100000D03*
X179302944Y-127802944D03*
%TD*%
D10*
%TO.C,D14*%
X218000000Y-74400000D03*
D11*
X218000000Y-72125000D03*
%TD*%
D10*
%TO.C,D5*%
X52153846Y-88400000D03*
D11*
X52153846Y-86125000D03*
%TD*%
D15*
%TO.C,REF\u002A\u002A*%
X220500000Y-169500000D03*
%TD*%
D10*
%TO.C,D7*%
X67230769Y-158400000D03*
D11*
X67230769Y-156125000D03*
%TD*%
D10*
%TO.C,D9*%
X82307692Y-74400000D03*
D11*
X82307692Y-72125000D03*
%TD*%
D10*
%TO.C,D8*%
X172769230Y-158400000D03*
D11*
X172769230Y-156125000D03*
%TD*%
D10*
%TO.C,D6*%
X157692307Y-46400000D03*
D11*
X157692307Y-44125000D03*
%TD*%
D10*
%TO.C,D4*%
X142615384Y-74400000D03*
D11*
X142615384Y-72125000D03*
%TD*%
D12*
%TO.C,R1*%
X41750000Y-102962500D03*
X41750000Y-100037500D03*
%TD*%
D10*
%TO.C,D8*%
X172769230Y-46400000D03*
D11*
X172769230Y-44125000D03*
%TD*%
D10*
%TO.C,D2*%
X127538461Y-74400000D03*
D11*
X127538461Y-72125000D03*
%TD*%
D10*
%TO.C,D11*%
X97384615Y-74400000D03*
D11*
X97384615Y-72125000D03*
%TD*%
D10*
%TO.C,D10*%
X187846153Y-46400000D03*
D11*
X187846153Y-44125000D03*
%TD*%
D10*
%TO.C,D10*%
X187846153Y-102400000D03*
D11*
X187846153Y-100125000D03*
%TD*%
D10*
%TO.C,D14*%
X218000000Y-60400000D03*
D11*
X218000000Y-58125000D03*
%TD*%
D10*
%TO.C,D11*%
X97384615Y-102400000D03*
D11*
X97384615Y-100125000D03*
%TD*%
D10*
%TO.C,D13*%
X112461538Y-102400000D03*
D11*
X112461538Y-100125000D03*
%TD*%
D10*
%TO.C,D10*%
X187846153Y-60400000D03*
D11*
X187846153Y-58125000D03*
%TD*%
D10*
%TO.C,D9*%
X82307692Y-102400000D03*
D11*
X82307692Y-100125000D03*
%TD*%
D12*
%TO.C,R3*%
X89500000Y-88962500D03*
X89500000Y-86037500D03*
%TD*%
%TO.C,R2*%
X150000000Y-116962500D03*
X150000000Y-114037500D03*
%TD*%
D14*
%TO.C,H1*%
X61400000Y-73500000D03*
X57302944Y-71802944D03*
X59000000Y-75900000D03*
X57302944Y-75197056D03*
X60697056Y-71802944D03*
X59000000Y-71100000D03*
X56600000Y-73500000D03*
D13*
X59000000Y-73500000D03*
D14*
X60697056Y-75197056D03*
%TD*%
D10*
%TO.C,D13*%
X112461538Y-74400000D03*
D11*
X112461538Y-72125000D03*
%TD*%
D10*
%TO.C,D11*%
X97384615Y-158400000D03*
D11*
X97384615Y-156125000D03*
%TD*%
D14*
%TO.C,H1*%
X60697056Y-89197056D03*
X57302944Y-89197056D03*
X59000000Y-85100000D03*
D13*
X59000000Y-87500000D03*
D14*
X60697056Y-85802944D03*
X61400000Y-87500000D03*
X59000000Y-89900000D03*
X56600000Y-87500000D03*
X57302944Y-85802944D03*
%TD*%
D10*
%TO.C,D8*%
X172769230Y-144400000D03*
D11*
X172769230Y-142125000D03*
%TD*%
D10*
%TO.C,D6*%
X157692307Y-88400000D03*
D11*
X157692307Y-86125000D03*
%TD*%
D12*
%TO.C,R3*%
X89500000Y-144962500D03*
X89500000Y-142037500D03*
%TD*%
D14*
%TO.C,H1*%
X59000000Y-33900000D03*
X59000000Y-29100000D03*
X57302944Y-33197056D03*
X61400000Y-31500000D03*
D13*
X59000000Y-31500000D03*
D14*
X60697056Y-33197056D03*
X57302944Y-29802944D03*
X60697056Y-29802944D03*
X56600000Y-31500000D03*
%TD*%
D10*
%TO.C,D2*%
X127538461Y-130400000D03*
D11*
X127538461Y-128125000D03*
%TD*%
D14*
%TO.C,H2*%
X178600000Y-59500000D03*
X179302944Y-61197056D03*
X179302944Y-57802944D03*
X181000000Y-61900000D03*
D13*
X181000000Y-59500000D03*
D14*
X182697056Y-61197056D03*
X182697056Y-57802944D03*
X183400000Y-59500000D03*
X181000000Y-57100000D03*
%TD*%
D12*
%TO.C,R3*%
X89500000Y-74962500D03*
X89500000Y-72037500D03*
%TD*%
D10*
%TO.C,D6*%
X157692307Y-116400000D03*
D11*
X157692307Y-114125000D03*
%TD*%
D12*
%TO.C,R1*%
X41750000Y-116962500D03*
X41750000Y-114037500D03*
%TD*%
D10*
%TO.C,D1*%
X22000000Y-32400000D03*
D11*
X22000000Y-30125000D03*
%TD*%
D10*
%TO.C,D4*%
X142615384Y-130400000D03*
D11*
X142615384Y-128125000D03*
%TD*%
D10*
%TO.C,D14*%
X218000000Y-88400000D03*
D11*
X218000000Y-86125000D03*
%TD*%
D10*
%TO.C,D3*%
X37076923Y-102400000D03*
D11*
X37076923Y-100125000D03*
%TD*%
D14*
%TO.C,H2*%
X178600000Y-45500000D03*
X179302944Y-47197056D03*
X179302944Y-43802944D03*
X182697056Y-43802944D03*
X181000000Y-47900000D03*
X183400000Y-45500000D03*
X181000000Y-43100000D03*
D13*
X181000000Y-45500000D03*
D14*
X182697056Y-47197056D03*
%TD*%
D10*
%TO.C,D9*%
X82307692Y-158400000D03*
D11*
X82307692Y-156125000D03*
%TD*%
D10*
%TO.C,D5*%
X52153846Y-74400000D03*
D11*
X52153846Y-72125000D03*
%TD*%
D10*
%TO.C,D7*%
X67230769Y-130400000D03*
D11*
X67230769Y-128125000D03*
%TD*%
D10*
%TO.C,D7*%
X67230769Y-144400000D03*
D11*
X67230769Y-142125000D03*
%TD*%
D12*
%TO.C,R1*%
X41750000Y-158962500D03*
X41750000Y-156037500D03*
%TD*%
%TO.C,R4*%
X198000000Y-46962500D03*
X198000000Y-44037500D03*
%TD*%
%TO.C,R1*%
X41750000Y-60962500D03*
X41750000Y-58037500D03*
%TD*%
D10*
%TO.C,D1*%
X22000000Y-130400000D03*
D11*
X22000000Y-128125000D03*
%TD*%
D10*
%TO.C,D11*%
X97384615Y-144400000D03*
D11*
X97384615Y-142125000D03*
%TD*%
D10*
%TO.C,D11*%
X97384615Y-88400000D03*
D11*
X97384615Y-86125000D03*
%TD*%
D12*
%TO.C,R2*%
X150000000Y-46962500D03*
X150000000Y-44037500D03*
%TD*%
D10*
%TO.C,D3*%
X37076923Y-144400000D03*
D11*
X37076923Y-142125000D03*
%TD*%
D12*
%TO.C,R2*%
X150000000Y-88962500D03*
X150000000Y-86037500D03*
%TD*%
%TO.C,R2*%
X150000000Y-102962500D03*
X150000000Y-100037500D03*
%TD*%
%TO.C,R2*%
X150000000Y-130962500D03*
X150000000Y-128037500D03*
%TD*%
D10*
%TO.C,D12*%
X202923076Y-46400000D03*
D11*
X202923076Y-44125000D03*
%TD*%
D12*
%TO.C,R3*%
X89500000Y-102962500D03*
X89500000Y-100037500D03*
%TD*%
D10*
%TO.C,D2*%
X127538461Y-32400000D03*
D11*
X127538461Y-30125000D03*
%TD*%
D10*
%TO.C,D12*%
X202923076Y-102400000D03*
D11*
X202923076Y-100125000D03*
%TD*%
D12*
%TO.C,R1*%
X41750000Y-74962500D03*
X41750000Y-72037500D03*
%TD*%
%TO.C,R3*%
X89500000Y-46962500D03*
X89500000Y-44037500D03*
%TD*%
D10*
%TO.C,D13*%
X112461538Y-32400000D03*
D11*
X112461538Y-30125000D03*
%TD*%
D10*
%TO.C,D8*%
X172769230Y-88400000D03*
D11*
X172769230Y-86125000D03*
%TD*%
D10*
%TO.C,D3*%
X37076923Y-60400000D03*
D11*
X37076923Y-58125000D03*
%TD*%
D10*
%TO.C,D8*%
X172769230Y-116400000D03*
D11*
X172769230Y-114125000D03*
%TD*%
D10*
%TO.C,D11*%
X97384615Y-116400000D03*
D11*
X97384615Y-114125000D03*
%TD*%
D10*
%TO.C,D7*%
X67230769Y-116400000D03*
D11*
X67230769Y-114125000D03*
%TD*%
D10*
%TO.C,D1*%
X22000000Y-74400000D03*
D11*
X22000000Y-72125000D03*
%TD*%
D10*
%TO.C,D3*%
X37076923Y-88400000D03*
D11*
X37076923Y-86125000D03*
%TD*%
D10*
%TO.C,D4*%
X142615384Y-46400000D03*
D11*
X142615384Y-44125000D03*
%TD*%
D10*
%TO.C,D10*%
X187846153Y-158400000D03*
D11*
X187846153Y-156125000D03*
%TD*%
D10*
%TO.C,D4*%
X142615384Y-88400000D03*
D11*
X142615384Y-86125000D03*
%TD*%
D10*
%TO.C,D13*%
X112461538Y-88400000D03*
D11*
X112461538Y-86125000D03*
%TD*%
D10*
%TO.C,D2*%
X127538461Y-60400000D03*
D11*
X127538461Y-58125000D03*
%TD*%
D10*
%TO.C,D11*%
X97384615Y-32400000D03*
D11*
X97384615Y-30125000D03*
%TD*%
D12*
%TO.C,R4*%
X198000000Y-158962500D03*
X198000000Y-156037500D03*
%TD*%
D10*
%TO.C,D12*%
X202923076Y-116400000D03*
D11*
X202923076Y-114125000D03*
%TD*%
D12*
%TO.C,R1*%
X41750000Y-88962500D03*
X41750000Y-86037500D03*
%TD*%
D10*
%TO.C,D7*%
X67230769Y-88400000D03*
D11*
X67230769Y-86125000D03*
%TD*%
D10*
%TO.C,D2*%
X127538461Y-88400000D03*
D11*
X127538461Y-86125000D03*
%TD*%
D14*
%TO.C,H1*%
X60697056Y-155802944D03*
X57302944Y-159197056D03*
X59000000Y-155100000D03*
X60697056Y-159197056D03*
X61400000Y-157500000D03*
D13*
X59000000Y-157500000D03*
D14*
X56600000Y-157500000D03*
X59000000Y-159900000D03*
X57302944Y-155802944D03*
%TD*%
D13*
%TO.C,H1*%
X59000000Y-143500000D03*
D14*
X59000000Y-145900000D03*
X60697056Y-141802944D03*
X59000000Y-141100000D03*
X57302944Y-145197056D03*
X61400000Y-143500000D03*
X60697056Y-145197056D03*
X57302944Y-141802944D03*
X56600000Y-143500000D03*
%TD*%
D12*
%TO.C,R2*%
X150000000Y-158962500D03*
X150000000Y-156037500D03*
%TD*%
D10*
%TO.C,D12*%
X202923076Y-60400000D03*
D11*
X202923076Y-58125000D03*
%TD*%
D12*
%TO.C,R2*%
X150000000Y-74962500D03*
X150000000Y-72037500D03*
%TD*%
%TO.C,R4*%
X198000000Y-130962500D03*
X198000000Y-128037500D03*
%TD*%
%TO.C,R4*%
X198000000Y-144962500D03*
X198000000Y-142037500D03*
%TD*%
D14*
%TO.C,H2*%
X179302944Y-113802944D03*
X182697056Y-113802944D03*
X181000000Y-113100000D03*
X179302944Y-117197056D03*
X181000000Y-117900000D03*
X183400000Y-115500000D03*
D13*
X181000000Y-115500000D03*
D14*
X182697056Y-117197056D03*
X178600000Y-115500000D03*
%TD*%
D10*
%TO.C,D5*%
X52153846Y-46400000D03*
D11*
X52153846Y-44125000D03*
%TD*%
D10*
%TO.C,D14*%
X218000000Y-32400000D03*
D11*
X218000000Y-30125000D03*
%TD*%
D10*
%TO.C,D6*%
X157692307Y-32400000D03*
D11*
X157692307Y-30125000D03*
%TD*%
D10*
%TO.C,D14*%
X218000000Y-102400000D03*
D11*
X218000000Y-100125000D03*
%TD*%
D10*
%TO.C,D13*%
X112461538Y-46400000D03*
D11*
X112461538Y-44125000D03*
%TD*%
D10*
%TO.C,D13*%
X112461538Y-130400000D03*
D11*
X112461538Y-128125000D03*
%TD*%
D10*
%TO.C,D1*%
X22000000Y-102400000D03*
D11*
X22000000Y-100125000D03*
%TD*%
D10*
%TO.C,D14*%
X218000000Y-158400000D03*
D11*
X218000000Y-156125000D03*
%TD*%
D10*
%TO.C,D11*%
X97384615Y-60400000D03*
D11*
X97384615Y-58125000D03*
%TD*%
D10*
%TO.C,D9*%
X82307692Y-32400000D03*
D11*
X82307692Y-30125000D03*
%TD*%
D13*
%TO.C,H1*%
X59000000Y-129500000D03*
D14*
X59000000Y-131900000D03*
X60697056Y-131197056D03*
X60697056Y-127802944D03*
X56600000Y-129500000D03*
X57302944Y-131197056D03*
X57302944Y-127802944D03*
X59000000Y-127100000D03*
X61400000Y-129500000D03*
%TD*%
D10*
%TO.C,D1*%
X22000000Y-144400000D03*
D11*
X22000000Y-142125000D03*
%TD*%
D10*
%TO.C,D1*%
X22000000Y-158400000D03*
D11*
X22000000Y-156125000D03*
%TD*%
D10*
%TO.C,D5*%
X52153846Y-130400000D03*
D11*
X52153846Y-128125000D03*
%TD*%
D10*
%TO.C,D8*%
X172769230Y-60400000D03*
D11*
X172769230Y-58125000D03*
%TD*%
D10*
%TO.C,D8*%
X172769230Y-130400000D03*
D11*
X172769230Y-128125000D03*
%TD*%
D10*
%TO.C,D13*%
X112461538Y-116400000D03*
D11*
X112461538Y-114125000D03*
%TD*%
D10*
%TO.C,D9*%
X82307692Y-144400000D03*
D11*
X82307692Y-142125000D03*
%TD*%
D12*
%TO.C,R1*%
X41750000Y-32962500D03*
X41750000Y-30037500D03*
%TD*%
D14*
%TO.C,H2*%
X179302944Y-103197056D03*
X178600000Y-101500000D03*
X183400000Y-101500000D03*
X182697056Y-99802944D03*
X179302944Y-99802944D03*
X181000000Y-99100000D03*
X181000000Y-103900000D03*
D13*
X181000000Y-101500000D03*
D14*
X182697056Y-103197056D03*
%TD*%
D10*
%TO.C,D14*%
X218000000Y-130400000D03*
D11*
X218000000Y-128125000D03*
%TD*%
D10*
%TO.C,D5*%
X52153846Y-102400000D03*
D11*
X52153846Y-100125000D03*
%TD*%
D12*
%TO.C,R1*%
X41750000Y-144962500D03*
X41750000Y-142037500D03*
%TD*%
D10*
%TO.C,D3*%
X37076923Y-32400000D03*
D11*
X37076923Y-30125000D03*
%TD*%
D12*
%TO.C,R3*%
X89500000Y-60962500D03*
X89500000Y-58037500D03*
%TD*%
D10*
%TO.C,D6*%
X157692307Y-60400000D03*
D11*
X157692307Y-58125000D03*
%TD*%
D10*
%TO.C,D8*%
X172769230Y-32400000D03*
D11*
X172769230Y-30125000D03*
%TD*%
D10*
%TO.C,D13*%
X112461538Y-158400000D03*
D11*
X112461538Y-156125000D03*
%TD*%
D10*
%TO.C,D4*%
X142615384Y-102400000D03*
D11*
X142615384Y-100125000D03*
%TD*%
D14*
%TO.C,H2*%
X181000000Y-75900000D03*
X181000000Y-71100000D03*
X182697056Y-71802944D03*
X179302944Y-75197056D03*
X182697056Y-75197056D03*
X179302944Y-71802944D03*
X178600000Y-73500000D03*
D13*
X181000000Y-73500000D03*
D14*
X183400000Y-73500000D03*
%TD*%
D10*
%TO.C,D7*%
X67230769Y-32400000D03*
D11*
X67230769Y-30125000D03*
%TD*%
D10*
%TO.C,D6*%
X157692307Y-102400000D03*
D11*
X157692307Y-100125000D03*
%TD*%
D10*
%TO.C,D4*%
X142615384Y-60400000D03*
D11*
X142615384Y-58125000D03*
%TD*%
D10*
%TO.C,D7*%
X67230769Y-74400000D03*
D11*
X67230769Y-72125000D03*
%TD*%
D10*
%TO.C,D2*%
X127538461Y-144400000D03*
D11*
X127538461Y-142125000D03*
%TD*%
D10*
%TO.C,D6*%
X157692307Y-158400000D03*
D11*
X157692307Y-156125000D03*
%TD*%
D10*
%TO.C,D1*%
X22000000Y-116400000D03*
D11*
X22000000Y-114125000D03*
%TD*%
D10*
%TO.C,D3*%
X37076923Y-158400000D03*
D11*
X37076923Y-156125000D03*
%TD*%
D10*
%TO.C,D14*%
X218000000Y-116400000D03*
D11*
X218000000Y-114125000D03*
%TD*%
D14*
%TO.C,H1*%
X59000000Y-99100000D03*
X56600000Y-101500000D03*
X60697056Y-103197056D03*
X57302944Y-103197056D03*
X61400000Y-101500000D03*
X59000000Y-103900000D03*
X60697056Y-99802944D03*
D13*
X59000000Y-101500000D03*
D14*
X57302944Y-99802944D03*
%TD*%
D10*
%TO.C,D12*%
X202923076Y-74400000D03*
D11*
X202923076Y-72125000D03*
%TD*%
D14*
%TO.C,H2*%
X179302944Y-145197056D03*
X182697056Y-141802944D03*
D13*
X181000000Y-143500000D03*
D14*
X182697056Y-145197056D03*
X178600000Y-143500000D03*
X183400000Y-143500000D03*
X181000000Y-141100000D03*
X181000000Y-145900000D03*
X179302944Y-141802944D03*
%TD*%
D10*
%TO.C,D5*%
X52153846Y-158400000D03*
D11*
X52153846Y-156125000D03*
%TD*%
D10*
%TO.C,D6*%
X157692307Y-130400000D03*
D11*
X157692307Y-128125000D03*
%TD*%
D10*
%TO.C,D2*%
X127538461Y-102400000D03*
D11*
X127538461Y-100125000D03*
%TD*%
D10*
%TO.C,D14*%
X218000000Y-46400000D03*
D11*
X218000000Y-44125000D03*
%TD*%
D10*
%TO.C,D3*%
X37076923Y-130400000D03*
D11*
X37076923Y-128125000D03*
%TD*%
D10*
%TO.C,D1*%
X22000000Y-88400000D03*
D11*
X22000000Y-86125000D03*
%TD*%
D10*
%TO.C,D6*%
X157692307Y-74400000D03*
D11*
X157692307Y-72125000D03*
%TD*%
D12*
%TO.C,R4*%
X198000000Y-60962500D03*
X198000000Y-58037500D03*
%TD*%
D10*
%TO.C,D4*%
X142615384Y-32400000D03*
D11*
X142615384Y-30125000D03*
%TD*%
D10*
%TO.C,D12*%
X202923076Y-32400000D03*
D11*
X202923076Y-30125000D03*
%TD*%
D10*
%TO.C,D8*%
X172769230Y-102400000D03*
D11*
X172769230Y-100125000D03*
%TD*%
D10*
%TO.C,D13*%
X112461538Y-144400000D03*
D11*
X112461538Y-142125000D03*
%TD*%
D10*
%TO.C,D10*%
X187846153Y-130400000D03*
D11*
X187846153Y-128125000D03*
%TD*%
D10*
%TO.C,D2*%
X127538461Y-158400000D03*
D11*
X127538461Y-156125000D03*
%TD*%
D12*
%TO.C,R3*%
X89500000Y-32962500D03*
X89500000Y-30037500D03*
%TD*%
D10*
%TO.C,D10*%
X187846153Y-88400000D03*
D11*
X187846153Y-86125000D03*
%TD*%
D13*
%TO.C,H1*%
X59000000Y-45500000D03*
D14*
X57302944Y-47197056D03*
X57302944Y-43802944D03*
X59000000Y-47900000D03*
X59000000Y-43100000D03*
X56600000Y-45500000D03*
X60697056Y-47197056D03*
X60697056Y-43802944D03*
X61400000Y-45500000D03*
%TD*%
D15*
%TO.C,REF\u002A\u002A*%
X220500000Y-19500000D03*
%TD*%
D10*
%TO.C,D9*%
X82307692Y-46400000D03*
D11*
X82307692Y-44125000D03*
%TD*%
D10*
%TO.C,D9*%
X82307692Y-116400000D03*
D11*
X82307692Y-114125000D03*
%TD*%
D10*
%TO.C,D10*%
X187846153Y-74400000D03*
D11*
X187846153Y-72125000D03*
%TD*%
D12*
%TO.C,R2*%
X150000000Y-32962500D03*
X150000000Y-30037500D03*
%TD*%
D15*
%TO.C,REF\u002A\u002A*%
X19500000Y-19500000D03*
%TD*%
D10*
%TO.C,D7*%
X67230769Y-60400000D03*
D11*
X67230769Y-58125000D03*
%TD*%
D10*
%TO.C,D10*%
X187846153Y-32400000D03*
D11*
X187846153Y-30125000D03*
%TD*%
D16*
%TO.C,J4*%
X214250000Y-44250000D03*
D17*
X214250000Y-46790000D03*
%TD*%
D16*
%TO.C,J2*%
X25750000Y-74790000D03*
D17*
X25750000Y-72250000D03*
%TD*%
D18*
%TO.C,J1*%
X46000000Y-116750000D03*
D19*
X46000000Y-114250000D03*
%TD*%
D16*
%TO.C,J4*%
X214250000Y-114250000D03*
D17*
X214250000Y-116790000D03*
%TD*%
D16*
%TO.C,J4*%
X214250000Y-72250000D03*
D17*
X214250000Y-74790000D03*
%TD*%
D16*
%TO.C,J4*%
X214250000Y-142250000D03*
D17*
X214250000Y-144790000D03*
%TD*%
D16*
%TO.C,J2*%
X25750000Y-144790000D03*
D17*
X25750000Y-142250000D03*
%TD*%
D20*
%TO.C,J3*%
X194000000Y-30250000D03*
D19*
X194000000Y-32750000D03*
%TD*%
D16*
%TO.C,J2*%
X25750000Y-60790000D03*
D17*
X25750000Y-58250000D03*
%TD*%
D16*
%TO.C,J2*%
X25750000Y-130790000D03*
D17*
X25750000Y-128250000D03*
%TD*%
D16*
%TO.C,J2*%
X25750000Y-46790000D03*
D17*
X25750000Y-44250000D03*
%TD*%
D16*
%TO.C,J2*%
X25750000Y-102790000D03*
D17*
X25750000Y-100250000D03*
%TD*%
D16*
%TO.C,J4*%
X214250000Y-30250000D03*
D17*
X214250000Y-32790000D03*
%TD*%
D16*
%TO.C,J2*%
X25750000Y-88790000D03*
D17*
X25750000Y-86250000D03*
%TD*%
D20*
%TO.C,J3*%
X194000000Y-44250000D03*
D19*
X194000000Y-46750000D03*
%TD*%
D18*
%TO.C,J1*%
X46000000Y-144750000D03*
D19*
X46000000Y-142250000D03*
%TD*%
D20*
%TO.C,J3*%
X194000000Y-72250000D03*
D19*
X194000000Y-74750000D03*
%TD*%
D16*
%TO.C,J4*%
X214250000Y-86250000D03*
D17*
X214250000Y-88790000D03*
%TD*%
D16*
%TO.C,J4*%
X214250000Y-128250000D03*
D17*
X214250000Y-130790000D03*
%TD*%
D16*
%TO.C,J4*%
X214250000Y-58250000D03*
D17*
X214250000Y-60790000D03*
%TD*%
D20*
%TO.C,J3*%
X194000000Y-114250000D03*
D19*
X194000000Y-116750000D03*
%TD*%
D16*
%TO.C,J2*%
X25750000Y-32790000D03*
D17*
X25750000Y-30250000D03*
%TD*%
D18*
%TO.C,J1*%
X46000000Y-32750000D03*
D19*
X46000000Y-30250000D03*
%TD*%
D20*
%TO.C,J3*%
X194000000Y-100250000D03*
D19*
X194000000Y-102750000D03*
%TD*%
D18*
%TO.C,J1*%
X46000000Y-88750000D03*
D19*
X46000000Y-86250000D03*
%TD*%
D20*
%TO.C,J3*%
X194000000Y-86250000D03*
D19*
X194000000Y-88750000D03*
%TD*%
D16*
%TO.C,J4*%
X214250000Y-156250000D03*
D17*
X214250000Y-158790000D03*
%TD*%
D18*
%TO.C,J1*%
X46000000Y-158750000D03*
D19*
X46000000Y-156250000D03*
%TD*%
D20*
%TO.C,J3*%
X194000000Y-58250000D03*
D19*
X194000000Y-60750000D03*
%TD*%
D20*
%TO.C,J3*%
X194000000Y-128250000D03*
D19*
X194000000Y-130750000D03*
%TD*%
D20*
%TO.C,J3*%
X194000000Y-142250000D03*
D19*
X194000000Y-144750000D03*
%TD*%
D16*
%TO.C,J2*%
X25750000Y-116790000D03*
D17*
X25750000Y-114250000D03*
%TD*%
D18*
%TO.C,J1*%
X46000000Y-74750000D03*
D19*
X46000000Y-72250000D03*
%TD*%
D18*
%TO.C,J1*%
X46000000Y-46750000D03*
D19*
X46000000Y-44250000D03*
%TD*%
D18*
%TO.C,J1*%
X46000000Y-60750000D03*
D19*
X46000000Y-58250000D03*
%TD*%
D16*
%TO.C,J2*%
X25750000Y-158790000D03*
D17*
X25750000Y-156250000D03*
%TD*%
D16*
%TO.C,J4*%
X214250000Y-100250000D03*
D17*
X214250000Y-102790000D03*
%TD*%
D18*
%TO.C,J1*%
X46000000Y-102750000D03*
D19*
X46000000Y-100250000D03*
%TD*%
D20*
%TO.C,J3*%
X194000000Y-156250000D03*
D19*
X194000000Y-158750000D03*
%TD*%
D18*
%TO.C,J1*%
X46000000Y-130750000D03*
D19*
X46000000Y-128250000D03*
%TD*%
M02*
