%TF.GenerationSoftware,KiCad,Pcbnew,(6.0.7)*%
%TF.CreationDate,2023-02-06T12:57:23+00:00*%
%TF.ProjectId,Dayspring,44617973-7072-4696-9e67-2e6b69636164,rev?*%
%TF.SameCoordinates,Original*%
%TF.FileFunction,Paste,Top*%
%TF.FilePolarity,Positive*%
%FSLAX46Y46*%
G04 Gerber Fmt 4.6, Leading zero omitted, Abs format (unit mm)*
G04 Created by KiCad (PCBNEW (6.0.7)) date 2023-02-06 12:57:23*
%MOMM*%
%LPD*%
G01*
G04 APERTURE LIST*
G04 Aperture macros list*
%AMRoundRect*
0 Rectangle with rounded corners*
0 $1 Rounding radius*
0 $2 $3 $4 $5 $6 $7 $8 $9 X,Y pos of 4 corners*
0 Add a 4 corners polygon primitive as box body*
4,1,4,$2,$3,$4,$5,$6,$7,$8,$9,$2,$3,0*
0 Add four circle primitives for the rounded corners*
1,1,$1+$1,$2,$3*
1,1,$1+$1,$4,$5*
1,1,$1+$1,$6,$7*
1,1,$1+$1,$8,$9*
0 Add four rect primitives between the rounded corners*
20,1,$1+$1,$2,$3,$4,$5,0*
20,1,$1+$1,$4,$5,$6,$7,0*
20,1,$1+$1,$6,$7,$8,$9,0*
20,1,$1+$1,$8,$9,$2,$3,0*%
G04 Aperture macros list end*
%ADD10RoundRect,0.250000X0.625000X-0.312500X0.625000X0.312500X-0.625000X0.312500X-0.625000X-0.312500X0*%
%ADD11R,2.200000X2.200000*%
%ADD12R,2.200000X1.250000*%
G04 APERTURE END LIST*
D10*
%TO.C,R4*%
X297750000Y-33962500D03*
X297750000Y-31037500D03*
%TD*%
D11*
%TO.C,D5*%
X139400000Y-33400000D03*
D12*
X139400000Y-31125000D03*
%TD*%
D10*
%TO.C,R6*%
X191000000Y-33962500D03*
X191000000Y-31037500D03*
%TD*%
D11*
%TO.C,D18*%
X302200000Y-33400000D03*
D12*
X302200000Y-31125000D03*
%TD*%
D11*
%TO.C,D19*%
X109800000Y-33400000D03*
D12*
X109800000Y-31125000D03*
%TD*%
D11*
%TO.C,D15*%
X287400000Y-33400000D03*
D12*
X287400000Y-31125000D03*
%TD*%
D11*
%TO.C,D3*%
X228200000Y-33400000D03*
D12*
X228200000Y-31125000D03*
%TD*%
D11*
%TO.C,D4*%
X35800000Y-33400000D03*
D12*
X35800000Y-31125000D03*
%TD*%
D11*
%TO.C,D14*%
X183800000Y-33400000D03*
D12*
X183800000Y-31125000D03*
%TD*%
D11*
%TO.C,D11*%
X169000000Y-33400000D03*
D12*
X169000000Y-31125000D03*
%TD*%
D11*
%TO.C,D17*%
X198600000Y-33400000D03*
D12*
X198600000Y-31125000D03*
%TD*%
D11*
%TO.C,D21*%
X317000000Y-33400000D03*
D12*
X317000000Y-31125000D03*
%TD*%
D11*
%TO.C,D10*%
X65400000Y-33400000D03*
D12*
X65400000Y-31125000D03*
%TD*%
D11*
%TO.C,D16*%
X95000000Y-33400000D03*
D12*
X95000000Y-31125000D03*
%TD*%
D11*
%TO.C,D1*%
X21000000Y-33400000D03*
D12*
X21000000Y-31125000D03*
%TD*%
D11*
%TO.C,D13*%
X80200000Y-33400000D03*
D12*
X80200000Y-31125000D03*
%TD*%
D11*
%TO.C,D2*%
X124600000Y-33400000D03*
D12*
X124600000Y-31125000D03*
%TD*%
D11*
%TO.C,D9*%
X257800000Y-33400000D03*
D12*
X257800000Y-31125000D03*
%TD*%
D10*
%TO.C,R1*%
X40500000Y-33962500D03*
X40500000Y-31037500D03*
%TD*%
D11*
%TO.C,D8*%
X154200000Y-33400000D03*
D12*
X154200000Y-31125000D03*
%TD*%
D11*
%TO.C,D7*%
X50600000Y-33400000D03*
D12*
X50600000Y-31125000D03*
%TD*%
D10*
%TO.C,R2*%
X250250000Y-33962500D03*
X250250000Y-31037500D03*
%TD*%
%TO.C,R3*%
X147000000Y-33962500D03*
X147000000Y-31037500D03*
%TD*%
D11*
%TO.C,D6*%
X243000000Y-33400000D03*
D12*
X243000000Y-31125000D03*
%TD*%
D11*
%TO.C,D12*%
X272600000Y-33400000D03*
D12*
X272600000Y-31125000D03*
%TD*%
D11*
%TO.C,D20*%
X213400000Y-33400000D03*
D12*
X213400000Y-31125000D03*
%TD*%
D10*
%TO.C,R5*%
X87250000Y-33962500D03*
X87250000Y-31037500D03*
%TD*%
M02*
