%TF.GenerationSoftware,KiCad,Pcbnew,(6.0.7)*%
%TF.CreationDate,2023-02-06T12:57:23+00:00*%
%TF.ProjectId,Dayspring,44617973-7072-4696-9e67-2e6b69636164,rev?*%
%TF.SameCoordinates,Original*%
%TF.FileFunction,Legend,Top*%
%TF.FilePolarity,Positive*%
%FSLAX46Y46*%
G04 Gerber Fmt 4.6, Leading zero omitted, Abs format (unit mm)*
G04 Created by KiCad (PCBNEW (6.0.7)) date 2023-02-06 12:57:23*
%MOMM*%
%LPD*%
G01*
G04 APERTURE LIST*
%ADD10C,0.150000*%
%ADD11C,0.250000*%
%ADD12C,0.120000*%
G04 APERTURE END LIST*
D10*
X303500000Y-36750000D02*
X34500000Y-36750000D01*
X26000000Y-28250000D02*
X16500000Y-28250000D01*
X34500000Y-28250000D02*
X303500000Y-28250000D01*
X321500000Y-36750000D02*
X312000000Y-36750000D01*
X26000000Y-36750000D02*
X16500000Y-36750000D01*
X321500000Y-28250000D02*
X312000000Y-28250000D01*
D11*
X47337500Y-31399642D02*
X48480357Y-31399642D01*
X47908928Y-31971071D02*
X47908928Y-30828214D01*
X47337500Y-33814642D02*
X48480357Y-33814642D01*
X291362500Y-33700357D02*
X290219642Y-33700357D01*
X290791071Y-33128928D02*
X290791071Y-34271785D01*
X291362500Y-31285357D02*
X290219642Y-31285357D01*
X310537500Y-31399642D02*
X311680357Y-31399642D01*
X311108928Y-31971071D02*
X311108928Y-30828214D01*
X310537500Y-33814642D02*
X311680357Y-33814642D01*
X26337500Y-31649642D02*
X27480357Y-31649642D01*
X26908928Y-32221071D02*
X26908928Y-31078214D01*
X26337500Y-34064642D02*
X27480357Y-34064642D01*
D12*
%TO.C,R4*%
X296840000Y-33227064D02*
X296840000Y-31772936D01*
X298660000Y-33227064D02*
X298660000Y-31772936D01*
%TO.C,G\u002A\u002A\u002A*%
G36*
X31897091Y-36879916D02*
G01*
X31533798Y-36879916D01*
X31302079Y-36572833D01*
X31234433Y-36482769D01*
X31174571Y-36402270D01*
X31125545Y-36335506D01*
X31090408Y-36286651D01*
X31072214Y-36259875D01*
X31070360Y-36256212D01*
X31087140Y-36253527D01*
X31134242Y-36251135D01*
X31206808Y-36249147D01*
X31299980Y-36247676D01*
X31408900Y-36246833D01*
X31483725Y-36246675D01*
X31897091Y-36246675D01*
X31897091Y-36879916D01*
G37*
G36*
X28742667Y-31289432D02*
G01*
X28686289Y-31152108D01*
X28639584Y-31038424D01*
X28601332Y-30945409D01*
X28570310Y-30870093D01*
X28545295Y-30809504D01*
X28525067Y-30760672D01*
X28508402Y-30720625D01*
X28502216Y-30705817D01*
X28483761Y-30661548D01*
X28461499Y-30607854D01*
X28434211Y-30541763D01*
X28400672Y-30460304D01*
X28359664Y-30360504D01*
X28309963Y-30239391D01*
X28250348Y-30093992D01*
X28179598Y-29921337D01*
X28115455Y-29764750D01*
X28059209Y-29627613D01*
X28005363Y-29496675D01*
X27955831Y-29376566D01*
X27912527Y-29271915D01*
X27877367Y-29187349D01*
X27852263Y-29127498D01*
X27841737Y-29102875D01*
X27813199Y-29035662D01*
X27786341Y-28969532D01*
X27773330Y-28935769D01*
X27754009Y-28885897D01*
X27726440Y-28817478D01*
X27707820Y-28772438D01*
X28100759Y-28772438D01*
X28105338Y-28792517D01*
X28121360Y-28840181D01*
X28146987Y-28910437D01*
X28180382Y-28998292D01*
X28219708Y-29098753D01*
X28234290Y-29135360D01*
X28276237Y-29240351D01*
X28314174Y-29335576D01*
X28345992Y-29415727D01*
X28369586Y-29475494D01*
X28382849Y-29509568D01*
X28384537Y-29514092D01*
X28401719Y-29540040D01*
X28412569Y-29544875D01*
X28429258Y-29532272D01*
X28464732Y-29497376D01*
X28514824Y-29444554D01*
X28575367Y-29378173D01*
X28624990Y-29322270D01*
X28688597Y-29248023D01*
X28741767Y-29182492D01*
X28781000Y-29130285D01*
X28802792Y-29096010D01*
X28805505Y-29084757D01*
X28782974Y-29070650D01*
X28735371Y-29046241D01*
X28668290Y-29014010D01*
X28587322Y-28976436D01*
X28498061Y-28935996D01*
X28406099Y-28895169D01*
X28317029Y-28856434D01*
X28236444Y-28822269D01*
X28169937Y-28795153D01*
X28123100Y-28777564D01*
X28101526Y-28771981D01*
X28100759Y-28772438D01*
X27707820Y-28772438D01*
X27696194Y-28744316D01*
X27692591Y-28735734D01*
X27647353Y-28627523D01*
X27601907Y-28517599D01*
X27558198Y-28410799D01*
X27518172Y-28311958D01*
X27483774Y-28225913D01*
X27456951Y-28157499D01*
X27439649Y-28111553D01*
X27433813Y-28092911D01*
X27433881Y-28092756D01*
X27450621Y-28097826D01*
X27490458Y-28114345D01*
X27543559Y-28138185D01*
X27595668Y-28162042D01*
X27671846Y-28196623D01*
X27764050Y-28238290D01*
X27864233Y-28283404D01*
X27930540Y-28313176D01*
X28028072Y-28356965D01*
X28119557Y-28398135D01*
X28198003Y-28433531D01*
X28256419Y-28460001D01*
X28282340Y-28471850D01*
X28320260Y-28489366D01*
X28383780Y-28518731D01*
X28466570Y-28557017D01*
X28562302Y-28601297D01*
X28664648Y-28648645D01*
X28669321Y-28650807D01*
X28985941Y-28797299D01*
X30441516Y-28801994D01*
X31897091Y-28806690D01*
X31897091Y-36070775D01*
X30920474Y-36070775D01*
X30691989Y-35767558D01*
X30603896Y-35648854D01*
X30533854Y-35549215D01*
X30477352Y-35460716D01*
X30429876Y-35375430D01*
X30386915Y-35285431D01*
X30343958Y-35182793D01*
X30311377Y-35098926D01*
X30294755Y-35064451D01*
X30281320Y-35050554D01*
X30266360Y-35062518D01*
X30229883Y-35096308D01*
X30175143Y-35148772D01*
X30105395Y-35216755D01*
X30023895Y-35297105D01*
X29933896Y-35386667D01*
X29918792Y-35401774D01*
X29816110Y-35504355D01*
X29735233Y-35584399D01*
X29673223Y-35644375D01*
X29627140Y-35686754D01*
X29594044Y-35714004D01*
X29570997Y-35728596D01*
X29555059Y-35732998D01*
X29543291Y-35729680D01*
X29535576Y-35723741D01*
X29527439Y-35714348D01*
X29525105Y-35702829D01*
X29530961Y-35686364D01*
X29547392Y-35662131D01*
X29576786Y-35627310D01*
X29621528Y-35579081D01*
X29684004Y-35514622D01*
X29766602Y-35431113D01*
X29871706Y-35325733D01*
X29875478Y-35321958D01*
X30247705Y-34949428D01*
X30190669Y-34806501D01*
X30158711Y-34733641D01*
X30131035Y-34684577D01*
X30110315Y-34663933D01*
X30108023Y-34663573D01*
X30083232Y-34669808D01*
X30032365Y-34686955D01*
X29961937Y-34712678D01*
X29878464Y-34744639D01*
X29842003Y-34758996D01*
X29699138Y-34815461D01*
X29562877Y-34868861D01*
X29436911Y-34917788D01*
X29324930Y-34960833D01*
X29230624Y-34996586D01*
X29157684Y-35023638D01*
X29109801Y-35040580D01*
X29090664Y-35046004D01*
X29090501Y-35045922D01*
X29083261Y-35027939D01*
X29075709Y-35004756D01*
X29074473Y-34993426D01*
X29080205Y-34981881D01*
X29096252Y-34968540D01*
X29125962Y-34951821D01*
X29172682Y-34930144D01*
X29239759Y-34901928D01*
X29330542Y-34865591D01*
X29448377Y-34819553D01*
X29555950Y-34777927D01*
X29680527Y-34729657D01*
X29794953Y-34685005D01*
X29894966Y-34645660D01*
X29976306Y-34613308D01*
X30034711Y-34589639D01*
X30065920Y-34576338D01*
X30069499Y-34574528D01*
X30077592Y-34558868D01*
X30072450Y-34525870D01*
X30052825Y-34470003D01*
X30037275Y-34431967D01*
X29983092Y-34302977D01*
X29458132Y-34294182D01*
X28933171Y-34285387D01*
X28927550Y-34245810D01*
X28921930Y-34206232D01*
X29942075Y-34206232D01*
X29810376Y-33885214D01*
X29760900Y-33764702D01*
X29707677Y-33635204D01*
X29655303Y-33507897D01*
X29608376Y-33393957D01*
X29580649Y-33326731D01*
X29539528Y-33226984D01*
X29497404Y-33124577D01*
X29458881Y-33030716D01*
X29428564Y-32956609D01*
X29425276Y-32948545D01*
X29368807Y-32810013D01*
X29323545Y-32699085D01*
X29287440Y-32610775D01*
X29258445Y-32540100D01*
X29234512Y-32482075D01*
X29213592Y-32431716D01*
X29193638Y-32384039D01*
X29179524Y-32350484D01*
X29158473Y-32300080D01*
X29126170Y-32222167D01*
X29084697Y-32121793D01*
X29036134Y-32004006D01*
X28982563Y-31873851D01*
X28926067Y-31736377D01*
X28889335Y-31646883D01*
X28812207Y-31458889D01*
X29754708Y-31458889D01*
X29763259Y-31557060D01*
X29774927Y-31615875D01*
X29815781Y-31736950D01*
X29879808Y-31875463D01*
X29964003Y-32025348D01*
X30026284Y-32123240D01*
X30069543Y-32185115D01*
X30123254Y-32257156D01*
X30183232Y-32334293D01*
X30245295Y-32411456D01*
X30305261Y-32483576D01*
X30358947Y-32545584D01*
X30402170Y-32592409D01*
X30430747Y-32618983D01*
X30438726Y-32623130D01*
X30443734Y-32606330D01*
X30448047Y-32559083D01*
X30451451Y-32486119D01*
X30453737Y-32392168D01*
X30454693Y-32281960D01*
X30454709Y-32265297D01*
X30454709Y-31907465D01*
X30202313Y-31487825D01*
X30135920Y-31378298D01*
X30074730Y-31278987D01*
X30021238Y-31193813D01*
X29977940Y-31126698D01*
X29947332Y-31081563D01*
X29931911Y-31062329D01*
X29931250Y-31061963D01*
X29906864Y-31070113D01*
X29871474Y-31100176D01*
X29832724Y-31144233D01*
X29798259Y-31194365D01*
X29791095Y-31207133D01*
X29769080Y-31272436D01*
X29756800Y-31360185D01*
X29754708Y-31458889D01*
X28812207Y-31458889D01*
X28809942Y-31453367D01*
X28742667Y-31289432D01*
G37*
%TO.C,D5*%
X137800000Y-34700000D02*
X141000000Y-34700000D01*
X141000000Y-31100000D02*
X141000000Y-34700000D01*
X137800000Y-31100000D02*
X137800000Y-34700000D01*
%TO.C,R6*%
X191910000Y-33227064D02*
X191910000Y-31772936D01*
X190090000Y-33227064D02*
X190090000Y-31772936D01*
%TO.C,D18*%
X303800000Y-31100000D02*
X303800000Y-34700000D01*
X300600000Y-31100000D02*
X300600000Y-34700000D01*
X300600000Y-34700000D02*
X303800000Y-34700000D01*
%TO.C,D19*%
X111400000Y-31100000D02*
X111400000Y-34700000D01*
X108200000Y-31100000D02*
X108200000Y-34700000D01*
X108200000Y-34700000D02*
X111400000Y-34700000D01*
%TO.C,D15*%
X289000000Y-31100000D02*
X289000000Y-34700000D01*
X285800000Y-34700000D02*
X289000000Y-34700000D01*
X285800000Y-31100000D02*
X285800000Y-34700000D01*
%TO.C,D3*%
X229800000Y-31100000D02*
X229800000Y-34700000D01*
X226600000Y-31100000D02*
X226600000Y-34700000D01*
X226600000Y-34700000D02*
X229800000Y-34700000D01*
%TO.C,G\u002A\u002A\u002A*%
G36*
X306591100Y-36246833D02*
G01*
X306700020Y-36247676D01*
X306793192Y-36249147D01*
X306865758Y-36251135D01*
X306912860Y-36253527D01*
X306929640Y-36256212D01*
X306927786Y-36259875D01*
X306909592Y-36286651D01*
X306874455Y-36335506D01*
X306825429Y-36402270D01*
X306765567Y-36482769D01*
X306697921Y-36572833D01*
X306466202Y-36879916D01*
X306102909Y-36879916D01*
X306102909Y-36246675D01*
X306516275Y-36246675D01*
X306591100Y-36246833D01*
G37*
G36*
X309073933Y-31736377D02*
G01*
X309017437Y-31873851D01*
X308963866Y-32004006D01*
X308915303Y-32121793D01*
X308873830Y-32222167D01*
X308841527Y-32300080D01*
X308820476Y-32350484D01*
X308806362Y-32384039D01*
X308786408Y-32431716D01*
X308765488Y-32482075D01*
X308741555Y-32540100D01*
X308712560Y-32610775D01*
X308676455Y-32699085D01*
X308631193Y-32810013D01*
X308574724Y-32948545D01*
X308571436Y-32956609D01*
X308541119Y-33030716D01*
X308502596Y-33124577D01*
X308460472Y-33226984D01*
X308419351Y-33326731D01*
X308391624Y-33393957D01*
X308344697Y-33507897D01*
X308292323Y-33635204D01*
X308239100Y-33764702D01*
X308189624Y-33885214D01*
X308057925Y-34206232D01*
X309078070Y-34206232D01*
X309072450Y-34245810D01*
X309066829Y-34285387D01*
X308541868Y-34294182D01*
X308016908Y-34302977D01*
X307962725Y-34431967D01*
X307947175Y-34470003D01*
X307927550Y-34525870D01*
X307922408Y-34558868D01*
X307930501Y-34574528D01*
X307934080Y-34576338D01*
X307965289Y-34589639D01*
X308023694Y-34613308D01*
X308105034Y-34645660D01*
X308205047Y-34685005D01*
X308319473Y-34729657D01*
X308444050Y-34777927D01*
X308551623Y-34819553D01*
X308669458Y-34865591D01*
X308760241Y-34901928D01*
X308827318Y-34930144D01*
X308874038Y-34951821D01*
X308903748Y-34968540D01*
X308919795Y-34981881D01*
X308925527Y-34993426D01*
X308924291Y-35004756D01*
X308916739Y-35027939D01*
X308909499Y-35045922D01*
X308909336Y-35046004D01*
X308890199Y-35040580D01*
X308842316Y-35023638D01*
X308769376Y-34996586D01*
X308675070Y-34960833D01*
X308563089Y-34917788D01*
X308437123Y-34868861D01*
X308300862Y-34815461D01*
X308157997Y-34758996D01*
X308121536Y-34744639D01*
X308038063Y-34712678D01*
X307967635Y-34686955D01*
X307916768Y-34669808D01*
X307891977Y-34663573D01*
X307889685Y-34663933D01*
X307868965Y-34684577D01*
X307841289Y-34733641D01*
X307809331Y-34806501D01*
X307752295Y-34949428D01*
X308124522Y-35321958D01*
X308128294Y-35325733D01*
X308233398Y-35431113D01*
X308315996Y-35514622D01*
X308378472Y-35579081D01*
X308423214Y-35627310D01*
X308452608Y-35662131D01*
X308469039Y-35686364D01*
X308474895Y-35702829D01*
X308472561Y-35714348D01*
X308464424Y-35723741D01*
X308456709Y-35729680D01*
X308444941Y-35732998D01*
X308429003Y-35728596D01*
X308405956Y-35714004D01*
X308372860Y-35686754D01*
X308326777Y-35644375D01*
X308264767Y-35584399D01*
X308183890Y-35504355D01*
X308081208Y-35401774D01*
X308066104Y-35386667D01*
X307976105Y-35297105D01*
X307894605Y-35216755D01*
X307824857Y-35148772D01*
X307770117Y-35096308D01*
X307733640Y-35062518D01*
X307718680Y-35050554D01*
X307705245Y-35064451D01*
X307688623Y-35098926D01*
X307656042Y-35182793D01*
X307613085Y-35285431D01*
X307570124Y-35375430D01*
X307522648Y-35460716D01*
X307466146Y-35549215D01*
X307396104Y-35648854D01*
X307308011Y-35767558D01*
X307079526Y-36070775D01*
X306102909Y-36070775D01*
X306102909Y-32265297D01*
X307545291Y-32265297D01*
X307545307Y-32281960D01*
X307546263Y-32392168D01*
X307548549Y-32486119D01*
X307551953Y-32559083D01*
X307556266Y-32606330D01*
X307561274Y-32623130D01*
X307569253Y-32618983D01*
X307597830Y-32592409D01*
X307641053Y-32545584D01*
X307694739Y-32483576D01*
X307754705Y-32411456D01*
X307816768Y-32334293D01*
X307876746Y-32257156D01*
X307930457Y-32185115D01*
X307973716Y-32123240D01*
X308035997Y-32025348D01*
X308120192Y-31875463D01*
X308184219Y-31736950D01*
X308225073Y-31615875D01*
X308236741Y-31557060D01*
X308245292Y-31458889D01*
X308243200Y-31360185D01*
X308230920Y-31272436D01*
X308208905Y-31207133D01*
X308201741Y-31194365D01*
X308167276Y-31144233D01*
X308128526Y-31100176D01*
X308093136Y-31070113D01*
X308068750Y-31061963D01*
X308068089Y-31062329D01*
X308052668Y-31081563D01*
X308022060Y-31126698D01*
X307978762Y-31193813D01*
X307925270Y-31278987D01*
X307864080Y-31378298D01*
X307797687Y-31487825D01*
X307545291Y-31907465D01*
X307545291Y-32265297D01*
X306102909Y-32265297D01*
X306102909Y-29084757D01*
X309194495Y-29084757D01*
X309197208Y-29096010D01*
X309219000Y-29130285D01*
X309258233Y-29182492D01*
X309311403Y-29248023D01*
X309375010Y-29322270D01*
X309424633Y-29378173D01*
X309485176Y-29444554D01*
X309535268Y-29497376D01*
X309570742Y-29532272D01*
X309587431Y-29544875D01*
X309598281Y-29540040D01*
X309615463Y-29514092D01*
X309617151Y-29509568D01*
X309630414Y-29475494D01*
X309654008Y-29415727D01*
X309685826Y-29335576D01*
X309723763Y-29240351D01*
X309765710Y-29135360D01*
X309780292Y-29098753D01*
X309819618Y-28998292D01*
X309853013Y-28910437D01*
X309878640Y-28840181D01*
X309894662Y-28792517D01*
X309899241Y-28772438D01*
X309898474Y-28771981D01*
X309876900Y-28777564D01*
X309830063Y-28795153D01*
X309763556Y-28822269D01*
X309682971Y-28856434D01*
X309593901Y-28895169D01*
X309501939Y-28935996D01*
X309412678Y-28976436D01*
X309331710Y-29014010D01*
X309264629Y-29046241D01*
X309217026Y-29070650D01*
X309194495Y-29084757D01*
X306102909Y-29084757D01*
X306102909Y-28806690D01*
X307558484Y-28801994D01*
X309014059Y-28797299D01*
X309330679Y-28650807D01*
X309335352Y-28648645D01*
X309437698Y-28601297D01*
X309533430Y-28557017D01*
X309616220Y-28518731D01*
X309679740Y-28489366D01*
X309717660Y-28471850D01*
X309743581Y-28460001D01*
X309801997Y-28433531D01*
X309880443Y-28398135D01*
X309971928Y-28356965D01*
X310069460Y-28313176D01*
X310135767Y-28283404D01*
X310235950Y-28238290D01*
X310328154Y-28196623D01*
X310404332Y-28162042D01*
X310456441Y-28138185D01*
X310509542Y-28114345D01*
X310549379Y-28097826D01*
X310566119Y-28092756D01*
X310566187Y-28092911D01*
X310560351Y-28111553D01*
X310543049Y-28157499D01*
X310516226Y-28225913D01*
X310481828Y-28311958D01*
X310441802Y-28410799D01*
X310398093Y-28517599D01*
X310352647Y-28627523D01*
X310307409Y-28735734D01*
X310303806Y-28744316D01*
X310292180Y-28772438D01*
X310273560Y-28817478D01*
X310245991Y-28885897D01*
X310226670Y-28935769D01*
X310213659Y-28969532D01*
X310186801Y-29035662D01*
X310158263Y-29102875D01*
X310147737Y-29127498D01*
X310122633Y-29187349D01*
X310087473Y-29271915D01*
X310044169Y-29376566D01*
X309994637Y-29496675D01*
X309940791Y-29627613D01*
X309884545Y-29764750D01*
X309820402Y-29921337D01*
X309749652Y-30093992D01*
X309690037Y-30239391D01*
X309640336Y-30360504D01*
X309599328Y-30460304D01*
X309565789Y-30541763D01*
X309538501Y-30607854D01*
X309516239Y-30661548D01*
X309497784Y-30705817D01*
X309491598Y-30720625D01*
X309474933Y-30760672D01*
X309454705Y-30809504D01*
X309429690Y-30870093D01*
X309398668Y-30945409D01*
X309360416Y-31038424D01*
X309313711Y-31152108D01*
X309257333Y-31289432D01*
X309190058Y-31453367D01*
X309187793Y-31458889D01*
X309110665Y-31646883D01*
X309073933Y-31736377D01*
G37*
%TO.C,D4*%
X37400000Y-31100000D02*
X37400000Y-34700000D01*
X34200000Y-34700000D02*
X37400000Y-34700000D01*
X34200000Y-31100000D02*
X34200000Y-34700000D01*
%TO.C,D14*%
X182200000Y-31100000D02*
X182200000Y-34700000D01*
X182200000Y-34700000D02*
X185400000Y-34700000D01*
X185400000Y-31100000D02*
X185400000Y-34700000D01*
%TO.C,D11*%
X167400000Y-31100000D02*
X167400000Y-34700000D01*
X167400000Y-34700000D02*
X170600000Y-34700000D01*
X170600000Y-31100000D02*
X170600000Y-34700000D01*
%TO.C,D17*%
X197000000Y-31100000D02*
X197000000Y-34700000D01*
X200200000Y-31100000D02*
X200200000Y-34700000D01*
X197000000Y-34700000D02*
X200200000Y-34700000D01*
%TO.C,D21*%
X315400000Y-34700000D02*
X318600000Y-34700000D01*
X318600000Y-31100000D02*
X318600000Y-34700000D01*
X315400000Y-31100000D02*
X315400000Y-34700000D01*
%TO.C,D10*%
X63800000Y-34700000D02*
X67000000Y-34700000D01*
X67000000Y-31100000D02*
X67000000Y-34700000D01*
X63800000Y-31100000D02*
X63800000Y-34700000D01*
%TO.C,D16*%
X96600000Y-31100000D02*
X96600000Y-34700000D01*
X93400000Y-31100000D02*
X93400000Y-34700000D01*
X93400000Y-34700000D02*
X96600000Y-34700000D01*
%TO.C,D1*%
X19400000Y-34700000D02*
X22600000Y-34700000D01*
X19400000Y-31100000D02*
X19400000Y-34700000D01*
X22600000Y-31100000D02*
X22600000Y-34700000D01*
%TO.C,D13*%
X78600000Y-31100000D02*
X78600000Y-34700000D01*
X78600000Y-34700000D02*
X81800000Y-34700000D01*
X81800000Y-31100000D02*
X81800000Y-34700000D01*
%TO.C,D2*%
X123000000Y-34700000D02*
X126200000Y-34700000D01*
X126200000Y-31100000D02*
X126200000Y-34700000D01*
X123000000Y-31100000D02*
X123000000Y-34700000D01*
%TO.C,D9*%
X259400000Y-31100000D02*
X259400000Y-34700000D01*
X256200000Y-34700000D02*
X259400000Y-34700000D01*
X256200000Y-31100000D02*
X256200000Y-34700000D01*
%TO.C,R1*%
X39590000Y-33227064D02*
X39590000Y-31772936D01*
X41410000Y-33227064D02*
X41410000Y-31772936D01*
%TO.C,D8*%
X152600000Y-31100000D02*
X152600000Y-34700000D01*
X155800000Y-31100000D02*
X155800000Y-34700000D01*
X152600000Y-34700000D02*
X155800000Y-34700000D01*
%TO.C,D7*%
X49000000Y-31100000D02*
X49000000Y-34700000D01*
X52200000Y-31100000D02*
X52200000Y-34700000D01*
X49000000Y-34700000D02*
X52200000Y-34700000D01*
%TO.C,R2*%
X251160000Y-33227064D02*
X251160000Y-31772936D01*
X249340000Y-33227064D02*
X249340000Y-31772936D01*
%TO.C,R3*%
X147910000Y-33227064D02*
X147910000Y-31772936D01*
X146090000Y-33227064D02*
X146090000Y-31772936D01*
%TO.C,D6*%
X241400000Y-34700000D02*
X244600000Y-34700000D01*
X244600000Y-31100000D02*
X244600000Y-34700000D01*
X241400000Y-31100000D02*
X241400000Y-34700000D01*
%TO.C,D12*%
X271000000Y-34700000D02*
X274200000Y-34700000D01*
X271000000Y-31100000D02*
X271000000Y-34700000D01*
X274200000Y-31100000D02*
X274200000Y-34700000D01*
%TO.C,D20*%
X211800000Y-34700000D02*
X215000000Y-34700000D01*
X211800000Y-31100000D02*
X211800000Y-34700000D01*
X215000000Y-31100000D02*
X215000000Y-34700000D01*
%TO.C,R5*%
X88160000Y-33227064D02*
X88160000Y-31772936D01*
X86340000Y-33227064D02*
X86340000Y-31772936D01*
%TD*%
M02*
