%TF.GenerationSoftware,KiCad,Pcbnew,(6.0.7)*%
%TF.CreationDate,2023-02-06T12:57:23+00:00*%
%TF.ProjectId,Dayspring,44617973-7072-4696-9e67-2e6b69636164,rev?*%
%TF.SameCoordinates,Original*%
%TF.FileFunction,Legend,Bot*%
%TF.FilePolarity,Positive*%
%FSLAX46Y46*%
G04 Gerber Fmt 4.6, Leading zero omitted, Abs format (unit mm)*
G04 Created by KiCad (PCBNEW (6.0.7)) date 2023-02-06 12:57:23*
%MOMM*%
%LPD*%
G01*
G04 APERTURE LIST*
%ADD10C,0.300000*%
%ADD11C,0.250000*%
%ADD12C,0.150000*%
%ADD13C,0.120000*%
G04 APERTURE END LIST*
D10*
X119928571Y-31878571D02*
X119928571Y-32950000D01*
X120000000Y-33164285D01*
X120142857Y-33307142D01*
X120357142Y-33378571D01*
X120500000Y-33378571D01*
X118500000Y-33378571D02*
X119214285Y-33378571D01*
X119214285Y-31878571D01*
X117142857Y-33235714D02*
X117214285Y-33307142D01*
X117428571Y-33378571D01*
X117571428Y-33378571D01*
X117785714Y-33307142D01*
X117928571Y-33164285D01*
X118000000Y-33021428D01*
X118071428Y-32735714D01*
X118071428Y-32521428D01*
X118000000Y-32235714D01*
X117928571Y-32092857D01*
X117785714Y-31950000D01*
X117571428Y-31878571D01*
X117428571Y-31878571D01*
X117214285Y-31950000D01*
X117142857Y-32021428D01*
X116071428Y-31878571D02*
X116071428Y-32950000D01*
X116142857Y-33164285D01*
X116285714Y-33307142D01*
X116500000Y-33378571D01*
X116642857Y-33378571D01*
X114642857Y-33378571D02*
X115357142Y-33378571D01*
X115357142Y-31878571D01*
X113285714Y-33235714D02*
X113357142Y-33307142D01*
X113571428Y-33378571D01*
X113714285Y-33378571D01*
X113928571Y-33307142D01*
X114071428Y-33164285D01*
X114142857Y-33021428D01*
X114214285Y-32735714D01*
X114214285Y-32521428D01*
X114142857Y-32235714D01*
X114071428Y-32092857D01*
X113928571Y-31950000D01*
X113714285Y-31878571D01*
X113571428Y-31878571D01*
X113357142Y-31950000D01*
X113285714Y-32021428D01*
X112214285Y-31878571D02*
X112214285Y-32950000D01*
X112285714Y-33164285D01*
X112428571Y-33307142D01*
X112642857Y-33378571D01*
X112785714Y-33378571D01*
X110785714Y-33378571D02*
X111500000Y-33378571D01*
X111500000Y-31878571D01*
X109428571Y-33235714D02*
X109500000Y-33307142D01*
X109714285Y-33378571D01*
X109857142Y-33378571D01*
X110071428Y-33307142D01*
X110214285Y-33164285D01*
X110285714Y-33021428D01*
X110357142Y-32735714D01*
X110357142Y-32521428D01*
X110285714Y-32235714D01*
X110214285Y-32092857D01*
X110071428Y-31950000D01*
X109857142Y-31878571D01*
X109714285Y-31878571D01*
X109500000Y-31950000D01*
X109428571Y-32021428D01*
X108357142Y-31878571D02*
X108357142Y-32950000D01*
X108428571Y-33164285D01*
X108571428Y-33307142D01*
X108785714Y-33378571D01*
X108928571Y-33378571D01*
X106928571Y-33378571D02*
X107642857Y-33378571D01*
X107642857Y-31878571D01*
X105571428Y-33235714D02*
X105642857Y-33307142D01*
X105857142Y-33378571D01*
X106000000Y-33378571D01*
X106214285Y-33307142D01*
X106357142Y-33164285D01*
X106428571Y-33021428D01*
X106500000Y-32735714D01*
X106500000Y-32521428D01*
X106428571Y-32235714D01*
X106357142Y-32092857D01*
X106214285Y-31950000D01*
X106000000Y-31878571D01*
X105857142Y-31878571D01*
X105642857Y-31950000D01*
X105571428Y-32021428D01*
D11*
X289194642Y-30642500D02*
X289337500Y-30571071D01*
X289551785Y-30571071D01*
X289766071Y-30642500D01*
X289908928Y-30785357D01*
X289980357Y-30928214D01*
X290051785Y-31213928D01*
X290051785Y-31428214D01*
X289980357Y-31713928D01*
X289908928Y-31856785D01*
X289766071Y-31999642D01*
X289551785Y-32071071D01*
X289408928Y-32071071D01*
X289194642Y-31999642D01*
X289123214Y-31928214D01*
X289123214Y-31428214D01*
X289408928Y-31428214D01*
X288480357Y-32071071D02*
X288480357Y-30571071D01*
X287623214Y-32071071D01*
X287623214Y-30571071D01*
X286908928Y-32071071D02*
X286908928Y-30571071D01*
X286551785Y-30571071D01*
X286337500Y-30642500D01*
X286194642Y-30785357D01*
X286123214Y-30928214D01*
X286051785Y-31213928D01*
X286051785Y-31428214D01*
X286123214Y-31713928D01*
X286194642Y-31856785D01*
X286337500Y-31999642D01*
X286551785Y-32071071D01*
X286908928Y-32071071D01*
X290051785Y-33128928D02*
X289980357Y-33057500D01*
X289837500Y-32986071D01*
X289480357Y-32986071D01*
X289337500Y-33057500D01*
X289266071Y-33128928D01*
X289194642Y-33271785D01*
X289194642Y-33414642D01*
X289266071Y-33628928D01*
X290123214Y-34486071D01*
X289194642Y-34486071D01*
X287908928Y-33486071D02*
X287908928Y-34486071D01*
X288266071Y-32914642D02*
X288623214Y-33986071D01*
X287694642Y-33986071D01*
X287337500Y-32986071D02*
X286837500Y-34486071D01*
X286337500Y-32986071D01*
X30269642Y-31113928D02*
X30198214Y-31042500D01*
X30055357Y-30971071D01*
X29698214Y-30971071D01*
X29555357Y-31042500D01*
X29483928Y-31113928D01*
X29412500Y-31256785D01*
X29412500Y-31399642D01*
X29483928Y-31613928D01*
X30341071Y-32471071D01*
X29412500Y-32471071D01*
X28126785Y-31471071D02*
X28126785Y-32471071D01*
X28483928Y-30899642D02*
X28841071Y-31971071D01*
X27912500Y-31971071D01*
X27555357Y-30971071D02*
X27055357Y-32471071D01*
X26555357Y-30971071D01*
X29841071Y-33457500D02*
X29983928Y-33386071D01*
X30198214Y-33386071D01*
X30412500Y-33457500D01*
X30555357Y-33600357D01*
X30626785Y-33743214D01*
X30698214Y-34028928D01*
X30698214Y-34243214D01*
X30626785Y-34528928D01*
X30555357Y-34671785D01*
X30412500Y-34814642D01*
X30198214Y-34886071D01*
X30055357Y-34886071D01*
X29841071Y-34814642D01*
X29769642Y-34743214D01*
X29769642Y-34243214D01*
X30055357Y-34243214D01*
X29126785Y-34886071D02*
X29126785Y-33386071D01*
X28269642Y-34886071D01*
X28269642Y-33386071D01*
X27555357Y-34886071D02*
X27555357Y-33386071D01*
X27198214Y-33386071D01*
X26983928Y-33457500D01*
X26841071Y-33600357D01*
X26769642Y-33743214D01*
X26698214Y-34028928D01*
X26698214Y-34243214D01*
X26769642Y-34528928D01*
X26841071Y-34671785D01*
X26983928Y-34814642D01*
X27198214Y-34886071D01*
X27555357Y-34886071D01*
X311151785Y-30513928D02*
X311080357Y-30442500D01*
X310937500Y-30371071D01*
X310580357Y-30371071D01*
X310437500Y-30442500D01*
X310366071Y-30513928D01*
X310294642Y-30656785D01*
X310294642Y-30799642D01*
X310366071Y-31013928D01*
X311223214Y-31871071D01*
X310294642Y-31871071D01*
X309008928Y-30871071D02*
X309008928Y-31871071D01*
X309366071Y-30299642D02*
X309723214Y-31371071D01*
X308794642Y-31371071D01*
X308437500Y-30371071D02*
X307937500Y-31871071D01*
X307437500Y-30371071D01*
X310294642Y-32857500D02*
X310437500Y-32786071D01*
X310651785Y-32786071D01*
X310866071Y-32857500D01*
X311008928Y-33000357D01*
X311080357Y-33143214D01*
X311151785Y-33428928D01*
X311151785Y-33643214D01*
X311080357Y-33928928D01*
X311008928Y-34071785D01*
X310866071Y-34214642D01*
X310651785Y-34286071D01*
X310508928Y-34286071D01*
X310294642Y-34214642D01*
X310223214Y-34143214D01*
X310223214Y-33643214D01*
X310508928Y-33643214D01*
X309580357Y-34286071D02*
X309580357Y-32786071D01*
X308723214Y-34286071D01*
X308723214Y-32786071D01*
X308008928Y-34286071D02*
X308008928Y-32786071D01*
X307651785Y-32786071D01*
X307437500Y-32857500D01*
X307294642Y-33000357D01*
X307223214Y-33143214D01*
X307151785Y-33428928D01*
X307151785Y-33643214D01*
X307223214Y-33928928D01*
X307294642Y-34071785D01*
X307437500Y-34214642D01*
X307651785Y-34286071D01*
X308008928Y-34286071D01*
X52269642Y-30863928D02*
X52198214Y-30792500D01*
X52055357Y-30721071D01*
X51698214Y-30721071D01*
X51555357Y-30792500D01*
X51483928Y-30863928D01*
X51412500Y-31006785D01*
X51412500Y-31149642D01*
X51483928Y-31363928D01*
X52341071Y-32221071D01*
X51412500Y-32221071D01*
X50126785Y-31221071D02*
X50126785Y-32221071D01*
X50483928Y-30649642D02*
X50841071Y-31721071D01*
X49912500Y-31721071D01*
X49555357Y-30721071D02*
X49055357Y-32221071D01*
X48555357Y-30721071D01*
X51841071Y-33207500D02*
X51983928Y-33136071D01*
X52198214Y-33136071D01*
X52412500Y-33207500D01*
X52555357Y-33350357D01*
X52626785Y-33493214D01*
X52698214Y-33778928D01*
X52698214Y-33993214D01*
X52626785Y-34278928D01*
X52555357Y-34421785D01*
X52412500Y-34564642D01*
X52198214Y-34636071D01*
X52055357Y-34636071D01*
X51841071Y-34564642D01*
X51769642Y-34493214D01*
X51769642Y-33993214D01*
X52055357Y-33993214D01*
X51126785Y-34636071D02*
X51126785Y-33136071D01*
X50269642Y-34636071D01*
X50269642Y-33136071D01*
X49555357Y-34636071D02*
X49555357Y-33136071D01*
X49198214Y-33136071D01*
X48983928Y-33207500D01*
X48841071Y-33350357D01*
X48769642Y-33493214D01*
X48698214Y-33778928D01*
X48698214Y-33993214D01*
X48769642Y-34278928D01*
X48841071Y-34421785D01*
X48983928Y-34564642D01*
X49198214Y-34636071D01*
X49555357Y-34636071D01*
D12*
X180190476Y-31342380D02*
X180190476Y-30342380D01*
X179952380Y-30342380D01*
X179809523Y-30390000D01*
X179714285Y-30485238D01*
X179666666Y-30580476D01*
X179619047Y-30770952D01*
X179619047Y-30913809D01*
X179666666Y-31104285D01*
X179714285Y-31199523D01*
X179809523Y-31294761D01*
X179952380Y-31342380D01*
X180190476Y-31342380D01*
X178761904Y-31342380D02*
X178761904Y-30818571D01*
X178809523Y-30723333D01*
X178904761Y-30675714D01*
X179095238Y-30675714D01*
X179190476Y-30723333D01*
X178761904Y-31294761D02*
X178857142Y-31342380D01*
X179095238Y-31342380D01*
X179190476Y-31294761D01*
X179238095Y-31199523D01*
X179238095Y-31104285D01*
X179190476Y-31009047D01*
X179095238Y-30961428D01*
X178857142Y-30961428D01*
X178761904Y-30913809D01*
X178380952Y-30675714D02*
X178142857Y-31342380D01*
X177904761Y-30675714D02*
X178142857Y-31342380D01*
X178238095Y-31580476D01*
X178285714Y-31628095D01*
X178380952Y-31675714D01*
X177380952Y-31342380D02*
X177476190Y-31294761D01*
X177523809Y-31199523D01*
X177523809Y-30342380D01*
X177000000Y-31342380D02*
X177000000Y-30675714D01*
X177000000Y-30342380D02*
X177047619Y-30390000D01*
X177000000Y-30437619D01*
X176952380Y-30390000D01*
X177000000Y-30342380D01*
X177000000Y-30437619D01*
X176095238Y-30675714D02*
X176095238Y-31485238D01*
X176142857Y-31580476D01*
X176190476Y-31628095D01*
X176285714Y-31675714D01*
X176428571Y-31675714D01*
X176523809Y-31628095D01*
X176095238Y-31294761D02*
X176190476Y-31342380D01*
X176380952Y-31342380D01*
X176476190Y-31294761D01*
X176523809Y-31247142D01*
X176571428Y-31151904D01*
X176571428Y-30866190D01*
X176523809Y-30770952D01*
X176476190Y-30723333D01*
X176380952Y-30675714D01*
X176190476Y-30675714D01*
X176095238Y-30723333D01*
X175619047Y-31342380D02*
X175619047Y-30342380D01*
X175190476Y-31342380D02*
X175190476Y-30818571D01*
X175238095Y-30723333D01*
X175333333Y-30675714D01*
X175476190Y-30675714D01*
X175571428Y-30723333D01*
X175619047Y-30770952D01*
X174857142Y-30675714D02*
X174476190Y-30675714D01*
X174714285Y-30342380D02*
X174714285Y-31199523D01*
X174666666Y-31294761D01*
X174571428Y-31342380D01*
X174476190Y-31342380D01*
X173238095Y-31342380D02*
X173333333Y-31294761D01*
X173380952Y-31247142D01*
X173428571Y-31151904D01*
X173428571Y-30866190D01*
X173380952Y-30770952D01*
X173333333Y-30723333D01*
X173238095Y-30675714D01*
X173095238Y-30675714D01*
X173000000Y-30723333D01*
X172952380Y-30770952D01*
X172904761Y-30866190D01*
X172904761Y-31151904D01*
X172952380Y-31247142D01*
X173000000Y-31294761D01*
X173095238Y-31342380D01*
X173238095Y-31342380D01*
X172476190Y-30675714D02*
X172476190Y-31342380D01*
X172476190Y-30770952D02*
X172428571Y-30723333D01*
X172333333Y-30675714D01*
X172190476Y-30675714D01*
X172095238Y-30723333D01*
X172047619Y-30818571D01*
X172047619Y-31342380D01*
X170380952Y-31342380D02*
X170380952Y-30818571D01*
X170428571Y-30723333D01*
X170523809Y-30675714D01*
X170714285Y-30675714D01*
X170809523Y-30723333D01*
X170380952Y-31294761D02*
X170476190Y-31342380D01*
X170714285Y-31342380D01*
X170809523Y-31294761D01*
X170857142Y-31199523D01*
X170857142Y-31104285D01*
X170809523Y-31009047D01*
X170714285Y-30961428D01*
X170476190Y-30961428D01*
X170380952Y-30913809D01*
X169190476Y-31294761D02*
X169095238Y-31342380D01*
X168904761Y-31342380D01*
X168809523Y-31294761D01*
X168761904Y-31199523D01*
X168761904Y-31151904D01*
X168809523Y-31056666D01*
X168904761Y-31009047D01*
X169047619Y-31009047D01*
X169142857Y-30961428D01*
X169190476Y-30866190D01*
X169190476Y-30818571D01*
X169142857Y-30723333D01*
X169047619Y-30675714D01*
X168904761Y-30675714D01*
X168809523Y-30723333D01*
X168476190Y-30675714D02*
X168095238Y-30675714D01*
X168333333Y-30342380D02*
X168333333Y-31199523D01*
X168285714Y-31294761D01*
X168190476Y-31342380D01*
X168095238Y-31342380D01*
X167761904Y-31342380D02*
X167761904Y-30675714D01*
X167761904Y-30342380D02*
X167809523Y-30390000D01*
X167761904Y-30437619D01*
X167714285Y-30390000D01*
X167761904Y-30342380D01*
X167761904Y-30437619D01*
X166857142Y-31294761D02*
X166952380Y-31342380D01*
X167142857Y-31342380D01*
X167238095Y-31294761D01*
X167285714Y-31247142D01*
X167333333Y-31151904D01*
X167333333Y-30866190D01*
X167285714Y-30770952D01*
X167238095Y-30723333D01*
X167142857Y-30675714D01*
X166952380Y-30675714D01*
X166857142Y-30723333D01*
X166428571Y-31342380D02*
X166428571Y-30342380D01*
X166333333Y-30961428D02*
X166047619Y-31342380D01*
X166047619Y-30675714D02*
X166428571Y-31056666D01*
X164857142Y-31342380D02*
X164857142Y-30342380D01*
X164857142Y-30723333D02*
X164761904Y-30675714D01*
X164571428Y-30675714D01*
X164476190Y-30723333D01*
X164428571Y-30770952D01*
X164380952Y-30866190D01*
X164380952Y-31151904D01*
X164428571Y-31247142D01*
X164476190Y-31294761D01*
X164571428Y-31342380D01*
X164761904Y-31342380D01*
X164857142Y-31294761D01*
X164047619Y-30675714D02*
X163809523Y-31342380D01*
X163571428Y-30675714D02*
X163809523Y-31342380D01*
X163904761Y-31580476D01*
X163952380Y-31628095D01*
X164047619Y-31675714D01*
X162095238Y-30818571D02*
X161952380Y-30866190D01*
X161904761Y-30913809D01*
X161857142Y-31009047D01*
X161857142Y-31151904D01*
X161904761Y-31247142D01*
X161952380Y-31294761D01*
X162047619Y-31342380D01*
X162428571Y-31342380D01*
X162428571Y-30342380D01*
X162095238Y-30342380D01*
X162000000Y-30390000D01*
X161952380Y-30437619D01*
X161904761Y-30532857D01*
X161904761Y-30628095D01*
X161952380Y-30723333D01*
X162000000Y-30770952D01*
X162095238Y-30818571D01*
X162428571Y-30818571D01*
X161285714Y-31342380D02*
X161380952Y-31294761D01*
X161428571Y-31199523D01*
X161428571Y-30342380D01*
X160476190Y-31342380D02*
X160476190Y-30818571D01*
X160523809Y-30723333D01*
X160619047Y-30675714D01*
X160809523Y-30675714D01*
X160904761Y-30723333D01*
X160476190Y-31294761D02*
X160571428Y-31342380D01*
X160809523Y-31342380D01*
X160904761Y-31294761D01*
X160952380Y-31199523D01*
X160952380Y-31104285D01*
X160904761Y-31009047D01*
X160809523Y-30961428D01*
X160571428Y-30961428D01*
X160476190Y-30913809D01*
X160000000Y-31342380D02*
X160000000Y-30675714D01*
X160000000Y-30770952D02*
X159952380Y-30723333D01*
X159857142Y-30675714D01*
X159714285Y-30675714D01*
X159619047Y-30723333D01*
X159571428Y-30818571D01*
X159571428Y-31342380D01*
X159571428Y-30818571D02*
X159523809Y-30723333D01*
X159428571Y-30675714D01*
X159285714Y-30675714D01*
X159190476Y-30723333D01*
X159142857Y-30818571D01*
X159142857Y-31342380D01*
X158666666Y-31342380D02*
X158666666Y-30675714D01*
X158666666Y-30770952D02*
X158619047Y-30723333D01*
X158523809Y-30675714D01*
X158380952Y-30675714D01*
X158285714Y-30723333D01*
X158238095Y-30818571D01*
X158238095Y-31342380D01*
X158238095Y-30818571D02*
X158190476Y-30723333D01*
X158095238Y-30675714D01*
X157952380Y-30675714D01*
X157857142Y-30723333D01*
X157809523Y-30818571D01*
X157809523Y-31342380D01*
X177690476Y-32952380D02*
X177690476Y-31952380D01*
X177452380Y-31952380D01*
X177309523Y-32000000D01*
X177214285Y-32095238D01*
X177166666Y-32190476D01*
X177119047Y-32380952D01*
X177119047Y-32523809D01*
X177166666Y-32714285D01*
X177214285Y-32809523D01*
X177309523Y-32904761D01*
X177452380Y-32952380D01*
X177690476Y-32952380D01*
X176261904Y-32952380D02*
X176261904Y-32428571D01*
X176309523Y-32333333D01*
X176404761Y-32285714D01*
X176595238Y-32285714D01*
X176690476Y-32333333D01*
X176261904Y-32904761D02*
X176357142Y-32952380D01*
X176595238Y-32952380D01*
X176690476Y-32904761D01*
X176738095Y-32809523D01*
X176738095Y-32714285D01*
X176690476Y-32619047D01*
X176595238Y-32571428D01*
X176357142Y-32571428D01*
X176261904Y-32523809D01*
X175880952Y-32285714D02*
X175642857Y-32952380D01*
X175404761Y-32285714D02*
X175642857Y-32952380D01*
X175738095Y-33190476D01*
X175785714Y-33238095D01*
X175880952Y-33285714D01*
X175071428Y-32904761D02*
X174976190Y-32952380D01*
X174785714Y-32952380D01*
X174690476Y-32904761D01*
X174642857Y-32809523D01*
X174642857Y-32761904D01*
X174690476Y-32666666D01*
X174785714Y-32619047D01*
X174928571Y-32619047D01*
X175023809Y-32571428D01*
X175071428Y-32476190D01*
X175071428Y-32428571D01*
X175023809Y-32333333D01*
X174928571Y-32285714D01*
X174785714Y-32285714D01*
X174690476Y-32333333D01*
X174214285Y-32285714D02*
X174214285Y-33285714D01*
X174214285Y-32333333D02*
X174119047Y-32285714D01*
X173928571Y-32285714D01*
X173833333Y-32333333D01*
X173785714Y-32380952D01*
X173738095Y-32476190D01*
X173738095Y-32761904D01*
X173785714Y-32857142D01*
X173833333Y-32904761D01*
X173928571Y-32952380D01*
X174119047Y-32952380D01*
X174214285Y-32904761D01*
X173309523Y-32952380D02*
X173309523Y-32285714D01*
X173309523Y-32476190D02*
X173261904Y-32380952D01*
X173214285Y-32333333D01*
X173119047Y-32285714D01*
X173023809Y-32285714D01*
X172690476Y-32952380D02*
X172690476Y-32285714D01*
X172690476Y-31952380D02*
X172738095Y-32000000D01*
X172690476Y-32047619D01*
X172642857Y-32000000D01*
X172690476Y-31952380D01*
X172690476Y-32047619D01*
X172214285Y-32285714D02*
X172214285Y-32952380D01*
X172214285Y-32380952D02*
X172166666Y-32333333D01*
X172071428Y-32285714D01*
X171928571Y-32285714D01*
X171833333Y-32333333D01*
X171785714Y-32428571D01*
X171785714Y-32952380D01*
X170880952Y-32285714D02*
X170880952Y-33095238D01*
X170928571Y-33190476D01*
X170976190Y-33238095D01*
X171071428Y-33285714D01*
X171214285Y-33285714D01*
X171309523Y-33238095D01*
X170880952Y-32904761D02*
X170976190Y-32952380D01*
X171166666Y-32952380D01*
X171261904Y-32904761D01*
X171309523Y-32857142D01*
X171357142Y-32761904D01*
X171357142Y-32476190D01*
X171309523Y-32380952D01*
X171261904Y-32333333D01*
X171166666Y-32285714D01*
X170976190Y-32285714D01*
X170880952Y-32333333D01*
X169642857Y-32952380D02*
X169642857Y-31952380D01*
X169642857Y-32333333D02*
X169547619Y-32285714D01*
X169357142Y-32285714D01*
X169261904Y-32333333D01*
X169214285Y-32380952D01*
X169166666Y-32476190D01*
X169166666Y-32761904D01*
X169214285Y-32857142D01*
X169261904Y-32904761D01*
X169357142Y-32952380D01*
X169547619Y-32952380D01*
X169642857Y-32904761D01*
X168833333Y-32285714D02*
X168595238Y-32952380D01*
X168357142Y-32285714D02*
X168595238Y-32952380D01*
X168690476Y-33190476D01*
X168738095Y-33238095D01*
X168833333Y-33285714D01*
X167357142Y-31952380D02*
X167023809Y-32952380D01*
X166690476Y-31952380D01*
X165976190Y-32904761D02*
X166071428Y-32952380D01*
X166261904Y-32952380D01*
X166357142Y-32904761D01*
X166404761Y-32809523D01*
X166404761Y-32428571D01*
X166357142Y-32333333D01*
X166261904Y-32285714D01*
X166071428Y-32285714D01*
X165976190Y-32333333D01*
X165928571Y-32428571D01*
X165928571Y-32523809D01*
X166404761Y-32619047D01*
X165071428Y-32904761D02*
X165166666Y-32952380D01*
X165357142Y-32952380D01*
X165452380Y-32904761D01*
X165500000Y-32857142D01*
X165547619Y-32761904D01*
X165547619Y-32476190D01*
X165500000Y-32380952D01*
X165452380Y-32333333D01*
X165357142Y-32285714D01*
X165166666Y-32285714D01*
X165071428Y-32333333D01*
X164785714Y-32285714D02*
X164404761Y-32285714D01*
X164642857Y-31952380D02*
X164642857Y-32809523D01*
X164595238Y-32904761D01*
X164500000Y-32952380D01*
X164404761Y-32952380D01*
X163928571Y-32952380D02*
X164023809Y-32904761D01*
X164071428Y-32857142D01*
X164119047Y-32761904D01*
X164119047Y-32476190D01*
X164071428Y-32380952D01*
X164023809Y-32333333D01*
X163928571Y-32285714D01*
X163785714Y-32285714D01*
X163690476Y-32333333D01*
X163642857Y-32380952D01*
X163595238Y-32476190D01*
X163595238Y-32761904D01*
X163642857Y-32857142D01*
X163690476Y-32904761D01*
X163785714Y-32952380D01*
X163928571Y-32952380D01*
X163166666Y-32952380D02*
X163166666Y-32285714D01*
X163166666Y-32476190D02*
X163119047Y-32380952D01*
X163071428Y-32333333D01*
X162976190Y-32285714D01*
X162880952Y-32285714D01*
X161880952Y-31952380D02*
X161261904Y-31952380D01*
X161595238Y-32333333D01*
X161452380Y-32333333D01*
X161357142Y-32380952D01*
X161309523Y-32428571D01*
X161261904Y-32523809D01*
X161261904Y-32761904D01*
X161309523Y-32857142D01*
X161357142Y-32904761D01*
X161452380Y-32952380D01*
X161738095Y-32952380D01*
X161833333Y-32904761D01*
X161880952Y-32857142D01*
X160833333Y-32952380D02*
X160833333Y-31952380D01*
X160595238Y-31952380D01*
X160452380Y-32000000D01*
X160357142Y-32095238D01*
X160309523Y-32190476D01*
X160261904Y-32380952D01*
X160261904Y-32523809D01*
X160309523Y-32714285D01*
X160357142Y-32809523D01*
X160452380Y-32904761D01*
X160595238Y-32952380D01*
X160833333Y-32952380D01*
X170523809Y-33562380D02*
X170190476Y-34562380D01*
X169857142Y-33562380D01*
X169571428Y-33657619D02*
X169523809Y-33610000D01*
X169428571Y-33562380D01*
X169190476Y-33562380D01*
X169095238Y-33610000D01*
X169047619Y-33657619D01*
X169000000Y-33752857D01*
X169000000Y-33848095D01*
X169047619Y-33990952D01*
X169619047Y-34562380D01*
X169000000Y-34562380D01*
X168571428Y-34467142D02*
X168523809Y-34514761D01*
X168571428Y-34562380D01*
X168619047Y-34514761D01*
X168571428Y-34467142D01*
X168571428Y-34562380D01*
X167904761Y-33562380D02*
X167809523Y-33562380D01*
X167714285Y-33610000D01*
X167666666Y-33657619D01*
X167619047Y-33752857D01*
X167571428Y-33943333D01*
X167571428Y-34181428D01*
X167619047Y-34371904D01*
X167666666Y-34467142D01*
X167714285Y-34514761D01*
X167809523Y-34562380D01*
X167904761Y-34562380D01*
X168000000Y-34514761D01*
X168047619Y-34467142D01*
X168095238Y-34371904D01*
X168142857Y-34181428D01*
X168142857Y-33943333D01*
X168095238Y-33752857D01*
X168047619Y-33657619D01*
X168000000Y-33610000D01*
X167904761Y-33562380D01*
D13*
%TO.C,J4*%
X314710000Y-30640000D02*
X314360000Y-30640000D01*
X323340000Y-30616665D02*
X314710000Y-30616665D01*
X313250000Y-29670000D02*
X312140000Y-29670000D01*
X323340000Y-32151900D02*
X314710000Y-32151900D01*
X323340000Y-31797615D02*
X314710000Y-31797615D01*
X323340000Y-29670000D02*
X314710000Y-29670000D01*
X314710000Y-29670000D02*
X314710000Y-34870000D01*
X323340000Y-31325235D02*
X314710000Y-31325235D01*
X323340000Y-30262380D02*
X314710000Y-30262380D01*
X323340000Y-29670000D02*
X323340000Y-34870000D01*
X323340000Y-31207140D02*
X314710000Y-31207140D01*
X323340000Y-30852855D02*
X314710000Y-30852855D01*
X323340000Y-31679520D02*
X314710000Y-31679520D01*
X323340000Y-34870000D02*
X314710000Y-34870000D01*
X323340000Y-30380475D02*
X314710000Y-30380475D01*
X312140000Y-29670000D02*
X312140000Y-31000000D01*
X323340000Y-30144285D02*
X314710000Y-30144285D01*
X323340000Y-30970950D02*
X314710000Y-30970950D01*
X323340000Y-29908095D02*
X314710000Y-29908095D01*
X323340000Y-31561425D02*
X314710000Y-31561425D01*
X323340000Y-31443330D02*
X314710000Y-31443330D01*
X323340000Y-32270000D02*
X314710000Y-32270000D01*
X314710000Y-33900000D02*
X314300000Y-33900000D01*
X314710000Y-33180000D02*
X314300000Y-33180000D01*
X323340000Y-29790000D02*
X314710000Y-29790000D01*
X323340000Y-30734760D02*
X314710000Y-30734760D01*
X323340000Y-32033805D02*
X314710000Y-32033805D01*
X314710000Y-31360000D02*
X314360000Y-31360000D01*
X323340000Y-31915710D02*
X314710000Y-31915710D01*
X323340000Y-30026190D02*
X314710000Y-30026190D01*
X323340000Y-30498570D02*
X314710000Y-30498570D01*
X323340000Y-31089045D02*
X314710000Y-31089045D01*
%TO.C,J1*%
X43410000Y-34890000D02*
X43410000Y-32500000D01*
X42300000Y-31500000D02*
X36800000Y-31500000D01*
X36800000Y-34000000D02*
X36800000Y-33500000D01*
X47910000Y-30110000D02*
X43410000Y-30110000D01*
X36190000Y-32500000D02*
X36190000Y-28690000D01*
X42300000Y-31000000D02*
X42300000Y-31500000D01*
X47910000Y-28690000D02*
X47910000Y-30110000D01*
X47910000Y-34890000D02*
X43410000Y-34890000D01*
X36190000Y-32500000D02*
X36190000Y-36310000D01*
X42300000Y-33500000D02*
X42300000Y-34000000D01*
X47600000Y-34050000D02*
X47600000Y-33450000D01*
X47000000Y-33750000D02*
X47600000Y-34050000D01*
X36190000Y-36310000D02*
X47910000Y-36310000D01*
X47600000Y-33450000D02*
X47000000Y-33750000D01*
X36800000Y-33500000D02*
X42300000Y-33500000D01*
X47910000Y-36310000D02*
X47910000Y-34890000D01*
X36800000Y-31000000D02*
X42300000Y-31000000D01*
X43410000Y-30110000D02*
X43410000Y-32500000D01*
X36190000Y-28690000D02*
X47910000Y-28690000D01*
X42300000Y-34000000D02*
X36800000Y-34000000D01*
X36800000Y-31500000D02*
X36800000Y-31000000D01*
%TO.C,J3*%
X290590000Y-28690000D02*
X290590000Y-30110000D01*
X296200000Y-33500000D02*
X301700000Y-33500000D01*
X302310000Y-28690000D02*
X290590000Y-28690000D01*
X301700000Y-31500000D02*
X296200000Y-31500000D01*
X302310000Y-32500000D02*
X302310000Y-36310000D01*
X301700000Y-34000000D02*
X296200000Y-34000000D01*
X295090000Y-30110000D02*
X295090000Y-32500000D01*
X296200000Y-34000000D02*
X296200000Y-33500000D01*
X301700000Y-33500000D02*
X301700000Y-34000000D01*
X296200000Y-31000000D02*
X301700000Y-31000000D01*
X290590000Y-36310000D02*
X290590000Y-34890000D01*
X296200000Y-31500000D02*
X296200000Y-31000000D01*
X290900000Y-31550000D02*
X291500000Y-31250000D01*
X291500000Y-31250000D02*
X290900000Y-30950000D01*
X302310000Y-32500000D02*
X302310000Y-28690000D01*
X290590000Y-34890000D02*
X295090000Y-34890000D01*
X302310000Y-36310000D02*
X290590000Y-36310000D01*
X290590000Y-30110000D02*
X295090000Y-30110000D01*
X301700000Y-31000000D02*
X301700000Y-31500000D01*
X290900000Y-30950000D02*
X290900000Y-31550000D01*
X295090000Y-34890000D02*
X295090000Y-32500000D01*
%TO.C,G\u002A\u002A\u002A*%
G36*
X225022160Y-34806659D02*
G01*
X224948168Y-34923466D01*
X224885175Y-35022529D01*
X224834053Y-35102463D01*
X224795677Y-35161883D01*
X224770920Y-35199405D01*
X224760655Y-35213645D01*
X224758373Y-35214469D01*
X224745970Y-35216073D01*
X224722537Y-35217581D01*
X224687321Y-35218996D01*
X224639571Y-35220319D01*
X224578536Y-35221554D01*
X224503466Y-35222704D01*
X224413607Y-35223770D01*
X224308210Y-35224755D01*
X224186523Y-35225662D01*
X224047794Y-35226494D01*
X223891273Y-35227252D01*
X223716208Y-35227939D01*
X223521848Y-35228558D01*
X223307441Y-35229112D01*
X223072237Y-35229602D01*
X222815484Y-35230032D01*
X222536430Y-35230403D01*
X222234325Y-35230719D01*
X221908417Y-35230982D01*
X221557955Y-35231194D01*
X221182187Y-35231359D01*
X220780363Y-35231477D01*
X220351731Y-35231553D01*
X219895540Y-35231588D01*
X219411038Y-35231586D01*
X219317328Y-35231580D01*
X218927133Y-35231521D01*
X218544573Y-35231407D01*
X218170667Y-35231240D01*
X217806436Y-35231021D01*
X217452900Y-35230753D01*
X217111080Y-35230438D01*
X216781996Y-35230078D01*
X216466669Y-35229675D01*
X216166118Y-35229231D01*
X215881365Y-35228748D01*
X215613429Y-35228229D01*
X215363330Y-35227675D01*
X215132090Y-35227088D01*
X214920729Y-35226471D01*
X214730266Y-35225826D01*
X214561723Y-35225154D01*
X214416119Y-35224458D01*
X214294475Y-35223740D01*
X214197812Y-35223002D01*
X214127149Y-35222245D01*
X214083507Y-35221473D01*
X214067907Y-35220687D01*
X214067345Y-35220133D01*
X214056813Y-35201738D01*
X214035438Y-35159526D01*
X214004305Y-35095781D01*
X213964497Y-35012787D01*
X213917098Y-34912828D01*
X213863192Y-34798187D01*
X213803862Y-34671149D01*
X213740192Y-34533998D01*
X213673267Y-34389016D01*
X213635276Y-34306494D01*
X213557468Y-34137518D01*
X213477191Y-33963220D01*
X213396532Y-33788131D01*
X213317581Y-33616782D01*
X213242425Y-33453707D01*
X213173152Y-33303437D01*
X213111852Y-33170504D01*
X213060611Y-33059440D01*
X213025759Y-32983836D01*
X212972010Y-32866646D01*
X212928986Y-32771661D01*
X212895635Y-32696246D01*
X212870900Y-32637769D01*
X212853729Y-32593595D01*
X212843066Y-32561092D01*
X212837859Y-32537625D01*
X212837798Y-32536328D01*
X213501304Y-32536328D01*
X213591129Y-32732495D01*
X213612852Y-32779872D01*
X213646527Y-32853217D01*
X213689425Y-32946584D01*
X213740025Y-33056671D01*
X213796810Y-33180175D01*
X213858259Y-33313794D01*
X213922853Y-33454226D01*
X213989073Y-33598169D01*
X214055400Y-33742320D01*
X214120314Y-33883378D01*
X214182296Y-34018040D01*
X214239827Y-34143004D01*
X214291388Y-34254967D01*
X214335458Y-34350628D01*
X214370520Y-34426685D01*
X214395053Y-34479834D01*
X214453818Y-34606980D01*
X217768192Y-34606980D01*
X217768192Y-32120139D01*
X217394021Y-32313486D01*
X217392507Y-32314269D01*
X217289018Y-32367744D01*
X217187162Y-32420372D01*
X217091775Y-32469655D01*
X217007695Y-32513093D01*
X216939758Y-32548187D01*
X216892803Y-32572439D01*
X216765754Y-32638044D01*
X216765657Y-33128461D01*
X216765560Y-33618879D01*
X215067404Y-33618879D01*
X215057436Y-33587471D01*
X215051552Y-33571912D01*
X215034576Y-33531986D01*
X215010416Y-33477882D01*
X214982215Y-33416733D01*
X214978353Y-33408485D01*
X214920840Y-33285252D01*
X214863786Y-33162307D01*
X214808508Y-33042543D01*
X214756321Y-32928854D01*
X214708542Y-32824134D01*
X214666486Y-32731275D01*
X214631469Y-32653172D01*
X214604808Y-32592717D01*
X214587817Y-32552804D01*
X214581813Y-32536328D01*
X214583728Y-32530313D01*
X214595968Y-32500629D01*
X214618448Y-32448962D01*
X214649917Y-32378107D01*
X214689120Y-32290861D01*
X214734806Y-32190018D01*
X214785723Y-32078374D01*
X214840617Y-31958725D01*
X215099693Y-31395653D01*
X218184857Y-31395653D01*
X218193979Y-32227546D01*
X218194683Y-32295401D01*
X218196089Y-32461228D01*
X218197073Y-32626306D01*
X218197637Y-32786591D01*
X218197779Y-32938039D01*
X218197499Y-33076606D01*
X218196796Y-33198247D01*
X218195671Y-33298918D01*
X218194121Y-33374575D01*
X218185141Y-33689710D01*
X218394429Y-34148042D01*
X218603718Y-34606375D01*
X220931203Y-34606677D01*
X223258687Y-34606980D01*
X222950997Y-34111069D01*
X222643306Y-33615158D01*
X220932294Y-33624698D01*
X219221281Y-33634238D01*
X219221281Y-32979705D01*
X220303314Y-32975980D01*
X221385348Y-32972254D01*
X220812414Y-32050424D01*
X220016847Y-32049983D01*
X219221281Y-32049543D01*
X219221281Y-31395653D01*
X221254042Y-31395653D01*
X220951869Y-30912500D01*
X220657625Y-30442026D01*
X221237260Y-30442026D01*
X221239702Y-30448578D01*
X221242341Y-30453184D01*
X221258935Y-30480644D01*
X221288148Y-30528187D01*
X221327964Y-30592557D01*
X221376367Y-30670500D01*
X221431341Y-30758762D01*
X221490871Y-30854089D01*
X221498643Y-30866520D01*
X221539296Y-30931551D01*
X221593892Y-31018902D01*
X221661266Y-31126708D01*
X221740252Y-31253103D01*
X221829685Y-31396223D01*
X221928399Y-31554200D01*
X222035229Y-31725170D01*
X222149008Y-31907267D01*
X222268571Y-32098625D01*
X222392752Y-32297380D01*
X222520386Y-32501666D01*
X222650307Y-32709616D01*
X222781350Y-32919366D01*
X223834839Y-34605628D01*
X224387013Y-34606604D01*
X224502262Y-34421523D01*
X224575383Y-34304122D01*
X224655307Y-34175858D01*
X224736520Y-34045591D01*
X224820202Y-33911435D01*
X224907530Y-33771506D01*
X224999682Y-33623917D01*
X225097836Y-33466783D01*
X225203171Y-33298218D01*
X225316864Y-33116337D01*
X225440094Y-32919255D01*
X225574038Y-32705085D01*
X225719875Y-32471943D01*
X225878783Y-32217942D01*
X226051939Y-31941198D01*
X226146731Y-31789686D01*
X226262282Y-31604938D01*
X226372790Y-31428195D01*
X226477310Y-31260970D01*
X226574899Y-31104773D01*
X226664614Y-30961117D01*
X226745511Y-30831512D01*
X226816647Y-30717471D01*
X226877078Y-30620505D01*
X226925860Y-30542125D01*
X226962052Y-30483842D01*
X226984708Y-30447170D01*
X226992887Y-30433618D01*
X226990666Y-30432521D01*
X226966055Y-30430105D01*
X226916698Y-30427900D01*
X226845605Y-30425963D01*
X226755787Y-30424354D01*
X226650253Y-30423131D01*
X226532016Y-30422355D01*
X226404084Y-30422083D01*
X225810439Y-30422083D01*
X225322887Y-31210384D01*
X225275134Y-31287605D01*
X225172792Y-31453185D01*
X225065530Y-31626814D01*
X224956237Y-31803813D01*
X224847802Y-31979503D01*
X224743112Y-32149202D01*
X224645056Y-32308232D01*
X224556521Y-32451913D01*
X224480396Y-32575563D01*
X224413287Y-32684140D01*
X224345006Y-32793544D01*
X224282492Y-32892614D01*
X224227301Y-32978935D01*
X224180992Y-33050090D01*
X224145121Y-33103666D01*
X224121247Y-33137248D01*
X224110926Y-33148421D01*
X224107192Y-33145701D01*
X224097353Y-33133989D01*
X224081352Y-33111665D01*
X224058188Y-33077152D01*
X224026863Y-33028876D01*
X223986374Y-32965260D01*
X223935722Y-32884729D01*
X223873906Y-32785709D01*
X223799926Y-32666624D01*
X223712782Y-32525898D01*
X223611472Y-32361957D01*
X223595786Y-32336555D01*
X223550738Y-32263609D01*
X223494015Y-32171764D01*
X223428106Y-32065048D01*
X223355497Y-31947488D01*
X223278677Y-31823112D01*
X223200133Y-31695948D01*
X223122353Y-31570023D01*
X223095263Y-31526163D01*
X223014322Y-31395110D01*
X222931895Y-31261638D01*
X222850776Y-31130271D01*
X222773759Y-31005533D01*
X222703636Y-30891949D01*
X222643200Y-30794041D01*
X222595245Y-30716333D01*
X222413691Y-30422083D01*
X221819607Y-30422083D01*
X221723894Y-30422099D01*
X221594008Y-30422241D01*
X221489026Y-30422630D01*
X221406400Y-30423381D01*
X221343577Y-30424611D01*
X221298008Y-30426437D01*
X221267143Y-30428975D01*
X221248430Y-30432341D01*
X221239319Y-30436653D01*
X221237260Y-30442026D01*
X220657625Y-30442026D01*
X220649696Y-30429348D01*
X217562661Y-30425682D01*
X214475625Y-30422016D01*
X214243791Y-30925852D01*
X214199828Y-31021371D01*
X214130689Y-31171522D01*
X214055165Y-31335473D01*
X213976627Y-31505911D01*
X213898445Y-31675523D01*
X213823989Y-31836993D01*
X213756630Y-31983008D01*
X213501304Y-32536328D01*
X212837798Y-32536328D01*
X212837052Y-32520561D01*
X212839591Y-32507266D01*
X212846813Y-32489339D01*
X212865431Y-32446661D01*
X212894147Y-32382317D01*
X212931844Y-32298767D01*
X212977405Y-32198470D01*
X213029711Y-32083885D01*
X213087645Y-31957473D01*
X213150089Y-31821693D01*
X213215926Y-31679005D01*
X213233319Y-31641368D01*
X213310265Y-31474781D01*
X213391177Y-31299500D01*
X213473744Y-31120534D01*
X213555657Y-30942895D01*
X213634606Y-30771591D01*
X213708281Y-30611634D01*
X213774373Y-30468032D01*
X213830571Y-30345796D01*
X214082579Y-29797254D01*
X222788664Y-29797254D01*
X222876761Y-29938931D01*
X222876827Y-29939037D01*
X222898822Y-29974493D01*
X222934667Y-30032380D01*
X222982948Y-30110413D01*
X223042254Y-30206306D01*
X223111171Y-30317775D01*
X223188287Y-30442532D01*
X223272188Y-30578294D01*
X223361461Y-30722774D01*
X223454695Y-30873687D01*
X223550475Y-31028747D01*
X223566513Y-31054706D01*
X223659136Y-31204361D01*
X223747261Y-31346301D01*
X223829695Y-31478633D01*
X223905246Y-31599463D01*
X223972723Y-31706899D01*
X224030935Y-31799046D01*
X224078688Y-31874012D01*
X224114793Y-31929903D01*
X224138056Y-31964826D01*
X224147286Y-31976888D01*
X224154918Y-31966980D01*
X224176879Y-31934037D01*
X224211968Y-31879710D01*
X224259076Y-31805765D01*
X224317094Y-31713966D01*
X224384912Y-31606079D01*
X224461421Y-31483869D01*
X224545512Y-31349099D01*
X224636076Y-31203537D01*
X224732004Y-31048945D01*
X224832186Y-30887089D01*
X225505892Y-29797291D01*
X226826125Y-29797273D01*
X226847781Y-29797273D01*
X227073807Y-29797326D01*
X227272586Y-29797494D01*
X227445780Y-29797803D01*
X227595055Y-29798280D01*
X227722075Y-29798952D01*
X227828503Y-29799844D01*
X227916005Y-29800982D01*
X227986244Y-29802394D01*
X228040885Y-29804106D01*
X228081592Y-29806144D01*
X228110029Y-29808534D01*
X228127861Y-29811303D01*
X228136752Y-29814478D01*
X228138365Y-29818084D01*
X228132754Y-29828094D01*
X228112765Y-29861330D01*
X228079563Y-29915607D01*
X228034397Y-29988911D01*
X227978517Y-30079224D01*
X227913174Y-30184530D01*
X227839616Y-30302813D01*
X227759094Y-30432058D01*
X227758120Y-30433618D01*
X227672857Y-30570248D01*
X227582155Y-30715367D01*
X227563419Y-30745323D01*
X227483941Y-30872423D01*
X227390980Y-31021125D01*
X227286040Y-31189020D01*
X227170627Y-31373698D01*
X227046245Y-31572751D01*
X226914399Y-31783771D01*
X226776594Y-32004349D01*
X226634335Y-32232077D01*
X226489126Y-32464545D01*
X226342472Y-32699345D01*
X226195879Y-32934068D01*
X226050850Y-33166306D01*
X225908891Y-33393650D01*
X225905207Y-33399550D01*
X225774677Y-33608468D01*
X225648156Y-33810718D01*
X225526519Y-34004916D01*
X225410639Y-34189677D01*
X225301389Y-34363616D01*
X225199644Y-34525349D01*
X225148196Y-34606980D01*
X225106276Y-34673492D01*
X225022160Y-34806659D01*
G37*
%TO.C,J2*%
X23290000Y-33640000D02*
X23640000Y-33640000D01*
X14660000Y-33320480D02*
X23290000Y-33320480D01*
X25860000Y-35330000D02*
X25860000Y-34000000D01*
X14660000Y-35091905D02*
X23290000Y-35091905D01*
X14660000Y-34147145D02*
X23290000Y-34147145D01*
X24750000Y-35330000D02*
X25860000Y-35330000D01*
X14660000Y-34973810D02*
X23290000Y-34973810D01*
X14660000Y-33202385D02*
X23290000Y-33202385D01*
X14660000Y-32848100D02*
X23290000Y-32848100D01*
X14660000Y-33438575D02*
X23290000Y-33438575D01*
X14660000Y-33910955D02*
X23290000Y-33910955D01*
X23290000Y-31820000D02*
X23700000Y-31820000D01*
X23290000Y-34360000D02*
X23640000Y-34360000D01*
X14660000Y-34029050D02*
X23290000Y-34029050D01*
X14660000Y-34737620D02*
X23290000Y-34737620D01*
X14660000Y-35330000D02*
X14660000Y-30130000D01*
X14660000Y-34383335D02*
X23290000Y-34383335D01*
X14660000Y-33674765D02*
X23290000Y-33674765D01*
X14660000Y-33556670D02*
X23290000Y-33556670D01*
X14660000Y-32966195D02*
X23290000Y-32966195D01*
X14660000Y-35210000D02*
X23290000Y-35210000D01*
X14660000Y-33792860D02*
X23290000Y-33792860D01*
X23290000Y-31100000D02*
X23700000Y-31100000D01*
X14660000Y-32730000D02*
X23290000Y-32730000D01*
X14660000Y-34501430D02*
X23290000Y-34501430D01*
X14660000Y-33084290D02*
X23290000Y-33084290D01*
X14660000Y-34855715D02*
X23290000Y-34855715D01*
X14660000Y-35330000D02*
X23290000Y-35330000D01*
X14660000Y-30130000D02*
X23290000Y-30130000D01*
X14660000Y-34265240D02*
X23290000Y-34265240D01*
X23290000Y-35330000D02*
X23290000Y-30130000D01*
X14660000Y-34619525D02*
X23290000Y-34619525D01*
%TD*%
M02*
