%TF.GenerationSoftware,KiCad,Pcbnew,(6.0.7)*%
%TF.CreationDate,2023-02-06T12:57:25+00:00*%
%TF.ProjectId,Dayspring,44617973-7072-4696-9e67-2e6b69636164,rev?*%
%TF.SameCoordinates,Original*%
%TF.FileFunction,Drillmap*%
%TF.FilePolarity,Positive*%
%FSLAX45Y45*%
G04 Gerber Fmt 4.5, Leading zero omitted, Abs format (unit mm)*
G04 Created by KiCad (PCBNEW (6.0.7)) date 2023-02-06 12:57:25*
%MOMM*%
%LPD*%
G01*
G04 APERTURE LIST*
%ADD10C,0.100000*%
%ADD11C,0.200000*%
G04 APERTURE END LIST*
D10*
X32250000Y-3800000D02*
X32400000Y-3650000D01*
X1550000Y-2700000D02*
X1400000Y-2850000D01*
X32250000Y-3800000D02*
X1550000Y-3800000D01*
X1400000Y-3650000D02*
X1550000Y-3800000D01*
X1400000Y-3650000D02*
X1400000Y-2850000D01*
X32400000Y-2850000D02*
X32250000Y-2700000D01*
X32400000Y-2850000D02*
X32400000Y-3650000D01*
X1550000Y-2700000D02*
X32250000Y-2700000D01*
D11*
X1652619Y-4115476D02*
X1652619Y-3915476D01*
X1700238Y-3915476D01*
X1728809Y-3925000D01*
X1747857Y-3944048D01*
X1757381Y-3963095D01*
X1766905Y-4001190D01*
X1766905Y-4029762D01*
X1757381Y-4067857D01*
X1747857Y-4086905D01*
X1728809Y-4105952D01*
X1700238Y-4115476D01*
X1652619Y-4115476D01*
X1852619Y-4115476D02*
X1852619Y-3982143D01*
X1852619Y-4020238D02*
X1862143Y-4001190D01*
X1871667Y-3991667D01*
X1890714Y-3982143D01*
X1909762Y-3982143D01*
X1976428Y-4115476D02*
X1976428Y-3982143D01*
X1976428Y-3915476D02*
X1966905Y-3925000D01*
X1976428Y-3934524D01*
X1985952Y-3925000D01*
X1976428Y-3915476D01*
X1976428Y-3934524D01*
X2100238Y-4115476D02*
X2081190Y-4105952D01*
X2071667Y-4086905D01*
X2071667Y-3915476D01*
X2205000Y-4115476D02*
X2185952Y-4105952D01*
X2176429Y-4086905D01*
X2176429Y-3915476D01*
X2433571Y-4115476D02*
X2433571Y-3915476D01*
X2500238Y-4058333D01*
X2566905Y-3915476D01*
X2566905Y-4115476D01*
X2747857Y-4115476D02*
X2747857Y-4010714D01*
X2738333Y-3991667D01*
X2719286Y-3982143D01*
X2681190Y-3982143D01*
X2662143Y-3991667D01*
X2747857Y-4105952D02*
X2728810Y-4115476D01*
X2681190Y-4115476D01*
X2662143Y-4105952D01*
X2652619Y-4086905D01*
X2652619Y-4067857D01*
X2662143Y-4048809D01*
X2681190Y-4039286D01*
X2728810Y-4039286D01*
X2747857Y-4029762D01*
X2843095Y-3982143D02*
X2843095Y-4182143D01*
X2843095Y-3991667D02*
X2862143Y-3982143D01*
X2900238Y-3982143D01*
X2919286Y-3991667D01*
X2928809Y-4001190D01*
X2938333Y-4020238D01*
X2938333Y-4077381D01*
X2928809Y-4096428D01*
X2919286Y-4105952D01*
X2900238Y-4115476D01*
X2862143Y-4115476D01*
X2843095Y-4105952D01*
X3024048Y-4096428D02*
X3033571Y-4105952D01*
X3024048Y-4115476D01*
X3014524Y-4105952D01*
X3024048Y-4096428D01*
X3024048Y-4115476D01*
X3024048Y-3991667D02*
X3033571Y-4001190D01*
X3024048Y-4010714D01*
X3014524Y-4001190D01*
X3024048Y-3991667D01*
X3024048Y-4010714D01*
M02*
