%TF.GenerationSoftware,KiCad,Pcbnew,(6.0.7)*%
%TF.CreationDate,2023-02-06T12:57:23+00:00*%
%TF.ProjectId,Dayspring,44617973-7072-4696-9e67-2e6b69636164,rev?*%
%TF.SameCoordinates,Original*%
%TF.FileFunction,Copper,L2,Bot*%
%TF.FilePolarity,Positive*%
%FSLAX46Y46*%
G04 Gerber Fmt 4.6, Leading zero omitted, Abs format (unit mm)*
G04 Created by KiCad (PCBNEW (6.0.7)) date 2023-02-06 12:57:23*
%MOMM*%
%LPD*%
G01*
G04 APERTURE LIST*
G04 Aperture macros list*
%AMRoundRect*
0 Rectangle with rounded corners*
0 $1 Rounding radius*
0 $2 $3 $4 $5 $6 $7 $8 $9 X,Y pos of 4 corners*
0 Add a 4 corners polygon primitive as box body*
4,1,4,$2,$3,$4,$5,$6,$7,$8,$9,$2,$3,0*
0 Add four circle primitives for the rounded corners*
1,1,$1+$1,$2,$3*
1,1,$1+$1,$4,$5*
1,1,$1+$1,$6,$7*
1,1,$1+$1,$8,$9*
0 Add four rect primitives between the rounded corners*
20,1,$1+$1,$2,$3,$4,$5,0*
20,1,$1+$1,$4,$5,$6,$7,0*
20,1,$1+$1,$6,$7,$8,$9,0*
20,1,$1+$1,$8,$9,$2,$3,0*%
G04 Aperture macros list end*
%TA.AperFunction,ComponentPad*%
%ADD10C,0.800000*%
%TD*%
%TA.AperFunction,ComponentPad*%
%ADD11C,6.400000*%
%TD*%
%TA.AperFunction,ComponentPad*%
%ADD12R,1.700000X1.700000*%
%TD*%
%TA.AperFunction,ComponentPad*%
%ADD13O,1.700000X1.700000*%
%TD*%
%TA.AperFunction,ComponentPad*%
%ADD14RoundRect,0.250000X0.750000X-0.600000X0.750000X0.600000X-0.750000X0.600000X-0.750000X-0.600000X0*%
%TD*%
%TA.AperFunction,ComponentPad*%
%ADD15O,2.000000X1.700000*%
%TD*%
%TA.AperFunction,ComponentPad*%
%ADD16RoundRect,0.250000X-0.750000X0.600000X-0.750000X-0.600000X0.750000X-0.600000X0.750000X0.600000X0*%
%TD*%
%TA.AperFunction,ViaPad*%
%ADD17C,0.800000*%
%TD*%
G04 APERTURE END LIST*
D10*
%TO.P,H2,1,1*%
%TO.N,GND*%
X278302944Y-34197056D03*
X281697056Y-34197056D03*
X282400000Y-32500000D03*
D11*
X280000000Y-32500000D03*
D10*
X278302944Y-30802944D03*
X280000000Y-30100000D03*
X280000000Y-34900000D03*
X277600000Y-32500000D03*
X281697056Y-30802944D03*
%TD*%
D11*
%TO.P,H1,1,1*%
%TO.N,GND*%
X58000000Y-32500000D03*
D10*
X56302944Y-30802944D03*
X58000000Y-30100000D03*
X58000000Y-34900000D03*
X59697056Y-30802944D03*
X55600000Y-32500000D03*
X60400000Y-32500000D03*
X59697056Y-34197056D03*
X56302944Y-34197056D03*
%TD*%
D12*
%TO.P,J4,1,Pin_1*%
%TO.N,+24V*%
X313250000Y-31000000D03*
D13*
%TO.P,J4,2,Pin_2*%
%TO.N,GND*%
X313250000Y-33540000D03*
%TD*%
D14*
%TO.P,J1,1,Pin_1*%
%TO.N,GND*%
X45500000Y-33750000D03*
D15*
%TO.P,J1,2,Pin_2*%
%TO.N,+24V*%
X45500000Y-31250000D03*
%TD*%
D16*
%TO.P,J3,1,Pin_1*%
%TO.N,GND*%
X293000000Y-31250000D03*
D15*
%TO.P,J3,2,Pin_2*%
%TO.N,+24V*%
X293000000Y-33750000D03*
%TD*%
D12*
%TO.P,J2,1,Pin_1*%
%TO.N,GND*%
X24750000Y-34000000D03*
D13*
%TO.P,J2,2,Pin_2*%
%TO.N,+24V*%
X24750000Y-31460000D03*
%TD*%
D17*
%TO.N,GND*%
X94000000Y-36000000D03*
X249000000Y-36000000D03*
X219000000Y-36000000D03*
X288000000Y-36000000D03*
X124000000Y-36000000D03*
X318000000Y-36000000D03*
X144000000Y-36000000D03*
X139000000Y-36000000D03*
X234000000Y-36000000D03*
X194000000Y-36000000D03*
X214000000Y-36000000D03*
X134000000Y-36000000D03*
X74000000Y-36000000D03*
X204000000Y-36000000D03*
X320500000Y-36000000D03*
X229000000Y-36000000D03*
X239000000Y-36000000D03*
X104000000Y-36000000D03*
X16000000Y-36000000D03*
X159000000Y-36000000D03*
X169000000Y-36000000D03*
X164000000Y-36000000D03*
X301999999Y-36000000D03*
X99000000Y-36000000D03*
X109000000Y-36000000D03*
X52000000Y-36000000D03*
X174000000Y-36000000D03*
X269000000Y-36000000D03*
X259000000Y-36000000D03*
X274000000Y-36000000D03*
X254000000Y-36000000D03*
X34500000Y-36000000D03*
X264000000Y-36000000D03*
X84000000Y-36000000D03*
X179000000Y-36000000D03*
X285000000Y-36000000D03*
X37000000Y-36000000D03*
X69000000Y-36000000D03*
X199000000Y-36000000D03*
X189000000Y-36000000D03*
X315500000Y-36000000D03*
X299500001Y-36000000D03*
X49000000Y-36000000D03*
X64000000Y-36000000D03*
X21000000Y-36000000D03*
X129000000Y-36000000D03*
X119000000Y-36000000D03*
X224000000Y-36000000D03*
X79000000Y-36000000D03*
X244000000Y-36000000D03*
X184000000Y-36000000D03*
X154000000Y-36000000D03*
X89000000Y-36000000D03*
X39500000Y-36000000D03*
X18500000Y-36000000D03*
X209000000Y-36000000D03*
X297000001Y-36000000D03*
X114000000Y-36000000D03*
X149000000Y-36000000D03*
%TD*%
%TA.AperFunction,Conductor*%
%TO.N,GND*%
G36*
X169001469Y-27508500D02*
G01*
X322237183Y-27508500D01*
X322305304Y-27528502D01*
X322326278Y-27545405D01*
X323454595Y-28673722D01*
X323488621Y-28736034D01*
X323491500Y-28762817D01*
X323491500Y-36237182D01*
X323471498Y-36305303D01*
X323454595Y-36326277D01*
X322326278Y-37454595D01*
X322263966Y-37488620D01*
X322237183Y-37491500D01*
X15762818Y-37491500D01*
X15694697Y-37471498D01*
X15673723Y-37454595D01*
X14545405Y-36326278D01*
X14511380Y-36263966D01*
X14508500Y-36237183D01*
X14508500Y-34893915D01*
X23400000Y-34893915D01*
X23400369Y-34900729D01*
X23405789Y-34950621D01*
X23409414Y-34965867D01*
X23453767Y-35084177D01*
X23462299Y-35099763D01*
X23537430Y-35200009D01*
X23549991Y-35212570D01*
X23650237Y-35287701D01*
X23665823Y-35296233D01*
X23784133Y-35340586D01*
X23799379Y-35344211D01*
X23849271Y-35349631D01*
X23856085Y-35350000D01*
X24481885Y-35350000D01*
X24497124Y-35345525D01*
X24498329Y-35344135D01*
X24500000Y-35336452D01*
X24500000Y-35331885D01*
X25000000Y-35331885D01*
X25004475Y-35347124D01*
X25005865Y-35348329D01*
X25013548Y-35350000D01*
X25643915Y-35350000D01*
X25650729Y-35349631D01*
X25700621Y-35344211D01*
X25715867Y-35340586D01*
X25834177Y-35296233D01*
X25847085Y-35289167D01*
X55570322Y-35289167D01*
X55577780Y-35299536D01*
X55819639Y-35495389D01*
X55824982Y-35499271D01*
X56144691Y-35706893D01*
X56150400Y-35710189D01*
X56490074Y-35883262D01*
X56496085Y-35885938D01*
X56851982Y-36022554D01*
X56858259Y-36024594D01*
X57226482Y-36123258D01*
X57232932Y-36124629D01*
X57609466Y-36184267D01*
X57616004Y-36184953D01*
X57996699Y-36204905D01*
X58003301Y-36204905D01*
X58383996Y-36184953D01*
X58390534Y-36184267D01*
X58767068Y-36124629D01*
X58773518Y-36123258D01*
X59141741Y-36024594D01*
X59148018Y-36022554D01*
X59503915Y-35885938D01*
X59509926Y-35883262D01*
X59849600Y-35710189D01*
X59855309Y-35706893D01*
X60175018Y-35499271D01*
X60180361Y-35495389D01*
X60421269Y-35300305D01*
X60428963Y-35289167D01*
X277570322Y-35289167D01*
X277577780Y-35299536D01*
X277819639Y-35495389D01*
X277824982Y-35499271D01*
X278144691Y-35706893D01*
X278150400Y-35710189D01*
X278490074Y-35883262D01*
X278496085Y-35885938D01*
X278851982Y-36022554D01*
X278858259Y-36024594D01*
X279226482Y-36123258D01*
X279232932Y-36124629D01*
X279609466Y-36184267D01*
X279616004Y-36184953D01*
X279996699Y-36204905D01*
X280003301Y-36204905D01*
X280383996Y-36184953D01*
X280390534Y-36184267D01*
X280767068Y-36124629D01*
X280773518Y-36123258D01*
X281141741Y-36024594D01*
X281148018Y-36022554D01*
X281503915Y-35885938D01*
X281509926Y-35883262D01*
X281849600Y-35710189D01*
X281855309Y-35706893D01*
X282175018Y-35499271D01*
X282180361Y-35495389D01*
X282421269Y-35300305D01*
X282429737Y-35288047D01*
X282423404Y-35276957D01*
X280012812Y-32866365D01*
X279998868Y-32858751D01*
X279997035Y-32858882D01*
X279990420Y-32863133D01*
X277577462Y-35276091D01*
X277570322Y-35289167D01*
X60428963Y-35289167D01*
X60429737Y-35288047D01*
X60423404Y-35276957D01*
X58012812Y-32866365D01*
X57998868Y-32858751D01*
X57997035Y-32858882D01*
X57990420Y-32863133D01*
X55577462Y-35276091D01*
X55570322Y-35289167D01*
X25847085Y-35289167D01*
X25849763Y-35287701D01*
X25950009Y-35212570D01*
X25962570Y-35200009D01*
X26037701Y-35099763D01*
X26046233Y-35084177D01*
X26090586Y-34965867D01*
X26094211Y-34950621D01*
X26099631Y-34900729D01*
X26100000Y-34893915D01*
X26100000Y-34396567D01*
X44000001Y-34396567D01*
X44000339Y-34403087D01*
X44010140Y-34497560D01*
X44013031Y-34510951D01*
X44063882Y-34663368D01*
X44070056Y-34676547D01*
X44154374Y-34812804D01*
X44163410Y-34824205D01*
X44276821Y-34937418D01*
X44288232Y-34946430D01*
X44424646Y-35030516D01*
X44437827Y-35036663D01*
X44590343Y-35087251D01*
X44603719Y-35090118D01*
X44696966Y-35099672D01*
X44703382Y-35100000D01*
X45231885Y-35100000D01*
X45247124Y-35095525D01*
X45248329Y-35094135D01*
X45250000Y-35086452D01*
X45250000Y-35081884D01*
X45750000Y-35081884D01*
X45754475Y-35097123D01*
X45755865Y-35098328D01*
X45763548Y-35099999D01*
X46296567Y-35099999D01*
X46303087Y-35099661D01*
X46397560Y-35089860D01*
X46410951Y-35086969D01*
X46563368Y-35036118D01*
X46576547Y-35029944D01*
X46712804Y-34945626D01*
X46724205Y-34936590D01*
X46837418Y-34823179D01*
X46846430Y-34811768D01*
X46930516Y-34675354D01*
X46936663Y-34662173D01*
X46987251Y-34509657D01*
X46990118Y-34496281D01*
X46999672Y-34403034D01*
X47000000Y-34396618D01*
X47000000Y-34018115D01*
X46995525Y-34002876D01*
X46994135Y-34001671D01*
X46986452Y-34000000D01*
X45768115Y-34000000D01*
X45752876Y-34004475D01*
X45751671Y-34005865D01*
X45750000Y-34013548D01*
X45750000Y-35081884D01*
X45250000Y-35081884D01*
X45250000Y-34018115D01*
X45245525Y-34002876D01*
X45244135Y-34001671D01*
X45236452Y-34000000D01*
X44018116Y-34000000D01*
X44002877Y-34004475D01*
X44001672Y-34005865D01*
X44000001Y-34013548D01*
X44000001Y-34396567D01*
X26100000Y-34396567D01*
X26100000Y-34268115D01*
X26095525Y-34252876D01*
X26094135Y-34251671D01*
X26086452Y-34250000D01*
X25018115Y-34250000D01*
X25002876Y-34254475D01*
X25001671Y-34255865D01*
X25000000Y-34263548D01*
X25000000Y-35331885D01*
X24500000Y-35331885D01*
X24500000Y-34268115D01*
X24495525Y-34252876D01*
X24494135Y-34251671D01*
X24486452Y-34250000D01*
X23418115Y-34250000D01*
X23402876Y-34254475D01*
X23401671Y-34255865D01*
X23400000Y-34263548D01*
X23400000Y-34893915D01*
X14508500Y-34893915D01*
X14508500Y-31426695D01*
X23387251Y-31426695D01*
X23387548Y-31431848D01*
X23387548Y-31431851D01*
X23393011Y-31526590D01*
X23400110Y-31649715D01*
X23401247Y-31654761D01*
X23401248Y-31654767D01*
X23417410Y-31726482D01*
X23449222Y-31867639D01*
X23533266Y-32074616D01*
X23535965Y-32079020D01*
X23613828Y-32206081D01*
X23649987Y-32265088D01*
X23796250Y-32433938D01*
X23812513Y-32447440D01*
X23852148Y-32506340D01*
X23853648Y-32577321D01*
X23816535Y-32637844D01*
X23776259Y-32662366D01*
X23665821Y-32703768D01*
X23650237Y-32712299D01*
X23549991Y-32787430D01*
X23537430Y-32799991D01*
X23462299Y-32900237D01*
X23453767Y-32915823D01*
X23409414Y-33034133D01*
X23405789Y-33049379D01*
X23400369Y-33099271D01*
X23400000Y-33106085D01*
X23400000Y-33731885D01*
X23404475Y-33747124D01*
X23405865Y-33748329D01*
X23413548Y-33750000D01*
X26081885Y-33750000D01*
X26097124Y-33745525D01*
X26098329Y-33744135D01*
X26100000Y-33736452D01*
X26100000Y-33106085D01*
X26099631Y-33099271D01*
X26094211Y-33049379D01*
X26090586Y-33034133D01*
X26046233Y-32915823D01*
X26037701Y-32900237D01*
X25962570Y-32799991D01*
X25950009Y-32787430D01*
X25849763Y-32712299D01*
X25834179Y-32703768D01*
X25721583Y-32661557D01*
X25664819Y-32618915D01*
X25640119Y-32552354D01*
X25655327Y-32483005D01*
X25676873Y-32454324D01*
X25740456Y-32390963D01*
X25788096Y-32343489D01*
X25846389Y-32262366D01*
X25915435Y-32166277D01*
X25918453Y-32162077D01*
X25920912Y-32157103D01*
X26015136Y-31966453D01*
X26015137Y-31966451D01*
X26017430Y-31961811D01*
X26051019Y-31851256D01*
X26080865Y-31753023D01*
X26080865Y-31753021D01*
X26082370Y-31748069D01*
X26111529Y-31526590D01*
X26111848Y-31513548D01*
X26113074Y-31463365D01*
X26113074Y-31463361D01*
X26113156Y-31460000D01*
X26094852Y-31237361D01*
X26081894Y-31185774D01*
X43988102Y-31185774D01*
X43988302Y-31191103D01*
X43988302Y-31191105D01*
X43988808Y-31204570D01*
X43996751Y-31416158D01*
X44044093Y-31641791D01*
X44046051Y-31646750D01*
X44046052Y-31646752D01*
X44084039Y-31742939D01*
X44128776Y-31856221D01*
X44131543Y-31860780D01*
X44131544Y-31860783D01*
X44196432Y-31967715D01*
X44248377Y-32053317D01*
X44251874Y-32057347D01*
X44387169Y-32213261D01*
X44399477Y-32227445D01*
X44442068Y-32262367D01*
X44482062Y-32321026D01*
X44483994Y-32391996D01*
X44447250Y-32452745D01*
X44428480Y-32466945D01*
X44287196Y-32554374D01*
X44275795Y-32563410D01*
X44162582Y-32676821D01*
X44153570Y-32688232D01*
X44069484Y-32824646D01*
X44063337Y-32837827D01*
X44012749Y-32990343D01*
X44009882Y-33003719D01*
X44000328Y-33096966D01*
X44000000Y-33103383D01*
X44000000Y-33481885D01*
X44004475Y-33497124D01*
X44005865Y-33498329D01*
X44013548Y-33500000D01*
X46981884Y-33500000D01*
X46997123Y-33495525D01*
X46998328Y-33494135D01*
X46999999Y-33486452D01*
X46999999Y-33103433D01*
X46999661Y-33096913D01*
X46989860Y-33002440D01*
X46986969Y-32989049D01*
X46936118Y-32836632D01*
X46929944Y-32823453D01*
X46845626Y-32687196D01*
X46836590Y-32675795D01*
X46723179Y-32562582D01*
X46711768Y-32553570D01*
X46630216Y-32503301D01*
X54295095Y-32503301D01*
X54315047Y-32883996D01*
X54315733Y-32890534D01*
X54375371Y-33267068D01*
X54376742Y-33273518D01*
X54475406Y-33641741D01*
X54477446Y-33648018D01*
X54614062Y-34003915D01*
X54616738Y-34009926D01*
X54789811Y-34349600D01*
X54793107Y-34355309D01*
X55000729Y-34675018D01*
X55004611Y-34680361D01*
X55199695Y-34921269D01*
X55211953Y-34929737D01*
X55223043Y-34923404D01*
X57633635Y-32512812D01*
X57640013Y-32501132D01*
X58358751Y-32501132D01*
X58358882Y-32502965D01*
X58363133Y-32509580D01*
X60776091Y-34922538D01*
X60789167Y-34929678D01*
X60799536Y-34922220D01*
X60995389Y-34680361D01*
X60999271Y-34675018D01*
X61206893Y-34355309D01*
X61210189Y-34349600D01*
X61383262Y-34009926D01*
X61385938Y-34003915D01*
X61522554Y-33648018D01*
X61524594Y-33641741D01*
X61623258Y-33273518D01*
X61624629Y-33267068D01*
X61684267Y-32890534D01*
X61684953Y-32883996D01*
X61704905Y-32503301D01*
X276295095Y-32503301D01*
X276315047Y-32883996D01*
X276315733Y-32890534D01*
X276375371Y-33267068D01*
X276376742Y-33273518D01*
X276475406Y-33641741D01*
X276477446Y-33648018D01*
X276614062Y-34003915D01*
X276616738Y-34009926D01*
X276789811Y-34349600D01*
X276793107Y-34355309D01*
X277000729Y-34675018D01*
X277004611Y-34680361D01*
X277199695Y-34921269D01*
X277211953Y-34929737D01*
X277223043Y-34923404D01*
X279633635Y-32512812D01*
X279640013Y-32501132D01*
X280358751Y-32501132D01*
X280358882Y-32502965D01*
X280363133Y-32509580D01*
X282776091Y-34922538D01*
X282789167Y-34929678D01*
X282799536Y-34922220D01*
X282995389Y-34680361D01*
X282999271Y-34675018D01*
X283206893Y-34355309D01*
X283210189Y-34349600D01*
X283383262Y-34009926D01*
X283385938Y-34003915D01*
X283508061Y-33685774D01*
X291488102Y-33685774D01*
X291488302Y-33691103D01*
X291488302Y-33691105D01*
X291490293Y-33744135D01*
X291496751Y-33916158D01*
X291544093Y-34141791D01*
X291546051Y-34146750D01*
X291546052Y-34146752D01*
X291575804Y-34222087D01*
X291628776Y-34356221D01*
X291631543Y-34360780D01*
X291631544Y-34360783D01*
X291657183Y-34403034D01*
X291748377Y-34553317D01*
X291751874Y-34557347D01*
X291858620Y-34680361D01*
X291899477Y-34727445D01*
X291903608Y-34730832D01*
X292073627Y-34870240D01*
X292073633Y-34870244D01*
X292077755Y-34873624D01*
X292082391Y-34876263D01*
X292082394Y-34876265D01*
X292165206Y-34923404D01*
X292278114Y-34987675D01*
X292494825Y-35066337D01*
X292500074Y-35067286D01*
X292500077Y-35067287D01*
X292717608Y-35106623D01*
X292717615Y-35106624D01*
X292721692Y-35107361D01*
X292739414Y-35108197D01*
X292744356Y-35108430D01*
X292744363Y-35108430D01*
X292745844Y-35108500D01*
X293207890Y-35108500D01*
X293274809Y-35102822D01*
X293374409Y-35094371D01*
X293374413Y-35094370D01*
X293379720Y-35093920D01*
X293384875Y-35092582D01*
X293384881Y-35092581D01*
X293597703Y-35037343D01*
X293597707Y-35037342D01*
X293602872Y-35036001D01*
X293607738Y-35033809D01*
X293607741Y-35033808D01*
X293758565Y-34965867D01*
X293813075Y-34941312D01*
X294004319Y-34812559D01*
X294171135Y-34653424D01*
X294308754Y-34468458D01*
X294413240Y-34262949D01*
X294415872Y-34254475D01*
X294480024Y-34047871D01*
X294481607Y-34042773D01*
X294485480Y-34013548D01*
X294511198Y-33819511D01*
X294511198Y-33819506D01*
X294511898Y-33814226D01*
X294511646Y-33807497D01*
X294511459Y-33802522D01*
X311922719Y-33802522D01*
X311975146Y-33998181D01*
X311978892Y-34008473D01*
X312074074Y-34212591D01*
X312079557Y-34222087D01*
X312208731Y-34406567D01*
X312215787Y-34414975D01*
X312375025Y-34574213D01*
X312383433Y-34581269D01*
X312567913Y-34710443D01*
X312577408Y-34715926D01*
X312781527Y-34811108D01*
X312791819Y-34814854D01*
X312982503Y-34865948D01*
X312996599Y-34865612D01*
X313000000Y-34857670D01*
X313000000Y-34852521D01*
X313500000Y-34852521D01*
X313503973Y-34866052D01*
X313512522Y-34867281D01*
X313708181Y-34814854D01*
X313718473Y-34811108D01*
X313922592Y-34715926D01*
X313932087Y-34710443D01*
X314116567Y-34581269D01*
X314124975Y-34574213D01*
X314284213Y-34414975D01*
X314291269Y-34406567D01*
X314420443Y-34222087D01*
X314425926Y-34212591D01*
X314521108Y-34008473D01*
X314524854Y-33998181D01*
X314575948Y-33807497D01*
X314575612Y-33793401D01*
X314567670Y-33790000D01*
X313518115Y-33790000D01*
X313502876Y-33794475D01*
X313501671Y-33795865D01*
X313500000Y-33803548D01*
X313500000Y-34852521D01*
X313000000Y-34852521D01*
X313000000Y-33808115D01*
X312995525Y-33792876D01*
X312994135Y-33791671D01*
X312986452Y-33790000D01*
X311937479Y-33790000D01*
X311923948Y-33793973D01*
X311922719Y-33802522D01*
X294511459Y-33802522D01*
X294503449Y-33589173D01*
X294503249Y-33583842D01*
X294455907Y-33358209D01*
X294422060Y-33272503D01*
X294373185Y-33148744D01*
X294373184Y-33148742D01*
X294371224Y-33143779D01*
X294346742Y-33103433D01*
X294254390Y-32951243D01*
X294251623Y-32946683D01*
X294179122Y-32863133D01*
X294104023Y-32776588D01*
X294104021Y-32776586D01*
X294100523Y-32772555D01*
X294057932Y-32737633D01*
X294017938Y-32678974D01*
X294016006Y-32608004D01*
X294052750Y-32547255D01*
X294071520Y-32533055D01*
X294212804Y-32445626D01*
X294224205Y-32436590D01*
X294337418Y-32323179D01*
X294346430Y-32311768D01*
X294430516Y-32175354D01*
X294436663Y-32162173D01*
X294487251Y-32009657D01*
X294490118Y-31996281D01*
X294499672Y-31903034D01*
X294499922Y-31898134D01*
X311891500Y-31898134D01*
X311898255Y-31960316D01*
X311949385Y-32096705D01*
X312036739Y-32213261D01*
X312153295Y-32300615D01*
X312161703Y-32303767D01*
X312280549Y-32348321D01*
X312337313Y-32390963D01*
X312362013Y-32457525D01*
X312346805Y-32526873D01*
X312325414Y-32555398D01*
X312215787Y-32665025D01*
X312208731Y-32673433D01*
X312079557Y-32857913D01*
X312074074Y-32867409D01*
X311978892Y-33071527D01*
X311975146Y-33081819D01*
X311924052Y-33272503D01*
X311924388Y-33286599D01*
X311932330Y-33290000D01*
X314562521Y-33290000D01*
X314576052Y-33286027D01*
X314577281Y-33277478D01*
X314524854Y-33081819D01*
X314521108Y-33071527D01*
X314425926Y-32867409D01*
X314420443Y-32857913D01*
X314291269Y-32673433D01*
X314284213Y-32665025D01*
X314174586Y-32555398D01*
X314140560Y-32493086D01*
X314145625Y-32422271D01*
X314188172Y-32365435D01*
X314219451Y-32348321D01*
X314338297Y-32303767D01*
X314346705Y-32300615D01*
X314463261Y-32213261D01*
X314550615Y-32096705D01*
X314601745Y-31960316D01*
X314608500Y-31898134D01*
X314608500Y-30101866D01*
X314601745Y-30039684D01*
X314550615Y-29903295D01*
X314463261Y-29786739D01*
X314346705Y-29699385D01*
X314210316Y-29648255D01*
X314148134Y-29641500D01*
X312351866Y-29641500D01*
X312289684Y-29648255D01*
X312153295Y-29699385D01*
X312036739Y-29786739D01*
X311949385Y-29903295D01*
X311898255Y-30039684D01*
X311891500Y-30101866D01*
X311891500Y-31898134D01*
X294499922Y-31898134D01*
X294500000Y-31896618D01*
X294500000Y-31518115D01*
X294495525Y-31502876D01*
X294494135Y-31501671D01*
X294486452Y-31500000D01*
X291518116Y-31500000D01*
X291502877Y-31504475D01*
X291501672Y-31505865D01*
X291500001Y-31513548D01*
X291500001Y-31896567D01*
X291500339Y-31903087D01*
X291510140Y-31997560D01*
X291513031Y-32010951D01*
X291563882Y-32163368D01*
X291570056Y-32176547D01*
X291654374Y-32312804D01*
X291663410Y-32324205D01*
X291776821Y-32437418D01*
X291788232Y-32446430D01*
X291928698Y-32533014D01*
X291976191Y-32585786D01*
X291987615Y-32655858D01*
X291959341Y-32720981D01*
X291949554Y-32731444D01*
X291828865Y-32846576D01*
X291825682Y-32850854D01*
X291813365Y-32867409D01*
X291691246Y-33031542D01*
X291688830Y-33036293D01*
X291688828Y-33036297D01*
X291665684Y-33081819D01*
X291586760Y-33237051D01*
X291585178Y-33242145D01*
X291585177Y-33242148D01*
X291523115Y-33442020D01*
X291518393Y-33457227D01*
X291517692Y-33462516D01*
X291502304Y-33578623D01*
X291488102Y-33685774D01*
X283508061Y-33685774D01*
X283522554Y-33648018D01*
X283524594Y-33641741D01*
X283623258Y-33273518D01*
X283624629Y-33267068D01*
X283684267Y-32890534D01*
X283684953Y-32883996D01*
X283704905Y-32503301D01*
X283704905Y-32496699D01*
X283684953Y-32116004D01*
X283684267Y-32109466D01*
X283624629Y-31732932D01*
X283623258Y-31726482D01*
X283524594Y-31358259D01*
X283522554Y-31351982D01*
X283385938Y-30996085D01*
X283383262Y-30990074D01*
X283379089Y-30981885D01*
X291500000Y-30981885D01*
X291504475Y-30997124D01*
X291505865Y-30998329D01*
X291513548Y-31000000D01*
X292731885Y-31000000D01*
X292747124Y-30995525D01*
X292748329Y-30994135D01*
X292750000Y-30986452D01*
X292750000Y-30981885D01*
X293250000Y-30981885D01*
X293254475Y-30997124D01*
X293255865Y-30998329D01*
X293263548Y-31000000D01*
X294481884Y-31000000D01*
X294497123Y-30995525D01*
X294498328Y-30994135D01*
X294499999Y-30986452D01*
X294499999Y-30603433D01*
X294499661Y-30596913D01*
X294489860Y-30502440D01*
X294486969Y-30489049D01*
X294436118Y-30336632D01*
X294429944Y-30323453D01*
X294345626Y-30187196D01*
X294336590Y-30175795D01*
X294223179Y-30062582D01*
X294211768Y-30053570D01*
X294075354Y-29969484D01*
X294062173Y-29963337D01*
X293909657Y-29912749D01*
X293896281Y-29909882D01*
X293803034Y-29900328D01*
X293796617Y-29900000D01*
X293268115Y-29900000D01*
X293252876Y-29904475D01*
X293251671Y-29905865D01*
X293250000Y-29913548D01*
X293250000Y-30981885D01*
X292750000Y-30981885D01*
X292750000Y-29918116D01*
X292745525Y-29902877D01*
X292744135Y-29901672D01*
X292736452Y-29900001D01*
X292203433Y-29900001D01*
X292196913Y-29900339D01*
X292102440Y-29910140D01*
X292089049Y-29913031D01*
X291936632Y-29963882D01*
X291923453Y-29970056D01*
X291787196Y-30054374D01*
X291775795Y-30063410D01*
X291662582Y-30176821D01*
X291653570Y-30188232D01*
X291569484Y-30324646D01*
X291563337Y-30337827D01*
X291512749Y-30490343D01*
X291509882Y-30503719D01*
X291500328Y-30596966D01*
X291500000Y-30603383D01*
X291500000Y-30981885D01*
X283379089Y-30981885D01*
X283210189Y-30650400D01*
X283206893Y-30644691D01*
X282999271Y-30324982D01*
X282995389Y-30319639D01*
X282800305Y-30078731D01*
X282788047Y-30070263D01*
X282776957Y-30076596D01*
X280366365Y-32487188D01*
X280358751Y-32501132D01*
X279640013Y-32501132D01*
X279641249Y-32498868D01*
X279641118Y-32497035D01*
X279636867Y-32490420D01*
X277223909Y-30077462D01*
X277210833Y-30070322D01*
X277200464Y-30077780D01*
X277004611Y-30319639D01*
X277000729Y-30324982D01*
X276793107Y-30644691D01*
X276789811Y-30650400D01*
X276616738Y-30990074D01*
X276614062Y-30996085D01*
X276477446Y-31351982D01*
X276475406Y-31358259D01*
X276376742Y-31726482D01*
X276375371Y-31732932D01*
X276315733Y-32109466D01*
X276315047Y-32116004D01*
X276295095Y-32496699D01*
X276295095Y-32503301D01*
X61704905Y-32503301D01*
X61704905Y-32496699D01*
X61684953Y-32116004D01*
X61684267Y-32109466D01*
X61624629Y-31732932D01*
X61623258Y-31726482D01*
X61524594Y-31358259D01*
X61522554Y-31351982D01*
X61385938Y-30996085D01*
X61383262Y-30990074D01*
X61210189Y-30650400D01*
X61206893Y-30644691D01*
X60999271Y-30324982D01*
X60995389Y-30319639D01*
X60800305Y-30078731D01*
X60788047Y-30070263D01*
X60776957Y-30076596D01*
X58366365Y-32487188D01*
X58358751Y-32501132D01*
X57640013Y-32501132D01*
X57641249Y-32498868D01*
X57641118Y-32497035D01*
X57636867Y-32490420D01*
X55223909Y-30077462D01*
X55210833Y-30070322D01*
X55200464Y-30077780D01*
X55004611Y-30319639D01*
X55000729Y-30324982D01*
X54793107Y-30644691D01*
X54789811Y-30650400D01*
X54616738Y-30990074D01*
X54614062Y-30996085D01*
X54477446Y-31351982D01*
X54475406Y-31358259D01*
X54376742Y-31726482D01*
X54375371Y-31732932D01*
X54315733Y-32109466D01*
X54315047Y-32116004D01*
X54295095Y-32496699D01*
X54295095Y-32503301D01*
X46630216Y-32503301D01*
X46571302Y-32466986D01*
X46523809Y-32414214D01*
X46512385Y-32344142D01*
X46540659Y-32279019D01*
X46550446Y-32268556D01*
X46646896Y-32176547D01*
X46671135Y-32153424D01*
X46680194Y-32141249D01*
X46805568Y-31972740D01*
X46808754Y-31968458D01*
X46814653Y-31956857D01*
X46910822Y-31767704D01*
X46913240Y-31762949D01*
X46917861Y-31748069D01*
X46980024Y-31547871D01*
X46981607Y-31542773D01*
X46993022Y-31456646D01*
X47011198Y-31319511D01*
X47011198Y-31319506D01*
X47011898Y-31314226D01*
X47003249Y-31083842D01*
X46955907Y-30858209D01*
X46953948Y-30853248D01*
X46873185Y-30648744D01*
X46873184Y-30648742D01*
X46871224Y-30643779D01*
X46846742Y-30603433D01*
X46754390Y-30451243D01*
X46751623Y-30446683D01*
X46746375Y-30440635D01*
X46604023Y-30276588D01*
X46604021Y-30276586D01*
X46600523Y-30272555D01*
X46535375Y-30219137D01*
X46426373Y-30129760D01*
X46426367Y-30129756D01*
X46422245Y-30126376D01*
X46417609Y-30123737D01*
X46417606Y-30123735D01*
X46226529Y-30014968D01*
X46221886Y-30012325D01*
X46005175Y-29933663D01*
X45999926Y-29932714D01*
X45999923Y-29932713D01*
X45782392Y-29893377D01*
X45782385Y-29893376D01*
X45778308Y-29892639D01*
X45760586Y-29891803D01*
X45755644Y-29891570D01*
X45755637Y-29891570D01*
X45754156Y-29891500D01*
X45292110Y-29891500D01*
X45225191Y-29897178D01*
X45125591Y-29905629D01*
X45125587Y-29905630D01*
X45120280Y-29906080D01*
X45115125Y-29907418D01*
X45115119Y-29907419D01*
X44902297Y-29962657D01*
X44902293Y-29962658D01*
X44897128Y-29963999D01*
X44892262Y-29966191D01*
X44892259Y-29966192D01*
X44783980Y-30014968D01*
X44686925Y-30058688D01*
X44495681Y-30187441D01*
X44328865Y-30346576D01*
X44191246Y-30531542D01*
X44086760Y-30737051D01*
X44085178Y-30742145D01*
X44085177Y-30742148D01*
X44023115Y-30942020D01*
X44018393Y-30957227D01*
X44017692Y-30962516D01*
X44002304Y-31078623D01*
X43988102Y-31185774D01*
X26081894Y-31185774D01*
X26040431Y-31020702D01*
X25951354Y-30815840D01*
X25911906Y-30754862D01*
X25832822Y-30632617D01*
X25832820Y-30632614D01*
X25830014Y-30628277D01*
X25679670Y-30463051D01*
X25675619Y-30459852D01*
X25675615Y-30459848D01*
X25508414Y-30327800D01*
X25508410Y-30327798D01*
X25504359Y-30324598D01*
X25308789Y-30216638D01*
X25303920Y-30214914D01*
X25303916Y-30214912D01*
X25103087Y-30143795D01*
X25103083Y-30143794D01*
X25098212Y-30142069D01*
X25093119Y-30141162D01*
X25093116Y-30141161D01*
X24883373Y-30103800D01*
X24883367Y-30103799D01*
X24878284Y-30102894D01*
X24804452Y-30101992D01*
X24660081Y-30100228D01*
X24660079Y-30100228D01*
X24654911Y-30100165D01*
X24434091Y-30133955D01*
X24221756Y-30203357D01*
X24023607Y-30306507D01*
X24019474Y-30309610D01*
X24019471Y-30309612D01*
X23970240Y-30346576D01*
X23844965Y-30440635D01*
X23690629Y-30602138D01*
X23687715Y-30606410D01*
X23687714Y-30606411D01*
X23657707Y-30650400D01*
X23564743Y-30786680D01*
X23470688Y-30989305D01*
X23410989Y-31204570D01*
X23387251Y-31426695D01*
X14508500Y-31426695D01*
X14508500Y-29711953D01*
X55570263Y-29711953D01*
X55576596Y-29723043D01*
X57987188Y-32133635D01*
X58001132Y-32141249D01*
X58002965Y-32141118D01*
X58009580Y-32136867D01*
X60422538Y-29723909D01*
X60429066Y-29711953D01*
X277570263Y-29711953D01*
X277576596Y-29723043D01*
X279987188Y-32133635D01*
X280001132Y-32141249D01*
X280002965Y-32141118D01*
X280009580Y-32136867D01*
X282422538Y-29723909D01*
X282429678Y-29710833D01*
X282422220Y-29700464D01*
X282180361Y-29504611D01*
X282175018Y-29500729D01*
X281855309Y-29293107D01*
X281849600Y-29289811D01*
X281509926Y-29116738D01*
X281503915Y-29114062D01*
X281148018Y-28977446D01*
X281141741Y-28975406D01*
X280773518Y-28876742D01*
X280767068Y-28875371D01*
X280390534Y-28815733D01*
X280383996Y-28815047D01*
X280003301Y-28795095D01*
X279996699Y-28795095D01*
X279616004Y-28815047D01*
X279609466Y-28815733D01*
X279232932Y-28875371D01*
X279226482Y-28876742D01*
X278858259Y-28975406D01*
X278851982Y-28977446D01*
X278496085Y-29114062D01*
X278490074Y-29116738D01*
X278150400Y-29289811D01*
X278144691Y-29293107D01*
X277824982Y-29500729D01*
X277819639Y-29504611D01*
X277578731Y-29699695D01*
X277570263Y-29711953D01*
X60429066Y-29711953D01*
X60429678Y-29710833D01*
X60422220Y-29700464D01*
X60180361Y-29504611D01*
X60175018Y-29500729D01*
X59855309Y-29293107D01*
X59849600Y-29289811D01*
X59509926Y-29116738D01*
X59503915Y-29114062D01*
X59148018Y-28977446D01*
X59141741Y-28975406D01*
X58773518Y-28876742D01*
X58767068Y-28875371D01*
X58390534Y-28815733D01*
X58383996Y-28815047D01*
X58003301Y-28795095D01*
X57996699Y-28795095D01*
X57616004Y-28815047D01*
X57609466Y-28815733D01*
X57232932Y-28875371D01*
X57226482Y-28876742D01*
X56858259Y-28975406D01*
X56851982Y-28977446D01*
X56496085Y-29114062D01*
X56490074Y-29116738D01*
X56150400Y-29289811D01*
X56144691Y-29293107D01*
X55824982Y-29500729D01*
X55819639Y-29504611D01*
X55578731Y-29699695D01*
X55570263Y-29711953D01*
X14508500Y-29711953D01*
X14508500Y-28762819D01*
X14528502Y-28694698D01*
X14545404Y-28673724D01*
X15673722Y-27545404D01*
X15736035Y-27511379D01*
X15762818Y-27508499D01*
X169001469Y-27508500D01*
G37*
%TD.AperFunction*%
%TD*%
M02*
