M48
; DRILL file {KiCad (6.0.7)} date Mon Feb  6 12:57:25 2023
; FORMAT={-:-/ absolute / metric / decimal}
; #@! TF.CreationDate,2023-02-06T12:57:25+00:00
; #@! TF.GenerationSoftware,Kicad,Pcbnew,(6.0.7)
; #@! TF.FileFunction,Plated,1,2,PTH
FMAT,2
METRIC
; #@! TA.AperFunction,Plated,PTH,ViaDrill
T1C0.400
; #@! TA.AperFunction,Plated,PTH,ComponentDrill
T2C0.500
; #@! TA.AperFunction,Plated,PTH,ComponentDrill
T3C1.000
; #@! TA.AperFunction,Plated,PTH,ComponentDrill
T4C3.200
%
G90
G05
T1
X16.0Y-36.0
X18.5Y-36.0
X21.0Y-36.0
X34.5Y-36.0
X37.0Y-36.0
X39.5Y-36.0
X49.0Y-36.0
X52.0Y-36.0
X64.0Y-36.0
X69.0Y-36.0
X74.0Y-36.0
X79.0Y-36.0
X84.0Y-36.0
X89.0Y-36.0
X94.0Y-36.0
X99.0Y-36.0
X104.0Y-36.0
X109.0Y-36.0
X114.0Y-36.0
X119.0Y-36.0
X124.0Y-36.0
X129.0Y-36.0
X134.0Y-36.0
X139.0Y-36.0
X144.0Y-36.0
X149.0Y-36.0
X154.0Y-36.0
X159.0Y-36.0
X164.0Y-36.0
X169.0Y-36.0
X174.0Y-36.0
X179.0Y-36.0
X184.0Y-36.0
X189.0Y-36.0
X194.0Y-36.0
X199.0Y-36.0
X204.0Y-36.0
X209.0Y-36.0
X214.0Y-36.0
X219.0Y-36.0
X224.0Y-36.0
X229.0Y-36.0
X234.0Y-36.0
X239.0Y-36.0
X244.0Y-36.0
X249.0Y-36.0
X254.0Y-36.0
X259.0Y-36.0
X264.0Y-36.0
X269.0Y-36.0
X274.0Y-36.0
X285.0Y-36.0
X288.0Y-36.0
X297.0Y-36.0
X299.5Y-36.0
X302.0Y-36.0
X315.5Y-36.0
X318.0Y-36.0
X320.5Y-36.0
T2
X55.6Y-32.5
X56.303Y-30.803
X56.303Y-34.197
X58.0Y-30.1
X58.0Y-34.9
X59.697Y-30.803
X59.697Y-34.197
X60.4Y-32.5
X277.6Y-32.5
X278.303Y-30.803
X278.303Y-34.197
X280.0Y-30.1
X280.0Y-34.9
X281.697Y-30.803
X281.697Y-34.197
X282.4Y-32.5
T3
X24.75Y-31.46
X24.75Y-34.0
X45.5Y-31.25
X45.5Y-33.75
X293.0Y-31.25
X293.0Y-33.75
X313.25Y-31.0
X313.25Y-33.54
T4
X58.0Y-32.5
X280.0Y-32.5
T0
M30
