%TF.GenerationSoftware,KiCad,Pcbnew,(6.0.7)*%
%TF.CreationDate,2023-02-06T12:57:23+00:00*%
%TF.ProjectId,Dayspring,44617973-7072-4696-9e67-2e6b69636164,rev?*%
%TF.SameCoordinates,Original*%
%TF.FileFunction,Soldermask,Top*%
%TF.FilePolarity,Negative*%
%FSLAX46Y46*%
G04 Gerber Fmt 4.6, Leading zero omitted, Abs format (unit mm)*
G04 Created by KiCad (PCBNEW (6.0.7)) date 2023-02-06 12:57:23*
%MOMM*%
%LPD*%
G01*
G04 APERTURE LIST*
G04 Aperture macros list*
%AMRoundRect*
0 Rectangle with rounded corners*
0 $1 Rounding radius*
0 $2 $3 $4 $5 $6 $7 $8 $9 X,Y pos of 4 corners*
0 Add a 4 corners polygon primitive as box body*
4,1,4,$2,$3,$4,$5,$6,$7,$8,$9,$2,$3,0*
0 Add four circle primitives for the rounded corners*
1,1,$1+$1,$2,$3*
1,1,$1+$1,$4,$5*
1,1,$1+$1,$6,$7*
1,1,$1+$1,$8,$9*
0 Add four rect primitives between the rounded corners*
20,1,$1+$1,$2,$3,$4,$5,0*
20,1,$1+$1,$4,$5,$6,$7,0*
20,1,$1+$1,$6,$7,$8,$9,0*
20,1,$1+$1,$8,$9,$2,$3,0*%
G04 Aperture macros list end*
%ADD10RoundRect,0.250000X0.625000X-0.312500X0.625000X0.312500X-0.625000X0.312500X-0.625000X-0.312500X0*%
%ADD11C,0.800000*%
%ADD12C,6.400000*%
%ADD13R,2.200000X2.200000*%
%ADD14R,2.200000X1.250000*%
%ADD15R,1.700000X1.700000*%
%ADD16O,1.700000X1.700000*%
%ADD17RoundRect,0.250000X0.750000X-0.600000X0.750000X0.600000X-0.750000X0.600000X-0.750000X-0.600000X0*%
%ADD18O,2.000000X1.700000*%
%ADD19RoundRect,0.250000X-0.750000X0.600000X-0.750000X-0.600000X0.750000X-0.600000X0.750000X0.600000X0*%
G04 APERTURE END LIST*
D10*
%TO.C,R4*%
X297750000Y-33962500D03*
X297750000Y-31037500D03*
%TD*%
D11*
%TO.C,H2*%
X278302944Y-34197056D03*
X281697056Y-34197056D03*
X282400000Y-32500000D03*
D12*
X280000000Y-32500000D03*
D11*
X278302944Y-30802944D03*
X280000000Y-30100000D03*
X280000000Y-34900000D03*
X277600000Y-32500000D03*
X281697056Y-30802944D03*
%TD*%
D13*
%TO.C,D5*%
X139400000Y-33400000D03*
D14*
X139400000Y-31125000D03*
%TD*%
D10*
%TO.C,R6*%
X191000000Y-33962500D03*
X191000000Y-31037500D03*
%TD*%
D13*
%TO.C,D18*%
X302200000Y-33400000D03*
D14*
X302200000Y-31125000D03*
%TD*%
D13*
%TO.C,D19*%
X109800000Y-33400000D03*
D14*
X109800000Y-31125000D03*
%TD*%
D13*
%TO.C,D15*%
X287400000Y-33400000D03*
D14*
X287400000Y-31125000D03*
%TD*%
D13*
%TO.C,D3*%
X228200000Y-33400000D03*
D14*
X228200000Y-31125000D03*
%TD*%
D13*
%TO.C,D4*%
X35800000Y-33400000D03*
D14*
X35800000Y-31125000D03*
%TD*%
D13*
%TO.C,D14*%
X183800000Y-33400000D03*
D14*
X183800000Y-31125000D03*
%TD*%
D13*
%TO.C,D11*%
X169000000Y-33400000D03*
D14*
X169000000Y-31125000D03*
%TD*%
D13*
%TO.C,D17*%
X198600000Y-33400000D03*
D14*
X198600000Y-31125000D03*
%TD*%
D13*
%TO.C,D21*%
X317000000Y-33400000D03*
D14*
X317000000Y-31125000D03*
%TD*%
D13*
%TO.C,D10*%
X65400000Y-33400000D03*
D14*
X65400000Y-31125000D03*
%TD*%
D12*
%TO.C,H1*%
X58000000Y-32500000D03*
D11*
X56302944Y-30802944D03*
X58000000Y-30100000D03*
X58000000Y-34900000D03*
X59697056Y-30802944D03*
X55600000Y-32500000D03*
X60400000Y-32500000D03*
X59697056Y-34197056D03*
X56302944Y-34197056D03*
%TD*%
D13*
%TO.C,D16*%
X95000000Y-33400000D03*
D14*
X95000000Y-31125000D03*
%TD*%
D13*
%TO.C,D1*%
X21000000Y-33400000D03*
D14*
X21000000Y-31125000D03*
%TD*%
D13*
%TO.C,D13*%
X80200000Y-33400000D03*
D14*
X80200000Y-31125000D03*
%TD*%
D13*
%TO.C,D2*%
X124600000Y-33400000D03*
D14*
X124600000Y-31125000D03*
%TD*%
D13*
%TO.C,D9*%
X257800000Y-33400000D03*
D14*
X257800000Y-31125000D03*
%TD*%
D10*
%TO.C,R1*%
X40500000Y-33962500D03*
X40500000Y-31037500D03*
%TD*%
D13*
%TO.C,D8*%
X154200000Y-33400000D03*
D14*
X154200000Y-31125000D03*
%TD*%
D13*
%TO.C,D7*%
X50600000Y-33400000D03*
D14*
X50600000Y-31125000D03*
%TD*%
D10*
%TO.C,R2*%
X250250000Y-33962500D03*
X250250000Y-31037500D03*
%TD*%
%TO.C,R3*%
X147000000Y-33962500D03*
X147000000Y-31037500D03*
%TD*%
D13*
%TO.C,D6*%
X243000000Y-33400000D03*
D14*
X243000000Y-31125000D03*
%TD*%
D13*
%TO.C,D12*%
X272600000Y-33400000D03*
D14*
X272600000Y-31125000D03*
%TD*%
D13*
%TO.C,D20*%
X213400000Y-33400000D03*
D14*
X213400000Y-31125000D03*
%TD*%
D10*
%TO.C,R5*%
X87250000Y-33962500D03*
X87250000Y-31037500D03*
%TD*%
D15*
%TO.C,J4*%
X313250000Y-31000000D03*
D16*
X313250000Y-33540000D03*
%TD*%
D17*
%TO.C,J1*%
X45500000Y-33750000D03*
D18*
X45500000Y-31250000D03*
%TD*%
D19*
%TO.C,J3*%
X293000000Y-31250000D03*
D18*
X293000000Y-33750000D03*
%TD*%
D15*
%TO.C,J2*%
X24750000Y-34000000D03*
D16*
X24750000Y-31460000D03*
%TD*%
M02*
